<?xml version="1.0" encoding="UTF-8" standalone="no"?>
<svg xmlns:ffdec="https://www.free-decompiler.com/flash" xmlns:xlink="http://www.w3.org/1999/xlink" ffdec:objectType="shape" height="46.95px" width="30.7px" xmlns="http://www.w3.org/2000/svg">
  <g transform="matrix(1.0, 0.0, 0.0, 1.0, 15.35, 23.5)">
    <path d="M-10.35 -4.35 Q-6.3 -6.45 -4.8 -14.3 -4.0 -18.5 -2.65 -18.5 L2.3 -17.55 4.6 -17.15 5.95 -16.8 Q10.35 -16.6 10.35 -13.15 10.35 -12.55 8.25 -9.7 6.7 -7.4 6.7 -7.0 5.35 -2.25 6.5 8.3 L7.1 12.7 Q7.85 18.8 1.15 18.45 -3.45 18.25 -3.25 12.15 L-2.85 7.55 Q-1.9 -2.4 -2.85 -4.15 -8.2 -1.1 -10.35 -4.35 Z" fill="none" stroke="#ffff7f" stroke-linecap="round" stroke-linejoin="round" stroke-width="10.0"/>
    <path d="M5.95 -16.75 Q10.35 -16.55 10.35 -13.1 10.35 -12.5 8.25 -9.65 6.7 -7.35 6.7 -6.95 5.35 -2.2 6.5 8.35 L7.1 12.75 Q7.85 18.85 1.15 18.5 -3.45 18.3 -3.25 12.2 L-2.85 7.6 Q-1.9 -2.35 -2.85 -4.1 -8.2 -1.05 -10.35 -4.3 -6.3 -6.4 -4.8 -14.25 -4.0 -18.45 -2.65 -18.45 L2.3 -17.5 4.6 -17.1 5.95 -16.75 Z" fill="none" stroke="#560505" stroke-linecap="round" stroke-linejoin="round" stroke-width="5.0"/>
    <path d="M7.4 -8.35 L5.8 -9.7 5.5 -10.0 Q2.95 -12.75 2.75 -16.45 L2.7 -17.2 2.7 -17.4 4.6 -17.1 5.95 -16.75 Q10.35 -16.55 10.35 -13.1 10.35 -12.5 8.25 -9.65 L7.4 -8.35 M-2.05 -18.4 L-2.05 -17.55 -2.05 -17.35 -2.05 -16.95 -2.25 -15.3 -2.4 -14.75 -2.75 -13.55 -2.8 -13.5 Q-3.5 -11.8 -4.8 -10.35 L-5.15 -10.05 -5.4 -9.8 -6.35 -9.0 Q-5.4 -11.2 -4.8 -14.25 -4.0 -18.45 -2.65 -18.45 L-2.05 -18.4 M-8.8 -5.35 Q-7.15 -4.75 -5.8 -3.35 L-5.55 -3.1 -5.4 -2.95 Q-8.75 -1.9 -10.35 -4.3 L-8.8 -5.35 M-3.1 10.25 L-1.7 10.4 -0.75 10.65 0.4 11.05 1.4 11.6 Q2.55 12.25 3.6 13.3 L3.7 13.4 3.85 13.55 4.0 13.75 4.4 14.2 5.0 14.95 6.1 17.15 Q4.6 18.7 1.15 18.5 -2.9 18.3 -3.2 13.6 L-3.25 12.2 -3.1 10.25 M7.2 13.8 L7.1 13.75 6.85 13.55 6.6 13.4 6.55 13.35 5.15 12.15 4.85 11.85 3.5 10.05 3.4 9.9 3.1 9.35 2.55 7.95 2.45 7.6 2.3 6.9 2.2 6.35 2.05 4.7 2.05 4.65 2.1 3.8 2.1 3.65 Q2.25 1.65 3.1 -0.05 3.85 -1.55 5.15 -2.85 L6.15 -3.7 Q5.75 0.35 6.35 6.8 L6.5 8.35 7.1 12.75 7.2 13.55 7.2 13.8" fill="#ff6600" fill-rule="evenodd" stroke="none"/>
    <path d="M2.7 -17.4 L2.7 -17.2 2.75 -16.45 Q2.95 -12.75 5.5 -10.0 L5.8 -9.7 7.4 -8.35 6.7 -6.95 Q6.3 -5.6 6.15 -3.7 L5.15 -2.85 Q3.85 -1.55 3.1 -0.05 2.25 1.65 2.1 3.65 L2.1 3.8 2.05 4.65 2.05 4.7 2.2 6.35 2.3 6.9 2.45 7.6 2.55 7.95 3.1 9.35 3.4 9.9 3.5 10.05 4.85 11.85 5.15 12.15 6.55 13.35 6.6 13.4 6.85 13.55 7.1 13.75 7.2 13.8 Q7.2 16.0 6.1 17.15 L5.0 14.95 4.4 14.2 4.0 13.75 3.85 13.55 3.7 13.4 3.6 13.3 Q2.55 12.25 1.4 11.6 L0.4 11.05 -0.75 10.65 -1.7 10.4 -3.1 10.25 -2.85 7.6 -2.8 6.95 Q-1.95 -2.4 -2.85 -4.1 -4.25 -3.3 -5.4 -2.95 L-5.55 -3.1 -5.8 -3.35 Q-7.15 -4.75 -8.8 -5.35 -7.4 -6.7 -6.35 -9.0 L-5.4 -9.8 -5.15 -10.05 -4.8 -10.35 Q-3.5 -11.8 -2.8 -13.5 L-2.75 -13.55 -2.4 -14.75 -2.25 -15.3 -2.05 -16.95 -2.05 -17.35 -2.05 -17.55 -2.05 -18.4 2.3 -17.5 2.7 -17.4" fill="#ffcc00" fill-rule="evenodd" stroke="none"/>
  </g>
</svg>
