<?xml version="1.0" encoding="UTF-8" standalone="no"?>
<svg xmlns:ffdec="https://www.free-decompiler.com/flash" xmlns:xlink="http://www.w3.org/1999/xlink" ffdec:objectType="shape" height="48.0px" width="45.4px" xmlns="http://www.w3.org/2000/svg">
  <g transform="matrix(1.0, 0.0, 0.0, 1.0, 22.7, 24.0)">
    <path d="M-12.9 -4.7 Q-15.4 -14.3 3.15 -18.9 10.25 -19.85 16.0 -13.15 18.3 -9.9 17.5 -6.65 16.75 -3.75 7.0 1.0 -5.65 7.35 -8.15 12.15 5.25 8.3 9.3 8.7 11.95 9.65 12.75 13.1 13.3 15.75 10.8 16.9 5.45 18.65 -8.15 19.0 -18.1 18.8 -17.7 12.3 -17.15 8.7 -1.8 -3.0 5.85 -8.75 5.85 -9.5 4.1 -11.8 -4.3 -10.1 -10.6 -8.55 -12.9 -4.7 Z" fill="none" stroke="#ffff7f" stroke-linecap="round" stroke-linejoin="round" stroke-width="10.0"/>
    <path d="M17.5 -6.65 Q16.75 -3.75 7.0 1.0 -5.65 7.35 -8.15 12.15 5.25 8.3 9.3 8.7 11.95 9.65 12.75 13.1 13.3 15.75 10.8 16.9 5.45 18.65 -8.15 19.0 -18.1 18.8 -17.7 12.3 -17.15 8.7 -1.8 -3.0 5.85 -8.75 5.85 -9.5 4.1 -11.8 -4.3 -10.1 -10.6 -8.55 -12.9 -4.7 -15.4 -14.3 3.15 -18.9 10.25 -19.85 16.0 -13.15 18.3 -9.9 17.5 -6.65 Z" fill="none" stroke="#560505" stroke-linecap="round" stroke-linejoin="round" stroke-width="5.0"/>
    <path d="M17.65 -7.5 Q16.2 -6.85 14.55 -6.65 L14.5 -6.65 14.0 -6.6 13.3 -6.6 12.9 -6.6 11.6 -6.7 Q8.3 -7.2 5.8 -9.7 L5.5 -10.0 Q2.95 -12.75 2.75 -16.45 L2.7 -17.2 2.75 -17.9 2.75 -18.0 2.8 -18.6 2.8 -18.8 3.15 -18.9 Q10.25 -19.85 16.0 -13.15 18.0 -10.3 17.65 -7.5 M-2.05 -17.35 L-2.05 -16.95 Q-2.15 -15.8 -2.4 -14.75 L-2.75 -13.55 Q-3.5 -11.85 -4.8 -10.35 L-5.15 -10.05 -5.4 -9.8 Q-8.75 -8.8 -10.85 -7.05 L-11.4 -7.0 -12.65 -6.95 -13.2 -6.95 Q-13.15 -13.45 -2.05 -17.35 M-4.15 -1.2 L-3.5 0.5 -3.35 1.3 Q-3.2 2.05 -3.2 2.9 L-3.2 3.2 -3.2 3.4 -3.25 3.9 -3.4 5.0 -3.65 5.8 -4.1 6.95 -4.5 7.6 -5.8 9.15 -7.05 10.2 Q-8.8 11.45 -11.0 11.7 L-12.05 11.75 Q-14.35 11.75 -16.2 10.75 L-16.75 10.4 Q-15.8 8.95 -13.7 6.95 -10.35 3.65 -4.15 -1.2 M-14.15 17.95 L-14.0 17.55 -13.6 16.5 -12.25 14.3 -11.8 13.75 -11.4 13.3 -9.55 11.8 Q-8.45 11.1 -7.2 10.7 L-8.15 12.15 -1.7 10.4 -0.75 10.65 0.4 11.05 1.4 11.6 Q2.55 12.25 3.6 13.3 L3.7 13.4 4.0 13.75 4.4 14.2 5.0 14.95 6.15 17.25 6.25 17.55 6.35 17.9 -8.15 19.0 Q-11.85 18.9 -14.15 17.95 M2.1 3.65 Q2.25 1.65 3.1 -0.05 3.85 -1.55 5.15 -2.85 L7.1 -4.4 Q8.25 -5.1 9.55 -5.5 L11.4 -5.85 11.45 -5.85 12.65 -5.95 14.1 -5.85 16.65 -5.2 Q14.5 -2.65 7.0 1.0 4.3 2.35 2.1 3.65 M12.6 15.25 L11.6 15.2 11.4 15.2 8.6 14.5 7.95 14.2 7.1 13.75 6.6 13.4 6.55 13.35 5.15 12.15 4.85 11.85 3.5 10.05 3.4 9.9 3.1 9.35 Q7.3 8.5 9.3 8.7 11.95 9.65 12.75 13.1 L12.85 13.7 Q12.9 14.55 12.6 15.25 M-13.1 -5.85 L-12.5 -5.9 -12.05 -5.95 -12.0 -5.95 -12.9 -4.7 -13.1 -5.85" fill="#ff6600" fill-rule="evenodd" stroke="none"/>
    <path d="M2.8 -18.8 L2.8 -18.6 2.75 -18.0 2.75 -17.9 2.7 -17.2 2.75 -16.45 Q2.95 -12.75 5.5 -10.0 L5.8 -9.7 Q8.3 -7.2 11.6 -6.7 L12.9 -6.6 13.3 -6.6 14.0 -6.6 14.5 -6.65 14.55 -6.65 Q16.2 -6.85 17.65 -7.5 L17.5 -6.65 Q17.35 -5.95 16.65 -5.2 L14.1 -5.85 12.65 -5.95 11.45 -5.85 11.4 -5.85 9.55 -5.5 Q8.25 -5.1 7.1 -4.4 L5.15 -2.85 Q3.85 -1.55 3.1 -0.05 2.25 1.65 2.1 3.65 -0.9 5.35 -3.1 6.95 -5.8 8.95 -7.2 10.7 -8.45 11.1 -9.55 11.8 L-11.4 13.3 -11.8 13.75 -12.25 14.3 -13.6 16.5 -14.0 17.55 -14.15 17.95 Q-17.2 16.65 -17.65 13.75 L-17.7 12.3 Q-17.6 11.5 -16.75 10.4 L-16.2 10.75 Q-14.35 11.75 -12.05 11.75 L-11.0 11.7 Q-8.8 11.45 -7.05 10.2 L-5.8 9.15 -4.5 7.6 -4.1 6.95 -3.65 5.8 -3.4 5.0 -3.25 3.9 -3.2 3.4 -3.2 3.2 -3.2 2.9 Q-3.2 2.05 -3.35 1.3 L-3.5 0.5 -4.15 -1.2 -1.8 -3.0 Q5.85 -8.75 5.85 -9.5 4.1 -11.8 -4.3 -10.1 L-5.4 -9.8 -5.15 -10.05 -4.8 -10.35 Q-3.5 -11.85 -2.75 -13.55 L-2.4 -14.75 Q-2.15 -15.8 -2.05 -16.95 L-2.05 -17.35 2.8 -18.8 M6.35 17.9 L6.25 17.55 6.15 17.25 5.0 14.95 4.4 14.2 4.0 13.75 3.7 13.4 3.6 13.3 Q2.55 12.25 1.4 11.6 L0.4 11.05 -0.75 10.65 -1.7 10.4 3.1 9.35 3.4 9.9 3.5 10.05 4.85 11.85 5.15 12.15 6.55 13.35 6.6 13.4 7.1 13.75 7.95 14.2 8.6 14.5 11.4 15.2 11.6 15.2 12.6 15.25 Q12.15 16.3 10.8 16.9 L6.35 17.9 M-13.2 -6.95 L-12.65 -6.95 -11.4 -7.0 -10.85 -7.05 -12.0 -5.95 -12.05 -5.95 -12.5 -5.9 -13.1 -5.85 -13.2 -6.95" fill="#ffcc00" fill-rule="evenodd" stroke="none"/>
  </g>
</svg>
