<?xml version="1.0" encoding="UTF-8" standalone="no"?>
<svg xmlns:ffdec="https://www.free-decompiler.com/flash" xmlns:xlink="http://www.w3.org/1999/xlink" ffdec:objectType="shape" height="47.35px" width="44.5px" xmlns="http://www.w3.org/2000/svg">
  <g transform="matrix(1.0, 0.0, 0.0, 1.0, 22.25, 23.65)">
    <path d="M-13.0 -5.25 Q-15.1 -15.2 2.5 -18.65 13.4 -18.1 15.15 -9.65 14.75 -3.35 7.85 -1.8 16.65 -1.45 17.25 6.4 16.85 16.35 -0.2 18.45 -18.2 20.0 -17.2 12.55 -12.45 15.6 -3.8 13.7 4.4 11.4 4.6 7.0 2.7 2.8 -8.2 4.3 -12.25 5.25 -12.25 1.45 -12.45 -0.3 -6.3 -2.75 2.1 -6.6 2.1 -10.05 1.35 -12.35 -4.2 -10.6 -11.3 -8.15 -13.0 -5.25 Z" fill="none" stroke="#ffff7f" stroke-linecap="round" stroke-linejoin="round" stroke-width="10.0"/>
    <path d="M7.85 -1.8 Q16.65 -1.45 17.25 6.4 16.85 16.35 -0.2 18.45 -18.2 20.0 -17.2 12.55 -12.45 15.6 -3.8 13.7 4.4 11.4 4.6 7.0 2.7 2.8 -8.2 4.3 -12.25 5.25 -12.25 1.45 -12.45 -0.3 -6.3 -2.75 2.1 -6.6 2.1 -10.05 1.35 -12.35 -4.2 -10.6 -11.3 -8.15 -13.0 -5.25 -15.1 -15.2 2.5 -18.65 13.4 -18.1 15.15 -9.65 14.75 -3.35 7.85 -1.8 Z" fill="none" stroke="#560505" stroke-linecap="round" stroke-linejoin="round" stroke-width="5.0"/>
    <path d="M-2.05 -17.55 L2.5 -18.65 2.8 -18.6 2.75 -18.0 2.75 -17.9 2.7 -17.2 2.75 -16.45 Q2.95 -12.75 5.5 -10.0 L5.8 -9.7 Q8.3 -7.2 11.6 -6.7 L13.3 -6.6 14.5 -6.65 14.1 -5.85 12.65 -5.95 11.45 -5.85 11.4 -5.85 9.55 -5.5 Q8.25 -5.1 7.1 -4.4 L5.15 -2.85 Q3.85 -1.55 3.1 -0.05 2.25 1.75 2.1 3.8 L2.05 4.65 2.05 4.7 Q0.05 3.85 -3.25 3.9 L-3.2 3.4 -3.2 3.2 -3.2 2.9 Q-3.2 2.05 -3.35 1.3 L-3.5 0.5 -4.4 -1.7 -4.6 -2.0 -5.55 -3.1 Q2.1 -6.75 2.1 -10.05 1.35 -12.35 -4.2 -10.6 L-4.8 -10.35 Q-3.05 -12.3 -2.4 -14.75 -2.15 -15.8 -2.05 -16.95 L-2.05 -17.55 M11.4 15.2 Q9.2 16.4 6.15 17.25 L5.0 14.95 4.4 14.2 3.7 13.4 3.6 13.3 Q2.55 12.25 1.4 11.6 L3.4 9.9 3.5 10.05 4.85 11.85 5.15 12.15 6.55 13.35 6.6 13.4 7.95 14.2 8.6 14.5 11.4 15.2 M-14.0 17.55 Q-17.25 16.2 -17.25 13.3 L-17.2 12.55 -15.8 13.3 Q-14.2 14.0 -12.25 14.3 L-13.6 16.5 -14.0 17.55 M-11.4 -7.0 L-12.5 -5.9 -13.0 -5.25 -13.1 -5.85 -13.2 -6.95 -12.65 -6.95 -11.4 -7.0" fill="#ffcc00" fill-rule="evenodd" stroke="none"/>
    <path d="M2.8 -18.6 Q13.4 -18.0 15.15 -9.65 15.05 -8.0 14.5 -6.65 L13.3 -6.6 11.6 -6.7 Q8.3 -7.2 5.8 -9.7 L5.5 -10.0 Q2.95 -12.75 2.75 -16.45 L2.7 -17.2 2.75 -17.9 2.75 -18.0 2.8 -18.6 M14.1 -5.85 Q12.35 -2.8 7.85 -1.8 16.65 -1.45 17.25 6.4 L17.25 6.6 Q17.0 10.65 13.95 13.4 L11.4 15.2 8.6 14.5 7.95 14.2 6.6 13.4 6.55 13.35 5.15 12.15 4.85 11.85 3.5 10.05 3.4 9.9 Q4.5 8.6 4.6 7.0 L4.4 6.6 Q3.65 5.35 2.05 4.7 L2.05 4.65 2.1 3.8 Q2.25 1.75 3.1 -0.05 3.85 -1.55 5.15 -2.85 L7.1 -4.4 Q8.25 -5.1 9.55 -5.5 L11.4 -5.85 11.45 -5.85 12.65 -5.95 14.1 -5.85 M6.15 17.25 L-0.2 18.45 Q-9.8 19.25 -14.0 17.55 L-13.6 16.5 -12.25 14.3 Q-8.65 14.8 -3.8 13.7 L-2.65 13.35 Q-0.2 12.55 1.4 11.6 2.55 12.25 3.6 13.3 L3.7 13.4 4.4 14.2 5.0 14.95 6.15 17.25 M-3.25 3.9 L-8.2 4.3 Q-12.25 5.25 -12.25 1.45 -12.45 -0.3 -6.3 -2.75 L-5.55 -3.1 -4.6 -2.0 -4.4 -1.7 -3.5 0.5 -3.35 1.3 Q-3.2 2.05 -3.2 2.9 L-3.2 3.2 -3.2 3.4 -3.25 3.9 M-4.8 -10.35 Q-9.25 -8.8 -11.4 -7.0 L-12.65 -6.95 -13.2 -6.95 Q-13.5 -14.2 -2.05 -17.55 L-2.05 -16.95 Q-2.15 -15.8 -2.4 -14.75 -3.05 -12.3 -4.8 -10.35" fill="#ff6600" fill-rule="evenodd" stroke="none"/>
  </g>
</svg>
