<?xml version="1.0" encoding="UTF-8" standalone="no"?>
<svg xmlns:ffdec="https://www.free-decompiler.com/flash" xmlns:xlink="http://www.w3.org/1999/xlink" ffdec:objectType="shape" height="46.95px" width="43.7px" xmlns="http://www.w3.org/2000/svg">
  <g transform="matrix(1.0, 0.0, 0.0, 1.0, 21.85, 23.45)">
    <path d="M5.9 -17.5 Q16.05 -17.9 16.65 -14.25 17.0 -11.4 14.35 -10.8 L7.45 -10.05 -0.4 -9.85 Q-1.55 -8.5 -2.9 -2.55 L0.95 -3.7 Q15.85 -7.15 16.85 6.4 15.1 18.1 -1.35 18.5 -16.5 17.9 -16.85 12.95 -16.65 9.3 -12.85 9.3 L-9.2 9.85 -1.35 10.65 Q9.55 10.45 8.0 2.8 L7.65 2.6 -0.95 4.5 -2.9 4.9 Q-15.7 7.0 -13.4 -2.55 -12.45 -5.45 -10.15 -9.25 -14.55 -9.65 -14.95 -14.45 -15.15 -16.55 -13.6 -18.45 -13.6 -15.4 -7.5 -16.55 L4.75 -17.3 5.9 -17.5 Z" fill="none" stroke="#ffff7f" stroke-linecap="round" stroke-linejoin="round" stroke-width="10.0"/>
    <path d="M16.65 -14.25 Q17.0 -11.4 14.35 -10.8 L7.45 -10.05 -0.4 -9.85 Q-1.55 -8.5 -2.9 -2.55 L0.95 -3.7 Q15.85 -7.15 16.85 6.4 15.1 18.1 -1.35 18.5 -16.5 17.9 -16.85 12.95 -16.65 9.3 -12.85 9.3 L-9.2 9.85 -1.35 10.65 Q9.55 10.45 8.0 2.8 L7.65 2.6 -0.95 4.5 -2.9 4.9 Q-15.7 7.0 -13.4 -2.55 -12.45 -5.45 -10.15 -9.25 -14.55 -9.65 -14.95 -14.45 -15.15 -16.55 -13.6 -18.45 -13.6 -15.4 -7.5 -16.55 L4.75 -17.3 5.9 -17.5 Q16.05 -17.9 16.65 -14.25 Z" fill="none" stroke="#660000" stroke-linecap="round" stroke-linejoin="round" stroke-width="5.0"/>
    <path d="M2.7 -17.2 L3.4 -17.25 4.75 -17.3 5.9 -17.5 6.15 -17.5 7.45 -17.5 9.05 -17.5 10.2 -17.45 11.3 -17.35 14.05 -16.75 15.35 -16.1 Q16.45 -15.4 16.65 -14.25 16.9 -12.0 15.35 -11.15 L14.35 -10.8 14.05 -10.7 11.3 -10.3 10.2 -10.2 7.45 -10.05 6.15 -10.05 5.5 -10.0 Q2.7 -13.05 2.7 -17.2 M7.1 -4.4 L7.45 -4.35 7.7 -4.35 9.15 -4.15 10.2 -3.85 11.3 -3.45 12.8 -2.6 13.9 -1.65 14.05 -1.45 15.35 0.45 16.2 2.55 Q16.7 4.25 16.85 6.4 L16.8 6.8 Q16.4 9.15 15.35 11.1 L14.45 12.55 14.2 12.85 14.05 13.0 14.0 13.05 13.55 13.55 11.6 15.2 Q8.8 14.95 6.55 13.35 L5.15 12.15 4.85 11.85 3.5 10.05 5.45 9.25 6.15 8.8 6.35 8.65 7.45 7.45 7.65 7.05 Q8.5 5.35 8.0 2.8 L7.7 2.65 7.65 2.6 7.45 2.65 6.35 2.85 6.15 2.9 3.4 3.5 3.05 3.55 2.1 3.8 Q2.25 1.75 3.1 -0.05 3.85 -1.55 5.15 -2.85 L7.1 -4.4 M6.25 17.55 L6.15 17.55 3.4 18.1 1.55 18.35 -1.2 18.5 -1.35 18.5 -2.5 18.45 -2.8 18.45 -3.15 18.4 -4.55 18.3 -5.25 18.25 -6.65 18.1 -9.4 17.7 -10.25 17.55 -10.7 17.45 -13.45 16.6 -13.6 16.5 Q-12.85 14.75 -11.4 13.3 -9.0 10.9 -5.85 10.4 L-5.25 10.5 -5.1 10.5 -2.5 10.7 -2.4 10.7 -1.35 10.65 -1.2 10.65 -0.75 10.65 Q1.65 11.35 3.6 13.3 L5.0 14.95 Q5.8 16.15 6.25 17.55 M-16.2 10.75 Q-15.35 9.5 -13.45 9.35 L-12.85 9.3 -12.15 9.45 -11.55 9.6 -10.7 9.7 -9.5 9.85 -9.4 9.85 -9.2 9.85 -7.05 10.2 Q-8.8 11.45 -11.0 11.7 L-12.05 11.75 Q-14.35 11.75 -16.2 10.75 M-3.4 5.0 L-5.25 5.2 -5.95 5.25 -6.65 5.3 -9.4 5.1 -9.85 5.0 -10.45 4.85 -10.7 4.75 Q-11.65 4.35 -12.3 3.8 -13.1 3.1 -13.45 2.05 -14.05 0.35 -13.45 -2.3 L-13.4 -2.55 -13.25 -2.95 -11.95 -5.95 Q-8.3 -5.9 -5.8 -3.35 L-4.6 -2.0 Q-3.85 -0.8 -3.5 0.5 L-3.35 1.3 Q-3.2 2.05 -3.2 2.9 L-3.2 3.4 -3.4 5.0 M-11.4 -7.0 L-10.7 -8.3 -10.5 -8.65 -10.15 -9.25 -10.6 -9.3 -10.7 -9.3 Q-12.4 -9.6 -13.45 -10.65 -14.15 -11.35 -14.5 -12.35 L-14.95 -14.45 Q-15.15 -16.55 -13.6 -18.45 L-13.45 -17.6 Q-12.95 -16.35 -10.8 -16.25 L-10.7 -16.25 -10.55 -16.25 -9.4 -16.25 -9.05 -16.3 -7.5 -16.55 -6.65 -16.6 -5.25 -16.75 -3.8 -16.85 -2.5 -16.9 -2.35 -16.9 -2.1 -16.95 -2.05 -16.95 Q-2.25 -12.95 -5.15 -10.05 -7.8 -7.4 -11.4 -7.0" fill="#ff6600" fill-rule="evenodd" stroke="none"/>
    <path d="M5.5 -10.0 L5.3 -10.0 3.4 -9.95 1.95 -9.9 1.85 -9.9 1.55 -9.9 -0.4 -9.85 -1.0 -8.8 -1.15 -8.45 -1.2 -8.4 -2.5 -4.2 -2.75 -3.1 -2.9 -2.55 -2.5 -2.65 -1.2 -3.05 0.45 -3.55 0.95 -3.7 1.55 -3.8 3.4 -4.15 4.95 -4.3 6.15 -4.4 6.75 -4.4 7.1 -4.4 5.15 -2.85 Q3.85 -1.55 3.1 -0.05 2.25 1.75 2.1 3.8 L1.55 3.9 0.1 4.25 -0.95 4.5 -1.2 4.55 -2.5 4.8 -2.75 4.85 -2.9 4.9 -3.4 5.0 -3.2 3.4 -3.2 2.9 Q-3.2 2.05 -3.35 1.3 L-3.5 0.5 Q-3.85 -0.8 -4.6 -2.0 L-5.8 -3.35 Q-8.3 -5.9 -11.95 -5.95 L-11.4 -7.0 Q-7.8 -7.4 -5.15 -10.05 -2.25 -12.95 -2.05 -16.95 L-1.2 -17.0 1.55 -17.15 2.7 -17.2 Q2.7 -13.05 5.5 -10.0 M11.6 15.2 L11.3 15.4 10.2 16.05 9.8 16.25 7.7 17.1 7.45 17.2 6.25 17.55 Q5.8 16.15 5.0 14.95 L3.6 13.3 Q1.65 11.35 -0.75 10.65 L0.35 10.6 1.5 10.45 1.55 10.45 3.4 10.05 3.5 10.05 4.85 11.85 5.15 12.15 6.55 13.35 Q8.8 14.95 11.6 15.2 M-13.6 16.5 L-14.6 16.0 -15.1 15.7 Q-16.75 14.55 -16.85 12.95 L-16.8 12.55 Q-16.7 11.45 -16.2 10.75 -14.35 11.75 -12.05 11.75 L-11.0 11.7 Q-8.8 11.45 -7.05 10.2 L-6.65 10.3 -5.85 10.4 Q-9.0 10.9 -11.4 13.3 -12.85 14.75 -13.6 16.5" fill="#ffcc00" fill-rule="evenodd" stroke="none"/>
  </g>
</svg>
