<?xml version="1.0" encoding="UTF-8" standalone="no"?>
<svg xmlns:ffdec="https://www.free-decompiler.com/flash" xmlns:xlink="http://www.w3.org/1999/xlink" ffdec:objectType="shape" height="46.75px" width="45.2px" xmlns="http://www.w3.org/2000/svg">
  <g transform="matrix(1.0, 0.0, 0.0, 1.0, 22.6, 23.4)">
    <path d="M17.6 0.2 Q13.8 17.4 0.95 18.35 -16.25 17.6 -17.6 3.45 -16.05 -13.0 0.0 -18.4 15.9 -17.25 17.6 0.2 M-8.2 3.05 Q-7.05 10.9 0.6 10.5 9.6 8.05 8.6 -1.75 5.55 -12.05 -3.25 -8.25 -9.0 -4.8 -8.2 3.05 Z" fill="none" stroke="#ffff7f" stroke-linecap="round" stroke-linejoin="round" stroke-width="10.0"/>
    <path d="M0.95 18.4 Q-16.25 17.65 -17.6 3.5 -16.05 -12.95 0.0 -18.35 15.9 -17.2 17.6 0.25 13.8 17.45 0.95 18.4 M-8.2 3.1 Q-7.05 10.95 0.6 10.55 9.6 8.1 8.6 -1.7 5.55 -12.0 -3.25 -8.2 -9.0 -4.75 -8.2 3.1 Z" fill="none" stroke="#560505" stroke-linecap="round" stroke-linejoin="round" stroke-width="5.0"/>
    <path d="M2.75 -18.0 L2.75 -17.9 2.7 -17.4 2.7 -17.2 2.75 -16.45 Q2.95 -12.75 5.5 -10.0 L5.8 -9.7 7.4 -8.35 Q9.3 -7.05 11.6 -6.7 L12.9 -6.6 13.3 -6.6 14.0 -6.6 14.5 -6.65 14.55 -6.65 16.05 -6.9 16.6 -5.2 14.1 -5.85 12.65 -5.95 11.45 -5.85 11.4 -5.85 9.55 -5.5 Q8.45 -5.2 7.5 -4.6 4.15 -11.4 -3.25 -8.2 -5.75 -6.7 -7.0 -4.35 L-8.8 -5.35 -11.1 -5.9 -11.95 -5.95 -12.05 -5.95 -12.5 -5.9 -13.1 -5.85 -13.7 -5.75 -15.4 -5.3 -14.5 -7.1 -13.2 -6.95 -12.65 -6.95 -11.4 -7.0 -10.85 -7.05 -10.1 -7.2 Q-8.05 -7.7 -6.35 -9.0 L-5.4 -9.8 -5.15 -10.05 -4.8 -10.35 Q-3.5 -11.8 -2.8 -13.5 L-2.75 -13.55 -2.4 -14.75 -2.25 -15.3 -2.05 -16.95 -2.05 -17.35 -2.05 -17.55 -2.05 -17.6 0.0 -18.35 2.75 -18.0 M9.95 14.95 Q8.15 16.35 6.1 17.2 L6.1 17.15 5.0 14.95 4.4 14.2 4.0 13.75 3.85 13.55 3.7 13.4 3.6 13.3 2.7 12.5 1.4 11.6 0.4 11.05 -0.75 10.65 -1.15 10.55 0.6 10.55 3.25 9.6 3.4 9.9 3.5 10.05 4.85 11.85 5.15 12.15 5.5 12.45 6.55 13.35 6.6 13.4 6.85 13.55 7.1 13.75 7.2 13.8 7.95 14.2 8.6 14.5 9.95 14.95 M-12.3 14.3 L-13.95 12.7 -15.05 11.25 -12.05 11.75 -11.0 11.7 Q-8.8 11.45 -7.05 10.2 L-5.8 9.15 -5.5 8.85 Q-4.35 9.85 -2.75 10.25 L-3.1 10.25 -3.9 10.2 -5.15 10.3 -5.85 10.4 -7.2 10.7 Q-8.45 11.1 -9.55 11.8 L-10.7 12.7 -11.4 13.3 -11.8 13.75 -12.25 14.3 -12.3 14.3" fill="#ffcc00" fill-rule="evenodd" stroke="none"/>
    <path d="M16.05 -6.9 L14.55 -6.65 14.5 -6.65 14.0 -6.6 13.3 -6.6 12.9 -6.6 11.6 -6.7 Q9.3 -7.05 7.4 -8.35 L5.8 -9.7 5.5 -10.0 Q2.95 -12.75 2.75 -16.45 L2.7 -17.2 2.7 -17.4 2.75 -17.9 2.75 -18.0 Q12.7 -16.25 16.05 -6.9 M-2.05 -17.6 L-2.05 -17.55 -2.05 -17.35 -2.05 -16.95 -2.25 -15.3 -2.4 -14.75 -2.75 -13.55 -2.8 -13.5 Q-3.5 -11.8 -4.8 -10.35 L-5.15 -10.05 -5.4 -9.8 -6.35 -9.0 Q-8.05 -7.7 -10.1 -7.2 L-10.85 -7.05 -11.4 -7.0 -12.65 -6.95 -13.2 -6.95 -14.5 -7.1 Q-10.6 -14.1 -2.05 -17.6 M-15.4 -5.3 L-13.7 -5.75 -13.1 -5.85 -12.5 -5.9 -12.05 -5.95 -11.95 -5.95 -11.1 -5.9 -8.8 -5.35 -7.0 -4.35 Q-8.65 -1.35 -8.2 3.1 L-7.85 4.75 Q-7.15 7.4 -5.5 8.85 L-5.8 9.15 -7.05 10.2 Q-8.8 11.45 -11.0 11.7 L-12.05 11.75 -15.05 11.25 Q-16.7 8.8 -17.3 5.55 L-17.6 3.5 Q-17.15 -1.4 -15.4 -5.3 M7.5 -4.6 Q8.45 -5.2 9.55 -5.5 L11.4 -5.85 11.45 -5.85 12.65 -5.95 14.1 -5.85 16.6 -5.2 Q17.3 -2.7 17.6 0.25 L16.55 4.2 Q14.95 9.1 12.45 12.35 L9.95 14.95 8.6 14.5 7.95 14.2 7.2 13.8 7.1 13.75 6.85 13.55 6.6 13.4 6.55 13.35 5.5 12.45 5.15 12.15 4.85 11.85 3.5 10.05 3.4 9.9 3.25 9.6 Q6.6 7.95 7.9 4.75 9.0 2.05 8.6 -1.7 L7.5 -4.6 M6.1 17.2 Q3.75 18.2 0.95 18.4 -7.65 18.0 -12.3 14.3 L-12.25 14.3 -11.8 13.75 -11.4 13.3 -10.7 12.7 -9.55 11.8 Q-8.45 11.1 -7.2 10.7 L-5.85 10.4 -5.15 10.3 -3.9 10.2 -3.1 10.25 -2.75 10.25 -1.15 10.55 -0.75 10.65 0.4 11.05 1.4 11.6 2.7 12.5 3.6 13.3 3.7 13.4 3.85 13.55 4.0 13.75 4.4 14.2 5.0 14.95 6.1 17.15 6.1 17.2" fill="#ff6600" fill-rule="evenodd" stroke="none"/>
  </g>
</svg>
