<?xml version="1.0" encoding="UTF-8" standalone="no"?>
<svg xmlns:ffdec="https://www.free-decompiler.com/flash" xmlns:xlink="http://www.w3.org/1999/xlink" ffdec:objectType="shape" height="48.15px" width="46.75px" xmlns="http://www.w3.org/2000/svg">
  <g transform="matrix(1.0, 0.0, 0.0, 1.0, 23.35, 24.05)">
    <path d="M11.5 -6.15 Q10.55 -1.2 10.35 1.85 18.4 1.3 18.4 6.45 17.8 10.4 9.6 10.65 L9.2 10.65 Q8.65 19.45 2.5 19.1 -1.15 18.9 0.4 11.05 L-3.6 11.25 -12.4 11.8 Q-18.35 12.0 -18.35 6.25 -9.0 -13.45 5.2 -19.0 7.9 -19.15 9.6 -18.4 13.25 -16.8 12.45 -11.35 L11.5 -6.15 M2.1 -8.85 Q-1.15 -7.3 -6.85 2.05 L-7.85 3.6 1.95 2.8 2.7 -3.3 3.45 -7.7 Q3.25 -9.45 2.1 -8.85 Z" fill="none" stroke="#ffff7f" stroke-linecap="round" stroke-linejoin="round" stroke-width="10.0"/>
    <path d="M12.45 -11.35 L11.5 -6.15 Q10.55 -1.2 10.35 1.85 18.4 1.3 18.4 6.45 17.8 10.4 9.6 10.65 L9.2 10.65 Q8.65 19.45 2.5 19.1 -1.15 18.9 0.4 11.05 L-3.6 11.25 -12.4 11.8 Q-18.35 12.0 -18.35 6.25 -9.0 -13.45 5.2 -19.0 7.9 -19.15 9.6 -18.4 13.25 -16.8 12.45 -11.35 M3.45 -7.7 Q3.25 -9.45 2.1 -8.85 -1.15 -7.3 -6.85 2.05 L-7.85 3.6 1.95 2.8 2.7 -3.3 3.45 -7.7 Z" fill="none" stroke="#560505" stroke-linecap="round" stroke-linejoin="round" stroke-width="5.0"/>
    <path d="M11.6 -6.7 Q8.3 -7.2 5.8 -9.7 L5.5 -10.0 Q2.7 -13.05 2.7 -17.2 L2.75 -17.9 5.2 -19.0 Q7.9 -19.15 9.6 -18.4 13.25 -16.8 12.45 -11.35 L11.6 -6.7 M-2.4 -14.75 Q-3.1 -12.1 -5.15 -10.05 -7.3 -7.9 -10.1 -7.2 -6.5 -11.7 -2.4 -14.75 M-11.1 -5.9 Q-8.0 -5.6 -5.8 -3.35 L-4.6 -2.0 -4.4 -1.7 -6.85 2.05 -7.85 3.6 -3.2 3.2 -3.2 3.4 -3.4 5.0 -3.65 5.8 -4.1 6.95 -4.5 7.6 -5.8 9.15 -7.05 10.2 Q-8.8 11.45 -11.0 11.7 L-12.05 11.75 Q-14.35 11.75 -16.2 10.75 L-17.1 10.15 -17.3 10.0 Q-18.05 9.05 -18.25 7.6 L-18.35 6.25 Q-15.05 -0.7 -11.1 -5.9 M-9.55 11.8 Q-7.85 10.75 -5.85 10.4 L-5.15 10.3 -3.9 10.2 -0.75 10.65 0.4 11.05 Q2.15 11.85 3.6 13.3 L4.4 14.2 5.0 14.95 Q5.8 16.15 6.25 17.55 L6.35 17.95 6.4 18.05 Q4.85 19.2 2.5 19.1 -0.35 18.95 0.0 14.15 0.05 12.8 0.4 11.05 L-3.6 11.25 -9.55 11.8 M8.6 14.5 L7.95 14.2 Q7.2 13.85 6.55 13.35 L5.15 12.15 4.85 11.85 3.5 10.05 2.55 7.95 2.45 7.6 2.2 6.35 Q2.05 5.55 2.05 4.65 L2.1 3.8 Q2.25 1.75 3.1 -0.05 3.85 -1.55 5.15 -2.85 L7.1 -4.4 Q8.25 -5.1 9.55 -5.5 L11.4 -5.85 11.45 -5.85 Q10.55 -1.1 10.35 1.85 18.4 1.3 18.4 6.45 L18.05 7.6 Q16.5 10.45 9.6 10.65 L9.2 10.65 8.65 14.2 8.6 14.5" fill="#ff6600" fill-rule="evenodd" stroke="none"/>
    <path d="M2.75 -17.9 L2.7 -17.2 Q2.7 -13.05 5.5 -10.0 L5.8 -9.7 Q8.3 -7.2 11.6 -6.7 L11.5 -6.15 11.45 -5.85 11.4 -5.85 9.55 -5.5 Q8.25 -5.1 7.1 -4.4 L5.15 -2.85 Q3.85 -1.55 3.1 -0.05 2.25 1.75 2.1 3.8 L2.05 4.65 Q2.05 5.55 2.2 6.35 L2.45 7.6 2.55 7.95 3.5 10.05 4.85 11.85 5.15 12.15 6.55 13.35 Q7.2 13.85 7.95 14.2 L8.6 14.5 Q7.85 16.9 6.4 18.05 L6.35 17.95 6.25 17.55 Q5.8 16.15 5.0 14.95 L4.4 14.2 3.6 13.3 Q2.15 11.85 0.4 11.05 L-0.75 10.65 -3.9 10.2 -5.15 10.3 -5.85 10.4 Q-7.85 10.75 -9.55 11.8 L-12.4 11.8 Q-15.85 11.9 -17.3 10.0 L-17.1 10.15 -16.2 10.75 Q-14.35 11.75 -12.05 11.75 L-11.0 11.7 Q-8.8 11.45 -7.05 10.2 L-5.8 9.15 -4.5 7.6 -4.1 6.95 -3.65 5.8 -3.4 5.0 -3.2 3.4 -3.2 3.2 1.95 2.8 2.7 -3.3 3.45 -7.7 Q3.25 -9.45 2.1 -8.85 -0.45 -7.65 -4.4 -1.7 L-4.6 -2.0 -5.8 -3.35 Q-8.0 -5.6 -11.1 -5.9 L-10.1 -7.2 Q-7.3 -7.9 -5.15 -10.05 -3.1 -12.1 -2.4 -14.75 0.05 -16.6 2.75 -17.9" fill="#ffcc00" fill-rule="evenodd" stroke="none"/>
  </g>
</svg>
