<?xml version="1.0" encoding="UTF-8" standalone="no"?>
<svg xmlns:ffdec="https://www.free-decompiler.com/flash" xmlns:xlink="http://www.w3.org/1999/xlink" ffdec:objectType="shape" height="48.7px" width="102.8px" xmlns="http://www.w3.org/2000/svg">
  <g transform="matrix(1.0, 0.0, 0.0, 1.0, 51.4, 24.35)">
    <path d="M40.75 -12.85 L39.75 -14.15 39.45 -14.5 39.3 -14.65 36.15 -17.95 -39.15 -17.95 -39.15 -21.85 35.6 -21.85 36.6 -21.75 Q42.25 -20.9 46.45 -15.1 51.4 -8.3 51.4 1.35 51.4 4.65 50.85 7.55 L50.3 9.75 Q49.15 14.15 46.45 17.75 44.9 19.9 43.2 21.35 40.35 23.75 37.1 24.35 L-39.15 24.35 -39.15 20.3 36.2 20.3 40.2 15.85 40.95 14.9 Q43.75 10.95 45.05 7.0 46.0 4.1 46.0 1.15 46.1 -5.95 40.75 -12.85" fill="#007f00" fill-rule="evenodd" stroke="none"/>
    <path d="M-39.15 -17.95 L36.15 -17.95 39.3 -14.65 39.45 -14.5 39.75 -14.15 40.75 -12.85 -39.15 -12.85 -39.15 -17.95" fill="#00d88c" fill-rule="evenodd" stroke="none"/>
    <path d="M46.0 1.15 Q46.0 4.1 45.05 7.0 43.75 10.95 40.95 14.9 L-39.15 14.9 -39.15 1.15 46.0 1.15" fill="#009965" fill-rule="evenodd" stroke="none"/>
    <path d="M40.95 14.9 L40.2 15.85 36.2 20.3 -39.15 20.3 -39.15 14.9 40.95 14.9" fill="#007f54" fill-rule="evenodd" stroke="none"/>
    <path d="M40.75 -12.85 Q46.1 -5.95 46.0 1.15 L-39.15 1.15 -39.15 -12.85 40.75 -12.85" fill="#00bf7f" fill-rule="evenodd" stroke="none"/>
    <path d="M-38.9 0.95 Q-40.7 2.5 -43.3 0.95 -46.05 -0.75 -47.55 -4.6 -48.95 -8.35 -50.6 -10.7 -49.6 -10.3 -48.65 -9.0 -45.55 -4.95 -47.55 -9.35 -48.85 -12.2 -50.35 -14.45 -51.2 -15.7 -51.4 -17.15 -50.5 -15.55 -49.05 -14.85 -48.4 -14.5 -47.1 -12.9 -47.05 -15.35 -48.7 -17.35 -47.65 -16.8 -46.9 -15.95 L-47.7 -17.35 Q-43.7 -12.6 -43.85 -17.45 L-43.85 -17.6 Q-44.15 -22.9 -39.25 -24.35 -39.8 -21.05 -37.95 -18.25 -36.75 -16.4 -34.65 -14.25 L-32.05 -11.45 Q-32.5 -11.15 -32.85 -8.7 -32.85 -11.45 -35.15 -13.3 -37.4 -15.2 -38.4 -16.7 -40.35 -19.6 -40.15 -23.05 -42.9 -21.1 -42.8 -16.0 -42.7 -10.6 -46.65 -15.55 -46.0 -14.55 -45.8 -13.3 -45.15 -9.45 -44.0 -8.45 -45.5 -8.8 -45.8 -9.45 -47.05 -11.85 -48.2 -12.8 L-45.1 -6.95 Q-44.0 -4.7 -46.6 -5.4 -43.65 0.5 -38.9 0.6 L-38.9 0.95 M-32.05 -11.45 Q-33.45 -14.95 -32.05 -16.75 -32.9 -14.65 -31.2 -11.9 -29.25 -8.7 -29.4 -5.95 -29.5 -2.65 -31.35 0.5 -33.25 3.65 -34.05 3.35 L-34.5 3.2 -34.5 1.85 -34.3 1.6 Q-30.65 -1.25 -30.45 -5.7 L-30.45 -5.8 -30.45 -5.95 -30.45 -6.1 Q-30.55 -7.9 -31.85 -11.05 L-32.05 -11.45" fill="#ff2700" fill-rule="evenodd" stroke="none"/>
    <path d="M-38.9 0.6 Q-43.65 0.5 -46.6 -5.4 -44.0 -4.7 -45.1 -6.95 L-48.2 -12.8 Q-47.05 -11.85 -45.8 -9.45 -45.5 -8.8 -44.0 -8.45 -45.15 -9.45 -45.8 -13.3 -46.0 -14.55 -46.65 -15.55 -42.7 -10.6 -42.8 -16.0 -42.9 -21.1 -40.15 -23.05 -40.35 -19.6 -38.4 -16.7 -37.4 -15.2 -35.15 -13.3 -32.85 -11.45 -32.85 -8.7 -32.5 -11.15 -32.05 -11.45 L-31.85 -11.05 Q-30.55 -7.9 -30.45 -6.1 L-30.45 -5.95 -30.45 -5.8 -30.45 -5.7 Q-30.65 -1.25 -34.3 1.6 L-34.5 1.85 -34.5 1.8 -32.95 -2.5 Q-32.5 -4.05 -32.5 -5.5 -32.5 -6.95 -33.2 -8.5 L-34.2 -10.25 -34.3 -9.8 -34.6 -9.6 -34.95 -9.6 -35.15 -10.35 -35.4 -10.3 -35.75 -10.25 Q-36.2 -10.25 -36.65 -11.55 L-37.2 -13.3 -38.4 -14.95 -39.55 -16.25 -39.6 -16.45 -39.7 -16.45 -39.55 -16.25 -39.3 -15.85 -39.0 -15.1 Q-39.0 -14.45 -39.15 -13.9 L-39.45 -15.25 -39.35 -13.4 -39.45 -13.1 -39.6 -13.6 -39.6 -13.35 -39.5 -13.0 -40.25 -12.4 Q-40.75 -13.25 -41.25 -15.8 L-41.3 -15.8 -42.15 -13.5 -42.45 -11.7 -42.3 -10.85 -41.95 -9.95 -42.0 -9.95 -42.2 -10.15 -42.25 -10.3 -42.25 -10.15 -43.05 -10.7 -43.7 -11.2 -43.5 -10.8 Q-43.1 -10.35 -43.1 -9.8 L-43.35 -8.9 -43.5 -8.0 -43.25 -7.05 -42.6 -6.05 Q-43.7 -6.55 -43.8 -7.05 L-43.65 -5.05 Q-43.5 -4.05 -42.8 -3.6 L-42.85 -3.6 -43.5 -3.9 -44.0 -4.25 Q-44.2 -3.05 -41.6 -1.1 -40.1 0.05 -39.7 0.15 L-38.9 0.4 -38.9 0.6 M-43.7 -11.2 L-44.0 -11.6 -44.05 -11.6 -43.7 -11.2" fill="#ff6600" fill-rule="evenodd" stroke="none"/>
    <path d="M-42.2 -10.15 L-42.0 -9.95 -41.95 -9.95 -42.3 -10.85 -42.45 -11.7 -42.15 -13.5 -41.3 -15.8 -41.25 -15.8 Q-40.75 -13.25 -40.25 -12.4 L-39.5 -13.0 -39.2 -11.95 -39.1 -10.6 -39.2 -9.3 Q-39.45 -8.6 -40.4 -8.6 -40.95 -8.6 -41.6 -9.25 L-42.2 -10.15 M-39.45 -13.1 L-39.35 -13.4 -39.25 -13.1 Q-39.05 -11.95 -39.45 -13.1 M-39.15 -13.9 Q-39.0 -14.45 -39.0 -15.1 L-39.3 -15.85 -39.55 -16.25 -39.7 -16.45 -39.6 -16.45 -39.55 -16.25 -38.4 -14.95 -37.2 -13.3 -36.65 -11.55 Q-36.2 -10.25 -35.75 -10.25 L-35.4 -10.3 -35.15 -10.35 -34.95 -9.6 -34.6 -9.6 -34.3 -9.8 -34.2 -10.25 -33.2 -8.5 Q-32.5 -6.95 -32.5 -5.5 -32.5 -4.05 -32.95 -2.5 L-34.5 1.8 -34.5 1.35 Q-34.05 0.25 -34.05 -0.65 -34.05 -1.5 -34.35 -1.75 L-34.65 -2.45 -34.3 -4.55 Q-33.9 -5.9 -34.5 -4.45 -34.2 -6.2 -34.45 -6.3 -34.75 -6.5 -33.95 -9.6 -34.3 -8.35 -35.5 -7.3 -35.45 -8.65 -37.15 -10.3 -38.4 -11.55 -39.15 -13.9 M-42.25 -10.15 L-42.25 -9.6 Q-42.25 -8.85 -41.65 -7.75 L-40.55 -5.55 -41.25 -5.55 -42.25 -6.5 -43.35 -7.75 -43.35 -7.65 Q-41.35 -5.2 -40.3 -3.05 L-41.15 -3.4 -42.15 -3.95 -42.05 -3.85 Q-41.15 -2.65 -39.3 -1.5 L-37.85 -0.45 -37.9 -0.4 -38.7 -0.25 -38.85 -0.2 -38.9 -0.05 -38.9 0.4 -39.7 0.15 Q-40.1 0.05 -41.6 -1.1 -44.2 -3.05 -44.0 -4.25 L-43.5 -3.9 -42.85 -3.6 -42.8 -3.6 Q-43.5 -4.05 -43.65 -5.05 L-43.8 -7.05 Q-43.7 -6.55 -42.6 -6.05 L-43.25 -7.05 -43.5 -8.0 -43.35 -8.9 -43.1 -9.8 Q-43.1 -10.35 -43.5 -10.8 L-43.7 -11.2 -43.05 -10.7 -42.25 -10.15 M-43.7 -11.2 L-44.05 -11.6 -44.0 -11.6 -43.7 -11.2" fill="#ff9900" fill-rule="evenodd" stroke="none"/>
    <path d="M-39.5 -13.0 L-39.6 -13.35 -39.6 -13.6 -39.45 -13.1 Q-39.05 -11.95 -39.25 -13.1 L-39.35 -13.4 -39.45 -15.25 -39.15 -13.9 Q-38.4 -11.55 -37.15 -10.3 -35.45 -8.65 -35.5 -7.3 -34.3 -8.35 -33.95 -9.6 -34.75 -6.5 -34.45 -6.3 -34.2 -6.2 -34.5 -4.45 -33.9 -5.9 -34.3 -4.55 L-34.65 -2.45 -34.35 -1.75 Q-34.05 -1.5 -34.05 -0.65 -34.05 0.25 -34.5 1.35 L-34.5 0.1 -34.55 -0.05 -34.65 -0.05 -35.15 -0.25 -35.35 -0.35 -35.4 -0.4 -35.5 -0.5 Q-35.5 -1.6 -36.0 -2.45 L-36.55 -3.25 -36.4 -3.8 -36.3 -4.2 -36.85 -3.8 -37.1 -3.9 -37.2 -4.25 -36.85 -5.35 -36.55 -6.5 -36.85 -7.25 -37.35 -7.9 -37.85 -8.9 -38.1 -9.85 -38.15 -9.8 -38.15 -9.7 -37.7 -8.4 -37.45 -7.15 Q-37.45 -6.6 -37.6 -6.4 L-38.15 -6.2 Q-39.9 -6.2 -40.8 -7.9 L-40.8 -7.65 Q-40.8 -6.95 -39.7 -6.0 -38.6 -5.0 -38.6 -4.3 -38.6 -3.9 -38.9 -3.9 -39.1 -3.9 -39.45 -4.25 L-39.9 -4.75 -39.9 -4.6 Q-39.9 -4.0 -39.4 -3.4 L-38.05 -1.95 -38.05 -1.65 -38.55 -1.85 -39.25 -2.15 -39.25 -2.1 -37.35 -0.65 -37.7 -0.45 -37.85 -0.45 -39.3 -1.5 Q-41.15 -2.65 -42.05 -3.85 L-42.15 -3.95 -41.15 -3.4 -40.3 -3.05 Q-41.35 -5.2 -43.35 -7.65 L-43.35 -7.75 -42.25 -6.5 -41.25 -5.55 -40.55 -5.55 -41.65 -7.75 Q-42.25 -8.85 -42.25 -9.6 L-42.25 -10.15 -42.25 -10.3 -42.2 -10.15 -41.6 -9.25 Q-40.95 -8.6 -40.4 -8.6 -39.45 -8.6 -39.2 -9.3 L-39.1 -10.6 -39.2 -11.95 -39.5 -13.0" fill="#ffff00" fill-rule="evenodd" stroke="none"/>
    <path d="M-37.35 -0.65 L-39.25 -2.1 -39.25 -2.15 -38.55 -1.85 -38.05 -1.65 -38.05 -1.95 -39.4 -3.4 Q-39.9 -4.0 -39.9 -4.6 L-39.9 -4.75 -39.45 -4.25 Q-39.1 -3.9 -38.9 -3.9 -38.6 -3.9 -38.6 -4.3 -38.6 -5.0 -39.7 -6.0 -40.8 -6.95 -40.8 -7.65 L-40.8 -7.9 Q-39.9 -6.2 -38.15 -6.2 L-37.6 -6.4 Q-37.45 -6.6 -37.45 -7.15 L-37.7 -8.4 -38.15 -9.7 -38.15 -9.8 -38.1 -9.85 -37.85 -8.9 -37.35 -7.9 -36.85 -7.25 -36.55 -6.5 -36.85 -5.35 -37.2 -4.25 -37.1 -3.9 -36.85 -3.8 -36.3 -4.2 -36.4 -3.8 -36.55 -3.25 -36.0 -2.45 Q-35.5 -1.6 -35.5 -0.5 -35.85 -0.8 -35.9 -1.4 L-36.0 -1.55 -36.15 -1.6 -37.35 -1.6 -37.45 -1.55 -37.5 -1.4 -37.45 -1.25 Q-37.2 -1.0 -37.3 -0.7 L-37.35 -0.65" fill="#ffff99" fill-rule="evenodd" stroke="none"/>
    <path d="M-38.9 0.95 L-38.9 0.6 -38.9 0.4 -38.9 -0.05 -38.85 -0.2 -38.7 -0.25 -37.9 -0.4 -37.85 -0.45 -37.7 -0.45 -37.35 -0.65 -37.3 -0.7 Q-37.2 -1.0 -37.45 -1.25 L-37.5 -1.4 -37.45 -1.55 -37.35 -1.6 -36.15 -1.6 -36.0 -1.55 -35.9 -1.4 Q-35.85 -0.8 -35.5 -0.5 L-35.4 -0.4 -35.35 -0.35 -35.15 -0.25 -34.65 -0.05 -34.55 -0.05 -34.5 0.1 -34.5 1.35 -34.5 1.8 -34.5 1.85 -34.5 3.2 -34.5 24.1 -34.6 24.25 -34.75 24.35 -39.0 24.35 -39.1 24.25 -39.15 24.1 -38.9 0.95 M-36.3 -1.15 L-37.0 -1.15 -36.95 -0.55 -37.15 -0.4 -37.65 -0.1 -37.85 -0.05 -38.5 0.05 -38.85 24.0 -37.85 24.0 -37.15 24.0 -36.3 24.0 -35.3 24.0 -34.9 24.0 -34.9 0.2 -35.3 0.1 -35.35 0.05 -35.6 -0.05 -35.7 -0.15 -36.3 -1.15" fill="#999900" fill-rule="evenodd" stroke="none"/>
    <path d="M-37.85 24.0 L-38.85 24.0 -38.5 0.05 -37.85 -0.05 -37.65 -0.1 -37.15 -0.4 -36.95 -0.55 -37.0 -1.15 -36.3 -1.15 -36.3 4.9 -36.5 4.75 -36.75 4.5 -36.8 4.45 -36.95 4.45 -37.0 4.7 -37.0 5.55 Q-37.0 6.0 -37.15 6.1 L-37.45 6.3 Q-37.8 6.3 -37.85 5.75 L-37.85 5.55 -37.85 5.1 -37.9 5.05 -38.0 5.7 -38.35 9.75 -38.2 10.95 -38.1 12.3 -38.2 13.85 -38.25 15.35 -37.85 17.2 -37.85 24.0 M-35.3 0.1 L-34.9 0.2 -34.9 24.0 -35.3 24.0 -35.3 0.1 M-36.3 24.0 L-37.15 24.0 -37.15 19.2 -36.3 21.5 -36.3 24.0 M-35.85 5.2 L-35.85 5.4 -36.0 5.7 -36.3 5.85 -36.35 5.9 -36.65 6.0 -36.7 6.1 -36.7 6.0 -36.45 5.6 -36.3 5.45 -36.05 5.15 -35.85 5.2 M-37.1 7.95 L-36.8 7.8 -36.5 8.15 -36.3 8.4 -36.2 8.7 -36.15 8.9 -36.3 8.9 -37.35 10.0 -37.35 9.6 -37.45 9.7 Q-37.85 10.0 -37.05 8.0 L-37.1 8.0 -37.1 7.95" fill="#99cc00" fill-rule="evenodd" stroke="none"/>
    <path d="M-36.3 -1.15 L-35.7 -0.15 -35.6 -0.05 -35.35 0.05 -35.3 0.1 -35.3 24.0 -36.3 24.0 -36.3 21.5 -37.15 19.2 -37.15 24.0 -37.85 24.0 -37.85 17.2 -38.25 15.35 -38.2 13.85 -38.1 12.3 -38.2 10.95 -38.35 9.75 -38.0 5.7 -37.9 5.05 -37.85 5.1 -37.85 5.55 -37.85 5.75 Q-37.8 6.3 -37.45 6.3 L-37.15 6.1 Q-37.0 6.0 -37.0 5.55 L-37.0 4.7 -36.95 4.45 -36.8 4.45 -36.75 4.5 -36.5 4.75 -36.3 4.9 -36.3 -1.15 M-37.1 7.95 L-37.1 8.0 -37.05 8.0 Q-37.85 10.0 -37.45 9.7 L-37.35 9.6 -37.35 10.0 -36.3 8.9 -36.15 8.9 -36.2 8.7 -36.3 8.4 -36.5 8.15 -36.8 7.8 -37.1 7.95 M-35.85 5.2 L-36.05 5.15 -36.3 5.45 -36.45 5.6 -36.7 6.0 -36.7 6.1 -36.65 6.0 -36.35 5.9 -36.3 5.85 -36.0 5.7 -35.85 5.4 -35.85 5.2" fill="#e7ff18" fill-rule="evenodd" stroke="none"/>
    <path d="M-28.85 -2.95 Q-27.65 -4.65 -25.9 -4.65 -24.15 -4.65 -22.95 -2.95 -21.7 -1.25 -21.7 1.1 -21.7 3.5 -22.95 5.15 -24.15 6.9 -25.9 6.9 -27.65 6.9 -28.85 5.15 -30.1 3.5 -30.1 1.1 -30.1 -1.25 -28.85 -2.95" fill="#99cc00" fill-opacity="0.7019608" fill-rule="evenodd" stroke="none"/>
    <path d="M36.25 -13.95 Q35.6 -14.9 35.6 -16.15 35.6 -17.45 36.25 -18.35 36.95 -19.25 37.85 -19.25 38.8 -19.25 39.45 -18.35 40.1 -17.45 40.1 -16.15 40.1 -14.9 39.45 -13.95 38.8 -13.05 37.85 -13.05 36.95 -13.05 36.25 -13.95" fill="#e7ff18" fill-opacity="0.7019608" fill-rule="evenodd" stroke="none"/>
    <path d="M24.9 -16.15 Q24.9 -17.9 25.75 -19.15 26.65 -20.35 27.9 -20.35 29.15 -20.35 30.05 -19.15 30.95 -17.9 30.95 -16.15 30.95 -14.45 30.05 -13.25 29.15 -12.0 27.9 -12.0 26.65 -12.0 25.75 -13.25 24.9 -14.45 24.9 -16.15" fill="#99cc00" fill-opacity="0.7019608" fill-rule="evenodd" stroke="none"/>
    <path d="M32.65 13.25 Q33.85 11.6 35.55 11.6 37.15 11.6 38.4 13.25 39.6 14.95 39.6 17.2 39.6 19.5 38.4 21.2 37.15 22.75 35.55 22.75 33.85 22.75 32.65 21.2 31.5 19.5 31.5 17.2 31.5 14.95 32.65 13.25" fill="#e7ff18" fill-opacity="0.7019608" fill-rule="evenodd" stroke="none"/>
    <path d="M-21.05 -10.35 Q-21.5 -9.7 -22.2 -9.7 -22.85 -9.7 -23.35 -10.35 -23.8 -11.05 -23.8 -11.95 L-23.35 -13.5 Q-22.85 -14.2 -22.2 -14.2 -21.5 -14.2 -21.05 -13.5 -20.55 -12.85 -20.55 -11.95 -20.55 -11.05 -21.05 -10.35" fill="#e7ff18" fill-opacity="0.7019608" fill-rule="evenodd" stroke="none"/>
    <path d="M-33.8 -18.0 Q-33.8 -19.5 -33.05 -20.5 -32.25 -21.55 -31.2 -21.55 -30.1 -21.55 -29.35 -20.5 -28.6 -19.5 -28.6 -18.0 -28.6 -16.5 -29.35 -15.5 -30.1 -14.45 -31.2 -14.45 -32.25 -14.45 -33.05 -15.5 -33.8 -16.5 -33.8 -18.0" fill="#99cc00" fill-opacity="0.7019608" fill-rule="evenodd" stroke="none"/>
  </g>
</svg>
