<?xml version="1.0" encoding="UTF-8" standalone="no"?>
<svg xmlns:ffdec="https://www.free-decompiler.com/flash" xmlns:xlink="http://www.w3.org/1999/xlink" ffdec:objectType="shape" height="54.1px" width="114.2px" xmlns="http://www.w3.org/2000/svg">
  <g transform="matrix(1.0, 0.0, 0.0, 1.0, 57.1, 27.05)">
    <path d="M-43.5 -19.95 L-43.5 -24.3 39.55 -24.3 40.65 -24.15 Q46.95 -23.2 51.6 -16.8 57.1 -9.2 57.1 1.5 57.1 5.15 56.5 8.4 L55.9 10.85 Q54.6 15.75 51.6 19.75 49.9 22.1 48.0 23.7 L48.0 23.75 Q44.85 26.4 41.25 27.05 L-43.5 27.05 -43.5 22.55 40.2 22.55 44.65 17.6 45.5 16.55 Q48.6 12.15 50.05 7.8 51.1 4.55 51.1 1.3 51.2 -6.6 45.3 -14.3 L44.15 -15.75 43.85 -16.1 43.65 -16.3 40.15 -19.95 -43.5 -19.95" fill="#007f00" fill-rule="evenodd" stroke="none"/>
    <path d="M-43.5 -14.3 L-43.5 -19.95 40.15 -19.95 43.65 -16.3 43.85 -16.1 44.15 -15.75 45.3 -14.3 -43.5 -14.3" fill="#00d88c" fill-rule="evenodd" stroke="none"/>
    <path d="M-43.5 16.55 L-43.5 1.3 51.1 1.3 Q51.1 4.55 50.05 7.8 48.6 12.15 45.5 16.55 L-43.5 16.55" fill="#009965" fill-rule="evenodd" stroke="none"/>
    <path d="M-43.5 22.55 L-43.5 16.55 45.5 16.55 44.65 17.6 40.2 22.55 -43.5 22.55" fill="#007f54" fill-rule="evenodd" stroke="none"/>
    <path d="M-43.5 1.3 L-43.5 -14.3 45.3 -14.3 Q51.2 -6.6 51.1 1.3 L-43.5 1.3" fill="#00bf7f" fill-rule="evenodd" stroke="none"/>
    <path d="M-43.2 1.05 Q-45.2 2.8 -48.1 1.05 -51.15 -0.85 -52.8 -5.1 -54.4 -9.3 -56.2 -11.9 -55.1 -11.45 -54.05 -10.0 -50.6 -5.5 -52.85 -10.4 -54.25 -13.55 -55.95 -16.05 -56.9 -17.45 -57.1 -19.05 -56.1 -17.3 -54.5 -16.5 -53.75 -16.1 -52.3 -14.35 -52.25 -17.05 -54.1 -19.3 L-52.05 -17.6 -53.0 -19.25 Q-48.55 -14.0 -48.7 -19.4 L-48.7 -19.55 Q-49.05 -25.45 -43.6 -27.05 -44.2 -23.4 -42.15 -20.25 -40.8 -18.2 -38.5 -15.85 L-35.6 -12.7 Q-36.1 -12.4 -36.5 -9.65 -36.5 -12.7 -39.05 -14.8 -41.55 -16.9 -42.65 -18.55 -44.8 -21.75 -44.6 -25.6 -47.65 -23.45 -47.55 -17.75 -47.45 -11.75 -51.85 -17.3 -51.1 -16.15 -50.9 -14.75 -50.15 -10.5 -48.9 -9.4 -50.55 -9.8 -50.9 -10.5 -52.25 -13.15 -53.55 -14.2 L-50.1 -7.7 Q-48.9 -5.2 -51.75 -6.0 -48.5 0.55 -43.2 0.65 L-43.2 1.05 M-35.6 -12.7 Q-37.15 -16.6 -35.6 -18.6 -36.55 -16.3 -34.65 -13.2 -32.5 -9.65 -32.65 -6.6 -32.75 -2.95 -34.85 0.55 -36.95 4.05 -37.85 3.75 -38.15 3.85 -38.35 3.55 L-38.35 2.05 -38.1 1.8 Q-34.05 -1.4 -33.8 -6.35 L-33.8 -6.45 -33.8 -6.6 -33.8 -6.8 Q-33.95 -8.75 -35.4 -12.25 L-35.6 -12.7" fill="#ff2700" fill-rule="evenodd" stroke="none"/>
    <path d="M-43.2 0.65 Q-48.5 0.55 -51.75 -6.0 -48.9 -5.2 -50.1 -7.7 L-53.55 -14.2 Q-52.25 -13.15 -50.9 -10.5 -50.55 -9.8 -48.9 -9.4 -50.15 -10.5 -50.9 -14.75 -51.1 -16.15 -51.85 -17.3 -47.45 -11.75 -47.55 -17.75 -47.65 -23.45 -44.6 -25.6 -44.8 -21.75 -42.65 -18.55 -41.55 -16.9 -39.05 -14.8 -36.5 -12.7 -36.5 -9.65 -36.1 -12.4 -35.6 -12.7 L-35.4 -12.25 Q-33.95 -8.75 -33.8 -6.8 L-33.8 -6.6 -33.8 -6.45 -33.8 -6.35 Q-34.05 -1.4 -38.1 1.8 L-38.35 2.05 -38.35 2.0 -36.6 -2.75 Q-36.1 -4.5 -36.1 -6.1 -36.1 -7.7 -36.9 -9.45 L-38.0 -11.4 -38.1 -10.9 -38.45 -10.65 -38.85 -10.65 -39.05 -11.5 -39.35 -11.45 -39.7 -11.4 Q-40.2 -11.4 -40.7 -12.85 L-41.35 -14.8 -42.65 -16.6 -43.95 -18.05 -44.0 -18.3 -44.1 -18.3 -43.95 -18.05 -43.65 -17.6 Q-43.35 -17.2 -43.35 -16.8 -43.35 -16.05 -43.5 -15.45 L-43.85 -16.95 -43.7 -14.9 -43.8 -14.55 -44.0 -15.1 -44.0 -14.85 -43.9 -14.45 Q-44.25 -13.95 -44.7 -13.75 -45.25 -14.7 -45.85 -17.55 L-45.9 -17.55 -46.8 -15.0 -47.15 -13.0 -47.0 -12.05 -46.6 -11.05 -46.65 -11.05 -46.9 -11.3 -46.95 -11.45 -46.95 -11.3 -47.8 -11.9 -48.55 -12.45 -48.9 -12.9 -48.95 -12.9 -48.55 -12.45 -48.3 -12.0 Q-47.9 -11.5 -47.9 -10.9 L-48.15 -9.9 -48.35 -8.9 -48.05 -7.85 -47.3 -6.7 Q-48.55 -7.3 -48.65 -7.85 L-48.5 -5.6 Q-48.35 -4.5 -47.55 -4.0 L-47.6 -4.0 -48.35 -4.35 -48.9 -4.7 -48.9 -4.8 -48.95 -4.8 -48.9 -4.7 Q-49.1 -3.4 -46.2 -1.2 L-44.1 0.15 -43.2 0.45 -43.2 0.65" fill="#ff6600" fill-rule="evenodd" stroke="none"/>
    <path d="M-46.9 -11.3 L-46.65 -11.05 -46.6 -11.05 -47.0 -12.05 -47.15 -13.0 -46.8 -15.0 -45.9 -17.55 -45.85 -17.55 Q-45.25 -14.7 -44.7 -13.75 -44.25 -13.95 -43.9 -14.45 L-43.55 -13.25 -43.45 -11.8 -43.55 -10.35 Q-43.8 -9.55 -44.9 -9.55 -45.5 -9.55 -46.2 -10.3 L-46.9 -11.3 M-43.8 -14.55 L-43.7 -14.9 -43.6 -14.55 Q-43.4 -13.3 -43.8 -14.55 M-43.5 -15.45 Q-43.35 -16.05 -43.35 -16.8 -43.35 -17.2 -43.65 -17.6 L-43.95 -18.05 -44.1 -18.3 -44.0 -18.3 -43.95 -18.05 -42.65 -16.6 -41.35 -14.8 -40.7 -12.85 Q-40.2 -11.4 -39.7 -11.4 L-39.35 -11.45 -39.05 -11.5 -38.85 -10.65 -38.45 -10.65 -38.1 -10.9 -38.0 -11.4 -36.9 -9.45 Q-36.1 -7.7 -36.1 -6.1 -36.1 -4.5 -36.6 -2.75 L-38.35 2.0 -38.35 1.5 Q-37.8 0.3 -37.8 -0.7 -37.8 -1.65 -38.15 -1.95 -38.5 -2.3 -38.5 -2.7 L-38.1 -5.05 Q-37.65 -6.55 -38.35 -4.95 -38.0 -6.9 -38.25 -7.0 -38.6 -7.2 -37.7 -10.65 -38.1 -9.3 -39.45 -8.1 -39.4 -9.6 -41.25 -11.45 -42.65 -12.85 -43.5 -15.45 M-43.2 0.45 L-44.1 0.15 -46.2 -1.2 Q-49.1 -3.4 -48.9 -4.7 L-48.95 -4.8 -48.9 -4.8 -48.9 -4.7 -48.35 -4.35 -47.6 -4.0 -47.55 -4.0 Q-48.35 -4.5 -48.5 -5.6 L-48.65 -7.85 Q-48.55 -7.3 -47.3 -6.7 L-48.05 -7.85 -48.35 -8.9 -48.15 -9.9 -47.9 -10.9 Q-47.9 -11.5 -48.3 -12.0 L-48.55 -12.45 -48.95 -12.9 -48.9 -12.9 -48.55 -12.45 -47.8 -11.9 -46.95 -11.3 -46.95 -10.65 Q-46.95 -9.85 -46.25 -8.6 L-45.05 -6.15 -45.8 -6.15 -46.95 -7.2 -48.15 -8.6 -48.15 -8.5 Q-45.95 -5.75 -44.75 -3.4 L-45.7 -3.75 -46.85 -4.4 -46.7 -4.25 Q-45.7 -2.95 -43.65 -1.65 L-42.05 -0.5 -42.1 -0.45 -43.0 -0.3 -43.15 -0.2 -43.2 -0.05 -43.2 0.45" fill="#ff9900" fill-rule="evenodd" stroke="none"/>
    <path d="M-43.9 -14.45 L-44.0 -14.85 -44.0 -15.1 -43.8 -14.55 Q-43.4 -13.3 -43.6 -14.55 L-43.7 -14.9 -43.85 -16.95 -43.5 -15.45 Q-42.65 -12.85 -41.25 -11.45 -39.4 -9.6 -39.45 -8.1 -38.1 -9.3 -37.7 -10.65 -38.6 -7.2 -38.25 -7.0 -38.0 -6.9 -38.35 -4.95 -37.65 -6.55 -38.1 -5.05 L-38.5 -2.7 Q-38.5 -2.3 -38.15 -1.95 -37.8 -1.65 -37.8 -0.7 -37.8 0.3 -38.35 1.5 L-38.35 0.1 -38.4 -0.05 -38.5 -0.05 -39.05 -0.25 -39.25 -0.4 -39.3 -0.45 -39.45 -0.55 Q-39.45 -1.75 -40.0 -2.7 L-40.6 -3.6 -40.45 -4.2 -40.35 -4.65 -40.95 -4.2 -41.2 -4.35 -41.35 -4.7 -40.95 -5.95 Q-40.6 -6.9 -40.6 -7.2 -40.6 -7.6 -40.95 -8.05 L-41.5 -8.75 -42.05 -9.9 -42.35 -10.95 -42.4 -10.9 -42.4 -10.75 -41.9 -9.35 Q-41.6 -8.6 -41.6 -7.95 -41.6 -7.35 -41.75 -7.1 -41.9 -6.9 -42.4 -6.9 -44.3 -6.9 -45.35 -8.75 L-45.35 -8.5 Q-45.35 -7.7 -44.1 -6.65 -42.9 -5.55 -42.9 -4.8 -42.9 -4.35 -43.2 -4.35 -43.45 -4.35 -43.85 -4.7 L-44.3 -5.3 -44.3 -5.1 Q-44.3 -4.45 -43.75 -3.75 L-42.25 -2.15 -42.25 -1.85 -42.85 -2.05 -43.6 -2.4 -43.6 -2.35 -41.5 -0.7 -41.9 -0.5 -42.05 -0.5 -43.65 -1.65 Q-45.7 -2.95 -46.7 -4.25 L-46.85 -4.4 -45.7 -3.75 -44.75 -3.4 Q-45.95 -5.75 -48.15 -8.5 L-48.15 -8.6 -46.95 -7.2 -45.8 -6.15 -45.05 -6.15 -46.25 -8.6 Q-46.95 -9.85 -46.95 -10.65 L-46.95 -11.3 -46.95 -11.45 -46.9 -11.3 -46.2 -10.3 Q-45.5 -9.55 -44.9 -9.55 -43.8 -9.55 -43.55 -10.35 L-43.45 -11.8 -43.55 -13.25 -43.9 -14.45" fill="#ffff00" fill-rule="evenodd" stroke="none"/>
    <path d="M-41.5 -0.7 L-43.6 -2.35 -43.6 -2.4 -42.85 -2.05 -42.25 -1.85 -42.25 -2.15 -43.75 -3.75 Q-44.3 -4.45 -44.3 -5.1 L-44.3 -5.3 -43.85 -4.7 Q-43.45 -4.35 -43.2 -4.35 -42.9 -4.35 -42.9 -4.8 -42.9 -5.55 -44.1 -6.65 -45.35 -7.7 -45.35 -8.5 L-45.35 -8.75 Q-44.3 -6.9 -42.4 -6.9 -41.9 -6.9 -41.75 -7.1 -41.6 -7.35 -41.6 -7.95 -41.6 -8.6 -41.9 -9.35 L-42.4 -10.75 -42.4 -10.9 -42.35 -10.95 -42.05 -9.9 -41.5 -8.75 -40.95 -8.05 Q-40.6 -7.6 -40.6 -7.2 -40.6 -6.9 -40.95 -5.95 L-41.35 -4.7 -41.2 -4.35 -40.95 -4.2 -40.35 -4.65 -40.45 -4.2 -40.6 -3.6 -40.0 -2.7 Q-39.45 -1.75 -39.45 -0.55 L-39.9 -1.55 -40.0 -1.7 -40.15 -1.75 -41.5 -1.75 -41.6 -1.7 -41.65 -1.55 -41.6 -1.4 Q-41.35 -1.1 -41.45 -0.8 L-41.5 -0.7" fill="#ffff99" fill-rule="evenodd" stroke="none"/>
    <path d="M-43.2 1.05 L-43.2 0.65 -43.2 0.45 -43.2 -0.05 -43.15 -0.2 -43.0 -0.3 -42.1 -0.45 -42.05 -0.5 -41.9 -0.5 -41.5 -0.7 -41.45 -0.8 Q-41.35 -1.1 -41.6 -1.4 L-41.65 -1.55 -41.6 -1.7 -41.5 -1.75 -40.15 -1.75 -40.0 -1.7 -39.9 -1.55 -39.45 -0.55 -39.3 -0.45 -39.25 -0.4 -39.05 -0.25 -38.5 -0.05 -38.4 -0.05 -38.35 0.1 -38.35 1.5 -38.35 2.0 -38.35 2.05 -38.35 3.55 -38.35 26.8 -38.45 26.95 -38.6 27.05 -43.3 27.05 -43.45 26.95 -43.5 26.8 -43.2 1.05 M-40.35 -1.3 L-41.1 -1.3 Q-40.95 -0.95 -41.05 -0.6 L-41.25 -0.45 -41.8 -0.1 -41.85 -0.1 -42.05 -0.05 -42.75 0.05 -43.15 26.65 -42.05 26.65 -41.25 26.65 -40.35 26.65 -39.2 26.65 -38.75 26.65 -38.75 0.25 -39.2 0.1 -39.25 0.05 -39.55 -0.05 -39.65 -0.15 Q-40.15 -0.6 -40.3 -1.3 L-40.35 -1.3" fill="#999900" fill-rule="evenodd" stroke="none"/>
    <path d="M-42.05 26.65 L-43.15 26.65 -42.75 0.05 -42.05 -0.05 -41.85 -0.1 -41.8 -0.1 -41.25 -0.45 -41.05 -0.6 Q-40.95 -0.95 -41.1 -1.3 L-40.35 -1.3 -40.35 5.45 -40.55 5.3 -40.85 5.0 -40.9 4.95 -41.05 4.95 -41.1 5.25 -41.1 6.2 Q-41.1 6.65 -41.25 6.8 L-41.6 7.0 Q-42.0 7.0 -42.05 6.4 L-42.05 6.2 -42.05 5.65 -42.1 5.6 -42.2 6.35 -42.6 10.85 -42.45 12.2 -42.3 13.7 -42.45 15.4 -42.5 17.05 Q-42.55 17.65 -42.05 19.1 L-42.05 26.65 M-39.2 0.1 L-38.75 0.25 -38.75 26.65 -39.2 26.65 -39.2 0.1 M-40.35 26.65 L-41.25 26.65 -41.25 21.35 -40.35 23.9 -40.35 26.65 M-39.85 5.8 L-39.85 6.0 Q-39.85 6.25 -40.0 6.35 L-40.35 6.5 -40.4 6.55 -40.7 6.7 -40.75 6.8 -40.75 6.65 -40.5 6.25 -40.35 6.05 -40.05 5.75 -39.85 5.8 M-41.2 8.85 L-40.9 8.65 -40.55 9.05 -40.35 9.35 -40.2 9.7 -40.15 9.9 -40.35 9.9 -41.5 11.1 -41.5 10.7 -41.6 10.8 Q-42.05 11.1 -41.15 8.9 L-41.2 8.9 -41.2 8.85" fill="#99cc00" fill-rule="evenodd" stroke="none"/>
    <path d="M-40.35 -1.3 L-40.3 -1.3 Q-40.15 -0.6 -39.65 -0.15 L-39.55 -0.05 -39.25 0.05 -39.2 0.1 -39.2 26.65 -40.35 26.65 -40.35 23.9 -41.25 21.35 -41.25 26.65 -42.05 26.65 -42.05 19.1 Q-42.55 17.65 -42.5 17.05 L-42.45 15.4 -42.3 13.7 -42.45 12.2 -42.6 10.85 -42.2 6.35 -42.1 5.6 -42.05 5.65 -42.05 6.2 -42.05 6.4 Q-42.0 7.0 -41.6 7.0 L-41.25 6.8 Q-41.1 6.65 -41.1 6.2 L-41.1 5.25 -41.05 4.95 -40.9 4.95 -40.85 5.0 -40.55 5.3 -40.35 5.45 -40.35 -1.3 M-39.85 5.8 L-40.05 5.75 -40.35 6.05 -40.5 6.25 -40.75 6.65 -40.75 6.8 -40.7 6.7 -40.4 6.55 -40.35 6.5 -40.0 6.35 Q-39.85 6.25 -39.85 6.0 L-39.85 5.8 M-41.2 8.85 L-41.2 8.9 -41.15 8.9 Q-42.05 11.1 -41.6 10.8 L-41.5 10.7 -41.5 11.1 -40.35 9.9 -40.15 9.9 -40.2 9.7 -40.35 9.35 -40.55 9.05 -40.9 8.65 -41.2 8.85" fill="#e7ff18" fill-rule="evenodd" stroke="none"/>
    <path d="M-32.05 -3.3 Q-30.7 -5.15 -28.75 -5.15 -26.85 -5.15 -25.5 -3.3 -24.1 -1.4 -24.1 1.25 -24.1 3.9 -25.5 5.75 -26.85 7.65 -28.75 7.65 -30.7 7.65 -32.05 5.75 -33.4 3.9 -33.4 1.25 -33.4 -1.4 -32.05 -3.3" fill="#99cc00" fill-opacity="0.7019608" fill-rule="evenodd" stroke="none"/>
    <path d="M40.3 -15.5 Q39.6 -16.55 39.6 -17.95 39.6 -19.4 40.3 -20.4 41.05 -21.4 42.1 -21.4 43.15 -21.4 43.85 -20.4 44.6 -19.4 44.6 -17.95 44.6 -16.55 43.85 -15.5 43.15 -14.5 42.1 -14.5 41.05 -14.5 40.3 -15.5" fill="#e7ff18" fill-opacity="0.7019608" fill-rule="evenodd" stroke="none"/>
    <path d="M27.65 -17.95 Q27.65 -19.9 28.65 -21.25 29.65 -22.6 31.05 -22.6 32.45 -22.6 33.4 -21.25 34.4 -19.9 34.4 -17.95 34.4 -16.05 33.4 -14.7 32.45 -13.35 31.05 -13.35 29.65 -13.35 28.65 -14.7 27.65 -16.05 27.65 -17.95" fill="#99cc00" fill-opacity="0.7019608" fill-rule="evenodd" stroke="none"/>
    <path d="M36.3 14.75 Q37.6 12.9 39.5 12.9 41.35 12.9 42.65 14.75 44.0 16.6 44.0 19.1 44.0 21.7 42.65 23.55 41.35 25.3 39.5 25.3 37.6 25.3 36.3 23.55 35.0 21.7 35.0 19.1 35.0 16.6 36.3 14.75" fill="#e7ff18" fill-opacity="0.7019608" fill-rule="evenodd" stroke="none"/>
    <path d="M-23.4 -11.5 Q-23.9 -10.8 -24.65 -10.8 -25.35 -10.8 -25.9 -11.5 -26.45 -12.25 -26.45 -13.25 -26.45 -14.3 -25.9 -15.0 -25.35 -15.75 -24.65 -15.75 -23.9 -15.75 -23.4 -15.0 -22.85 -14.3 -22.85 -13.25 -22.85 -12.25 -23.4 -11.5" fill="#e7ff18" fill-opacity="0.7019608" fill-rule="evenodd" stroke="none"/>
    <path d="M-37.5 -20.0 Q-37.5 -21.65 -36.65 -22.8 -35.85 -23.95 -34.65 -23.95 -33.45 -23.95 -32.6 -22.8 -31.75 -21.65 -31.75 -20.0 -31.75 -18.35 -32.6 -17.2 -33.45 -16.05 -34.65 -16.05 -35.85 -16.05 -36.65 -17.2 -37.5 -18.35 -37.5 -20.0" fill="#99cc00" fill-opacity="0.7019608" fill-rule="evenodd" stroke="none"/>
  </g>
</svg>
