<?xml version="1.0" encoding="UTF-8" standalone="no"?>
<svg xmlns:ffdec="https://www.free-decompiler.com/flash" xmlns:xlink="http://www.w3.org/1999/xlink" ffdec:objectType="shape" height="29.0px" width="30.95px" xmlns="http://www.w3.org/2000/svg">
  <g transform="matrix(1.0, 0.0, 0.0, 1.0, 15.45, 14.5)">
    <path d="M-3.8 14.5 Q3.35 10.8 6.3 5.75 9.3 0.65 9.7 -2.75 L9.75 -2.85 10.4 -4.35 Q9.85 5.65 1.7 11.45 0.0 12.65 -3.8 14.5" fill="#0099ff" fill-rule="evenodd" stroke="none"/>
    <path d="M9.75 -2.85 Q10.15 -6.2 7.95 -7.8 0.75 -11.45 -0.8 -1.85 -4.75 -5.35 -6.65 -2.45 -8.5 0.45 -5.4 5.0 -10.2 0.05 -15.2 -1.2 L-15.45 -1.8 -15.1 -2.2 -13.3 -2.6 Q-10.25 -9.85 -3.6 -6.0 L-3.0 -5.65 Q-1.85 -4.6 -1.0 -6.75 L-0.4 -8.0 Q1.85 -11.95 5.2 -12.8 11.5 -14.35 14.8 -8.55 14.9 -7.25 14.55 -5.95 12.45 2.0 6.25 8.2 2.55 11.55 -1.65 13.9 L-3.8 14.5 Q0.0 12.65 1.7 11.45 9.85 5.65 10.4 -4.35 L9.75 -2.85" fill="url(#gradient0)" fill-rule="evenodd" stroke="none"/>
    <path d="M-13.3 -2.6 Q-11.25 -12.15 -2.85 -7.1 -1.8 -6.45 -1.4 -7.55 3.85 -18.25 12.6 -12.5 14.95 -10.85 15.4 -7.5 L14.8 -8.55 Q11.5 -14.35 5.2 -12.8 1.85 -11.95 -0.4 -8.0 L-1.0 -6.75 Q-1.85 -4.6 -3.0 -5.65 L-3.6 -6.0 Q-10.25 -9.85 -13.3 -2.6" fill="#9966ff" fill-rule="evenodd" stroke="none"/>
    <path d="M15.4 -7.5 L15.45 -7.1 15.45 -4.2 15.0 -1.85 Q15.4 -4.1 15.15 -6.45 13.65 6.15 -1.2 13.75 L-1.65 13.9 Q2.55 11.55 6.25 8.2 12.45 2.0 14.55 -5.95 14.9 -7.25 14.8 -8.55 L15.4 -7.5" fill="#6db6ff" fill-rule="evenodd" stroke="none"/>
    <path d="M15.0 -1.85 Q14.5 1.05 12.85 3.6 9.95 8.55 4.0 11.6 L-1.15 13.75 -1.2 13.75 Q13.65 6.15 15.15 -6.45 15.4 -4.1 15.0 -1.85" fill="#ffffff" fill-rule="evenodd" stroke="none"/>
  </g>
  <defs>
    <radialGradient cx="0" cy="0" gradientTransform="matrix(0.0241, 0.0, 0.0, 0.0241, 5.05, 0.5)" gradientUnits="userSpaceOnUse" id="gradient0" r="819.2" spreadMethod="pad">
      <stop offset="0.0" stop-color="#66ffff"/>
      <stop offset="1.0" stop-color="#9966ff"/>
    </radialGradient>
  </defs>
</svg>
