<?xml version="1.0" encoding="UTF-8" standalone="no"?>
<svg xmlns:ffdec="https://www.free-decompiler.com/flash" xmlns:xlink="http://www.w3.org/1999/xlink" ffdec:objectType="shape" height="48.0px" width="37.85px" xmlns="http://www.w3.org/2000/svg">
  <g transform="matrix(1.0, 0.0, 0.0, 1.0, 18.9, 24.0)">
    <path d="M2.05 -22.4 L2.55 -22.85 Q4.0 -24.0 6.0 -24.0 7.95 -24.0 9.4 -22.85 L9.9 -22.4 Q11.5 -20.8 11.5 -18.5 11.5 -16.2 9.9 -14.55 8.75 -13.4 7.3 -13.1 L8.3 -8.3 16.7 -11.25 18.0 -11.15 Q18.6 -10.85 18.85 -10.2 19.05 -9.55 18.75 -8.95 18.45 -8.3 17.8 -8.1 L8.3 -4.8 7.75 -4.7 7.4 -4.6 Q6.75 -4.45 6.15 -4.8 5.55 -5.2 5.45 -5.85 L4.4 -10.5 0.7 -5.25 0.7 -5.05 -1.1 3.85 7.0 11.9 Q7.45 12.4 7.45 13.1 L7.45 13.15 7.6 13.6 8.3 20.7 Q8.8 20.75 9.2 21.15 9.7 21.65 9.7 22.3 9.7 23.0 9.2 23.5 8.7 24.0 8.0 24.0 L7.05 24.0 Q6.35 24.0 5.9 23.5 L5.75 23.35 5.7 23.35 Q5.2 22.9 5.1 22.2 L4.3 13.95 4.3 13.9 -2.35 7.3 -7.25 13.55 -7.65 13.95 -8.3 14.55 -14.8 18.05 -14.6 18.35 Q-14.2 18.95 -14.35 19.6 -14.45 20.3 -15.05 20.7 L-16.3 20.95 -17.35 20.25 -18.6 18.45 Q-19.0 17.85 -18.85 17.2 -18.75 16.5 -18.15 16.15 L-17.9 16.0 -17.6 15.75 -9.95 11.65 -9.85 11.5 -4.7 4.85 -4.65 4.65 -2.6 -5.6 Q-2.7 -6.25 -2.3 -6.75 L1.0 -11.45 -4.0 -10.65 -4.0 -8.0 Q-4.0 -7.35 -4.45 -6.85 -4.95 -6.35 -5.65 -6.35 -6.35 -6.35 -6.8 -6.85 -7.3 -7.35 -7.3 -8.0 L-7.3 -11.9 Q-7.3 -12.55 -6.8 -13.05 L-6.65 -13.2 Q-6.25 -13.7 -5.6 -13.8 L1.7 -14.95 Q0.45 -16.45 0.45 -18.5 0.45 -20.8 2.05 -22.4" fill="#ff0000" fill-rule="evenodd" stroke="none"/>
  </g>
</svg>
