<?xml version="1.0" encoding="UTF-8" standalone="no"?>
<svg xmlns:ffdec="https://www.free-decompiler.com/flash" xmlns:xlink="http://www.w3.org/1999/xlink" ffdec:objectType="shape" height="67.0px" width="16.0px" xmlns="http://www.w3.org/2000/svg">
  <g transform="matrix(1.0, 0.0, 0.0, 1.0, -732.15, -242.5)">
    <path d="M732.15 243.3 L732.3 242.75 732.65 242.5 747.65 242.5 748.0 242.75 748.15 243.3 748.15 308.7 748.0 309.25 747.85 309.4 747.65 309.5 732.65 309.5 732.3 309.25 732.15 308.7 732.15 243.3 M743.4 244.15 L733.15 244.15 733.15 251.25 733.15 260.8 733.15 267.9 733.15 277.55 733.15 284.65 733.15 293.4 733.15 300.5 733.15 307.85 743.4 307.85 747.15 307.85 747.15 244.15 743.4 244.15" fill="#006600" fill-rule="evenodd" stroke="none"/>
    <path d="M743.4 244.15 L747.15 244.15 747.15 307.85 743.4 307.85 743.4 301.1 743.4 292.0 743.4 285.25 743.4 275.25 743.4 268.5 743.4 258.6 743.4 251.8 743.4 244.15" fill="#e7ffec" fill-rule="evenodd" stroke="none"/>
    <path d="M733.15 244.15 L743.4 244.15 743.4 251.8 733.15 244.15 M743.4 307.85 L733.15 307.85 733.15 300.5 743.4 307.85 M733.15 293.4 L733.15 284.65 743.4 292.0 743.4 301.1 733.15 293.4 M733.15 277.55 L733.15 267.9 743.4 275.25 743.4 285.25 733.15 277.55 M733.15 260.8 L733.15 251.25 743.4 258.6 743.4 268.5 733.15 260.8" fill="#009a00" fill-rule="evenodd" stroke="none"/>
    <path d="M733.15 300.5 L733.15 293.4 743.4 301.1 743.4 307.85 733.15 300.5 M733.15 284.65 L733.15 277.55 743.4 285.25 743.4 292.0 733.15 284.65 M733.15 267.9 L733.15 260.8 743.4 268.5 743.4 275.25 733.15 267.9 M733.15 251.25 L733.15 244.15 743.4 251.8 743.4 258.6 733.15 251.25" fill="#00ff3e" fill-rule="evenodd" stroke="none"/>
  </g>
</svg>
