<?xml version="1.0" encoding="UTF-8" standalone="no"?>
<svg xmlns:ffdec="https://www.free-decompiler.com/flash" xmlns:xlink="http://www.w3.org/1999/xlink" ffdec:objectType="shape" height="16.0px" width="41.0px" xmlns="http://www.w3.org/2000/svg">
  <g transform="matrix(1.0, 0.0, 0.0, 1.0, 20.5, 8.0)">
    <path d="M15.35 -3.25 L19.5 -3.25 15.0 7.0 10.65 7.0 15.35 -3.25 M-14.8 -3.25 L-10.65 -3.25 -15.15 7.0 -19.5 7.0 -14.8 -3.25 M-4.6 -3.25 L-0.45 -3.25 -4.95 7.0 -9.3 7.0 -4.6 -3.25 M5.65 -3.25 L9.8 -3.25 5.3 7.0 0.95 7.0 5.65 -3.25" fill="#00ff3e" fill-rule="evenodd" stroke="none"/>
    <path d="M15.35 -3.25 L9.8 -3.25 5.65 -3.25 -0.45 -3.25 -4.6 -3.25 -10.65 -3.25 -14.8 -3.25 -19.5 -3.25 -19.5 -7.0 19.5 -7.0 19.5 -3.25 15.35 -3.25" fill="#e7ffec" fill-rule="evenodd" stroke="none"/>
    <path d="M9.8 -3.25 L15.35 -3.25 10.65 7.0 5.3 7.0 9.8 -3.25 M-19.5 -3.25 L-14.8 -3.25 -19.5 7.0 -19.5 -3.25 M-10.65 -3.25 L-4.6 -3.25 -9.3 7.0 -15.15 7.0 -10.65 -3.25 M-0.45 -3.25 L5.65 -3.25 0.95 7.0 -4.95 7.0 -0.45 -3.25 M19.5 -3.25 L19.5 7.0 15.0 7.0 19.5 -3.25" fill="#009a00" fill-rule="evenodd" stroke="none"/>
    <path d="M20.45 -7.7 L20.5 -7.5 20.5 7.5 20.35 7.85 20.0 8.0 -20.0 8.0 -20.35 7.85 -20.5 7.5 -20.5 -7.5 -20.35 -7.85 -20.0 -8.0 20.0 -8.0 20.35 -7.85 20.45 -7.7 M19.5 -3.25 L19.5 -7.0 -19.5 -7.0 -19.5 -3.25 -19.5 7.0 -15.15 7.0 -9.3 7.0 -4.95 7.0 0.95 7.0 5.3 7.0 10.65 7.0 15.0 7.0 19.5 7.0 19.5 -3.25" fill="#006600" fill-rule="evenodd" stroke="none"/>
  </g>
</svg>
