<?xml version="1.0" encoding="UTF-8" standalone="no"?>
<svg xmlns:ffdec="https://www.free-decompiler.com/flash" xmlns:xlink="http://www.w3.org/1999/xlink" ffdec:objectType="shape" height="25.0px" width="30.0px" xmlns="http://www.w3.org/2000/svg">
  <g transform="matrix(1.0, 0.0, 0.0, 1.0, 15.0, 12.5)">
    <path d="M12.5 -12.5 L12.8 -12.45 Q14.55 -12.3 14.55 -10.1 L14.95 -3.35 15.0 1.6 14.55 10.15 Q14.55 12.3 12.8 12.5 L12.5 12.5 10.65 12.5 Q8.8 12.5 8.65 10.6 L8.6 10.25 -10.5 10.25 Q-12.6 10.25 -14.2 6.1 -15.8 1.9 -14.25 -5.7 -12.6 -10.45 -10.5 -10.45 L8.6 -10.45 8.65 -10.55 Q8.8 -12.5 10.65 -12.5 L12.5 -12.5 M-10.5 -9.7 Q-12.25 -9.7 -13.5 -4.4 -14.8 0.9 -13.5 5.2 -12.25 9.5 -10.5 9.5 L8.6 9.5 8.6 9.35 8.65 9.25 8.65 9.1 8.65 9.0 9.0 1.55 9.0 -3.3 8.65 -9.7 -10.5 -9.7 M14.2 -9.95 L14.2 -10.05 Q14.15 -11.6 12.85 -11.75 L12.75 -11.75 12.5 -11.75 10.65 -11.75 Q9.15 -11.75 8.95 -10.4 L8.95 -10.35 8.95 -10.05 9.35 -3.35 9.35 -3.3 9.4 1.55 9.4 1.6 8.95 9.1 8.95 9.2 8.95 10.4 Q9.1 11.8 10.65 11.8 L12.5 11.8 12.75 11.8 12.8 11.8 Q14.15 11.6 14.2 10.1 L14.2 10.05 Q14.6 5.8 14.65 1.55 L14.6 -3.3 14.2 -9.95" fill="#666666" fill-rule="evenodd" stroke="none"/>
    <path d="M14.2 -9.95 L14.6 -3.3 14.65 1.55 Q14.6 5.8 14.2 10.05 L14.2 10.1 Q14.15 11.6 12.8 11.8 L12.75 11.8 12.5 11.8 10.65 11.8 Q9.1 11.8 8.95 10.4 L8.95 9.2 8.95 9.1 9.4 1.6 9.4 1.55 9.35 -3.3 9.35 -3.35 8.95 -10.05 8.95 -10.35 8.95 -10.4 Q9.15 -11.75 10.65 -11.75 L12.5 -11.75 12.75 -11.75 12.85 -11.75 Q14.15 -11.6 14.2 -10.05 L14.2 -9.95 M-10.5 -9.7 L8.65 -9.7 9.0 -3.3 9.0 1.55 8.65 9.0 8.65 9.1 8.65 9.25 8.6 9.35 8.6 9.5 -10.5 9.5 Q-12.25 9.5 -13.5 5.2 -14.8 0.9 -13.5 -4.4 -12.25 -9.7 -10.5 -9.7" fill="url(#gradient0)" fill-rule="evenodd" stroke="none"/>
  </g>
  <defs>
    <linearGradient gradientTransform="matrix(0.0, -0.0143, 0.2341, 0.0, 1.4, -1.95)" gradientUnits="userSpaceOnUse" id="gradient0" spreadMethod="pad" x1="-819.2" x2="819.2">
      <stop offset="0.0" stop-color="#333333"/>
      <stop offset="0.984313725490196" stop-color="#ffffff"/>
    </linearGradient>
  </defs>
</svg>
