<?xml version="1.0" encoding="UTF-8" standalone="no"?>
<svg xmlns:ffdec="https://www.free-decompiler.com/flash" xmlns:xlink="http://www.w3.org/1999/xlink" ffdec:objectType="shape" height="36.0px" width="35.95px" xmlns="http://www.w3.org/2000/svg">
  <g transform="matrix(1.0, 0.0, 0.0, 1.0, 17.95, 18.0)">
    <path d="M12.0 -12.0 Q16.95 -7.05 16.95 0.0 16.95 7.0 12.0 11.95 7.05 16.95 0.05 16.95 -6.95 16.95 -11.95 11.95 -16.9 7.0 -16.9 0.0 -16.9 -7.05 -11.95 -12.0 -6.95 -16.95 0.05 -16.95 7.05 -16.95 12.0 -12.0 M9.9 -9.9 Q5.8 -14.0 0.0 -14.0 -5.75 -14.0 -9.85 -9.9 -13.95 -5.8 -13.95 0.0 -13.95 5.8 -9.85 9.85 -5.75 13.95 0.0 13.95 5.8 13.95 9.9 9.85 14.0 5.8 14.0 0.0 14.0 -5.8 9.9 -9.9" fill="#009965" fill-rule="evenodd" stroke="none"/>
    <path d="M7.85 -7.8 Q4.65 -11.0 0.05 -11.0 -4.45 -11.0 -7.7 -7.8 -10.95 -4.55 -10.95 0.0 -10.95 4.55 -7.7 7.8 -4.45 11.0 0.05 11.0 4.65 11.0 7.85 7.8 11.05 4.55 11.05 0.0 11.05 -4.55 7.85 -7.8 M9.9 -9.9 Q14.0 -5.8 14.0 0.0 14.0 5.8 9.9 9.85 5.8 13.95 0.0 13.95 -5.75 13.95 -9.85 9.85 -13.95 5.8 -13.95 0.0 -13.95 -5.8 -9.85 -9.9 -5.75 -14.0 0.0 -14.0 5.8 -14.0 9.9 -9.9" fill="#00bf7f" fill-rule="evenodd" stroke="none"/>
    <path d="M0.05 -18.0 Q7.5 -18.0 12.75 -12.75 18.0 -7.45 18.0 0.0 18.0 7.4 12.75 12.7 7.5 18.0 0.05 18.0 -7.4 18.0 -12.75 12.7 -17.95 7.4 -17.95 0.0 -17.95 -7.45 -12.75 -12.75 -7.4 -18.0 0.05 -18.0 M12.0 -12.0 Q7.05 -16.95 0.05 -16.95 -6.95 -16.95 -11.95 -12.0 -16.9 -7.05 -16.9 0.0 -16.9 7.0 -11.95 11.95 -6.95 16.95 0.05 16.95 7.05 16.95 12.0 11.95 16.95 7.0 16.95 0.0 16.95 -7.05 12.0 -12.0" fill="#007f00" fill-rule="evenodd" stroke="none"/>
    <path d="M7.85 -7.8 Q11.05 -4.55 11.05 0.0 11.05 4.55 7.85 7.8 4.65 11.0 0.05 11.0 -4.45 11.0 -7.7 7.8 -10.95 4.55 -10.95 0.0 -10.95 -4.55 -7.7 -7.8 -4.45 -11.0 0.05 -11.0 4.65 -11.0 7.85 -7.8" fill="#00d88c" fill-rule="evenodd" stroke="none"/>
    <path d="M1.9 -11.75 Q1.9 -10.2 0.8 -9.15 -0.25 -8.05 -1.75 -8.05 -3.35 -8.05 -4.4 -9.15 -5.5 -10.2 -5.5 -11.75 -5.5 -13.25 -4.4 -14.35 -3.35 -15.45 -1.75 -15.45 -0.25 -15.45 0.8 -14.35 1.9 -13.25 1.9 -11.75" fill="#99cc00" fill-opacity="0.7019608" fill-rule="evenodd" stroke="none"/>
    <path d="M-12.7 11.1 Q-13.8 9.95 -13.8 8.3 -13.8 6.8 -12.7 5.6 -11.55 4.45 -9.95 4.45 -8.35 4.45 -7.25 5.6 -6.05 6.8 -6.05 8.3 -6.05 9.95 -7.25 11.1 -8.35 12.2 -9.95 12.2 -11.55 12.2 -12.7 11.1" fill="#e7ff18" fill-opacity="0.7019608" fill-rule="evenodd" stroke="none"/>
    <path d="M11.75 2.55 Q12.3 2.0 13.0 2.0 13.75 2.0 14.25 2.55 14.8 3.1 14.8 3.8 14.8 4.55 14.25 5.1 13.75 5.55 13.0 5.55 12.3 5.55 11.75 5.1 11.3 4.55 11.3 3.8 11.3 3.1 11.75 2.55" fill="#e7ff18" fill-opacity="0.7019608" fill-rule="evenodd" stroke="none"/>
    <path d="M5.75 6.25 Q5.1 6.95 4.1 6.95 3.1 6.95 2.4 6.25 1.65 5.6 1.65 4.6 1.65 3.6 2.4 2.9 3.1 2.2 4.1 2.2 5.1 2.2 5.75 2.9 6.5 3.6 6.5 4.6 6.5 5.6 5.75 6.25" fill="#99cc00" fill-opacity="0.7019608" fill-rule="evenodd" stroke="none"/>
    <path d="M11.75 -11.0 Q12.3 -10.55 12.3 -9.8 12.3 -9.15 11.75 -8.6 11.25 -8.05 10.5 -8.05 9.8 -8.05 9.25 -8.6 8.75 -9.15 8.75 -9.8 8.75 -10.55 9.25 -11.0 9.8 -11.6 10.5 -11.6 11.25 -11.6 11.75 -11.0" fill="#99cc00" fill-opacity="0.7019608" fill-rule="evenodd" stroke="none"/>
    <path d="M7.4 -5.15 L8.05 -1.8 Q8.15 -0.15 7.5 2.75 6.75 5.6 5.65 5.6 5.05 5.6 5.05 4.75 L5.45 2.3 5.9 -0.6 Q5.9 -3.75 5.35 -5.05 5.1 -6.2 5.25 -6.35 L6.2 -6.7 Q6.85 -6.75 7.4 -5.15 M10.35 -1.55 Q10.35 -3.5 9.8 -6.3 9.3 -9.0 8.75 -10.1 8.75 -10.9 9.6 -10.9 10.4 -10.9 11.0 -9.75 11.6 -8.7 12.15 -6.05 12.75 -3.4 12.75 -0.8 L12.5 1.9 11.8 4.8 10.3 8.1 Q9.35 9.7 8.45 9.7 7.55 9.7 7.55 8.75 7.55 8.2 8.4 6.35 L9.35 4.25 10.1 1.3 10.35 -1.55 M0.9 11.25 L-6.55 4.8 -6.55 -4.45 1.0 -11.25 Q5.35 -0.45 0.9 11.25 M-12.65 -2.9 Q-10.55 -4.4 -7.95 -4.45 L-7.95 4.7 Q-10.8 4.8 -12.75 3.6 L-12.75 -2.85 -12.65 -2.9" fill="#ffcb00" fill-rule="evenodd" stroke="none"/>
    <path d="M10.35 -1.55 L10.1 1.3 9.35 4.25 8.4 6.35 Q7.55 8.2 7.55 8.75 7.55 9.7 8.45 9.7 9.35 9.7 10.3 8.1 L11.8 4.8 12.5 1.9 12.75 -0.8 Q12.75 -3.4 12.15 -6.05 11.6 -8.7 11.0 -9.75 10.4 -10.9 9.6 -10.9 8.75 -10.9 8.75 -10.1 9.3 -9.0 9.8 -6.3 10.35 -3.5 10.35 -1.55 M7.4 -5.15 Q6.85 -6.75 6.2 -6.7 L5.25 -6.35 Q5.1 -6.2 5.35 -5.05 5.9 -3.75 5.9 -0.6 L5.45 2.3 5.05 4.75 Q5.05 5.6 5.65 5.6 6.75 5.6 7.5 2.75 8.15 -0.15 8.05 -1.8 L7.4 -5.15 M0.9 11.25 L-6.55 4.8 -6.55 -4.45 1.0 -11.25 Q5.35 -0.45 0.9 11.25 M-12.65 -2.9 L-12.75 -2.85 -12.75 3.6 Q-10.8 4.8 -7.95 4.7 L-7.95 -4.45 Q-10.55 -4.4 -12.65 -2.9 Z" fill="none" stroke="#990000" stroke-linecap="round" stroke-linejoin="round" stroke-width="1.0"/>
  </g>
</svg>
