<?xml version="1.0" encoding="UTF-8" standalone="no"?>
<svg xmlns:ffdec="https://www.free-decompiler.com/flash" xmlns:xlink="http://www.w3.org/1999/xlink" ffdec:objectType="shape" height="43.0px" width="27.6px" xmlns="http://www.w3.org/2000/svg">
  <g transform="matrix(1.0, 0.0, 0.0, 1.0, 21.8, 19.25)">
    <path d="M0.85 -14.95 Q0.7 -14.4 0.2 -14.1 L-4.7 -11.1 -5.75 -10.95 -5.85 -10.95 -6.35 -10.6 -7.25 -10.35 -7.35 -10.35 -11.3 -9.1 -6.35 -6.65 -5.8 -6.15 -4.85 -6.35 -1.4 -5.75 -0.55 -5.2 Q-0.25 -4.75 -0.3 -4.2 -0.4 -3.65 -0.9 -3.3 -1.35 -3.0 -1.9 -3.1 L-5.35 -3.7 -6.2 -4.3 -6.25 -4.3 -6.5 -4.15 -7.55 -4.25 -10.55 -5.7 -9.9 -4.65 -9.75 -4.25 -9.5 -3.95 -5.3 3.55 -5.1 4.0 Q-4.75 4.1 -4.5 4.4 L1.55 10.8 1.8 11.15 1.95 11.25 Q2.45 11.5 2.6 12.05 L4.4 18.4 5.0 18.55 5.7 19.25 Q5.95 19.8 5.7 20.3 L5.0 21.05 4.3 21.35 Q3.75 21.55 3.25 21.35 L3.15 21.3 2.8 21.15 Q2.25 20.9 2.15 20.35 L0.05 12.95 -0.4 12.65 -5.8 6.95 -5.8 14.85 -5.8 15.0 -5.7 15.6 -6.3 21.0 Q-5.75 21.05 -5.4 21.4 -5.0 21.8 -5.0 22.4 -5.0 22.95 -5.4 23.35 -5.8 23.75 -6.3 23.75 L-7.15 23.75 -7.9 23.55 -8.8 23.05 Q-9.15 22.6 -9.05 22.0 L-8.4 15.3 -8.45 14.85 -8.45 5.2 Q-8.45 4.6 -8.05 4.25 L-8.0 4.2 -11.85 -2.6 -12.0 -3.0 -12.25 -3.25 -14.9 -7.85 -15.45 -8.55 -15.5 -8.85 -15.95 -9.6 -16.15 -10.4 -16.4 -10.35 -17.1 -10.25 -18.5 -10.45 Q-20.3 -10.85 -21.2 -12.5 -22.15 -14.15 -21.65 -15.95 L-21.5 -16.45 Q-20.95 -17.85 -19.55 -18.6 -18.2 -19.45 -16.65 -19.2 L-16.15 -19.1 Q-14.4 -18.6 -13.45 -17.0 -12.5 -15.4 -13.0 -13.6 -13.3 -12.35 -14.15 -11.55 L-13.75 -11.2 -8.55 -12.8 -8.15 -13.0 -7.45 -13.1 -7.15 -13.2 -6.4 -13.2 -6.1 -13.45 -1.15 -16.45 -0.2 -16.55 Q0.4 -16.45 0.65 -15.95 0.95 -15.5 0.85 -14.95" fill="#6633cc" fill-rule="evenodd" stroke="none"/>
  </g>
</svg>
