<?xml version="1.0" encoding="UTF-8" standalone="no"?>
<svg xmlns:ffdec="https://www.free-decompiler.com/flash" xmlns:xlink="http://www.w3.org/1999/xlink" ffdec:objectType="shape" height="20.55px" width="48.0px" xmlns="http://www.w3.org/2000/svg">
  <g transform="matrix(1.0, 0.0, 0.0, 1.0, 52.55, -0.15)">
    <path d="M-8.9 7.05 Q-8.75 7.55 -9.0 8.05 L-9.8 8.7 -10.4 8.7 -18.3 13.3 -14.25 12.2 -13.95 12.15 -13.5 11.9 -7.2 9.9 -7.2 8.45 Q-7.2 7.9 -6.8 7.5 -6.45 7.1 -5.9 7.1 -5.35 7.1 -4.95 7.5 -4.55 7.9 -4.55 8.45 L-4.55 10.9 -4.8 11.7 -5.5 12.2 -12.7 14.45 -13.05 14.55 -13.6 14.8 -24.55 17.7 -25.55 17.55 -25.85 17.35 Q-26.1 17.55 -26.5 17.55 L-34.95 17.5 -35.35 17.45 -35.75 17.5 -43.05 17.6 -43.8 17.4 -43.85 17.6 -44.1 18.3 -44.95 19.4 Q-46.25 20.65 -48.1 20.7 -49.95 20.65 -51.25 19.4 L-51.6 19.0 Q-52.55 17.85 -52.55 16.25 -52.55 14.65 -51.6 13.5 L-51.25 13.1 Q-49.95 11.8 -48.1 11.8 -46.25 11.8 -44.95 13.1 -44.05 13.95 -43.75 15.1 L-43.45 14.95 -43.35 14.15 -39.1 5.45 -37.65 1.05 -36.95 0.3 -35.95 0.2 Q-35.4 0.4 -35.15 0.9 -34.9 1.4 -35.1 1.9 L-36.6 6.35 -36.65 6.5 -40.35 14.1 -34.35 9.15 -31.1 3.8 Q-30.8 3.35 -30.25 3.2 L-29.25 3.35 Q-28.75 3.65 -28.65 4.2 -28.5 4.75 -28.8 5.2 L-32.2 10.75 -32.45 11.05 -37.05 14.85 -35.8 14.85 -35.35 14.9 -34.95 14.85 -26.5 14.85 -26.3 14.9 -26.05 14.65 -11.8 6.45 -12.1 5.4 Q-12.25 4.85 -12.0 4.4 L-11.15 3.75 -10.15 3.85 -9.5 4.7 -8.9 7.05" fill="#6633cc" fill-rule="evenodd" stroke="none"/>
  </g>
</svg>
