<?xml version="1.0" encoding="UTF-8" standalone="no"?>
<svg xmlns:ffdec="https://www.free-decompiler.com/flash" xmlns:xlink="http://www.w3.org/1999/xlink" ffdec:objectType="shape" height="8.75px" width="48.05px" xmlns="http://www.w3.org/2000/svg">
  <g transform="matrix(1.0, 0.0, 0.0, 1.0, 55.55, -15.85)">
    <path d="M-11.15 17.85 L-10.2 17.7 -10.1 17.4 -9.5 16.55 -8.5 16.45 -7.7 17.05 Q-7.45 17.55 -7.55 18.1 L-8.2 20.4 -8.65 21.1 -9.4 21.35 -9.75 21.4 -9.8 21.65 Q-9.95 22.15 -10.4 22.45 L-11.4 22.6 -11.45 22.55 -11.7 22.6 -28.15 22.6 Q-28.7 22.6 -29.05 22.2 L-29.4 21.7 -29.4 21.8 Q-29.4 22.35 -29.75 22.75 -30.1 23.15 -30.65 23.2 L-35.25 23.5 -35.45 23.5 -42.95 23.0 -43.05 23.05 -44.05 23.2 -45.35 22.85 -46.15 22.25 -46.3 21.55 -46.9 21.35 -46.95 21.55 -47.2 22.25 -48.05 23.3 Q-49.3 24.55 -51.15 24.6 -52.95 24.55 -54.25 23.3 L-54.6 22.95 Q-55.55 21.8 -55.55 20.25 -55.55 18.65 -54.6 17.5 L-54.25 17.15 Q-52.95 15.85 -51.15 15.85 -49.35 15.8 -48.05 17.1 -47.15 17.95 -46.9 19.1 L-46.2 18.9 -45.4 18.9 -44.85 18.75 -44.75 18.65 Q-44.4 18.25 -43.85 18.2 L-27.65 17.2 Q-27.1 17.2 -26.65 17.55 -26.25 17.9 -26.25 18.45 L-26.35 19.05 -17.05 19.1 -16.75 19.15 -16.25 19.0 -11.8 18.8 -11.75 18.65 Q-11.6 18.1 -11.15 17.85" fill="#6633cc" fill-rule="evenodd" stroke="none"/>
  </g>
</svg>
