<?xml version="1.0" encoding="UTF-8" standalone="no"?>
<svg xmlns:ffdec="https://www.free-decompiler.com/flash" xmlns:xlink="http://www.w3.org/1999/xlink" ffdec:objectType="shape" height="29.0px" width="29.85px" xmlns="http://www.w3.org/2000/svg">
  <g transform="matrix(1.0, 0.0, 0.0, 1.0, 14.9, 14.5)">
    <path d="M7.65 -7.6 Q6.85 -12.25 0.55 -12.9 L-5.65 -12.9 -5.6 14.4 -12.7 14.4 -14.9 13.35 Q-11.35 13.35 -11.1 10.65 L-11.1 -10.9 Q-11.35 -13.65 -14.9 -13.6 L-13.25 -14.5 -1.1 -14.5 0.7 -14.45 Q6.35 -14.05 10.0 -11.3 15.35 -7.3 14.9 1.4 14.45 9.05 8.75 12.2 4.65 14.45 -1.05 14.5 8.05 12.4 9.15 7.25 L9.2 7.1 Q10.45 0.65 0.35 -0.55 8.35 -3.3 7.65 -7.6" fill="url(#gradient0)" fill-rule="evenodd" stroke="none"/>
  </g>
  <defs>
    <radialGradient cx="0" cy="0" gradientTransform="matrix(0.0339, 0.0, 0.0, 0.034, 4.4, 4.5)" gradientUnits="userSpaceOnUse" id="gradient0" r="819.2" spreadMethod="pad">
      <stop offset="0.0" stop-color="#9966ff"/>
      <stop offset="1.0" stop-color="#66ffff"/>
    </radialGradient>
  </defs>
</svg>
