<?xml version="1.0" encoding="UTF-8" standalone="no"?>
<svg xmlns:ffdec="https://www.free-decompiler.com/flash" xmlns:xlink="http://www.w3.org/1999/xlink" ffdec:objectType="shape" height="40.0px" width="39.95px" xmlns="http://www.w3.org/2000/svg">
  <g transform="matrix(1.0, 0.0, 0.0, 1.0, 19.95, 20.0)">
    <path d="M0.05 -18.85 Q-7.75 -18.85 -13.3 -13.35 -18.8 -7.85 -18.8 0.0 -18.8 7.8 -13.3 13.3 -7.75 18.85 0.05 18.85 7.85 18.85 13.35 13.3 18.85 7.8 18.85 0.0 18.85 -7.85 13.35 -13.35 7.85 -18.85 0.05 -18.85 M-14.15 -14.15 Q-8.25 -20.0 0.05 -20.0 8.35 -20.0 14.15 -14.15 20.0 -8.3 20.0 0.0 20.0 8.25 14.15 14.1 8.35 20.0 0.05 20.0 -8.25 20.0 -14.15 14.1 -19.95 8.25 -19.95 0.0 -19.95 -8.3 -14.15 -14.15" fill="#007f00" fill-rule="evenodd" stroke="none"/>
    <path d="M0.0 -15.55 Q6.45 -15.55 11.0 -11.0 15.55 -6.45 15.55 0.0 15.55 6.45 11.0 10.95 6.45 15.5 0.0 15.5 -6.4 15.5 -10.95 10.95 -15.5 6.45 -15.5 0.0 -15.5 -6.45 -10.95 -11.0 -6.4 -15.55 0.0 -15.55 M0.05 -12.25 Q-4.95 -12.25 -8.55 -8.65 -12.15 -5.05 -12.15 0.0 -12.15 5.05 -8.55 8.65 -4.95 12.2 0.05 12.2 5.15 12.2 8.75 8.65 12.3 5.05 12.3 0.0 12.3 -5.05 8.75 -8.65 5.15 -12.25 0.05 -12.25" fill="#00bf7f" fill-rule="evenodd" stroke="none"/>
    <path d="M0.05 -12.25 Q5.15 -12.25 8.75 -8.65 12.3 -5.05 12.3 0.0 12.3 5.05 8.75 8.65 5.15 12.2 0.05 12.2 -4.95 12.2 -8.55 8.65 -12.15 5.05 -12.15 0.0 -12.15 -5.05 -8.55 -8.65 -4.95 -12.25 0.05 -12.25" fill="#00d88c" fill-rule="evenodd" stroke="none"/>
    <path d="M0.05 -18.85 Q7.85 -18.85 13.35 -13.35 18.85 -7.85 18.85 0.0 18.85 7.8 13.35 13.3 7.85 18.85 0.05 18.85 -7.75 18.85 -13.3 13.3 -18.8 7.8 -18.8 0.0 -18.8 -7.85 -13.3 -13.35 -7.75 -18.85 0.05 -18.85 M0.0 -15.55 Q-6.4 -15.55 -10.95 -11.0 -15.5 -6.45 -15.5 0.0 -15.5 6.45 -10.95 10.95 -6.4 15.5 0.0 15.5 6.45 15.5 11.0 10.95 15.55 6.45 15.55 0.0 15.55 -6.45 11.0 -11.0 6.45 -15.55 0.0 -15.55" fill="#009965" fill-rule="evenodd" stroke="none"/>
    <path d="M-1.95 -8.95 Q-3.7 -8.95 -4.9 -10.15 -6.1 -11.35 -6.1 -13.05 -6.1 -14.75 -4.9 -15.95 -3.7 -17.15 -1.95 -17.15 -0.3 -17.15 0.9 -15.95 2.1 -14.75 2.1 -13.05 2.1 -11.35 0.9 -10.15 -0.3 -8.95 -1.95 -8.95" fill="#99cc00" fill-opacity="0.7019608" fill-rule="evenodd" stroke="none"/>
    <path d="M-8.05 6.25 Q-6.75 7.55 -6.75 9.25 -6.75 11.05 -8.05 12.35 -9.3 13.55 -11.05 13.55 -12.85 13.55 -14.1 12.35 -15.35 11.05 -15.35 9.25 -15.35 7.55 -14.1 6.25 -12.85 4.95 -11.05 4.95 -9.3 4.95 -8.05 6.25" fill="#e7ff18" fill-opacity="0.7019608" fill-rule="evenodd" stroke="none"/>
    <path d="M15.85 5.65 Q15.3 6.15 14.45 6.15 13.65 6.15 13.05 5.65 12.55 5.05 12.55 4.25 12.55 3.45 13.05 2.85 13.65 2.25 14.45 2.25 15.3 2.25 15.85 2.85 16.45 3.45 16.45 4.25 16.45 5.05 15.85 5.65" fill="#e7ff18" fill-opacity="0.7019608" fill-rule="evenodd" stroke="none"/>
    <path d="M1.85 5.1 Q1.85 4.0 2.65 3.25 3.45 2.45 4.55 2.45 5.65 2.45 6.4 3.25 7.2 4.0 7.2 5.1 7.2 6.2 6.4 6.95 5.65 7.75 4.55 7.75 3.45 7.75 2.65 6.95 1.85 6.2 1.85 5.1" fill="#99cc00" fill-opacity="0.7019608" fill-rule="evenodd" stroke="none"/>
    <path d="M10.3 -9.55 Q9.75 -10.15 9.75 -10.9 9.75 -11.75 10.3 -12.25 10.9 -12.9 11.65 -12.9 12.5 -12.9 13.05 -12.25 13.65 -11.75 13.65 -10.9 13.65 -10.15 13.05 -9.55 12.5 -8.95 11.65 -8.95 10.9 -8.95 10.3 -9.55" fill="#99cc00" fill-opacity="0.7019608" fill-rule="evenodd" stroke="none"/>
    <path d="M-3.95 -9.65 L0.1 -13.5 13.7 -0.6 11.1 1.65 -0.15 -8.6 -10.9 1.65 -13.7 -0.35 -7.6 -6.2 -7.6 -12.0 -4.05 -12.0 -3.95 -9.65 M-3.5 7.35 L-3.5 13.5 -9.1 13.5 -9.15 1.9 0.1 -6.75 8.65 1.75 8.65 13.5 3.5 13.5 3.45 7.35 -3.5 7.35" fill="#ffcb00" fill-rule="evenodd" stroke="none"/>
    <path d="M-3.95 -9.65 L0.1 -13.5 13.7 -0.6 11.1 1.65 -0.15 -8.6 -10.9 1.65 -13.7 -0.35 -7.6 -6.2 -7.6 -12.0 -4.05 -12.0 -3.95 -9.65 M-3.5 7.35 L-3.5 13.5 -9.1 13.5 -9.15 1.9 0.1 -6.75 8.65 1.75 8.65 13.5 3.5 13.5 3.45 7.35 -3.5 7.35 Z" fill="none" stroke="#990000" stroke-linecap="round" stroke-linejoin="round" stroke-width="1.0"/>
  </g>
</svg>
