<?xml version="1.0" encoding="UTF-8" standalone="no"?>
<svg xmlns:ffdec="https://www.free-decompiler.com/flash" xmlns:xlink="http://www.w3.org/1999/xlink" ffdec:objectType="shape" height="50.0px" width="179.45px" xmlns="http://www.w3.org/2000/svg">
  <g transform="matrix(1.0, 0.0, 0.0, 1.0, 89.7, 25.0)">
    <path d="M67.35 -10.8 L67.6 -10.8 67.85 -10.65 74.35 -0.8 81.55 -24.7 81.7 -24.9 82.0 -24.95 82.2 -24.8 82.25 -24.6 82.25 -24.55 89.7 -0.05 89.75 0.1 89.65 0.25 82.2 11.5 82.0 11.65 81.75 11.65 81.55 11.5 74.6 0.9 67.45 24.75 67.25 25.0 66.95 25.0 66.75 24.85 66.7 24.55 66.9 24.05 66.9 23.95 66.85 23.95 66.6 23.95 66.4 23.7 59.45 0.85 52.35 11.5 52.2 11.65 51.95 11.65 51.75 11.5 44.7 0.7 37.5 11.5 37.3 11.65 37.1 11.65 36.9 11.5 29.95 0.9 22.75 24.75 22.6 24.95 22.4 25.0 22.2 24.95 22.05 24.75 14.8 0.85 7.7 11.5 7.5 11.65 7.25 11.65 7.05 11.5 0.0 0.7 -7.2 11.5 -7.35 11.65 -7.6 11.65 -7.8 11.5 -14.75 0.9 -21.95 24.75 -22.05 24.95 -22.3 25.0 -22.5 24.95 -22.65 24.75 -29.9 0.85 -37.0 11.5 -37.2 11.65 -37.4 11.65 -37.6 11.5 -44.65 0.7 -51.85 11.5 -52.0 11.65 -52.25 11.65 -52.45 11.5 -59.4 0.9 -66.2 23.45 -66.15 23.55 -66.05 24.05 -66.15 24.2 -66.4 24.6 -66.6 24.65 -66.65 24.85 -66.85 25.0 -67.1 25.0 -67.3 24.75 -74.55 0.85 -81.65 11.5 -81.85 11.65 -82.05 11.65 -82.25 11.5 -89.65 0.25 -89.7 0.1 -89.65 -0.05 -82.25 -24.7 -82.1 -24.9 -81.8 -24.95 -81.6 -24.8 -81.6 -24.5 -81.65 -24.25 -81.55 -24.2 -81.35 -24.0 -74.3 -0.8 -67.25 -11.35 -67.05 -11.55 -66.75 -11.5 -66.6 -11.25 -66.6 -11.1 -66.55 -11.1 -66.35 -10.95 -59.65 -0.8 -52.5 -24.7 -52.35 -24.9 -52.15 -25.0 -51.95 -24.9 -51.8 -24.7 -44.65 -1.2 -37.6 -24.7 -37.5 -24.9 -37.25 -25.0 -37.05 -24.9 -36.9 -24.7 -29.65 -0.8 -22.6 -11.35 -22.4 -11.55 -22.15 -11.55 -22.0 -11.35 -15.0 -0.8 -7.85 -24.7 -7.7 -24.9 -7.5 -25.0 -7.25 -24.9 -7.15 -24.7 0.0 -1.2 7.05 -24.7 7.2 -24.9 7.45 -25.0 7.65 -24.9 7.75 -24.7 15.0 -0.8 22.1 -11.35 22.3 -11.55 22.5 -11.55 22.7 -11.35 29.7 -0.8 36.85 -24.7 36.95 -24.9 37.2 -25.0 37.4 -24.9 37.55 -24.7 44.7 -1.2 51.75 -24.7 51.9 -24.9 52.1 -25.0 52.3 -24.9 52.45 -24.7 59.7 -0.8 66.75 -11.35 67.0 -11.55 67.25 -11.5 67.45 -11.25 67.4 -11.0 67.3 -10.85 60.05 0.0 60.0 0.1 66.65 21.95 67.05 23.4 74.1 0.1 74.05 0.0 67.45 -10.0 67.25 -10.25 67.2 -10.55 67.35 -10.8 M14.45 0.0 L14.5 -0.05 7.45 -23.35 6.65 -20.85 0.4 -0.05 0.45 0.0 7.0 10.0 7.4 10.65 14.45 0.0 M29.4 0.0 L22.4 -10.55 22.05 -10.05 15.35 0.0 15.3 0.1 22.4 23.4 22.5 23.05 29.4 0.1 29.4 0.0 M44.25 0.0 L44.3 -0.05 37.2 -23.35 36.4 -20.75 30.2 0.0 30.25 0.0 36.75 10.0 37.2 10.65 44.25 0.0 M52.4 -22.3 L52.1 -23.35 45.1 -0.05 45.1 0.0 51.7 10.1 52.05 10.65 59.0 0.2 59.2 0.0 59.25 0.0 59.25 -0.1 59.1 -0.3 52.4 -22.3 M88.9 0.0 L89.0 -0.05 82.2 -22.35 82.0 -23.05 81.95 -23.25 81.9 -23.35 74.85 0.0 74.9 0.0 81.55 10.1 81.85 10.65 88.9 0.0 M-81.85 -23.05 L-81.9 -23.35 -88.95 -0.05 -88.9 0.0 -82.3 10.1 -81.95 10.65 -74.85 0.0 -74.85 -0.05 -81.85 -23.05 M-66.8 -10.3 L-66.95 -10.55 -74.0 0.0 -74.05 0.1 -67.0 23.3 -66.9 23.25 -66.75 22.7 -59.9 0.1 -59.95 0.0 -66.8 -10.3 M-52.1 -23.1 L-52.15 -23.35 -59.05 -0.3 -59.2 -0.1 -59.15 0.0 -59.2 0.1 -58.95 0.25 -52.15 10.65 -52.1 10.55 -45.1 0.0 -45.05 -0.05 -52.1 -23.1 M-15.3 0.0 L-22.3 -10.55 -22.35 -10.4 -29.35 0.0 -29.4 0.1 -22.3 23.4 -22.15 23.0 -15.25 0.1 -15.3 0.0 M-30.25 0.0 L-30.2 -0.05 -37.25 -23.35 -37.3 -23.2 -44.25 -0.05 -44.2 0.0 -37.4 10.5 -37.3 10.65 -30.25 0.0 M-0.45 0.0 L-0.4 -0.05 -7.5 -23.35 -7.55 -23.1 -14.5 0.0 -14.45 0.0 -7.8 10.1 -7.5 10.65 -0.45 0.0" fill="#003366" fill-rule="evenodd" stroke="none"/>
    <path d="M67.45 -10.0 L74.05 0.0 64.9 0.0 67.45 -10.0 M6.65 -20.85 L7.45 -23.35 14.5 -0.05 14.45 0.0 3.85 0.0 6.65 -20.85 M22.05 -10.05 L22.4 -10.55 29.4 0.0 19.2 0.0 22.05 -10.05 M36.4 -20.75 L37.2 -23.35 44.3 -0.05 44.25 0.0 33.55 0.0 36.4 -20.75 M52.4 -22.3 L59.1 -0.3 59.25 -0.1 59.25 0.0 59.2 0.0 48.75 0.0 52.4 -22.3 M82.2 -22.35 L89.0 -0.05 88.9 0.0 78.65 0.0 82.2 -22.35 M-81.85 -23.05 L-74.85 -0.05 -74.85 0.0 -85.15 0.0 -81.85 -23.05 M-66.8 -10.3 L-59.95 0.0 -70.15 0.0 -66.8 -10.3 M-52.1 -23.1 L-45.05 -0.05 -45.1 0.0 -55.3 0.0 -52.1 -23.1 M-22.35 -10.4 L-22.3 -10.55 -15.3 0.0 -24.85 0.0 -22.35 -10.4 M-37.3 -23.2 L-37.25 -23.35 -30.2 -0.05 -30.25 0.0 -40.05 0.0 -37.3 -23.2 M-7.55 -23.1 L-7.5 -23.35 -0.4 -0.05 -0.45 0.0 -10.7 0.0 -7.55 -23.1" fill="#66ccff" fill-rule="evenodd" stroke="none"/>
    <path d="M67.35 -10.8 L67.2 -10.55 67.25 -10.25 67.45 -10.0 64.9 0.0 60.05 0.0 67.3 -10.85 67.35 -10.8 M0.45 0.0 L0.4 -0.05 6.65 -20.85 3.85 0.0 0.45 0.0 M15.35 0.0 L22.05 -10.05 19.2 0.0 15.35 0.0 M30.25 0.0 L30.2 0.0 36.4 -20.75 33.55 0.0 30.25 0.0 M45.1 0.0 L45.1 -0.05 52.1 -23.35 52.4 -22.3 48.75 0.0 45.1 0.0 M74.9 0.0 L74.85 0.0 81.9 -23.35 81.95 -23.25 82.0 -23.05 82.2 -22.35 78.65 0.0 74.9 0.0 M-88.9 0.0 L-88.95 -0.05 -81.9 -23.35 -81.85 -23.05 -85.15 0.0 -88.9 0.0 M-74.0 0.0 L-66.95 -10.55 -66.8 -10.3 -70.15 0.0 -74.0 0.0 M-59.15 0.0 L-59.2 -0.1 -59.05 -0.3 -52.15 -23.35 -52.1 -23.1 -55.3 0.0 -59.15 0.0 M-29.35 0.0 L-22.35 -10.4 -24.85 0.0 -29.35 0.0 M-44.2 0.0 L-44.25 -0.05 -37.3 -23.2 -40.05 0.0 -44.2 0.0 M-14.45 0.0 L-14.5 0.0 -7.55 -23.1 -10.7 0.0 -14.45 0.0" fill="#ffffff" fill-rule="evenodd" stroke="none"/>
    <path d="M74.05 0.0 L74.1 0.1 67.05 23.4 66.65 21.95 64.9 0.0 74.05 0.0 M14.45 0.0 L7.4 10.65 7.0 10.0 3.85 0.0 14.45 0.0 M29.4 0.0 L29.4 0.1 22.5 23.05 19.2 0.0 29.4 0.0 M44.25 0.0 L37.2 10.65 36.75 10.0 33.55 0.0 44.25 0.0 M59.2 0.0 L59.0 0.2 52.05 10.65 51.7 10.1 48.75 0.0 59.2 0.0 M88.9 0.0 L81.85 10.65 81.55 10.1 78.65 0.0 88.9 0.0 M-74.85 0.0 L-81.95 10.65 -82.3 10.1 -85.15 0.0 -74.85 0.0 M-59.95 0.0 L-59.9 0.1 -66.75 22.7 -70.15 0.0 -59.95 0.0 M-45.1 0.0 L-52.1 10.55 -55.3 0.0 -45.1 0.0 M-15.3 0.0 L-15.25 0.1 -22.15 23.0 -24.85 0.0 -15.3 0.0 M-30.25 0.0 L-37.3 10.65 -37.4 10.5 -40.05 0.0 -30.25 0.0 M-0.45 0.0 L-7.5 10.65 -7.8 10.1 -10.7 0.0 -0.45 0.0" fill="#0099ff" fill-rule="evenodd" stroke="none"/>
    <path d="M66.65 21.95 L60.0 0.1 60.05 0.0 64.9 0.0 66.65 21.95 M7.0 10.0 L0.45 0.0 3.85 0.0 7.0 10.0 M22.5 23.05 L22.4 23.4 15.3 0.1 15.35 0.0 19.2 0.0 22.5 23.05 M36.75 10.0 L30.25 0.0 33.55 0.0 36.75 10.0 M51.7 10.1 L45.1 0.0 48.75 0.0 51.7 10.1 M81.55 10.1 L74.9 0.0 78.65 0.0 81.55 10.1 M-82.3 10.1 L-88.9 0.0 -85.15 0.0 -82.3 10.1 M-66.75 22.7 L-66.9 23.25 -67.0 23.3 -74.05 0.1 -74.0 0.0 -70.15 0.0 -66.75 22.7 M-52.1 10.55 L-52.15 10.65 -58.95 0.25 -59.2 0.1 -59.15 0.0 -55.3 0.0 -52.1 10.55 M-22.15 23.0 L-22.3 23.4 -29.4 0.1 -29.35 0.0 -24.85 0.0 -22.15 23.0 M-37.4 10.5 L-44.2 0.0 -40.05 0.0 -37.4 10.5 M-7.8 10.1 L-14.45 0.0 -10.7 0.0 -7.8 10.1" fill="#8ed2ff" fill-rule="evenodd" stroke="none"/>
  </g>
</svg>
