<?xml version="1.0" encoding="UTF-8" standalone="no"?>
<svg xmlns:ffdec="https://www.free-decompiler.com/flash" xmlns:xlink="http://www.w3.org/1999/xlink" ffdec:objectType="shape" height="68.65px" width="431.75px" xmlns="http://www.w3.org/2000/svg">
  <g transform="matrix(1.0, 0.0, 0.0, 1.0, 215.5, 27.85)">
    <path d="M-214.35 39.95 L-214.35 -19.8 Q-212.4 -21.8 -209.85 -22.65 -207.3 -23.5 -203.65 -23.5 -200.4 -23.5 -192.5 -19.6 -184.65 -15.8 -180.05 -16.05 L-173.1 -16.65 Q-170.7 -17.0 -163.05 -21.1 -155.5 -25.25 -142.7 -25.25 -133.15 -25.25 -122.15 -20.9 -111.1 -16.5 -104.65 -16.95 -98.25 -17.4 -89.1 -21.8 -80.0 -26.2 -73.9 -25.7 -67.8 -25.35 -65.85 -24.55 L-56.65 -20.8 Q-49.4 -17.9 -41.65 -18.1 -34.0 -18.4 -28.45 -21.4 -22.9 -24.5 -19.8 -25.35 L-11.6 -26.2 Q-5.0 -26.2 3.0 -22.6 10.9 -19.05 17.55 -18.45 24.2 -17.9 34.7 -22.3 45.2 -26.7 49.95 -26.85 50.05 -26.85 50.8 -27.2 L56.75 -27.0 Q62.0 -26.5 65.95 -25.05 69.85 -23.65 74.25 -21.1 78.6 -18.55 86.55 -19.0 94.45 -19.4 102.5 -22.65 110.55 -25.95 115.15 -26.75 119.75 -27.6 131.0 -23.3 142.2 -19.05 147.3 -17.2 152.4 -15.35 165.6 -20.7 178.75 -26.1 182.7 -25.9 186.65 -25.7 192.9 -23.2 199.1 -20.7 202.15 -19.0 205.1 -17.4 210.1 -20.15 215.1 -22.9 214.55 -26.0 L215.0 -25.8 214.95 39.6 -214.35 39.95" fill="#1b9ac6" fill-opacity="0.5019608" fill-rule="evenodd" stroke="none"/>
    <path d="M214.55 -26.0 L215.0 -26.0 215.0 -25.8 214.55 -26.0" fill="#1b9ac6" fill-opacity="0.3019608" fill-rule="evenodd" stroke="none"/>
    <path d="M-214.35 39.95 L-214.35 -19.8 Q-212.4 -21.8 -209.85 -22.65 -207.3 -23.5 -203.65 -23.5 -200.4 -23.5 -192.5 -19.6 -184.65 -15.8 -180.05 -16.05 L-173.1 -16.65 Q-170.7 -17.0 -163.05 -21.1 -155.5 -25.25 -142.7 -25.25 -133.15 -25.25 -122.15 -20.9 -111.1 -16.5 -104.65 -16.95 -98.25 -17.4 -89.1 -21.8 -80.0 -26.2 -73.9 -25.7 -67.8 -25.35 -65.85 -24.55 L-56.65 -20.8 Q-49.4 -17.9 -41.65 -18.1 -34.0 -18.4 -28.45 -21.4 -22.9 -24.5 -19.8 -25.35 L-11.6 -26.2 Q-5.0 -26.2 3.0 -22.6 10.9 -19.05 17.55 -18.45 24.2 -17.9 34.7 -22.3 45.2 -26.7 49.95 -26.85 50.05 -26.85 50.8 -27.2 L56.75 -27.0 Q62.0 -26.5 65.95 -25.05 69.85 -23.65 74.25 -21.1 78.6 -18.55 86.55 -19.0 94.45 -19.4 102.5 -22.65 110.55 -25.95 115.15 -26.75 119.75 -27.6 131.0 -23.3 142.2 -19.05 147.3 -17.2 152.4 -15.35 165.6 -20.7 178.75 -26.1 182.7 -25.9 186.65 -25.7 192.9 -23.2 199.1 -20.7 202.15 -19.0 205.1 -17.4 210.1 -20.15 215.1 -22.9 214.55 -26.0 L215.0 -26.0 215.75 -25.45 215.0 -25.8 214.95 39.6 -214.35 39.95 -214.35 40.3 M214.55 -26.0 L215.0 -25.8 215.0 -26.0 M-215.0 39.95 L-214.35 39.95" fill="none" stroke="#a6e1f5" stroke-linecap="round" stroke-linejoin="round" stroke-width="1.0"/>
  </g>
</svg>
