<?xml version="1.0" encoding="UTF-8" standalone="no"?>
<svg xmlns:ffdec="https://www.free-decompiler.com/flash" xmlns:xlink="http://www.w3.org/1999/xlink" ffdec:objectType="shape" height="54.0px" width="53.95px" xmlns="http://www.w3.org/2000/svg">
  <g transform="matrix(1.0, 0.0, 0.0, 1.0, 26.95, 27.0)">
    <path d="M18.0 -18.0 Q25.4 -10.55 25.4 0.0 25.4 10.55 18.0 17.95 10.6 25.4 0.05 25.4 -10.5 25.4 -17.95 17.95 -25.4 10.55 -25.4 0.0 -25.4 -10.55 -17.95 -18.0 -10.5 -25.4 0.05 -25.4 10.6 -25.4 18.0 -18.0 M14.85 -14.85 Q8.75 -20.95 0.0 -20.95 -8.65 -20.95 -14.8 -14.85 -20.9 -8.7 -20.9 0.0 -20.9 8.7 -14.8 14.8 -8.65 20.9 0.0 20.9 8.75 20.9 14.85 14.8 21.0 8.7 21.0 0.0 21.0 -8.7 14.85 -14.85" fill="#009965" fill-rule="evenodd" stroke="none"/>
    <path d="M11.8 -11.65 Q6.95 -16.5 0.1 -16.5 -6.7 -16.5 -11.55 -11.65 -16.4 -6.85 -16.4 0.0 -16.4 6.85 -11.55 11.65 -6.7 16.45 0.1 16.45 6.95 16.45 11.8 11.65 16.6 6.85 16.6 0.0 16.6 -6.85 11.8 -11.65 M14.85 -14.85 Q21.0 -8.7 21.0 0.0 21.0 8.7 14.85 14.8 8.75 20.9 0.0 20.9 -8.65 20.9 -14.8 14.8 -20.9 8.7 -20.9 0.0 -20.9 -8.7 -14.8 -14.85 -8.65 -20.95 0.0 -20.95 8.75 -20.95 14.85 -14.85" fill="#00bf7f" fill-rule="evenodd" stroke="none"/>
    <path d="M0.05 -27.0 Q11.25 -27.0 19.1 -19.1 27.0 -11.2 27.0 0.0 27.0 11.15 19.1 19.05 11.25 27.0 0.05 27.0 -11.1 27.0 -19.1 19.05 -26.95 11.15 -26.95 0.0 -26.95 -11.2 -19.1 -19.1 -11.1 -27.0 0.05 -27.0 M18.0 -18.0 Q10.6 -25.4 0.05 -25.4 -10.5 -25.4 -17.95 -18.0 -25.4 -10.55 -25.4 0.0 -25.4 10.55 -17.95 17.95 -10.5 25.4 0.05 25.4 10.6 25.4 18.0 17.95 25.4 10.55 25.4 0.0 25.4 -10.55 18.0 -18.0" fill="#007f00" fill-rule="evenodd" stroke="none"/>
    <path d="M11.8 -11.65 Q16.6 -6.85 16.6 0.0 16.6 6.85 11.8 11.65 6.95 16.45 0.1 16.45 -6.7 16.45 -11.55 11.65 -16.4 6.85 -16.4 0.0 -16.4 -6.85 -11.55 -11.65 -6.7 -16.5 0.1 -16.5 6.95 -16.5 11.8 -11.65" fill="#00d88c" fill-rule="evenodd" stroke="none"/>
    <path d="M2.85 -17.6 Q2.85 -15.3 1.2 -13.7 -0.4 -12.1 -2.65 -12.1 -5.0 -12.1 -6.6 -13.7 -8.25 -15.3 -8.25 -17.6 -8.25 -19.95 -6.6 -21.55 -5.0 -23.15 -2.65 -23.15 -0.4 -23.15 1.2 -21.55 2.85 -19.95 2.85 -17.6" fill="#99cc00" fill-opacity="0.7019608" fill-rule="evenodd" stroke="none"/>
    <path d="M-14.9 6.7 Q-12.55 6.7 -10.85 8.4 -9.15 10.15 -9.15 12.5 -9.15 14.95 -10.85 16.65 -12.55 18.25 -14.9 18.25 -17.3 18.25 -19.05 16.65 -20.7 14.95 -20.7 12.5 -20.7 10.15 -19.05 8.4 -17.3 6.7 -14.9 6.7" fill="#e7ff18" fill-opacity="0.7019608" fill-rule="evenodd" stroke="none"/>
    <path d="M22.2 5.7 Q22.2 6.8 21.35 7.6 20.65 8.3 19.55 8.3 18.45 8.3 17.65 7.6 16.9 6.8 16.9 5.7 16.9 4.65 17.65 3.85 18.45 3.05 19.55 3.05 20.65 3.05 21.35 3.85 22.2 4.65 22.2 5.7" fill="#e7ff18" fill-opacity="0.7019608" fill-rule="evenodd" stroke="none"/>
    <path d="M6.1 3.3 Q7.6 3.3 8.65 4.35 9.7 5.4 9.7 6.9 9.7 8.35 8.65 9.4 7.6 10.5 6.1 10.5 4.65 10.5 3.6 9.4 2.5 8.35 2.5 6.9 2.5 5.4 3.6 4.35 4.65 3.3 6.1 3.3" fill="#99cc00" fill-opacity="0.7019608" fill-rule="evenodd" stroke="none"/>
    <path d="M15.75 -12.1 Q14.7 -12.1 13.9 -12.85 13.2 -13.7 13.2 -14.7 13.2 -15.9 13.9 -16.55 14.7 -17.4 15.75 -17.4 16.85 -17.4 17.65 -16.55 18.45 -15.9 18.45 -14.7 18.45 -13.7 17.65 -12.85 16.85 -12.1 15.75 -12.1" fill="#99cc00" fill-opacity="0.7019608" fill-rule="evenodd" stroke="none"/>
  </g>
</svg>
