<?xml version="1.0" encoding="UTF-8" standalone="no"?>
<svg xmlns:ffdec="https://www.free-decompiler.com/flash" xmlns:xlink="http://www.w3.org/1999/xlink" ffdec:objectType="shape" height="60.0px" width="59.95px" xmlns="http://www.w3.org/2000/svg">
  <g transform="matrix(1.0, 0.0, 0.0, 1.0, 29.95, 30.0)">
    <path d="M16.5 -16.5 Q23.35 -9.65 23.35 0.0 23.35 9.65 16.5 16.45 9.7 23.25 0.0 23.25 -9.6 23.25 -16.45 16.45 -23.25 9.65 -23.25 0.0 -23.25 -9.65 -16.45 -16.5 -9.6 -23.3 0.0 -23.3 9.7 -23.3 16.5 -16.5 M13.1 -12.95 Q7.7 -18.35 0.1 -18.35 -7.45 -18.35 -12.85 -12.95 -18.2 -7.6 -18.2 0.0 -18.2 7.6 -12.85 12.95 -7.45 18.3 0.1 18.3 7.7 18.3 13.1 12.95 18.45 7.6 18.45 0.0 18.45 -7.6 13.1 -12.95" fill="#00bf7f" fill-rule="evenodd" stroke="none"/>
    <path d="M13.1 -12.95 Q18.45 -7.6 18.45 0.0 18.45 7.6 13.1 12.95 7.7 18.3 0.1 18.3 -7.45 18.3 -12.85 12.95 -18.2 7.6 -18.2 0.0 -18.2 -7.6 -12.85 -12.95 -7.45 -18.35 0.1 -18.35 7.7 -18.35 13.1 -12.95" fill="#00d88c" fill-rule="evenodd" stroke="none"/>
    <path d="M20.0 -20.0 Q11.8 -28.25 0.05 -28.25 -11.65 -28.25 -19.95 -20.0 -28.2 -11.75 -28.2 0.0 -28.2 11.7 -19.95 19.95 -11.65 28.25 0.05 28.25 11.8 28.25 20.0 19.95 28.25 11.7 28.25 0.0 28.25 -11.75 20.0 -20.0 M0.05 -30.0 Q12.5 -30.0 21.25 -21.2 30.0 -12.45 30.0 0.0 30.0 12.4 21.25 21.15 12.5 30.0 0.05 30.0 -12.35 30.0 -21.2 21.15 -29.95 12.4 -29.95 0.0 -29.95 -12.45 -21.2 -21.2 -12.35 -30.0 0.05 -30.0" fill="#007f00" fill-rule="evenodd" stroke="none"/>
    <path d="M16.5 -16.5 Q9.7 -23.3 0.0 -23.3 -9.6 -23.3 -16.45 -16.5 -23.25 -9.65 -23.25 0.0 -23.25 9.65 -16.45 16.45 -9.6 23.25 0.0 23.25 9.7 23.25 16.5 16.45 23.35 9.65 23.35 0.0 23.35 -9.65 16.5 -16.5 M20.0 -20.0 Q28.25 -11.75 28.25 0.0 28.25 11.7 20.0 19.95 11.8 28.25 0.05 28.25 -11.65 28.25 -19.95 19.95 -28.2 11.7 -28.2 0.0 -28.2 -11.75 -19.95 -20.0 -11.65 -28.25 0.05 -28.25 11.8 -28.25 20.0 -20.0" fill="#009965" fill-rule="evenodd" stroke="none"/>
    <path d="M3.15 -19.55 Q3.15 -17.0 1.35 -15.25 -0.45 -13.45 -2.95 -13.45 -5.55 -13.45 -7.35 -15.25 -9.15 -17.0 -9.15 -19.55 -9.15 -22.15 -7.35 -23.95 -5.55 -25.75 -2.95 -25.75 -0.45 -25.75 1.35 -23.95 3.15 -22.15 3.15 -19.55" fill="#99cc00" fill-opacity="0.7019608" fill-rule="evenodd" stroke="none"/>
    <path d="M-16.55 7.45 Q-13.95 7.45 -12.05 9.35 -10.15 11.3 -10.15 13.9 -10.15 16.6 -12.05 18.5 -13.95 20.3 -16.55 20.3 -19.25 20.3 -21.15 18.5 -23.0 16.6 -23.0 13.9 -23.0 11.3 -21.15 9.35 -19.25 7.45 -16.55 7.45" fill="#e7ff18" fill-opacity="0.7019608" fill-rule="evenodd" stroke="none"/>
    <path d="M24.65 6.35 Q24.65 7.55 23.75 8.45 22.95 9.25 21.7 9.25 20.5 9.25 19.6 8.45 18.8 7.55 18.8 6.35 18.8 5.15 19.6 4.3 20.5 3.4 21.7 3.4 22.95 3.4 23.75 4.3 24.65 5.15 24.65 6.35" fill="#e7ff18" fill-opacity="0.7019608" fill-rule="evenodd" stroke="none"/>
    <path d="M6.8 3.65 Q8.45 3.65 9.6 4.85 10.8 6.0 10.8 7.65 10.8 9.3 9.6 10.45 8.45 11.65 6.8 11.65 5.15 11.65 4.0 10.45 2.8 9.3 2.8 7.65 2.8 6.0 4.0 4.85 5.15 3.65 6.8 3.65" fill="#99cc00" fill-opacity="0.7019608" fill-rule="evenodd" stroke="none"/>
    <path d="M17.5 -13.45 Q16.35 -13.45 15.45 -14.3 14.65 -15.2 14.65 -16.35 14.65 -17.65 15.45 -18.4 16.35 -19.35 17.5 -19.35 18.75 -19.35 19.6 -18.4 20.5 -17.65 20.5 -16.35 20.5 -15.2 19.6 -14.3 18.75 -13.45 17.5 -13.45" fill="#99cc00" fill-opacity="0.7019608" fill-rule="evenodd" stroke="none"/>
  </g>
</svg>
