<?xml version="1.0" encoding="UTF-8" standalone="no"?>
<svg xmlns:ffdec="https://www.free-decompiler.com/flash" xmlns:xlink="http://www.w3.org/1999/xlink" ffdec:objectType="shape" height="504.55px" width="706.0px" xmlns="http://www.w3.org/2000/svg">
  <g transform="matrix(1.0, 0.0, 0.0, 1.0, 1.5, 1.5)">
    <path d="M700.0 500.0 L0.0 500.0 0.0 0.0 700.0 0.0 700.0 500.0" fill="#ffffff" fill-rule="evenodd" stroke="none"/>
    <path d="M704.0 502.55 L-1.0 502.55 -1.0 -1.0 704.0 -1.0 704.0 502.55" fill="#ffffff" fill-rule="evenodd" stroke="none"/>
    <path d="M531.8 89.15 L531.8 -1.0 704.0 -1.0 704.0 502.55 531.8 502.55 531.8 235.9 531.8 89.15 M375.5 212.7 L375.5 457.45 252.35 457.45 252.35 447.1 262.4 447.1 262.4 274.55 252.35 274.55 252.35 183.1 252.35 86.5 350.55 86.5 375.5 86.5 375.5 212.7 M84.1 438.1 L-1.0 438.1 -1.0 145.8 105.15 145.8 105.15 251.4 84.1 251.4 84.1 438.1" fill="#faece0" fill-rule="evenodd" stroke="none"/>
    <path d="M428.6 212.7 L375.5 212.7 375.5 86.5 350.55 86.5 350.55 42.75 439.6 42.75 439.6 89.15 428.6 89.15 428.6 212.7 M172.25 447.1 L172.25 452.25 84.1 452.25 84.1 438.1 84.1 251.4 105.15 251.4 172.25 251.4 172.25 274.55 131.2 274.55 131.2 447.1 172.25 447.1 M216.35 274.55 L216.35 183.1 252.35 183.1 252.35 274.55 216.35 274.55" fill="#f7dccc" fill-rule="evenodd" stroke="none"/>
    <path d="M531.8 235.9 L428.6 235.9 428.6 212.7 428.6 89.15 439.6 89.15 531.8 89.15 531.8 235.9 M252.35 447.1 L172.25 447.1 131.2 447.1 131.2 274.55 172.25 274.55 216.35 274.55 252.35 274.55 262.4 274.55 262.4 447.1 252.35 447.1" fill="#f2ceb7" fill-rule="evenodd" stroke="none"/>
    <path d="M626.6 216.6 L704.0 129.4 704.0 139.3 591.45 268.15 591.15 268.55 569.65 293.1 569.65 280.7 620.55 223.5 626.6 216.6 M552.75 150.45 L552.75 134.15 599.25 134.15 599.25 150.45 552.75 150.45" fill="#e27a36" fill-rule="evenodd" stroke="none"/>
    <path d="M704.0 139.3 L704.0 424.7 591.45 424.7 591.45 268.55 591.45 268.15 704.0 139.3 M274.65 402.85 L274.65 268.6 274.7 268.55 285.25 260.4 285.25 423.8 274.65 421.8 274.65 402.85 M552.75 164.3 L552.75 150.45 599.25 150.45 599.25 197.3 552.75 164.3 M680.55 315.75 L680.55 292.45 656.8 292.45 650.4 292.45 622.85 292.45 622.85 315.75 622.85 321.4 622.85 349.7 650.4 349.7 656.8 349.7 680.55 349.7 680.55 321.4 680.55 315.75 M481.15 163.3 L469.65 162.9 Q450.35 163.8 432.35 175.3 L432.35 204.25 432.35 210.55 432.35 242.65 469.65 242.65 481.15 242.65 517.05 242.65 517.05 210.55 517.05 204.25 517.05 175.3 Q498.6 165.15 481.15 163.3 M331.25 225.05 L445.4 137.2 497.2 137.2 609.85 216.0 561.75 273.4 561.75 311.25 580.6 290.55 580.6 424.7 535.95 424.7 535.95 393.55 548.15 393.55 566.0 393.55 Q566.1 377.35 552.35 363.6 L544.55 363.6 503.5 363.6 503.5 393.55 527.0 393.55 527.0 396.2 527.0 424.7 503.3 424.7 503.3 401.4 486.1 401.4 486.1 401.35 486.1 401.4 440.15 401.4 431.85 401.4 431.85 401.35 430.65 401.35 429.25 401.35 381.75 401.35 381.75 407.1 377.35 407.1 377.35 412.7 373.85 412.7 373.85 419.65 371.55 419.65 371.55 424.7 331.25 424.7 331.25 381.0 331.25 354.75 336.9 354.75 369.0 354.75 369.0 326.45 369.0 315.15 369.0 295.0 336.9 295.0 331.25 295.0 331.25 225.05 M440.15 401.35 L440.15 401.4 440.15 401.35 486.1 401.35 491.4 401.35 491.4 322.7 434.4 322.7 434.4 401.35 440.15 401.35" fill="#fbede1" fill-rule="evenodd" stroke="none"/>
    <path d="M656.8 292.45 L680.55 292.45 680.55 315.75 656.8 315.75 656.8 292.45 M680.55 321.4 L680.55 349.7 656.8 349.7 656.8 321.4 680.55 321.4 M650.4 349.7 L622.85 349.7 622.85 321.4 650.4 321.4 650.4 349.7 M622.85 315.75 L622.85 292.45 650.4 292.45 650.4 315.75 622.85 315.75 M481.15 163.3 Q498.6 165.15 517.05 175.3 L517.05 204.25 481.15 204.25 481.15 163.3 M517.05 210.55 L517.05 242.65 481.15 242.65 481.15 210.55 517.05 210.55 M469.65 242.65 L432.35 242.65 432.35 210.55 469.65 210.55 469.65 242.65 M432.35 204.25 L432.35 175.3 Q450.35 163.8 469.65 162.9 L469.65 204.25 432.35 204.25 M336.9 295.0 L369.0 295.0 369.0 315.15 336.9 315.15 336.9 295.0 M369.0 326.45 L369.0 354.75 336.9 354.75 336.9 326.45 369.0 326.45 M371.55 424.7 L371.55 419.65 373.85 419.65 417.7 419.65 417.7 424.7 371.55 424.7 M377.35 412.7 L377.35 407.1 381.75 407.1 422.3 407.0 424.85 407.2 424.85 412.7 420.65 412.7 420.75 412.6 377.35 412.7 M440.15 401.35 L434.4 401.35 434.4 322.7 491.4 322.7 491.4 401.35 486.1 401.35 486.1 328.7 440.15 328.7 440.15 401.35 440.15 328.7 486.1 328.7 486.1 401.35 440.15 401.35 M527.0 424.7 L527.0 396.2 531.0 397.75 531.05 398.0 533.0 424.7 527.0 424.7 M478.55 362.55 Q477.7 363.35 477.7 364.55 477.7 365.65 478.55 366.5 479.35 367.3 480.5 367.3 481.65 367.3 482.55 366.5 483.35 365.65 483.35 364.55 483.35 363.35 482.55 362.55 481.65 361.75 480.5 361.75 479.35 361.75 478.55 362.55" fill="#eba272" fill-rule="evenodd" stroke="none"/>
    <path d="M620.55 223.5 L569.65 280.7 569.65 293.1 591.15 268.55 591.45 268.55 591.45 424.7 580.6 424.7 580.6 290.55 561.75 311.25 561.75 273.4 609.85 216.0 620.55 223.5 M680.55 315.75 L680.55 321.4 656.8 321.4 656.8 349.7 650.4 349.7 650.4 321.4 622.85 321.4 622.85 315.75 650.4 315.75 650.4 292.45 656.8 292.45 656.8 315.75 680.55 315.75 M469.65 162.9 L481.15 163.3 481.15 204.25 517.05 204.25 517.05 210.55 481.15 210.55 481.15 242.65 469.65 242.65 469.65 210.55 432.35 210.55 432.35 204.25 469.65 204.25 469.65 162.9 M331.25 295.0 L336.9 295.0 336.9 315.15 369.0 315.15 369.0 326.45 336.9 326.45 336.9 354.75 331.25 354.75 331.25 339.15 331.25 295.0" fill="#f5d2bc" fill-rule="evenodd" stroke="none"/>
    <path d="M704.0 424.7 L704.0 502.55 -1.0 502.55 -1.0 424.7 20.35 424.7 35.8 424.7 59.7 424.7 77.0 424.7 102.55 424.7 116.05 424.7 161.2 424.7 174.7 424.7 199.9 424.7 212.55 424.7 218.4 424.7 239.4 424.7 285.25 424.7 285.25 435.05 Q297.8 445.8 311.75 443.7 317.3 442.9 323.05 440.05 327.1 438.05 331.25 435.05 L331.25 424.7 371.55 424.7 417.7 424.7 503.3 424.7 527.0 424.7 533.0 424.7 535.95 424.7 580.6 424.7 591.45 424.7 704.0 424.7 M424.85 407.2 L424.85 407.1 428.15 407.1 424.85 407.2" fill="#f7d8c4" fill-rule="evenodd" stroke="none"/>
    <path d="M15.65 397.0 L12.8 379.95 31.4 378.2 33.0 394.8 34.6 411.85 35.8 424.7 20.35 424.7 18.5 413.8 15.65 397.0 M53.4 392.2 L51.4 382.5 75.15 379.25 75.6 389.4 76.3 406.8 77.0 424.7 59.7 424.7 56.7 409.15 53.4 392.2 M97.4 386.65 L95.35 371.55 111.35 370.75 112.55 384.7 114.1 402.25 116.05 424.7 102.55 424.7 99.7 404.0 97.4 386.65 M161.2 383.9 L161.2 359.85 184.35 368.15 181.1 387.25 178.25 403.75 174.7 424.7 161.2 424.7 161.2 400.55 161.2 383.9 M197.55 389.95 L196.85 380.25 205.8 378.35 207.75 391.7 210.4 409.8 212.55 424.7 199.9 424.7 198.75 407.6 197.55 389.95 M218.7 393.55 L218.9 378.3 238.4 378.65 238.75 396.85 239.2 415.2 239.4 424.7 218.4 424.7 218.5 411.3 218.7 393.55 M274.65 268.6 L243.9 292.25 243.9 278.5 285.25 246.95 285.25 260.4 274.7 268.55 274.65 268.55 274.65 268.6 M331.25 211.75 L447.3 123.0 494.55 123.0 552.75 164.3 599.25 197.3 626.6 216.6 620.55 223.5 609.85 216.0 497.2 137.2 445.4 137.2 331.25 225.05 331.25 211.75 M527.0 396.2 L527.0 393.55 535.95 393.55 535.95 424.7 533.0 424.7 531.05 398.0 531.0 397.75 527.0 396.2" fill="#e78e54" fill-rule="evenodd" stroke="none"/>
    <path d="M323.05 -1.0 L331.25 -1.0 331.25 211.75 331.25 225.05 331.25 295.0 331.25 339.15 323.05 337.65 323.05 -1.0 M331.25 381.0 L331.25 424.7 331.25 435.05 Q327.1 438.05 323.05 440.05 L323.05 379.4 331.25 381.0" fill="#e6894d" fill-rule="evenodd" stroke="none"/>
    <path d="M331.25 354.75 L331.25 381.0 323.05 379.4 311.75 377.15 311.75 335.6 323.05 337.65 331.25 339.15 331.25 354.75 M527.0 393.55 L503.5 393.55 503.5 363.6 544.55 363.6 548.15 393.55 535.95 393.55 527.0 393.55" fill="#e07127" fill-rule="evenodd" stroke="none"/>
    <path d="M478.55 362.55 Q479.35 361.75 480.5 361.75 481.65 361.75 482.55 362.55 483.35 363.35 483.35 364.55 483.35 365.65 482.55 366.5 481.65 367.3 480.5 367.3 479.35 367.3 478.55 366.5 477.7 365.65 477.7 364.55 477.7 363.35 478.55 362.55" fill="#ab5318" fill-rule="evenodd" stroke="none"/>
    <path d="M544.55 363.6 L552.35 363.6 Q566.1 377.35 566.0 393.55 L548.15 393.55 544.55 363.6" fill="#e48445" fill-rule="evenodd" stroke="none"/>
    <path d="M311.75 -1.0 L323.05 -1.0 323.05 337.65 311.75 335.6 311.75 -1.0 M311.75 377.15 L323.05 379.4 323.05 440.05 Q317.3 442.9 311.75 443.7 L311.75 377.15" fill="#ea9d6a" fill-rule="evenodd" stroke="none"/>
    <path d="M285.25 246.95 L285.25 -1.0 311.75 -1.0 311.75 335.6 311.05 335.5 311.05 377.05 311.75 377.15 311.05 377.05 311.05 335.5 311.75 335.6 311.75 377.15 311.75 443.7 Q297.8 445.8 285.25 435.05 L285.25 424.7 285.25 423.8 285.25 260.4 285.25 246.95" fill="#eeb088" fill-rule="evenodd" stroke="none"/>
    <path d="M-1.0 416.15 L-1.0 399.1 15.65 397.0 18.5 413.8 -1.0 416.15 M33.0 394.8 L53.4 392.2 56.7 409.15 34.6 411.85 33.0 394.8 M75.6 389.4 L97.4 386.65 99.7 404.0 76.3 406.8 75.6 389.4 M112.55 384.7 L142.85 380.9 161.2 383.9 161.2 400.55 148.2 398.05 114.1 402.25 112.55 384.7 M181.1 387.25 L197.55 389.95 198.75 407.6 178.25 403.75 181.1 387.25 M207.75 391.7 L218.7 393.55 218.5 411.3 210.4 409.8 207.75 391.7 M238.75 396.85 L274.65 402.85 274.65 421.8 239.2 415.2 238.75 396.85" fill="#df6c20" fill-rule="evenodd" stroke="none"/>
    <path d="M429.25 401.35 L430.65 401.35 431.85 401.35 431.85 401.4 440.15 401.4 486.1 401.4 503.3 401.4 503.3 424.7 417.7 424.7 417.7 419.65 420.65 419.65 420.65 412.7 424.85 412.7 424.85 407.2 428.15 407.1 429.25 407.1 429.25 401.35 M431.85 401.4 L430.65 401.35 431.85 401.4" fill="#c15e1c" fill-rule="evenodd" stroke="none"/>
    <path d="M373.85 419.65 L373.85 412.7 377.35 412.7 420.75 412.6 420.65 412.7 420.65 419.65 417.7 419.65 373.85 419.65 M381.75 407.1 L381.75 401.35 429.25 401.35 429.25 407.1 428.15 407.1 424.85 407.1 424.85 407.2 422.3 407.0 381.75 407.1 M422.3 407.0 L424.85 407.1 422.3 407.0" fill="#f2c4a6" fill-rule="evenodd" stroke="none"/>
    <path d="M626.6 216.6 L704.0 129.4 704.0 139.3 591.45 268.15 591.15 268.55 569.65 293.1 569.65 280.7 620.55 223.5 626.6 216.6 M552.75 164.3 L552.75 150.45 552.75 134.15 599.25 134.15 599.25 150.45 599.25 197.3 M656.8 292.45 L680.55 292.45 680.55 315.75 680.55 321.4 680.55 349.7 656.8 349.7 650.4 349.7 622.85 349.7 622.85 321.4 622.85 315.75 622.85 292.45 650.4 292.45 656.8 292.45 656.8 315.75 680.55 315.75 M680.55 321.4 L656.8 321.4 656.8 349.7 M552.75 150.45 L599.25 150.45 M469.65 162.9 L481.15 163.3 481.15 204.25 517.05 204.25 517.05 210.55 481.15 210.55 481.15 242.65 469.65 242.65 469.65 210.55 432.35 210.55 432.35 204.25 469.65 204.25 469.65 162.9 M431.85 401.4 L440.15 401.4 440.15 401.35 440.15 328.7 486.1 328.7 486.1 401.35 486.1 401.4 503.3 401.4 503.3 424.7 M478.55 362.55 Q479.35 361.75 480.5 361.75 481.65 361.75 482.55 362.55 483.35 363.35 483.35 364.55 483.35 365.65 482.55 366.5 481.65 367.3 480.5 367.3 479.35 367.3 478.55 366.5 477.7 365.65 477.7 364.55 477.7 363.35 478.55 362.55 M622.85 321.4 L650.4 321.4 650.4 349.7 M622.85 315.75 L650.4 315.75 650.4 292.45 M311.75 377.15 L311.05 377.05 311.05 335.5 311.75 335.6 323.05 337.65 331.25 339.15 M323.05 379.4 L311.75 377.15 M323.05 379.4 L331.25 381.0 M591.45 424.7 L591.45 268.55 M430.65 401.35 L431.85 401.4 M440.15 401.4 L486.1 401.4" fill="none" stroke="#c15e1c" stroke-linecap="round" stroke-linejoin="round" stroke-width="1.0"/>
    <path d="M704.0 424.7 L704.0 502.55 -1.0 502.55 -1.0 424.7 20.35 424.7 18.5 413.8 -1.0 416.15 -1.0 399.1 15.65 397.0 12.8 379.95 31.4 378.2 33.0 394.8 53.4 392.2 51.4 382.5 75.15 379.25 75.6 389.4 97.4 386.65 95.35 371.55 111.35 370.75 112.55 384.7 142.85 380.9 161.2 383.9 161.2 359.85 184.35 368.15 181.1 387.25 197.55 389.95 196.85 380.25 205.8 378.35 207.75 391.7 218.7 393.55 218.9 378.3 238.4 378.65 238.75 396.85 274.65 402.85 274.65 268.6 243.9 292.25 243.9 278.5 285.25 246.95 285.25 -1.0 311.75 -1.0 323.05 -1.0 331.25 -1.0 331.25 211.75 447.3 123.0 494.55 123.0 552.75 164.3 599.25 197.3 626.6 216.6 M481.15 163.3 Q498.6 165.15 517.05 175.3 L517.05 204.25 M517.05 210.55 L517.05 242.65 481.15 242.65 M469.65 242.65 L432.35 242.65 432.35 210.55 M432.35 204.25 L432.35 175.3 Q450.35 163.8 469.65 162.9 M331.25 211.75 L331.25 225.05 445.4 137.2 497.2 137.2 609.85 216.0 M331.25 295.0 L336.9 295.0 369.0 295.0 369.0 315.15 369.0 326.45 369.0 354.75 336.9 354.75 331.25 354.75 331.25 381.0 331.25 424.7 371.55 424.7 371.55 419.65 373.85 419.65 373.85 412.7 377.35 412.7 377.35 407.1 381.75 407.1 381.75 401.35 429.25 401.35 430.65 401.35 431.85 401.35 431.85 401.4 M440.15 401.35 L434.4 401.35 434.4 322.7 491.4 322.7 491.4 401.35 486.1 401.35 440.15 401.35 M503.3 424.7 L527.0 424.7 527.0 396.2 527.0 393.55 503.5 393.55 503.5 363.6 544.55 363.6 552.35 363.6 Q566.1 377.35 566.0 393.55 L548.15 393.55 535.95 393.55 535.95 424.7 580.6 424.7 591.45 424.7 704.0 424.7 M331.25 225.05 L331.25 295.0 331.25 339.15 331.25 354.75 M369.0 326.45 L336.9 326.45 336.9 354.75 M336.9 295.0 L336.9 315.15 369.0 315.15 M533.0 424.7 L535.95 424.7 M274.7 268.55 L274.65 268.55 274.65 268.6 274.7 268.55 285.25 260.4 285.25 246.95 M311.75 443.7 Q317.3 442.9 323.05 440.05 327.1 438.05 331.25 435.05 L331.25 424.7 M285.25 424.7 L285.25 435.05 Q297.8 445.8 311.75 443.7 M285.25 424.7 L285.25 423.8 274.65 421.8 239.2 415.2 239.4 424.7 285.25 424.7 M274.65 421.8 L274.65 402.85 M218.4 424.7 L239.4 424.7 M218.4 424.7 L218.5 411.3 210.4 409.8 212.55 424.7 218.4 424.7 M174.7 424.7 L178.25 403.75 181.1 387.25 M174.7 424.7 L199.9 424.7 198.75 407.6 178.25 403.75 M199.9 424.7 L212.55 424.7 M161.2 424.7 L161.2 400.55 148.2 398.05 114.1 402.25 116.05 424.7 161.2 424.7 174.7 424.7 M99.7 404.0 L102.55 424.7 116.05 424.7 M59.7 424.7 L77.0 424.7 76.3 406.8 75.6 389.4 M59.7 424.7 L56.7 409.15 34.6 411.85 35.8 424.7 59.7 424.7 M20.35 424.7 L35.8 424.7 M77.0 424.7 L102.55 424.7 M76.3 406.8 L99.7 404.0 97.4 386.65 M527.0 424.7 L533.0 424.7 M428.15 407.1 L429.25 407.1 429.25 401.35 M417.7 419.65 L420.65 419.65 420.65 412.7 424.85 412.7 424.85 407.2 422.3 407.0 381.75 407.1 M420.75 412.6 L377.35 412.7 M424.85 407.1 L422.3 407.0 M424.85 407.2 L424.85 407.1 428.15 407.1 424.85 407.2 M417.7 424.7 L417.7 419.65 373.85 419.65 M371.55 424.7 L417.7 424.7 503.3 424.7 M285.25 423.8 L285.25 260.4 M56.7 409.15 L53.4 392.2 M33.0 394.8 L34.6 411.85 M18.5 413.8 L15.65 397.0 M161.2 400.55 L161.2 383.9 M114.1 402.25 L112.55 384.7 M239.2 415.2 L238.75 396.85 M198.75 407.6 L197.55 389.95 M210.4 409.8 L207.75 391.7 M218.5 411.3 L218.7 393.55" fill="none" stroke="#c9611d" stroke-linecap="round" stroke-linejoin="round" stroke-width="1.0"/>
    <path d="M-1.0 424.7 L-1.0 416.15" fill="none" stroke="#000000" stroke-linecap="round" stroke-linejoin="round" stroke-width="1.0"/>
  </g>
</svg>
