<?xml version="1.0" encoding="UTF-8" standalone="no"?>
<svg xmlns:ffdec="https://www.free-decompiler.com/flash" xmlns:xlink="http://www.w3.org/1999/xlink" ffdec:objectType="shape" height="504.55px" width="706.0px" xmlns="http://www.w3.org/2000/svg">
  <g transform="matrix(1.0, 0.0, 0.0, 1.0, 2.5, 1.5)">
    <path d="M703.0 502.55 L-2.0 502.55 -2.0 -1.0 703.0 -1.0 703.0 502.55" fill="#ffffff" fill-rule="evenodd" stroke="none"/>
    <path d="M530.8 89.15 L530.8 -1.0 703.0 -1.0 703.0 502.55 530.8 502.55 530.8 235.9 530.8 89.15 M83.1 438.1 L-2.0 438.1 -2.0 145.8 104.15 145.8 104.15 251.4 83.1 251.4 83.1 438.1" fill="#faece0" fill-rule="evenodd" stroke="none"/>
    <path d="M427.6 212.7 L374.5 212.7 374.5 86.5 349.55 86.5 349.55 42.75 438.6 42.75 438.6 89.15 427.6 89.15 427.6 212.7 M171.25 447.1 L171.25 452.25 83.1 452.25 83.1 438.1 83.1 251.4 104.15 251.4 171.25 251.4 171.25 274.55 130.2 274.55 130.2 447.1 171.25 447.1" fill="#f7dccc" fill-rule="evenodd" stroke="none"/>
    <path d="M530.8 235.9 L427.6 235.9 427.6 212.7 427.6 89.15 438.6 89.15 530.8 89.15 530.8 235.9" fill="#f2ceb7" fill-rule="evenodd" stroke="none"/>
    <path d="M374.5 212.7 L374.5 457.45 251.35 457.45 251.35 447.1 261.4 447.1 261.4 274.55 251.35 274.55 251.35 183.1 251.35 86.5 349.55 86.5 374.5 86.5 374.5 212.7" fill="#fae2d7" fill-rule="evenodd" stroke="none"/>
    <path d="M215.35 274.55 L215.35 183.1 251.35 183.1 251.35 274.55 215.35 274.55" fill="#f7d7c8" fill-rule="evenodd" stroke="none"/>
    <path d="M251.35 447.1 L171.25 447.1 130.2 447.1 130.2 274.55 171.25 274.55 215.35 274.55 251.35 274.55 261.4 274.55 261.4 447.1 251.35 447.1" fill="#f2ccb3" fill-rule="evenodd" stroke="none"/>
    <path d="M625.6 216.6 L703.0 129.4 703.0 139.3 590.45 268.15 590.15 268.55 568.65 293.1 568.65 280.7 619.55 223.5 625.6 216.6 M551.75 150.45 L551.75 134.15 598.25 134.15 598.25 150.45 551.75 150.45" fill="#e27a36" fill-rule="evenodd" stroke="none"/>
    <path d="M703.0 139.3 L703.0 424.7 590.45 424.7 590.45 268.55 590.45 268.15 703.0 139.3 M273.65 402.85 L273.65 268.6 273.7 268.55 284.25 260.4 284.25 423.8 273.65 421.8 273.65 402.85 M551.75 164.3 L551.75 150.45 598.25 150.45 598.25 197.3 551.75 164.3 M679.55 315.75 L679.55 292.45 655.8 292.45 649.4 292.45 621.85 292.45 621.85 315.75 621.85 321.4 621.85 349.7 649.4 349.7 655.8 349.7 679.55 349.7 679.55 321.4 679.55 315.75 M480.15 163.3 L468.65 162.9 Q449.35 163.8 431.35 175.3 L431.35 204.25 431.35 210.55 431.35 242.65 468.65 242.65 480.15 242.65 516.05 242.65 516.05 210.55 516.05 204.25 516.05 175.3 Q497.6 165.15 480.15 163.3 M330.25 225.05 L444.4 137.2 496.2 137.2 608.85 216.0 560.75 273.4 560.75 311.25 579.6 290.55 579.6 424.7 534.95 424.7 534.95 393.55 547.15 393.55 565.0 393.55 Q565.1 377.35 551.35 363.6 L543.55 363.6 502.5 363.6 502.5 393.55 526.0 393.55 526.0 396.2 526.0 424.7 502.3 424.7 502.3 401.4 485.1 401.4 485.1 401.35 485.1 401.4 439.15 401.4 430.85 401.4 430.85 401.35 429.65 401.35 428.25 401.35 380.75 401.35 380.75 407.1 376.35 407.1 376.35 412.7 372.85 412.7 372.85 419.65 370.55 419.65 370.55 424.7 330.25 424.7 330.25 381.0 330.25 354.75 335.9 354.75 368.0 354.75 368.0 326.45 368.0 315.15 368.0 295.0 335.9 295.0 330.25 295.0 330.25 225.05 M439.15 401.35 L439.15 401.4 439.15 401.35 485.1 401.35 490.4 401.35 490.4 322.7 433.4 322.7 433.4 401.35 439.15 401.35" fill="#fbede1" fill-rule="evenodd" stroke="none"/>
    <path d="M655.8 292.45 L679.55 292.45 679.55 315.75 655.8 315.75 655.8 292.45 M679.55 321.4 L679.55 349.7 655.8 349.7 655.8 321.4 679.55 321.4 M649.4 349.7 L621.85 349.7 621.85 321.4 649.4 321.4 649.4 349.7 M621.85 315.75 L621.85 292.45 649.4 292.45 649.4 315.75 621.85 315.75 M480.15 163.3 Q497.6 165.15 516.05 175.3 L516.05 204.25 480.15 204.25 480.15 163.3 M516.05 210.55 L516.05 242.65 480.15 242.65 480.15 210.55 516.05 210.55 M468.65 242.65 L431.35 242.65 431.35 210.55 468.65 210.55 468.65 242.65 M431.35 204.25 L431.35 175.3 Q449.35 163.8 468.65 162.9 L468.65 204.25 431.35 204.25 M335.9 295.0 L368.0 295.0 368.0 315.15 335.9 315.15 335.9 295.0 M368.0 326.45 L368.0 354.75 335.9 354.75 335.9 326.45 368.0 326.45 M370.55 424.7 L370.55 419.65 372.85 419.65 416.7 419.65 416.7 424.7 370.55 424.7 M376.35 412.7 L376.35 407.1 380.75 407.1 421.3 407.0 423.85 407.2 423.85 412.7 419.65 412.7 419.75 412.6 376.35 412.7 M439.15 401.35 L433.4 401.35 433.4 322.7 490.4 322.7 490.4 401.35 485.1 401.35 485.1 328.7 439.15 328.7 439.15 401.35 439.15 328.7 485.1 328.7 485.1 401.35 439.15 401.35 M526.0 424.7 L526.0 396.2 530.0 397.75 530.05 398.0 532.0 424.7 526.0 424.7 M482.35 364.55 Q482.35 363.35 481.55 362.55 480.65 361.75 479.5 361.75 478.35 361.75 477.55 362.55 476.7 363.35 476.7 364.55 476.7 365.65 477.55 366.5 478.35 367.3 479.5 367.3 480.65 367.3 481.55 366.5 482.35 365.65 482.35 364.55" fill="#eba272" fill-rule="evenodd" stroke="none"/>
    <path d="M679.55 315.75 L679.55 321.4 655.8 321.4 655.8 349.7 649.4 349.7 649.4 321.4 621.85 321.4 621.85 315.75 649.4 315.75 649.4 292.45 655.8 292.45 655.8 315.75 679.55 315.75 M468.65 162.9 L480.15 163.3 480.15 204.25 516.05 204.25 516.05 210.55 480.15 210.55 480.15 242.65 468.65 242.65 468.65 210.55 431.35 210.55 431.35 204.25 468.65 204.25 468.65 162.9 M330.25 295.0 L335.9 295.0 335.9 315.15 368.0 315.15 368.0 326.45 335.9 326.45 335.9 354.75 330.25 354.75 330.25 339.15 330.25 295.0" fill="#f5d2bc" fill-rule="evenodd" stroke="none"/>
    <path d="M703.0 424.7 L703.0 502.55 -2.0 502.55 -2.0 424.7 19.35 424.7 34.8 424.7 58.7 424.7 76.0 424.7 101.55 424.7 115.05 424.7 160.2 424.7 173.7 424.7 198.9 424.7 211.55 424.7 217.4 424.7 238.4 424.7 268.4 424.7 Q265.15 425.6 262.1 426.8 247.85 432.45 247.85 440.4 247.85 448.35 262.1 453.95 276.35 459.6 296.55 459.6 316.75 459.6 331.0 453.95 345.25 448.35 345.25 440.4 345.25 432.45 331.0 426.8 L330.25 426.5 330.25 424.7 370.55 424.7 416.7 424.7 502.3 424.7 526.0 424.7 532.0 424.7 534.95 424.7 579.6 424.7 590.45 424.7 703.0 424.7 M499.85 451.7 L476.35 451.7 452.35 476.55 501.25 476.55 Q526.05 465.15 538.9 451.7 L508.8 451.7 533.75 425.75 524.8 425.75 499.85 451.7 M423.85 407.2 L423.85 407.1 427.15 407.1 423.85 407.2" fill="#f7d8c4" fill-rule="evenodd" stroke="none"/>
    <path d="M14.65 397.0 L11.8 379.95 30.4 378.2 32.0 394.8 33.6 411.85 34.8 424.7 19.35 424.7 17.5 413.8 14.65 397.0 M52.4 392.2 L50.4 382.5 74.15 379.25 74.6 389.4 75.3 406.8 76.0 424.7 58.7 424.7 55.7 409.15 52.4 392.2 M96.4 386.65 L94.35 371.55 110.35 370.75 111.55 384.7 113.1 402.25 115.05 424.7 101.55 424.7 98.7 404.0 96.4 386.65 M160.2 383.9 L160.2 359.85 183.35 368.15 180.1 387.25 177.25 403.75 173.7 424.7 160.2 424.7 160.2 400.55 160.2 383.9 M196.55 389.95 L195.85 380.25 204.8 378.35 206.75 391.7 209.4 409.8 211.55 424.7 198.9 424.7 197.75 407.6 196.55 389.95 M217.7 393.55 L217.9 378.3 237.4 378.65 237.75 396.85 238.2 415.2 238.4 424.7 217.4 424.7 217.5 411.3 217.7 393.55 M273.65 268.6 L242.9 292.25 242.9 278.5 284.25 246.95 284.25 260.4 273.7 268.55 273.65 268.55 273.65 268.6 M330.25 211.75 L446.3 123.0 493.55 123.0 551.75 164.3 598.25 197.3 625.6 216.6 619.55 223.5 608.85 216.0 496.2 137.2 444.4 137.2 330.25 225.05 330.25 211.75 M526.0 396.2 L526.0 393.55 534.95 393.55 534.95 424.7 532.0 424.7 530.05 398.0 530.0 397.75 526.0 396.2" fill="#e78e54" fill-rule="evenodd" stroke="none"/>
    <path d="M322.05 -1.0 L330.25 -1.0 330.25 211.75 330.25 225.05 330.25 295.0 330.25 339.15 322.05 337.65 322.05 -1.0 M330.25 381.0 L330.25 424.7 330.25 426.5 330.25 435.05 Q326.1 438.05 322.05 440.05 L322.05 379.4 330.25 381.0" fill="#e6894d" fill-rule="evenodd" stroke="none"/>
    <path d="M482.35 364.55 Q482.35 365.65 481.55 366.5 480.65 367.3 479.5 367.3 478.35 367.3 477.55 366.5 476.7 365.65 476.7 364.55 476.7 363.35 477.55 362.55 478.35 361.75 479.5 361.75 480.65 361.75 481.55 362.55 482.35 363.35 482.35 364.55" fill="#ab5318" fill-rule="evenodd" stroke="none"/>
    <path d="M619.55 223.5 L568.65 280.7 568.65 293.1 590.15 268.55 590.45 268.55 590.45 424.7 579.6 424.7 579.6 290.55 560.75 311.25 560.75 273.4 608.85 216.0 619.55 223.5" fill="#f7c9b7" fill-rule="evenodd" stroke="none"/>
    <path d="M526.0 393.55 L502.5 393.55 502.5 363.6 543.55 363.6 547.15 393.55 534.95 393.55 526.0 393.55" fill="#e07127" fill-rule="evenodd" stroke="none"/>
    <path d="M543.55 363.6 L551.35 363.6 Q565.1 377.35 565.0 393.55 L547.15 393.55 543.55 363.6" fill="#e48445" fill-rule="evenodd" stroke="none"/>
    <path d="M310.75 -1.0 L322.05 -1.0 322.05 337.65 310.75 335.6 310.75 -1.0 M310.75 377.15 L322.05 379.4 322.05 440.05 Q316.3 442.9 310.75 443.7 L310.75 377.15" fill="#ea9d6a" fill-rule="evenodd" stroke="none"/>
    <path d="M284.25 246.95 L284.25 -1.0 310.75 -1.0 310.75 335.6 310.75 377.15 310.05 377.05 310.05 335.5 310.75 335.6 310.05 335.5 310.05 377.05 310.75 377.15 310.75 443.7 Q296.8 445.8 284.25 435.05 L284.25 424.7 284.25 424.0 284.25 423.8 284.25 260.4 284.25 246.95" fill="#eeb088" fill-rule="evenodd" stroke="none"/>
    <path d="M-2.0 416.15 L-2.0 399.1 14.65 397.0 17.5 413.8 -2.0 416.15 M32.0 394.8 L52.4 392.2 55.7 409.15 33.6 411.85 32.0 394.8 M74.6 389.4 L96.4 386.65 98.7 404.0 75.3 406.8 74.6 389.4 M111.55 384.7 L141.85 380.9 160.2 383.9 160.2 400.55 147.2 398.05 113.1 402.25 111.55 384.7 M180.1 387.25 L196.55 389.95 197.75 407.6 177.25 403.75 180.1 387.25 M206.75 391.7 L217.7 393.55 217.5 411.3 209.4 409.8 206.75 391.7 M237.75 396.85 L273.65 402.85 273.65 421.8 238.2 415.2 237.75 396.85" fill="#df6c20" fill-rule="evenodd" stroke="none"/>
    <path d="M310.75 443.7 Q316.3 442.9 322.05 440.05 326.1 438.05 330.25 435.05 L330.25 426.5 331.0 426.8 Q345.25 432.45 345.25 440.4 345.25 448.35 331.0 453.95 316.75 459.6 296.55 459.6 276.35 459.6 262.1 453.95 247.85 448.35 247.85 440.4 247.85 432.45 262.1 426.8 265.15 425.6 268.4 424.7 L284.25 424.7 284.25 435.05 Q296.8 445.8 310.75 443.7 M499.85 451.7 L524.8 425.75 533.75 425.75 508.8 451.7 538.9 451.7 Q526.05 465.15 501.25 476.55 L452.35 476.55 476.35 451.7 499.85 451.7" fill="#f7b194" fill-rule="evenodd" stroke="none"/>
    <path d="M284.25 424.0 L284.25 424.7 268.4 424.7 271.1 424.0 284.25 424.0" fill="#f7c0a0" fill-rule="evenodd" stroke="none"/>
    <path d="M428.25 401.35 L429.65 401.35 430.85 401.35 430.85 401.4 439.15 401.4 485.1 401.4 502.3 401.4 502.3 424.7 416.7 424.7 416.7 419.65 419.65 419.65 419.65 412.7 423.85 412.7 423.85 407.2 427.15 407.1 428.25 407.1 428.25 401.35 M430.85 401.4 L429.65 401.35 430.85 401.4" fill="#c15e1c" fill-rule="evenodd" stroke="none"/>
    <path d="M372.85 419.65 L372.85 412.7 376.35 412.7 419.75 412.6 419.65 412.7 419.65 419.65 416.7 419.65 372.85 419.65 M380.75 407.1 L380.75 401.35 428.25 401.35 428.25 407.1 427.15 407.1 423.85 407.1 423.85 407.2 421.3 407.0 380.75 407.1 M421.3 407.0 L423.85 407.1 421.3 407.0" fill="#f2c4a6" fill-rule="evenodd" stroke="none"/>
    <path d="M625.6 216.6 L703.0 129.4 703.0 139.3 590.45 268.15 590.15 268.55 568.65 293.1 568.65 280.7 619.55 223.5 625.6 216.6 M551.75 164.3 L551.75 150.45 551.75 134.15 598.25 134.15 598.25 150.45 598.25 197.3 M655.8 292.45 L679.55 292.45 679.55 315.75 679.55 321.4 679.55 349.7 655.8 349.7 649.4 349.7 621.85 349.7 621.85 321.4 621.85 315.75 621.85 292.45 649.4 292.45 655.8 292.45 655.8 315.75 679.55 315.75 M679.55 321.4 L655.8 321.4 655.8 349.7 M551.75 150.45 L598.25 150.45 M468.65 162.9 L480.15 163.3 480.15 204.25 516.05 204.25 516.05 210.55 480.15 210.55 480.15 242.65 468.65 242.65 468.65 210.55 431.35 210.55 431.35 204.25 468.65 204.25 468.65 162.9 M430.85 401.4 L439.15 401.4 439.15 401.35 439.15 328.7 485.1 328.7 485.1 401.35 485.1 401.4 502.3 401.4 502.3 424.7 M482.35 364.55 Q482.35 365.65 481.55 366.5 480.65 367.3 479.5 367.3 478.35 367.3 477.55 366.5 476.7 365.65 476.7 364.55 476.7 363.35 477.55 362.55 478.35 361.75 479.5 361.75 480.65 361.75 481.55 362.55 482.35 363.35 482.35 364.55 M621.85 321.4 L649.4 321.4 649.4 349.7 M621.85 315.75 L649.4 315.75 649.4 292.45 M322.05 337.65 L310.75 335.6 310.05 335.5 310.05 377.05 310.75 377.15 322.05 379.4 330.25 381.0 M590.45 424.7 L590.45 268.55 M429.65 401.35 L430.85 401.4 M439.15 401.4 L485.1 401.4 M330.25 339.15 L322.05 337.65" fill="none" stroke="#c15e1c" stroke-linecap="round" stroke-linejoin="round" stroke-width="1.0"/>
    <path d="M703.0 424.7 L703.0 502.55 -2.0 502.55 -2.0 424.7 19.35 424.7 17.5 413.8 -2.0 416.15 -2.0 399.1 14.65 397.0 11.8 379.95 30.4 378.2 32.0 394.8 52.4 392.2 50.4 382.5 74.15 379.25 74.6 389.4 96.4 386.65 94.35 371.55 110.35 370.75 111.55 384.7 141.85 380.9 160.2 383.9 160.2 359.85 183.35 368.15 180.1 387.25 196.55 389.95 195.85 380.25 204.8 378.35 206.75 391.7 217.7 393.55 217.9 378.3 237.4 378.65 237.75 396.85 273.65 402.85 273.65 268.6 242.9 292.25 242.9 278.5 284.25 246.95 284.25 -1.0 310.75 -1.0 322.05 -1.0 330.25 -1.0 330.25 211.75 446.3 123.0 493.55 123.0 551.75 164.3 598.25 197.3 625.6 216.6 M480.15 163.3 Q497.6 165.15 516.05 175.3 L516.05 204.25 M516.05 210.55 L516.05 242.65 480.15 242.65 M468.65 242.65 L431.35 242.65 431.35 210.55 M431.35 204.25 L431.35 175.3 Q449.35 163.8 468.65 162.9 M330.25 211.75 L330.25 225.05 444.4 137.2 496.2 137.2 608.85 216.0 M330.25 295.0 L335.9 295.0 368.0 295.0 368.0 315.15 368.0 326.45 368.0 354.75 335.9 354.75 330.25 354.75 330.25 339.15 330.25 295.0 330.25 225.05 M330.25 381.0 L330.25 424.7 370.55 424.7 370.55 419.65 372.85 419.65 372.85 412.7 376.35 412.7 376.35 407.1 380.75 407.1 380.75 401.35 428.25 401.35 429.65 401.35 430.85 401.35 430.85 401.4 M439.15 401.35 L433.4 401.35 433.4 322.7 490.4 322.7 490.4 401.35 485.1 401.35 439.15 401.35 M502.3 424.7 L526.0 424.7 526.0 396.2 M526.0 393.55 L502.5 393.55 502.5 363.6 543.55 363.6 M551.35 363.6 Q565.1 377.35 565.0 393.55 M534.95 393.55 L534.95 424.7 579.6 424.7 590.45 424.7 703.0 424.7 M335.9 295.0 L335.9 315.15 368.0 315.15 M368.0 326.45 L335.9 326.45 335.9 354.75 M273.7 268.55 L273.65 268.55 273.65 268.6 273.7 268.55 284.25 260.4 284.25 246.95 M310.75 443.7 Q316.3 442.9 322.05 440.05 326.1 438.05 330.25 435.05 L330.25 426.5 330.25 424.7 M284.25 424.7 L284.25 424.0 284.25 423.8 273.65 421.8 238.2 415.2 238.4 424.7 268.4 424.7 284.25 424.7 284.25 435.05 Q296.8 445.8 310.75 443.7 M273.65 421.8 L273.65 402.85 M217.4 424.7 L238.4 424.7 M217.4 424.7 L217.5 411.3 209.4 409.8 211.55 424.7 217.4 424.7 M173.7 424.7 L177.25 403.75 180.1 387.25 M173.7 424.7 L198.9 424.7 197.75 407.6 177.25 403.75 M198.9 424.7 L211.55 424.7 M160.2 424.7 L160.2 400.55 147.2 398.05 113.1 402.25 115.05 424.7 160.2 424.7 173.7 424.7 M98.7 404.0 L101.55 424.7 115.05 424.7 M58.7 424.7 L76.0 424.7 75.3 406.8 74.6 389.4 M58.7 424.7 L55.7 409.15 33.6 411.85 34.8 424.7 58.7 424.7 M19.35 424.7 L34.8 424.7 M76.0 424.7 L101.55 424.7 M75.3 406.8 L98.7 404.0 96.4 386.65 M532.0 424.7 L534.95 424.7 M526.0 424.7 L532.0 424.7 M427.15 407.1 L428.25 407.1 428.25 401.35 M416.7 419.65 L419.65 419.65 419.65 412.7 423.85 412.7 423.85 407.2 421.3 407.0 380.75 407.1 M419.75 412.6 L376.35 412.7 M423.85 407.1 L421.3 407.0 M423.85 407.2 L423.85 407.1 427.15 407.1 423.85 407.2 M416.7 424.7 L416.7 419.65 372.85 419.65 M370.55 424.7 L416.7 424.7 502.3 424.7 M284.25 423.8 L284.25 260.4 M238.2 415.2 L237.75 396.85 M55.7 409.15 L52.4 392.2 M32.0 394.8 L33.6 411.85 M17.5 413.8 L14.65 397.0 M160.2 400.55 L160.2 383.9 M113.1 402.25 L111.55 384.7 M197.75 407.6 L196.55 389.95 M209.4 409.8 L206.75 391.7 M217.5 411.3 L217.7 393.55" fill="none" stroke="#c9611d" stroke-linecap="round" stroke-linejoin="round" stroke-width="1.0"/>
    <path d="M-2.0 424.7 L-2.0 416.15" fill="none" stroke="#000000" stroke-linecap="round" stroke-linejoin="round" stroke-width="1.0"/>
  </g>
</svg>
