<?xml version="1.0" encoding="UTF-8" standalone="no"?>
<svg xmlns:ffdec="https://www.free-decompiler.com/flash" xmlns:xlink="http://www.w3.org/1999/xlink" ffdec:objectType="shape" height="504.55px" width="706.0px" xmlns="http://www.w3.org/2000/svg">
  <g transform="matrix(1.0, 0.0, 0.0, 1.0, 1.5, 1.5)">
    <path d="M704.0 502.55 L-1.0 502.55 -1.0 -1.0 704.0 -1.0 704.0 502.55" fill="#ffffff" fill-rule="evenodd" stroke="none"/>
    <path d="M704.0 502.55 L-1.0 502.55 -1.0 -1.0 704.0 -1.0 704.0 502.55" fill="#ffffff" fill-rule="evenodd" stroke="none"/>
    <path d="M531.8 89.15 L531.8 -1.0 704.0 -1.0 704.0 502.55 531.8 502.55 531.8 235.95 531.8 89.15 M375.5 212.7 L375.5 457.45 252.35 457.45 252.35 447.1 262.4 447.1 262.4 274.55 252.35 274.55 252.35 183.1 252.35 86.5 350.55 86.5 375.5 86.5 375.5 212.7 M84.1 438.1 L-1.0 438.1 -1.0 145.8 105.15 145.8 105.15 251.4 84.1 251.4 84.1 438.1" fill="#faece0" fill-rule="evenodd" stroke="none"/>
    <path d="M428.6 212.7 L375.5 212.7 375.5 86.5 350.55 86.5 350.55 42.75 439.6 42.75 439.6 89.15 428.6 89.15 428.6 212.7 M172.25 447.1 L172.25 452.25 84.1 452.25 84.1 438.1 84.1 251.4 105.15 251.4 172.25 251.4 172.25 274.55 131.2 274.55 131.2 447.1 172.25 447.1 M216.35 274.55 L216.35 183.1 252.35 183.1 252.35 274.55 216.35 274.55" fill="#f7dccc" fill-rule="evenodd" stroke="none"/>
    <path d="M531.8 235.95 L428.6 235.95 428.6 212.7 428.6 89.15 439.6 89.15 531.8 89.15 531.8 235.95 M252.35 447.1 L172.25 447.1 131.2 447.1 131.2 274.55 172.25 274.55 216.35 274.55 252.35 274.55 262.4 274.55 262.4 447.1 252.35 447.1" fill="#f2ceb7" fill-rule="evenodd" stroke="none"/>
    <path d="M626.6 216.6 L704.0 129.4 704.0 139.3 591.45 268.15 591.15 268.55 569.7 293.15 569.7 280.7 620.55 223.5 626.6 216.6 M552.8 150.45 L552.8 134.15 599.3 134.15 599.3 150.45 552.8 150.45" fill="#e27a36" fill-rule="evenodd" stroke="none"/>
    <path d="M704.0 139.3 L704.0 424.7 591.45 424.7 591.45 268.55 591.45 268.15 704.0 139.3 M274.65 402.85 L274.65 268.6 274.75 268.55 285.25 260.4 285.25 423.8 274.65 421.8 274.65 402.85 M552.8 164.3 L552.8 150.45 599.3 150.45 599.3 197.3 552.8 164.3 M680.6 315.75 L680.6 292.5 656.85 292.5 650.4 292.5 622.85 292.5 622.85 315.75 622.85 321.45 622.85 349.75 650.4 349.75 656.85 349.75 680.6 349.75 680.6 321.45 680.6 315.75 M481.15 163.3 L469.65 162.9 Q450.35 163.8 432.4 175.3 L432.4 204.25 432.4 210.55 432.4 242.65 469.65 242.65 481.15 242.65 517.05 242.65 517.05 210.55 517.05 204.25 517.05 175.3 Q498.6 165.2 481.15 163.3 M331.25 225.05 L445.4 137.25 497.2 137.25 609.9 216.0 561.75 273.4 561.75 311.25 580.6 290.55 580.6 424.7 535.95 424.7 535.95 393.55 548.15 393.55 566.0 393.55 Q566.15 377.4 552.35 363.65 L544.55 363.65 503.5 363.65 503.5 393.55 527.0 393.55 527.0 396.2 527.0 424.7 503.3 424.7 503.3 401.4 486.1 401.4 486.1 401.35 486.1 401.4 440.2 401.4 431.85 401.4 431.85 401.35 430.65 401.35 429.25 401.35 381.75 401.35 381.75 407.1 377.35 407.1 377.35 412.75 373.9 412.75 373.9 419.7 371.6 419.7 371.6 424.7 331.25 424.7 331.25 381.0 331.25 354.75 336.9 354.75 369.0 354.75 369.0 326.45 369.0 315.15 369.0 295.0 336.9 295.0 331.25 295.0 331.25 225.05 M440.2 401.35 L440.2 401.4 440.2 401.35 486.1 401.35 491.45 401.35 491.45 322.7 434.4 322.7 434.4 401.35 440.2 401.35" fill="#fbede1" fill-rule="evenodd" stroke="none"/>
    <path d="M656.85 292.5 L680.6 292.5 680.6 315.75 656.85 315.75 656.85 292.5 M680.6 321.45 L680.6 349.75 656.85 349.75 656.85 321.45 680.6 321.45 M650.4 349.75 L622.85 349.75 622.85 321.45 650.4 321.45 650.4 349.75 M622.85 315.75 L622.85 292.5 650.4 292.5 650.4 315.75 622.85 315.75 M481.15 163.3 Q498.6 165.2 517.05 175.3 L517.05 204.25 481.15 204.25 481.15 163.3 M517.05 210.55 L517.05 242.65 481.15 242.65 481.15 210.55 517.05 210.55 M469.65 242.65 L432.4 242.65 432.4 210.55 469.65 210.55 469.65 242.65 M432.4 204.25 L432.4 175.3 Q450.35 163.8 469.65 162.9 L469.65 204.25 432.4 204.25 M336.9 295.0 L369.0 295.0 369.0 315.15 336.9 315.15 336.9 295.0 M369.0 326.45 L369.0 354.75 336.9 354.75 336.9 326.45 369.0 326.45 M371.6 424.7 L371.6 419.7 373.9 419.7 417.7 419.7 417.7 424.7 371.6 424.7 M377.35 412.75 L377.35 407.1 381.75 407.1 422.35 407.05 424.9 407.2 424.9 412.75 420.7 412.75 420.75 412.65 377.35 412.75 M440.2 401.35 L434.4 401.35 434.4 322.7 491.45 322.7 491.45 401.35 486.1 401.35 486.1 328.75 440.2 328.75 440.2 401.35 440.2 328.75 486.1 328.75 486.1 401.35 440.2 401.35 M527.0 424.7 L527.0 396.2 531.0 397.75 531.1 398.0 533.05 424.7 527.0 424.7 M477.7 364.55 Q477.7 365.65 478.55 366.5 479.35 367.3 480.5 367.3 481.65 367.3 482.55 366.5 483.35 365.65 483.35 364.55 483.35 363.4 482.55 362.55 481.65 361.75 480.5 361.75 479.35 361.75 478.55 362.55 477.7 363.4 477.7 364.55" fill="#eba272" fill-rule="evenodd" stroke="none"/>
    <path d="M620.55 223.5 L569.7 280.7 569.7 293.15 591.15 268.55 591.45 268.55 591.45 424.7 580.6 424.7 580.6 290.55 561.75 311.25 561.75 273.4 609.9 216.0 620.55 223.5 M680.6 315.75 L680.6 321.45 656.85 321.45 656.85 349.75 650.4 349.75 650.4 321.45 622.85 321.45 622.85 315.75 650.4 315.75 650.4 292.5 656.85 292.5 656.85 315.75 680.6 315.75 M469.65 162.9 L481.15 163.3 481.15 204.25 517.05 204.25 517.05 210.55 481.15 210.55 481.15 242.65 469.65 242.65 469.65 210.55 432.4 210.55 432.4 204.25 469.65 204.25 469.65 162.9 M331.25 295.0 L336.9 295.0 336.9 315.15 369.0 315.15 369.0 326.45 336.9 326.45 336.9 354.75 331.25 354.75 331.25 339.15 331.25 295.0" fill="#f5d2bc" fill-rule="evenodd" stroke="none"/>
    <path d="M704.0 424.7 L704.0 502.55 -1.0 502.55 -1.0 424.7 20.35 424.7 35.8 424.7 59.75 424.7 77.0 424.7 102.55 424.7 116.05 424.7 161.25 424.7 174.7 424.7 199.9 424.7 212.55 424.7 218.4 424.7 239.4 424.7 285.25 424.7 285.25 435.1 Q297.8 445.8 311.75 443.7 317.3 442.9 323.05 440.05 327.15 438.05 331.25 435.1 L331.25 424.7 371.6 424.7 417.7 424.7 503.3 424.7 527.0 424.7 533.05 424.7 535.95 424.7 580.6 424.7 591.45 424.7 704.0 424.7 M424.9 407.2 L424.9 407.1 428.2 407.1 424.9 407.2" fill="#f7d8c4" fill-rule="evenodd" stroke="none"/>
    <path d="M15.65 397.0 L12.8 379.95 31.4 378.25 33.0 394.8 34.6 411.85 35.8 424.7 20.35 424.7 18.5 413.85 15.65 397.0 M53.4 392.25 L51.45 382.5 75.15 379.25 75.6 389.4 76.3 406.85 77.0 424.7 59.75 424.7 56.7 409.15 53.4 392.25 M97.4 386.65 L95.35 371.6 111.4 370.8 112.6 384.75 114.1 402.25 116.05 424.7 102.55 424.7 99.7 404.0 97.4 386.65 M161.25 383.9 L161.25 359.85 184.35 368.15 181.1 387.25 178.25 403.75 174.7 424.7 161.25 424.7 161.25 400.55 161.25 383.9 M197.55 389.95 L196.85 380.25 205.85 378.4 207.8 391.75 210.4 409.8 212.55 424.7 199.9 424.7 198.8 407.6 197.55 389.95 M218.7 393.55 L218.9 378.35 238.4 378.7 238.8 396.85 239.25 415.2 239.4 424.7 218.4 424.7 218.55 411.3 218.7 393.55 M274.65 268.6 L243.95 292.3 243.95 278.55 285.25 246.95 285.25 260.4 274.75 268.55 274.65 268.55 274.65 268.6 M331.25 211.75 L447.3 123.05 494.55 123.05 552.8 164.3 599.3 197.3 626.6 216.6 620.55 223.5 609.9 216.0 497.2 137.25 445.4 137.25 331.25 225.05 331.25 211.75 M527.0 396.2 L527.0 393.55 535.95 393.55 535.95 424.7 533.05 424.7 531.1 398.0 531.0 397.75 527.0 396.2" fill="#e78e54" fill-rule="evenodd" stroke="none"/>
    <path d="M323.05 -1.0 L331.25 -1.0 331.25 211.75 331.25 225.05 331.25 295.0 331.25 339.15 323.05 337.65 323.05 -1.0 M331.25 381.0 L331.25 424.7 331.25 435.1 Q327.15 438.05 323.05 440.05 L323.05 379.4 331.25 381.0" fill="#e6894d" fill-rule="evenodd" stroke="none"/>
    <path d="M331.25 354.75 L331.25 381.0 323.05 379.4 311.75 377.2 311.75 335.65 323.05 337.65 331.25 339.15 331.25 354.75 M527.0 393.55 L503.5 393.55 503.5 363.65 544.55 363.65 548.15 393.55 535.95 393.55 527.0 393.55" fill="#e07127" fill-rule="evenodd" stroke="none"/>
    <path d="M477.7 364.55 Q477.7 363.4 478.55 362.55 479.35 361.75 480.5 361.75 481.65 361.75 482.55 362.55 483.35 363.4 483.35 364.55 483.35 365.65 482.55 366.5 481.65 367.3 480.5 367.3 479.35 367.3 478.55 366.5 477.7 365.65 477.7 364.55" fill="#ab5318" fill-rule="evenodd" stroke="none"/>
    <path d="M544.55 363.65 L552.35 363.65 Q566.15 377.4 566.0 393.55 L548.15 393.55 544.55 363.65" fill="#e48445" fill-rule="evenodd" stroke="none"/>
    <path d="M311.75 -1.0 L323.05 -1.0 323.05 337.65 311.75 335.65 311.75 -1.0 M311.75 377.2 L323.05 379.4 323.05 440.05 Q317.3 442.9 311.75 443.7 L311.75 377.2" fill="#ea9d6a" fill-rule="evenodd" stroke="none"/>
    <path d="M285.25 246.95 L285.25 -1.0 311.75 -1.0 311.75 335.65 311.75 377.2 311.05 377.1 311.05 335.55 311.75 335.65 311.05 335.55 311.05 377.1 311.75 377.2 311.75 443.7 Q297.8 445.8 285.25 435.1 L285.25 424.7 285.25 423.8 285.25 260.4 285.25 246.95" fill="#eeb088" fill-rule="evenodd" stroke="none"/>
    <path d="M-1.0 416.15 L-1.0 399.15 15.65 397.0 18.5 413.85 -1.0 416.15 M33.0 394.8 L53.4 392.25 56.7 409.15 34.6 411.85 33.0 394.8 M75.6 389.4 L97.4 386.65 99.7 404.0 76.3 406.85 75.6 389.4 M112.6 384.75 L142.9 380.9 161.25 383.9 161.25 400.55 148.2 398.05 114.1 402.25 112.6 384.75 M181.1 387.25 L197.55 389.95 198.8 407.6 178.25 403.75 181.1 387.25 M207.8 391.75 L218.7 393.55 218.55 411.3 210.4 409.8 207.8 391.75 M238.8 396.85 L274.65 402.85 274.65 421.8 239.25 415.2 238.8 396.85" fill="#df6c20" fill-rule="evenodd" stroke="none"/>
    <path d="M429.25 401.35 L430.65 401.35 431.85 401.35 431.85 401.4 440.2 401.4 486.1 401.4 503.3 401.4 503.3 424.7 417.7 424.7 417.7 419.7 420.7 419.7 420.7 412.75 424.9 412.75 424.9 407.2 428.2 407.1 429.25 407.1 429.25 401.35 M431.85 401.4 L430.65 401.35 431.85 401.4" fill="#c15e1c" fill-rule="evenodd" stroke="none"/>
    <path d="M373.9 419.7 L373.9 412.75 377.35 412.75 420.75 412.65 420.7 412.75 420.7 419.7 417.7 419.7 373.9 419.7 M381.75 407.1 L381.75 401.35 429.25 401.35 429.25 407.1 428.2 407.1 424.9 407.1 424.9 407.2 422.35 407.05 381.75 407.1 M422.35 407.05 L424.9 407.1 422.35 407.05" fill="#f2c4a6" fill-rule="evenodd" stroke="none"/>
    <path d="M626.6 216.6 L704.0 129.4 704.0 139.3 591.45 268.15 591.15 268.55 569.7 293.15 569.7 280.7 620.55 223.5 626.6 216.6 M552.8 164.3 L552.8 150.45 552.8 134.15 599.3 134.15 599.3 150.45 599.3 197.3 M656.85 292.5 L680.6 292.5 680.6 315.75 680.6 321.45 680.6 349.75 656.85 349.75 650.4 349.75 622.85 349.75 622.85 321.45 622.85 315.75 622.85 292.5 650.4 292.5 656.85 292.5 656.85 315.75 680.6 315.75 M680.6 321.45 L656.85 321.45 656.85 349.75 M552.8 150.45 L599.3 150.45 M469.65 162.9 L481.15 163.3 481.15 204.25 517.05 204.25 517.05 210.55 481.15 210.55 481.15 242.65 469.65 242.65 469.65 210.55 432.4 210.55 432.4 204.25 469.65 204.25 469.65 162.9 M431.85 401.4 L440.2 401.4 440.2 401.35 440.2 328.75 486.1 328.75 486.1 401.35 486.1 401.4 503.3 401.4 503.3 424.7 M477.7 364.55 Q477.7 363.4 478.55 362.55 479.35 361.75 480.5 361.75 481.65 361.75 482.55 362.55 483.35 363.4 483.35 364.55 483.35 365.65 482.55 366.5 481.65 367.3 480.5 367.3 479.35 367.3 478.55 366.5 477.7 365.65 477.7 364.55 M331.25 339.15 L323.05 337.65 311.75 335.65 311.05 335.55 311.05 377.1 311.75 377.2 323.05 379.4 331.25 381.0 M622.85 315.75 L650.4 315.75 650.4 292.5 M622.85 321.45 L650.4 321.45 650.4 349.75 M591.45 424.7 L591.45 268.55 M430.65 401.35 L431.85 401.4 M440.2 401.4 L486.1 401.4" fill="none" stroke="#c15e1c" stroke-linecap="round" stroke-linejoin="round" stroke-width="1.0"/>
    <path d="M704.0 424.7 L704.0 502.55 -1.0 502.55 -1.0 424.7 20.35 424.7 18.5 413.85 15.65 397.0 12.8 379.95 31.4 378.25 33.0 394.8 53.4 392.25 51.45 382.5 75.15 379.25 75.6 389.4 97.4 386.65 95.35 371.6 111.4 370.8 112.6 384.75 142.9 380.9 161.25 383.9 161.25 359.85 184.35 368.15 181.1 387.25 197.55 389.95 196.85 380.25 205.85 378.4 207.8 391.75 218.7 393.55 218.9 378.35 238.4 378.7 238.8 396.85 274.65 402.85 274.65 268.6 243.95 292.3 243.95 278.55 285.25 246.95 285.25 -1.0 311.75 -1.0 323.05 -1.0 331.25 -1.0 331.25 211.75 447.3 123.05 494.55 123.05 552.8 164.3 599.3 197.3 626.6 216.6 M-1.0 416.15 L-1.0 399.15 15.65 397.0 M481.15 163.3 Q498.6 165.2 517.05 175.3 L517.05 204.25 M517.05 210.55 L517.05 242.65 481.15 242.65 M469.65 242.65 L432.4 242.65 432.4 210.55 M432.4 204.25 L432.4 175.3 Q450.35 163.8 469.65 162.9 M331.25 211.75 L331.25 225.05 445.4 137.25 497.2 137.25 609.9 216.0 M331.25 295.0 L336.9 295.0 369.0 295.0 369.0 315.15 369.0 326.45 369.0 354.75 336.9 354.75 331.25 354.75 331.25 381.0 331.25 424.7 371.6 424.7 371.6 419.7 373.9 419.7 373.9 412.75 377.35 412.75 377.35 407.1 381.75 407.1 381.75 401.35 429.25 401.35 430.65 401.35 431.85 401.35 431.85 401.4 M440.2 401.35 L434.4 401.35 434.4 322.7 491.45 322.7 491.45 401.35 486.1 401.35 440.2 401.35 M503.3 424.7 L527.0 424.7 527.0 396.2 527.0 393.55 503.5 393.55 503.5 363.65 544.55 363.65 552.35 363.65 Q566.15 377.4 566.0 393.55 L548.15 393.55 535.95 393.55 535.95 424.7 580.6 424.7 591.45 424.7 704.0 424.7 M331.25 295.0 L331.25 225.05 M331.25 339.15 L331.25 354.75 M369.0 326.45 L336.9 326.45 336.9 354.75 M336.9 295.0 L336.9 315.15 369.0 315.15 M331.25 295.0 L331.25 339.15 M533.05 424.7 L535.95 424.7 M274.65 268.6 L274.75 268.55 274.65 268.55 274.65 268.6 M274.75 268.55 L285.25 260.4 285.25 246.95 M285.25 424.7 L285.25 435.1 Q297.8 445.8 311.75 443.7 317.3 442.9 323.05 440.05 327.15 438.05 331.25 435.1 L331.25 424.7 M285.25 424.7 L285.25 423.8 274.65 421.8 239.25 415.2 239.4 424.7 285.25 424.7 M274.65 421.8 L274.65 402.85 M239.4 424.7 L218.4 424.7 212.55 424.7 199.9 424.7 174.7 424.7 161.25 424.7 116.05 424.7 102.55 424.7 77.0 424.7 59.75 424.7 35.8 424.7 20.35 424.7 M218.55 411.3 L210.4 409.8 212.55 424.7 M218.4 424.7 L218.55 411.3 218.7 393.55 M174.7 424.7 L178.25 403.75 181.1 387.25 M199.9 424.7 L198.8 407.6 178.25 403.75 M114.1 402.25 L148.2 398.05 161.25 400.55 161.25 383.9 M161.25 424.7 L161.25 400.55 M116.05 424.7 L114.1 402.25 112.6 384.75 M99.7 404.0 L102.55 424.7 M77.0 424.7 L76.3 406.85 75.6 389.4 M59.75 424.7 L56.7 409.15 34.6 411.85 35.8 424.7 M18.5 413.85 L-1.0 416.15 M76.3 406.85 L99.7 404.0 97.4 386.65 M527.0 424.7 L533.05 424.7 M428.2 407.1 L429.25 407.1 429.25 401.35 M424.9 407.2 L424.9 407.1 422.35 407.05 424.9 407.2 428.2 407.1 424.9 407.1 M417.7 419.7 L420.7 419.7 420.7 412.75 424.9 412.75 424.9 407.2 M420.75 412.65 L377.35 412.75 M417.7 424.7 L417.7 419.7 373.9 419.7 M381.75 407.1 L422.35 407.05 M371.6 424.7 L417.7 424.7 503.3 424.7 M239.25 415.2 L238.8 396.85 M198.8 407.6 L197.55 389.95 M210.4 409.8 L207.8 391.75 M285.25 423.8 L285.25 260.4 M33.0 394.8 L34.6 411.85 M56.7 409.15 L53.4 392.25" fill="none" stroke="#c9611d" stroke-linecap="round" stroke-linejoin="round" stroke-width="1.0"/>
    <path d="M-1.0 424.7 L-1.0 416.15" fill="none" stroke="#000000" stroke-linecap="round" stroke-linejoin="round" stroke-width="1.0"/>
    <path d="M131.2 346.25 Q128.95 345.1 127.05 343.2 122.15 338.3 122.15 331.35 122.15 324.4 127.05 319.5 L128.5 318.2 Q132.95 314.65 138.9 314.65 144.85 314.65 149.25 318.2 L150.75 319.5 Q155.6 324.4 155.6 331.35 155.6 338.3 150.75 343.2 145.85 348.05 138.9 348.05 L137.75 348.05 133.7 347.3 131.2 346.25" fill="#990000" fill-rule="evenodd" stroke="none"/>
    <path d="M137.75 348.05 L142.1 368.4 M131.2 346.25 L104.6 350.5 M103.75 351.3 L103.75 363.0 M133.7 347.3 L117.95 369.6 M144.2 367.95 L172.95 358.0 M112.5 402.55 L95.0 425.05 M142.1 454.65 L145.05 454.65 M113.35 401.75 L138.35 426.75 M138.75 428.85 L141.25 453.8 M68.75 440.05 L72.45 445.5 M93.3 426.75 L70.0 439.25 M117.95 370.9 L111.65 402.15" fill="none" stroke="#990000" stroke-linecap="round" stroke-linejoin="round" stroke-width="8.0"/>
    <path d="M602.15 291.4 Q608.05 291.4 612.5 295.0 L613.95 296.3 Q618.85 301.2 618.85 308.15 618.85 315.1 613.95 319.95 609.1 324.85 602.15 324.85 L600.95 324.85 596.95 324.1 594.4 323.05 Q592.2 321.9 590.3 319.95 585.4 315.1 585.4 308.15 585.4 301.2 590.3 296.3 L591.75 295.0 Q596.2 291.4 602.15 291.4" fill="#990000" fill-rule="evenodd" stroke="none"/>
    <path d="M586.15 363.2 L577.9 371.45 M602.2 357.5 L602.0 389.35 M617.65 363.45 L625.9 371.7 M588.3 359.6 L596.7 330.3 M615.5 359.85 L607.1 330.55 M602.1 327.1 L602.25 354.45 M588.85 457.35 L585.9 457.35 M614.95 457.35 L617.9 457.35 M592.2 431.5 L589.7 456.5 M611.6 431.5 L614.1 456.5 M598.55 393.45 L592.9 428.35 M605.25 393.45 L610.9 428.35" fill="none" stroke="#990000" stroke-linecap="round" stroke-linejoin="round" stroke-width="10.0"/>
  </g>
</svg>
