<?xml version="1.0" encoding="UTF-8" standalone="no"?>
<svg xmlns:ffdec="https://www.free-decompiler.com/flash" xmlns:xlink="http://www.w3.org/1999/xlink" ffdec:objectType="shape" height="75.0px" width="67.3px" xmlns="http://www.w3.org/2000/svg">
  <g transform="matrix(1.0, 0.0, 0.0, 1.0, 33.65, 35.0)">
    <path d="M23.9 -17.45 Q33.65 -7.55 33.65 6.35 33.65 20.3 23.9 30.2 13.95 40.0 0.05 40.0 -13.9 40.0 -23.7 30.2 -33.65 20.3 -33.65 6.35 -33.65 -7.55 -23.7 -17.45 -13.9 -27.35 0.05 -27.35 13.95 -27.35 23.9 -17.45" fill="url(#gradient0)" fill-rule="evenodd" stroke="none"/>
    <path d="M18.35 -20.6 L17.25 -19.95 26.4 -3.75 Q27.05 -4.2 28.2 -3.5 L18.35 -20.6 M-28.05 4.1 L-7.8 4.1 -6.25 3.7 -4.6 3.45 Q-5.65 1.75 -5.8 0.05 L-15.85 -17.45 -15.85 -17.5 -15.85 -17.6 -13.05 -19.2 -12.95 -19.2 -12.85 -19.15 -2.75 -1.55 -1.55 -0.5 -0.5 1.1 0.05 1.95 Q0.25 1.45 0.6 0.9 L1.7 -0.7 2.85 -1.8 12.85 -19.15 Q11.55 -18.65 9.85 -18.65 7.8 -18.65 6.3 -19.35 L-13.9 -19.35 -14.0 -19.45 -14.0 -22.7 -13.9 -22.75 -13.9 -22.8 6.4 -22.8 7.9 -23.3 9.85 -23.5 11.8 -23.3 13.35 -22.75 13.7 -22.6 Q14.9 -21.95 14.9 -21.05 14.9 -20.15 13.7 -19.45 L13.35 -19.35 13.25 -19.3 15.95 -17.75 16.0 -17.7 16.0 -17.6 5.9 -0.1 Q5.8 1.5 4.75 3.25 L4.6 3.45 6.3 3.7 7.85 4.1 28.1 4.1 28.2 4.15 28.25 4.25 28.25 7.5 28.2 7.6 28.1 7.6 7.95 7.6 Q6.65 8.25 4.85 8.35 L5.4 9.2 Q6.45 10.95 6.6 12.55 L15.8 28.6 Q16.1 27.75 16.65 26.85 17.65 25.1 19.0 24.2 L29.05 6.6 29.2 6.6 32.0 8.3 32.05 8.35 32.05 8.4 21.9 25.95 21.5 27.5 20.75 29.25 19.65 30.9 Q19.1 31.5 18.35 31.95 L18.1 32.2 Q16.9 32.95 16.15 32.45 L15.2 30.9 15.2 30.8 15.25 30.8 6.05 14.65 5.85 14.7 Q5.15 15.2 3.95 14.5 L3.75 14.4 3.65 14.3 3.6 14.3 3.55 14.25 2.4 13.15 1.3 11.6 0.75 10.5 0.2 11.35 -0.85 13.0 -2.05 14.05 -12.2 31.6 -12.2 31.65 -12.35 31.65 -15.05 30.1 -15.0 30.25 -15.0 30.7 Q-15.0 32.0 -15.75 32.45 -16.5 32.95 -17.65 32.2 L-18.0 31.95 -19.2 30.9 -20.3 29.25 -21.15 27.5 -21.55 25.95 -31.6 8.4 -31.6 8.35 -31.6 8.3 -28.75 6.6 -28.6 6.6 -28.15 7.45 -28.15 4.2 -28.15 4.15 -28.1 4.15 -28.1 4.1 -28.05 4.1 M18.35 -20.85 L18.45 -20.8 28.6 -3.25 29.75 -2.15 30.9 -0.55 31.7 1.15 32.05 2.8 32.05 3.2 Q32.1 4.55 31.3 4.95 30.55 5.4 29.4 4.75 L29.05 4.55 Q27.8 3.6 26.7 1.8 25.7 0.05 25.6 -1.55 L15.45 -19.1 15.45 -19.15 15.5 -19.25 18.3 -20.85 18.35 -20.85 M13.6 -22.4 L13.25 -22.55 11.7 -23.1 9.85 -23.2 7.95 -23.1 6.45 -22.6 6.4 -22.55 Q5.0 -21.95 5.0 -21.05 L5.0 -20.95 Q5.1 -20.15 6.35 -19.55 L6.4 -19.55 6.4 -19.5 Q7.8 -18.85 9.85 -18.85 11.85 -18.85 13.25 -19.5 L13.6 -19.7 Q14.6 -20.3 14.6 -21.05 14.6 -21.8 13.6 -22.4 M4.75 -20.95 L4.75 -21.05 Q4.75 -21.95 6.0 -22.6 L-13.75 -22.6 -13.75 -21.05 4.75 -20.95 M15.8 -17.6 L14.45 -18.45 5.2 -2.25 Q5.95 -1.85 5.95 -0.55 L15.8 -17.6 M26.4 -3.55 Q25.65 -3.1 25.8 -1.6 L25.8 -1.55 Q25.9 0.0 26.95 1.75 27.9 3.45 29.2 4.3 L29.5 4.55 Q30.55 5.2 31.2 4.75 31.9 4.45 31.9 3.2 L31.85 2.8 31.55 1.25 30.65 -0.5 29.6 -2.05 28.5 -3.05 28.5 -3.1 28.45 -3.1 Q27.25 -3.95 26.45 -3.55 L26.4 -3.55 M5.65 -0.1 Q5.85 -1.6 5.05 -2.05 4.35 -2.5 3.05 -1.6 L1.8 -0.55 0.75 1.0 0.1 2.3 -0.05 2.7 -0.2 3.35 -0.4 4.3 -0.4 4.45 Q-0.1 4.55 0.05 4.75 0.2 4.55 0.5 4.45 L0.55 4.3 0.9 4.15 2.45 3.7 4.35 3.45 4.55 3.2 Q5.55 1.45 5.65 -0.1 M28.0 7.35 L28.0 5.85 9.45 5.85 Q9.45 6.8 8.35 7.35 L28.0 7.35 M31.85 8.4 L30.45 7.6 21.3 23.75 Q21.95 24.25 21.95 25.55 L31.85 8.4 M0.1 7.1 L0.05 7.05 -0.55 7.5 -0.85 7.6 -3.15 8.25 -3.75 9.1 Q-4.7 10.8 -4.9 12.4 -5.0 13.7 -4.4 14.25 L-4.3 14.35 Q-3.5 14.75 -2.25 13.9 L-2.2 13.85 Q-1.55 13.45 -1.0 12.8 L0.1 11.3 0.6 10.2 0.5 9.85 0.25 9.15 0.1 8.2 0.1 7.8 0.1 7.1 M4.55 8.35 L4.45 8.35 3.25 8.25 0.9 7.6 0.55 7.5 0.3 7.25 0.3 7.8 0.3 8.2 0.5 9.1 0.7 9.75 0.8 10.15 1.45 11.5 2.55 13.0 3.7 14.05 Q5.0 15.0 5.75 14.55 L5.95 14.45 Q6.45 13.95 6.35 12.55 6.25 11.0 5.25 9.3 L4.55 8.35 M7.75 4.3 L6.25 3.9 4.45 3.7 4.4 3.7 2.55 3.9 1.0 4.3 0.7 4.55 0.6 4.55 0.1 4.95 Q-0.4 5.4 -0.4 5.85 -0.4 6.4 0.1 6.85 L0.3 7.05 0.7 7.25 1.0 7.45 0.95 7.45 3.25 8.0 4.45 8.05 4.65 8.05 Q6.45 8.05 7.8 7.45 L7.85 7.45 7.85 7.35 7.9 7.35 Q9.2 6.8 9.2 5.85 9.2 5.0 7.8 4.3 L7.75 4.3 M21.2 23.95 L21.1 23.85 Q20.35 23.5 19.1 24.3 L19.1 24.35 Q17.75 25.25 16.8 27.0 16.2 27.95 15.95 28.8 L16.65 30.1 16.7 30.2 16.65 30.25 15.4 30.9 Q15.95 32.05 16.25 32.25 16.95 32.65 18.0 32.0 L18.25 31.85 18.3 31.85 19.5 30.75 20.6 29.2 21.35 27.45 21.75 25.95 21.75 25.85 Q21.85 24.45 21.2 23.95 M14.15 32.35 L14.5 32.55 Q15.7 33.2 15.7 34.05 15.7 34.9 14.5 35.6 L14.15 35.75 10.65 36.4 Q8.55 36.4 7.1 35.75 L-13.1 35.75 -13.15 35.65 -13.15 32.4 -13.1 32.35 7.2 32.35 Q7.9 31.95 8.7 31.85 L10.65 31.65 12.6 31.85 Q13.45 31.95 14.15 32.35 M5.85 33.85 L5.85 34.05 Q5.85 34.9 7.15 35.55 L7.2 35.55 Q8.6 36.2 10.65 36.2 12.65 36.2 14.1 35.55 L14.4 35.4 Q15.45 34.8 15.45 34.05 15.45 33.25 14.4 32.65 L14.1 32.55 12.5 32.0 10.65 31.85 8.8 32.0 Q7.95 32.2 7.3 32.5 L7.2 32.55 Q6.05 33.05 5.85 33.75 L5.85 33.85 M5.6 33.8 L5.6 33.75 Q5.85 33.05 6.75 32.55 L-12.95 32.55 -12.95 34.05 5.6 33.8 M-26.1 -3.8 L-26.15 -3.8 Q-26.85 -4.05 -27.75 -3.5 L-27.9 -3.35 -28.0 -3.25 -28.05 -3.25 -17.95 -20.75 -16.55 -19.9 -26.1 -3.8 M-13.0 -18.95 L-14.55 -18.0 -5.15 -2.05 -5.05 -2.05 -3.1 -1.85 -13.0 -18.95 M-4.35 3.7 L-4.4 3.7 -6.25 3.9 -7.75 4.3 Q-9.2 5.0 -9.2 5.85 L-9.2 5.95 Q-9.2 6.8 -7.8 7.35 L-7.8 7.45 -7.75 7.45 Q-6.35 8.05 -4.35 8.05 L-3.25 8.0 -0.95 7.45 -0.6 7.25 -0.1 6.9 Q-0.6 6.4 -0.6 5.85 -0.6 5.35 -0.1 4.9 L-0.55 4.55 -0.6 4.55 -0.95 4.3 -2.45 3.9 -4.35 3.7 M-1.7 -0.35 Q-2.25 -1.0 -2.9 -1.4 L-2.9 -1.45 Q-4.15 -2.3 -5.0 -1.9 L-5.0 -1.85 Q-5.65 -1.35 -5.55 0.05 -5.4 1.65 -4.4 3.35 L-4.35 3.45 -2.45 3.7 Q-1.6 3.85 -0.85 4.15 L-0.6 4.3 -0.45 3.3 -0.2 2.65 -0.1 2.3 -0.6 1.15 -1.7 -0.35 M-9.45 5.95 L-9.45 5.85 Q-9.45 5.0 -8.25 4.3 L-27.95 4.3 -27.95 5.8 -27.95 5.95 -9.45 6.0 -9.45 5.95 M-3.5 8.3 L-4.35 8.35 Q-6.45 8.35 -7.85 7.6 L-28.1 7.6 -18.6 24.2 -18.55 24.2 Q-17.2 25.1 -16.15 26.85 -15.3 28.3 -15.05 29.7 L-5.1 12.4 Q-5.0 10.8 -3.9 9.0 L-3.5 8.3 M-18.65 24.35 L-18.7 24.3 Q-19.9 23.5 -20.7 23.85 L-21.05 24.25 Q-21.35 24.8 -21.25 25.85 L-21.25 25.95 -20.95 27.45 -20.15 29.2 -19.0 30.75 -17.9 31.85 -17.5 32.0 Q-16.55 32.65 -15.85 32.25 -15.2 31.85 -15.2 30.7 L-15.2 30.3 Q-15.35 28.75 -16.35 27.0 -17.35 25.25 -18.65 24.35 M-28.75 6.85 L-30.05 7.6 -21.15 24.1 -20.8 23.7 Q-20.1 23.25 -18.95 23.95 L-28.75 6.85 M-4.55 14.4 Q-5.1 13.9 -5.1 12.8 L-14.95 29.85 -13.65 30.7 -4.55 14.4" fill="#ffffcc" fill-rule="evenodd" stroke="none"/>
    <path d="M18.35 -20.6 L28.2 -3.5 Q27.05 -4.2 26.4 -3.75 L17.25 -19.95 18.35 -20.6 M3.75 14.4 L3.95 14.5 Q5.15 15.2 5.85 14.7 L6.05 14.65 15.25 30.8 15.2 30.8 15.2 30.9 13.8 31.75 3.75 14.4 M15.8 -17.6 L5.95 -0.55 Q5.95 -1.85 5.2 -2.25 L14.45 -18.45 15.8 -17.6 M4.75 -20.95 L-13.75 -21.05 -13.75 -22.6 6.0 -22.6 Q4.75 -21.95 4.75 -21.05 L4.75 -20.95 M31.85 8.4 L21.95 25.55 Q21.95 24.25 21.3 23.75 L30.45 7.6 31.85 8.4 M28.0 7.35 L8.35 7.35 Q9.45 6.8 9.45 5.85 L28.0 5.85 28.0 7.35 M5.6 33.8 L-12.95 34.05 -12.95 32.55 6.75 32.55 Q5.85 33.05 5.6 33.75 L5.6 33.8 M-26.1 -3.8 L-16.55 -19.9 -15.15 -19.1 -25.15 -1.85 -25.1 -2.05 Q-25.15 -3.35 -25.8 -3.75 L-26.1 -3.8 M-13.0 -18.95 L-3.1 -1.85 -5.05 -2.05 -5.15 -2.05 -14.55 -18.0 -13.0 -18.95 M-27.95 5.8 L-27.95 4.3 -8.25 4.3 Q-9.45 5.0 -9.45 5.85 L-9.45 5.95 -27.95 5.8 M-4.55 14.4 L-13.65 30.7 -14.95 29.85 -5.1 12.8 Q-5.1 13.9 -4.55 14.4 M-28.75 6.85 L-18.95 23.95 Q-20.1 23.25 -20.8 23.7 L-21.15 24.1 -30.05 7.6 -28.75 6.85" fill="#999900" fill-rule="evenodd" stroke="none"/>
    <path d="M-28.05 4.1 L-28.1 4.1 -28.1 4.15 -28.15 4.15 -28.15 4.2 -28.65 4.55 -28.95 4.75 -30.9 4.95 Q-31.65 4.55 -31.65 3.2 L-31.6 2.8 -31.25 1.15 -30.4 -0.55 -29.35 -2.15 -28.15 -3.25 -28.1 -3.3 -28.05 -3.25 -28.0 -3.25 -27.9 -3.35 -27.75 -3.5 Q-26.85 -4.05 -26.15 -3.8 L-26.1 -3.8 -25.8 -3.75 Q-25.15 -3.35 -25.1 -2.05 L-25.15 -1.85 -25.15 -1.6 -25.15 -1.55 Q-25.25 0.05 -26.3 1.8 L-28.05 4.1 M13.6 -22.4 Q14.6 -21.8 14.6 -21.05 14.6 -20.3 13.6 -19.7 L13.25 -19.5 Q11.85 -18.85 9.85 -18.85 7.8 -18.85 6.4 -19.5 L6.4 -19.55 6.35 -19.55 Q5.1 -20.15 5.0 -20.95 L5.0 -21.05 Q5.0 -21.95 6.4 -22.55 L6.45 -22.6 7.95 -23.1 9.85 -23.2 11.7 -23.1 13.25 -22.55 13.6 -22.4 M5.65 -0.1 Q5.55 1.45 4.55 3.2 L4.35 3.45 2.45 3.7 0.9 4.15 0.55 4.3 0.5 4.45 Q0.2 4.55 0.05 4.75 -0.1 4.55 -0.4 4.45 L-0.4 4.3 -0.2 3.35 -0.05 2.7 0.1 2.3 0.75 1.0 1.8 -0.55 3.05 -1.6 Q4.35 -2.5 5.05 -2.05 5.85 -1.6 5.65 -0.1 M26.45 -3.55 Q27.25 -3.95 28.45 -3.1 L28.5 -3.1 28.5 -3.05 29.6 -2.05 30.65 -0.5 31.55 1.25 31.85 2.8 31.9 3.2 Q31.9 4.45 31.2 4.75 30.55 5.2 29.5 4.55 L29.2 4.3 Q27.9 3.45 26.95 1.75 25.9 0.0 25.8 -1.55 L25.8 -1.6 Q25.65 -3.1 26.4 -3.55 L26.5 -3.45 26.5 -3.4 26.55 -3.45 26.45 -3.55 M21.2 23.95 Q21.85 24.45 21.75 25.85 L21.75 25.95 21.35 27.45 20.6 29.2 19.5 30.75 18.3 31.85 18.25 31.85 18.0 32.0 Q16.95 32.65 16.25 32.25 15.95 32.05 15.4 30.9 L16.65 30.25 16.7 30.2 16.65 30.1 15.95 28.8 Q16.2 27.95 16.8 27.0 17.75 25.25 19.1 24.35 L19.1 24.3 Q20.35 23.5 21.1 23.85 L21.2 23.95 M7.75 4.3 L7.8 4.3 Q9.2 5.0 9.2 5.85 9.2 6.8 7.9 7.35 L7.85 7.35 7.85 7.45 7.8 7.45 Q6.45 8.05 4.65 8.05 L4.45 8.05 3.25 8.0 0.95 7.45 1.0 7.45 0.7 7.25 0.3 7.05 0.1 6.85 Q-0.4 6.4 -0.4 5.85 -0.4 5.4 0.1 4.95 L0.6 4.55 0.7 4.55 1.0 4.3 2.55 3.9 4.4 3.7 4.45 3.7 6.25 3.9 7.75 4.3 M4.55 8.35 L5.25 9.3 Q6.25 11.0 6.35 12.55 6.45 13.95 5.95 14.45 L5.75 14.55 Q5.0 15.0 3.7 14.05 L2.55 13.0 1.45 11.5 0.8 10.15 0.7 9.75 0.5 9.1 0.3 8.2 0.3 7.8 0.3 7.25 0.55 7.5 0.9 7.6 3.25 8.25 4.45 8.35 4.55 8.35 M0.1 7.1 L0.1 7.8 0.1 8.2 0.25 9.15 0.5 9.85 0.6 10.2 0.1 11.3 -1.0 12.8 Q-1.55 13.45 -2.2 13.85 L-2.25 13.9 Q-3.5 14.75 -4.3 14.35 L-4.4 14.25 Q-5.0 13.7 -4.9 12.4 -4.7 10.8 -3.75 9.1 L-3.15 8.25 -0.85 7.6 -0.55 7.5 0.05 7.05 0.1 7.1 M5.85 33.75 Q6.05 33.05 7.2 32.55 L7.3 32.5 Q7.95 32.2 8.8 32.0 L10.65 31.85 12.5 32.0 14.1 32.55 14.4 32.65 Q15.45 33.25 15.45 34.05 15.45 34.8 14.4 35.4 L14.1 35.55 Q12.65 36.2 10.65 36.2 8.6 36.2 7.2 35.55 L7.15 35.55 Q5.85 34.9 5.85 34.05 L5.85 33.85 6.2 33.85 6.2 33.8 6.25 33.8 6.2 33.75 5.85 33.75 M-26.35 -3.5 L-26.3 -3.45 -26.3 -3.5 -26.25 -3.65 -26.25 -3.7 -26.35 -3.55 -26.35 -3.5 M-1.7 -0.35 L-0.6 1.15 -0.1 2.3 -0.2 2.65 -0.45 3.3 -0.6 4.3 -0.85 4.15 Q-1.6 3.85 -2.45 3.7 L-4.35 3.45 -4.4 3.35 Q-5.4 1.65 -5.55 0.05 -5.65 -1.35 -5.0 -1.85 L-5.0 -1.9 Q-4.15 -2.3 -2.9 -1.45 L-2.9 -1.4 Q-2.25 -1.0 -1.7 -0.35 M-4.35 3.7 L-2.45 3.9 -0.95 4.3 -0.6 4.55 -0.55 4.55 -0.1 4.9 Q-0.6 5.35 -0.6 5.85 -0.6 6.4 -0.1 6.9 L-0.6 7.25 -0.95 7.45 -3.25 8.0 -4.35 8.05 Q-6.35 8.05 -7.75 7.45 L-7.8 7.45 -7.8 7.35 Q-9.2 6.8 -9.2 5.95 L-9.2 5.85 Q-9.2 5.0 -7.75 4.3 L-6.25 3.9 -4.4 3.7 -4.35 3.7 M-18.65 24.35 Q-17.35 25.25 -16.35 27.0 -15.35 28.75 -15.2 30.3 L-15.2 30.7 Q-15.2 31.85 -15.85 32.25 -16.55 32.65 -17.5 32.0 L-17.9 31.85 -19.0 30.75 -20.15 29.2 -20.95 27.45 -21.25 25.95 -21.25 25.85 Q-21.35 24.8 -21.05 24.25 L-20.7 23.85 Q-19.9 23.5 -18.7 24.3 L-18.65 24.35" fill="#993333" fill-rule="evenodd" stroke="none"/>
    <path d="M26.4 -3.55 L26.45 -3.55 26.55 -3.45 26.5 -3.4 26.5 -3.45 26.4 -3.55 M5.85 33.85 L5.85 33.75 6.2 33.75 6.25 33.8 6.2 33.8 6.2 33.85 5.85 33.85 M-26.35 -3.5 L-26.35 -3.55 -26.25 -3.7 -26.25 -3.65 -26.3 -3.5 -26.3 -3.45 -26.35 -3.5 M-9.45 5.95 L-9.45 6.0 -27.95 5.95 -27.95 5.8 -9.45 5.95" fill="#006fe2" fill-rule="evenodd" stroke="none"/>
    <path d="M10.7 -26.25 Q10.8 -30.6 8.15 -35.0 23.2 -32.75 27.25 -22.25 29.6 -16.35 27.35 -9.5 27.45 -18.6 20.9 -19.9 21.95 -27.85 10.7 -26.25 M-6.85 -32.25 Q-6.15 -24.1 0.55 -18.65 6.7 -23.05 7.95 -31.1 9.1 -27.5 8.25 -23.95 6.7 -17.35 0.6 -12.75 -5.85 -17.45 -7.5 -24.35 -8.4 -28.2 -6.85 -32.25 M-9.45 -25.95 Q-20.15 -27.75 -19.0 -19.8 -26.25 -18.4 -25.45 -7.75 -28.55 -15.6 -25.95 -22.25 -21.85 -32.75 -6.85 -35.0 -9.65 -30.45 -9.45 -25.95" fill="url(#gradient1)" fill-rule="evenodd" stroke="none"/>
    <path d="M27.35 -9.5 Q26.65 -7.3 25.55 -5.05 27.15 -17.5 19.25 -19.05 20.4 -27.0 10.65 -25.2 L10.7 -26.25 Q21.95 -27.85 20.9 -19.9 27.45 -18.6 27.35 -9.5 M7.95 -31.1 L8.25 -33.7 Q10.75 -28.75 9.65 -23.95 7.95 -16.95 1.3 -12.3 L0.6 -11.8 -0.05 -12.3 Q-6.7 -17.0 -8.4 -23.95 -9.6 -28.8 -6.9 -33.85 L-6.85 -32.25 Q-8.4 -28.2 -7.5 -24.35 -5.85 -17.45 0.6 -12.75 6.7 -17.35 8.25 -23.95 9.1 -27.5 7.95 -31.1 M-9.45 -25.95 L-9.3 -25.2 Q-19.1 -27.0 -17.95 -19.05 -25.85 -17.5 -24.2 -5.05 L-25.45 -7.75 Q-26.25 -18.4 -19.0 -19.8 -20.15 -27.75 -9.45 -25.95" fill="#99cc00" fill-rule="evenodd" stroke="none"/>
    <path d="M6.45 -28.7 Q5.9 -25.5 0.6 -21.6 -3.65 -24.4 -5.65 -28.45 -3.65 -25.6 0.6 -23.45 5.0 -25.4 6.45 -28.7" fill="#ffcc00" fill-rule="evenodd" stroke="none"/>
    <path d="M-0.05 -17.15 L0.2 -18.65 1.2 -16.6 -1.0 10.6 -0.05 -17.15 M2.95 -9.5 L2.95 -8.0 3.65 -9.05 0.0 11.1 2.95 -9.5 M5.8 -6.5 L6.0 -4.3 6.35 -4.8 1.2 12.5 5.8 -6.5 M11.0 4.15 L12.35 2.95 2.0 15.7 11.0 4.15 M12.0 11.25 L15.4 8.55 15.1 10.0 2.9 17.5 11.9 11.3 11.85 11.3 12.0 11.25 M-14.95 13.15 L-15.4 12.2 -12.65 13.95 -5.45 18.35 -14.95 13.15 M-15.05 6.55 L-15.2 5.4 -13.35 7.45 -4.5 17.0 -15.05 6.55 M-12.6 -1.95 L-12.65 -2.8 Q-11.75 -2.0 -11.15 -0.75 -7.35 6.75 -3.85 14.55 L-12.6 -1.95 M-4.45 -9.85 L-3.7 -11.1 -3.55 -8.65 -1.7 11.6 -4.45 -9.85" fill="url(#gradient2)" fill-rule="evenodd" stroke="none"/>
    <path d="M1.2 -16.6 Q2.8 -12.95 2.95 -9.5 L0.0 11.1 3.65 -9.05 Q4.35 -10.3 4.5 -11.75 5.5 -9.35 5.8 -6.5 L1.2 12.5 6.35 -4.8 Q7.4 -6.3 7.4 -7.45 10.55 -1.3 11.0 4.15 L2.0 15.7 12.35 2.95 Q13.1 2.05 13.65 0.8 13.9 6.3 12.0 11.25 L11.85 11.3 11.9 11.3 2.9 17.5 15.1 10.0 Q13.4 15.55 9.0 19.55 1.4 25.65 -6.0 22.6 -11.75 19.75 -14.95 13.15 L-5.45 18.35 -12.65 13.95 Q-14.3 11.2 -15.05 6.55 L-4.5 17.0 -13.35 7.45 Q-14.05 5.3 -13.3 2.7 -12.4 0.15 -12.6 -1.95 L-3.85 14.55 Q-7.35 6.75 -11.15 -0.75 -10.5 -2.65 -8.15 -5.1 -6.1 -7.2 -4.45 -9.85 L-1.7 11.6 -3.55 -8.65 Q-2.2 -10.05 -1.5 -12.35 -0.6 -14.8 -0.05 -17.15 L-1.0 10.6 1.2 -16.6" fill="url(#gradient3)" fill-rule="evenodd" stroke="none"/>
  </g>
  <defs>
    <radialGradient cx="0" cy="0" fx="3.2" fy="0" gradientTransform="matrix(0.0481, 0.0, 0.0, 0.0482, 0.35, 7.05)" gradientUnits="userSpaceOnUse" id="gradient0" r="819.2" spreadMethod="pad">
      <stop offset="0.3568627450980392" stop-color="#ffff00"/>
      <stop offset="1.0" stop-color="#ffffff" stop-opacity="0.0"/>
    </radialGradient>
    <linearGradient gradientTransform="matrix(0.0, -0.0155, 0.8551, 0.0, -120.25, -21.4)" gradientUnits="userSpaceOnUse" id="gradient1" spreadMethod="pad" x1="-819.2" x2="819.2">
      <stop offset="0.0" stop-color="#009933"/>
      <stop offset="1.0" stop-color="#ffcc00"/>
    </linearGradient>
    <linearGradient gradientTransform="matrix(0.0, -0.0242, 0.0933, 0.0, -14.8, -1.7)" gradientUnits="userSpaceOnUse" id="gradient2" spreadMethod="pad" x1="-819.2" x2="819.2">
      <stop offset="0.0" stop-color="#ff2801"/>
      <stop offset="0.2980392156862745" stop-color="#ffff01"/>
      <stop offset="0.9254901960784314" stop-color="#fe1300"/>
    </linearGradient>
    <radialGradient cx="0" cy="0" fx="3.2" fy="0" gradientTransform="matrix(0.0, -0.0184, 0.0131, 0.0, -0.2, 14.3)" gradientUnits="userSpaceOnUse" id="gradient3" r="819.2" spreadMethod="pad">
      <stop offset="0.00392156862745098" stop-color="#ffff01"/>
      <stop offset="1.0" stop-color="#fe1300"/>
    </radialGradient>
  </defs>
</svg>
