<?xml version="1.0" encoding="UTF-8" standalone="no"?>
<svg xmlns:ffdec="https://www.free-decompiler.com/flash" xmlns:xlink="http://www.w3.org/1999/xlink" ffdec:objectType="shape" height="35.0px" width="22.7px" xmlns="http://www.w3.org/2000/svg">
  <g transform="matrix(1.0, 0.0, 0.0, 1.0, 204.3, 18.3)">
    <path d="M-184.95 -13.2 Q-181.6 -8.05 -181.6 -0.8 -181.6 6.45 -184.95 11.6 -188.3 16.7 -193.0 16.7 -197.7 16.7 -201.0 11.6 -204.3 6.45 -204.3 -0.8 -204.3 -8.05 -201.0 -13.2 -197.7 -18.3 -193.0 -18.3 -188.3 -18.3 -184.95 -13.2 M-197.55 -8.6 Q-199.7 -5.65 -200.2 -1.4 -200.7 2.7 -198.0 6.15 L-195.95 8.25 Q-195.05 9.05 -193.95 9.35 L-192.45 9.55 Q-189.6 9.55 -188.0 6.75 -186.6 4.0 -188.15 1.0 L-188.3 0.8 Q-189.5 -1.3 -189.65 -4.3 -189.85 -5.5 -189.7 -6.75 -189.6 -9.2 -190.35 -10.35 -190.95 -11.65 -192.45 -11.65 L-193.95 -11.4 Q-195.05 -11.1 -195.95 -10.3 L-197.55 -8.6" fill="url(#gradient0)" fill-rule="evenodd" stroke="none"/>
    <path d="M-197.55 -8.6 L-195.95 -10.3 Q-195.05 -11.1 -193.95 -11.4 L-192.45 -11.65 Q-190.95 -11.65 -190.35 -10.35 -189.6 -9.2 -189.7 -6.75 -189.85 -5.5 -189.65 -4.3 -189.5 -1.3 -188.3 0.8 L-188.15 1.0 Q-186.6 4.0 -188.0 6.75 -189.6 9.55 -192.45 9.55 L-193.95 9.35 Q-195.05 9.05 -195.95 8.25 L-198.0 6.15 Q-200.7 2.7 -200.2 -1.4 -199.7 -5.65 -197.55 -8.6 M-193.95 -10.95 Q-195.05 -10.65 -195.95 -9.75 L-197.2 -8.35 Q-199.3 -5.5 -199.8 -1.4 -200.2 2.6 -197.65 5.95 L-195.95 7.7 Q-195.05 8.55 -193.95 8.95 L-192.45 9.2 Q-189.9 9.2 -188.4 6.55 -187.35 4.35 -188.2 2.1 L-188.3 1.7 -188.7 0.95 Q-189.9 -1.25 -190.1 -4.4 L-190.15 -4.8 -190.15 -6.45 -190.15 -6.8 Q-190.05 -9.0 -190.75 -10.2 -191.25 -11.2 -192.45 -11.2 L-193.95 -10.95" fill="#724416" fill-rule="evenodd" stroke="none"/>
    <path d="M-193.95 -10.95 L-192.45 -11.2 Q-191.25 -11.2 -190.75 -10.2 -190.05 -9.0 -190.15 -6.8 L-190.15 -6.45 Q-190.3 -9.75 -190.75 -8.1 L-191.8 -2.65 Q-192.5 0.75 -192.1 2.6 -191.7 4.4 -190.4 3.45 -189.1 2.3 -188.7 2.65 -188.2 2.95 -188.2 2.1 -187.35 4.35 -188.4 6.55 -189.9 9.2 -192.45 9.2 L-193.95 8.95 -193.95 5.35 -193.65 6.1 -192.35 7.55 Q-191.6 8.1 -191.1 7.8 -190.65 7.5 -190.7 6.6 -190.75 5.75 -191.3 4.75 -191.8 3.8 -192.55 3.3 -193.3 2.85 -193.75 3.1 L-193.95 3.35 -193.95 -10.95" fill="#ffb200" fill-rule="evenodd" stroke="none"/>
    <path d="M-193.95 8.95 Q-195.05 8.55 -195.95 7.7 L-197.65 5.95 Q-200.2 2.6 -199.8 -1.4 -199.3 -5.5 -197.2 -8.35 L-195.95 -9.75 Q-195.05 -10.65 -193.95 -10.95 L-193.95 3.35 Q-194.25 3.6 -194.2 4.25 L-193.95 5.35 -193.95 8.95" fill="#ff9900" fill-rule="evenodd" stroke="none"/>
    <path d="M-190.15 -6.45 L-190.15 -4.8 -190.1 -4.4 Q-190.45 -3.05 -190.7 -5.15 -191.2 3.1 -188.3 1.7 L-188.2 2.1 Q-188.2 2.95 -188.7 2.65 -189.1 2.3 -190.4 3.45 -191.7 4.4 -192.1 2.6 -192.5 0.75 -191.8 -2.65 L-190.75 -8.1 Q-190.3 -9.75 -190.15 -6.45" fill="#995b00" fill-rule="evenodd" stroke="none"/>
    <path d="M-190.1 -4.4 Q-189.9 -1.25 -188.7 0.95 L-188.3 1.7 Q-191.2 3.1 -190.7 -5.15 -190.45 -3.05 -190.1 -4.4" fill="#623a13" fill-rule="evenodd" stroke="none"/>
    <path d="M-193.95 5.35 L-194.2 4.25 Q-194.25 3.6 -193.95 3.35 L-193.75 3.1 Q-193.3 2.85 -192.55 3.3 -191.8 3.8 -191.3 4.75 -190.75 5.75 -190.7 6.6 -190.65 7.5 -191.1 7.8 -191.6 8.1 -192.35 7.55 L-193.65 6.1 -193.95 5.35" fill="#ffffff" fill-rule="evenodd" stroke="none"/>
  </g>
  <defs>
    <radialGradient cx="0" cy="0" gradientTransform="matrix(0.0, 0.0226, -0.0146, 0.0, -193.0, -0.8)" gradientUnits="userSpaceOnUse" id="gradient0" r="819.2" spreadMethod="pad">
      <stop offset="0.5725490196078431" stop-color="#ffff00"/>
      <stop offset="1.0" stop-color="#ffffff" stop-opacity="0.0"/>
    </radialGradient>
  </defs>
</svg>
