<?xml version="1.0" encoding="UTF-8" standalone="no"?>
<svg xmlns:ffdec="https://www.free-decompiler.com/flash" xmlns:xlink="http://www.w3.org/1999/xlink" ffdec:objectType="shape" height="20.0px" width="30.95px" xmlns="http://www.w3.org/2000/svg">
  <g transform="matrix(1.0, 0.0, 0.0, 1.0, 15.45, 10.0)">
    <path d="M-4.95 -2.45 Q-7.85 -2.35 -6.4 -1.95 L-1.6 -1.0 3.05 -0.75 Q4.65 -1.1 3.8 -2.25 2.8 -3.4 3.1 -3.75 3.35 -4.2 2.6 -4.2 L6.55 -4.0 Q8.9 -2.7 8.9 -0.45 L8.65 0.9 5.5 0.9 6.15 0.6 7.45 -0.55 Q7.9 -1.2 7.65 -1.65 7.4 -2.05 6.6 -2.0 L4.95 -1.45 3.65 -0.35 Q3.25 0.3 3.5 0.7 L3.7 0.9 -8.95 0.9 -9.15 -0.45 Q-9.15 -1.5 -8.25 -1.95 -7.2 -2.55 -5.25 -2.45 L-4.95 -2.45" fill="#ffb200" fill-rule="evenodd" stroke="none"/>
    <path d="M2.6 -4.2 Q3.35 -4.2 3.1 -3.75 2.8 -3.4 3.8 -2.25 4.65 -1.1 3.05 -0.75 L-1.6 -1.0 -6.4 -1.95 Q-7.85 -2.35 -4.95 -2.45 L-3.5 -2.45 -3.15 -2.5 Q-1.95 -2.2 -3.8 -2.0 3.5 -1.55 2.25 -4.1 L2.6 -4.2" fill="#995b00" fill-rule="evenodd" stroke="none"/>
    <path d="M-4.95 -2.45 L-5.25 -2.45 Q-7.2 -2.55 -8.25 -1.95 -9.15 -1.5 -9.15 -0.45 L-8.95 0.9 -7.85 2.65 -6.65 3.75 Q-4.1 5.6 -0.5 6.05 3.05 6.4 6.0 4.15 L7.55 2.65 Q8.3 1.85 8.65 0.9 L8.9 -0.45 Q8.9 -2.7 6.55 -4.0 L2.6 -4.2 2.25 -4.1 1.6 -3.75 Q-0.35 -2.7 -3.15 -2.5 L-3.5 -2.45 -4.95 -2.45 M1.45 -4.1 L1.65 -4.25 Q4.3 -5.6 6.7 -4.35 9.2 -2.95 9.2 -0.45 L9.0 0.9 8.05 2.65 6.2 4.45 Q3.15 6.85 -0.5 6.4 -4.25 5.95 -6.85 4.05 L-8.35 2.65 Q-9.05 1.85 -9.35 0.9 L-9.55 -0.45 Q-9.55 -1.75 -8.4 -2.3 -7.4 -2.95 -5.2 -2.85 L-3.05 -2.9 Q-0.4 -3.05 1.45 -4.1" fill="#724416" fill-rule="evenodd" stroke="none"/>
    <path d="M2.25 -4.1 Q3.5 -1.55 -3.8 -2.0 -1.95 -2.2 -3.15 -2.5 -0.35 -2.7 1.6 -3.75 L2.25 -4.1" fill="#623a13" fill-rule="evenodd" stroke="none"/>
    <path d="M1.45 -4.1 Q-0.4 -3.05 -3.05 -2.9 L-5.2 -2.85 Q-7.4 -2.95 -8.4 -2.3 -9.55 -1.75 -9.55 -0.45 L-9.35 0.9 Q-9.05 1.85 -8.35 2.65 L-6.85 4.05 Q-4.25 5.95 -0.5 6.4 3.15 6.85 6.2 4.45 L8.05 2.65 9.0 0.9 9.2 -0.45 Q9.2 -2.95 6.7 -4.35 4.3 -5.6 1.65 -4.25 L1.45 -4.1 M11.0 -7.05 Q15.5 -4.1 15.5 0.05 15.5 4.2 11.0 7.1 6.45 10.0 0.05 10.0 -6.35 10.0 -10.9 7.1 -15.45 4.2 -15.45 0.05 -15.45 -4.1 -10.9 -7.05 -6.35 -10.0 0.05 -10.0 6.45 -10.0 11.0 -7.05" fill="url(#gradient0)" fill-rule="evenodd" stroke="none"/>
    <path d="M3.7 0.9 L3.5 0.7 Q3.25 0.3 3.65 -0.35 L4.95 -1.45 6.6 -2.0 Q7.4 -2.05 7.65 -1.65 7.9 -1.2 7.45 -0.55 L6.15 0.6 5.5 0.9 4.5 1.1 3.7 0.9" fill="#ffffff" fill-rule="evenodd" stroke="none"/>
    <path d="M-8.95 0.9 L3.7 0.9 4.5 1.1 5.5 0.9 8.65 0.9 Q8.3 1.85 7.55 2.65 L6.0 4.15 Q3.05 6.4 -0.5 6.05 -4.1 5.6 -6.65 3.75 L-7.85 2.65 -8.95 0.9" fill="#ff9900" fill-rule="evenodd" stroke="none"/>
  </g>
  <defs>
    <radialGradient cx="0" cy="0" gradientTransform="matrix(0.02, 0.0, 0.0, 0.0129, 0.05, 0.05)" gradientUnits="userSpaceOnUse" id="gradient0" r="819.2" spreadMethod="pad">
      <stop offset="0.5725490196078431" stop-color="#ffff00"/>
      <stop offset="1.0" stop-color="#ffffff" stop-opacity="0.0"/>
    </radialGradient>
  </defs>
</svg>
