<?xml version="1.0" encoding="UTF-8" standalone="no"?>
<svg xmlns:ffdec="https://www.free-decompiler.com/flash" xmlns:xlink="http://www.w3.org/1999/xlink" ffdec:objectType="shape" height="27.0px" width="52.8px" xmlns="http://www.w3.org/2000/svg">
  <g transform="matrix(1.0, 0.0, 0.0, 1.0, 26.4, 13.5)">
    <path d="M7.05 -6.6 L6.95 -6.5 Q-1.8 4.35 -12.5 9.75 -18.3 12.7 -21.7 10.65 L-21.9 10.45 -21.95 10.15 -21.8 9.9 Q-20.6 8.55 -20.35 7.55 L-20.4 7.55 -20.35 7.15 -20.35 7.1 Q-20.3 6.3 -21.05 5.7 L-21.6 5.35 -22.05 5.25 Q-24.45 5.05 -25.35 7.75 L-25.35 7.8 Q-25.55 9.0 -25.2 9.9 L-24.75 10.75 -24.55 10.95 -24.45 11.05 Q-23.65 11.95 -22.0 12.4 L-22.05 12.35 Q-18.15 12.95 -14.4 11.55 -12.5 10.85 -10.7 9.75 -3.85 5.55 3.7 -2.05 L4.05 -2.2 4.35 -2.1 4.55 -1.8 4.5 -1.5 -2.15 9.9 Q-2.3 10.95 -1.7 11.25 -1.0 11.4 0.75 10.6 5.95 4.6 11.9 -0.45 L11.9 -0.5 12.25 -0.65 12.55 -0.5 12.7 -0.2 12.6 0.15 12.55 0.2 Q6.45 7.05 7.35 10.2 L7.35 10.35 7.4 10.5 8.2 11.15 8.5 11.25 9.25 11.4 Q10.6 11.45 12.55 10.65 15.95 8.8 17.65 6.25 L17.7 6.2 17.65 6.2 Q17.15 6.1 14.85 8.2 L12.7 9.6 12.75 9.6 11.9 9.75 Q11.45 9.6 11.45 9.05 L11.5 8.7 11.75 7.9 11.8 7.8 Q17.15 -1.05 24.25 -8.85 L24.25 -8.9 Q25.8 -10.55 25.25 -12.45 L24.95 -11.9 24.95 -11.95 Q23.0 -7.4 13.4 -7.7 12.6 -7.7 12.45 -8.4 L12.45 -8.35 Q12.25 -8.85 12.45 -9.65 11.85 -10.25 11.25 -10.3 10.65 -10.3 10.15 -9.7 8.65 -7.95 2.7 -9.7 L2.75 -9.7 0.9 -10.0 Q-7.15 -10.55 -11.3 -6.6 L-11.3 -6.65 Q-14.5 -3.35 -12.55 1.35 L-12.45 1.55 -12.3 1.8 -12.3 1.85 -12.25 1.9 -12.2 1.95 -12.1 2.05 -12.1 2.1 Q-10.6 4.25 -7.8 4.0 L-7.7 4.0 -8.0 3.45 Q-10.9 2.3 -11.25 0.35 -11.85 -1.75 -9.85 -4.7 L-9.85 -4.75 Q-6.65 -9.3 5.5 -7.8 L5.55 -7.8 7.0 -7.75 7.1 -7.7 7.35 -7.35 7.35 -7.2 7.35 -6.95 7.15 -6.75 7.1 -6.65 7.05 -6.6 M6.0 -6.9 L5.55 -6.85 5.45 -6.85 Q-6.0 -8.25 -9.05 -4.15 -10.8 -1.65 -10.35 0.1 -9.95 1.7 -7.45 2.65 L-7.3 2.85 -7.2 2.95 Q-6.75 3.55 -6.75 4.05 -6.75 4.5 -7.1 4.8 L-7.7 4.95 -7.75 4.95 Q-11.0 5.2 -12.85 2.7 L-13.05 2.4 -13.15 2.3 -13.2 2.25 -13.25 2.1 -13.35 1.95 Q-15.7 -3.5 -12.0 -7.35 -7.6 -11.5 0.95 -10.95 L3.0 -10.6 Q8.2 -9.1 9.45 -10.3 10.25 -11.4 11.3 -11.3 12.25 -11.25 13.35 -10.15 L13.45 -9.8 13.45 -9.7 13.45 -9.55 Q13.25 -9.0 13.35 -8.7 L13.35 -8.65 13.45 -8.65 Q22.25 -8.35 24.05 -12.35 24.7 -13.75 25.45 -13.45 L25.6 -13.4 25.8 -13.25 26.15 -12.8 Q26.95 -10.35 25.0 -8.2 17.95 -0.5 12.65 8.2 L12.5 8.65 14.25 7.45 Q17.5 4.5 18.35 5.55 L18.45 5.65 18.6 6.35 18.6 6.4 18.55 6.7 Q16.7 9.5 13.05 11.55 L13.0 11.6 9.2 12.35 9.15 12.35 8.15 12.15 8.1 12.1 8.05 12.1 7.85 12.05 Q7.05 11.7 6.6 11.0 L6.55 10.9 6.4 10.45 Q5.7 8.1 8.3 4.05 4.7 7.45 1.4 11.3 L1.25 11.4 Q-1.05 12.55 -2.0 12.15 -3.35 11.85 -3.1 9.8 L-3.1 9.75 -3.0 9.5 1.95 1.0 Q-4.4 6.95 -10.2 10.6 -12.1 11.75 -14.05 12.45 -18.1 13.9 -22.2 13.3 L-22.25 13.3 Q-24.1 12.85 -25.1 11.8 L-25.15 11.75 -25.5 11.35 -25.55 11.3 -26.1 10.25 Q-26.5 9.15 -26.35 7.65 L-26.3 7.5 Q-25.2 3.95 -21.95 4.3 L-21.9 4.3 -21.3 4.4 Q-21.1 4.45 -20.95 4.55 L-20.95 4.6 -20.5 4.9 -20.45 4.9 Q-19.25 5.85 -19.35 7.15 L-19.35 7.2 -19.4 7.75 -19.4 7.8 Q-19.7 8.8 -20.7 10.05 -17.8 11.35 -12.95 8.9 -2.5 3.6 6.0 -6.9 M17.0 -6.9 L17.25 -6.8 17.45 -6.55 17.45 -6.3 17.3 -6.05 7.1 3.0 6.8 3.1 6.45 3.0 6.25 2.7 Q6.2 2.5 6.3 2.35 L11.4 -6.85 11.6 -7.0 11.9 -7.1 17.0 -6.9 M15.75 -6.0 L12.1 -6.15 8.5 0.4 15.75 -6.0" fill="#003300" fill-rule="evenodd" stroke="none"/>
    <path d="M7.35 -7.35 L7.1 -7.7 7.0 -7.75 5.55 -7.8 5.5 -7.8 Q-6.65 -9.3 -9.85 -4.75 L-9.85 -4.7 Q-11.85 -1.75 -11.25 0.35 -10.9 2.3 -8.0 3.45 L-7.7 4.0 -7.8 4.0 Q-10.6 4.25 -12.1 2.1 L-12.1 2.05 -12.2 1.95 -12.25 1.9 -12.3 1.85 -12.3 1.8 -12.45 1.55 -12.55 1.35 Q-14.5 -3.35 -11.3 -6.65 L-11.3 -6.6 Q-7.15 -10.55 0.9 -10.0 L2.75 -9.7 2.7 -9.7 Q8.65 -7.95 10.15 -9.7 10.65 -10.3 11.25 -10.3 11.85 -10.25 12.45 -9.65 12.25 -8.85 12.45 -8.35 L12.45 -8.4 Q12.6 -7.7 13.4 -7.7 23.0 -7.4 24.95 -11.95 L24.95 -11.9 25.25 -12.45 Q25.8 -10.55 24.25 -8.9 L24.25 -8.85 Q17.15 -1.05 11.8 7.8 L11.75 7.9 11.5 8.7 11.45 9.05 Q11.45 9.6 11.9 9.75 L12.75 9.6 12.7 9.6 14.85 8.2 Q17.15 6.1 17.65 6.2 L17.7 6.2 17.65 6.25 Q15.95 8.8 12.55 10.65 10.6 11.45 9.25 11.4 L8.5 11.25 8.2 11.15 7.4 10.5 7.35 10.35 7.35 10.2 Q6.45 7.05 12.55 0.2 L12.6 0.15 12.7 -0.2 12.55 -0.5 12.25 -0.65 11.9 -0.5 11.9 -0.45 Q5.95 4.6 0.75 10.6 -1.0 11.4 -1.7 11.25 -2.3 10.95 -2.15 9.9 L4.5 -1.5 4.55 -1.8 4.35 -2.1 4.05 -2.2 3.7 -2.05 Q-3.85 5.55 -10.7 9.75 -12.5 10.85 -14.4 11.55 -18.15 12.95 -22.05 12.35 L-22.0 12.4 Q-23.65 11.95 -24.45 11.05 L-24.55 10.95 -24.75 10.75 -25.2 9.9 Q-25.55 9.0 -25.35 7.8 L-25.35 7.75 Q-24.45 5.05 -22.05 5.25 L-21.6 5.35 -21.05 5.7 Q-20.3 6.3 -20.35 7.1 L-20.35 7.15 -20.4 7.55 -20.35 7.55 Q-20.6 8.55 -21.8 9.9 L-21.95 10.15 -21.9 10.45 -21.7 10.65 Q-18.3 12.7 -12.5 9.75 -1.8 4.35 6.95 -6.5 L7.05 -6.6 7.0 -6.3 7.0 -6.1 7.0 -6.0 7.3 -5.3 7.55 -5.1 Q7.8 -4.85 8.25 -4.85 8.8 -4.85 9.2 -5.3 L9.5 -5.55 9.55 -6.3 9.2 -7.35 9.1 -7.45 8.25 -7.75 Q7.75 -7.75 7.35 -7.35 M17.0 -6.9 L11.9 -7.1 11.6 -7.0 11.4 -6.85 6.3 2.35 Q6.2 2.5 6.25 2.7 L6.45 3.0 6.8 3.1 7.1 3.0 17.3 -6.05 17.45 -6.3 17.45 -6.55 17.25 -6.8 17.0 -6.9 M12.95 2.7 Q12.7 2.4 12.3 2.4 12.0 2.4 11.75 2.7 L11.7 2.8 11.5 3.3 11.75 3.95 11.75 4.0 12.3 4.25 12.95 4.0 13.05 3.85 13.15 3.3 12.95 2.7 M11.7 6.35 L11.9 5.65 11.6 4.85 11.5 4.75 Q11.2 4.5 10.85 4.5 10.45 4.5 10.15 4.85 L10.05 4.9 9.85 5.65 Q9.85 6.15 10.15 6.5 L10.4 6.7 10.85 6.85 Q11.3 6.85 11.6 6.5 L11.7 6.35 M10.7 9.2 L10.85 8.45 Q10.85 7.9 10.45 7.45 L10.4 7.35 Q10.0 7.0 9.5 7.0 9.0 7.0 8.6 7.45 L8.4 7.65 Q8.25 8.0 8.25 8.45 8.25 9.1 8.6 9.5 L8.8 9.65 9.5 9.95 Q10.05 9.95 10.45 9.5 L10.7 9.2 M-21.3 8.75 L-21.05 8.3 -21.05 8.1 Q-21.05 7.6 -21.45 7.3 L-21.5 7.2 Q-21.75 6.95 -22.15 6.95 L-22.4 7.0 -22.85 7.3 -22.9 7.35 -23.05 7.7 -23.15 7.95 -23.15 8.1 -22.85 8.9 -22.6 9.15 -22.3 9.25 -22.25 9.25 -22.15 9.25 Q-21.7 9.25 -21.45 8.9 L-21.3 8.75 M-23.15 9.1 Q-23.45 8.8 -23.8 8.8 L-23.95 8.8 -24.4 9.1 -24.4 9.15 -24.6 9.7 -24.4 10.35 -24.4 10.4 -23.8 10.65 -23.15 10.4 -23.05 10.25 -22.9 9.75 -22.9 9.7 -23.15 9.1" fill="#009933" fill-rule="evenodd" stroke="none"/>
    <path d="M7.05 -6.6 L7.1 -6.65 7.15 -6.75 7.35 -6.95 8.3 -6.3 7.55 -5.1 7.3 -5.3 7.0 -6.0 7.0 -6.1 7.0 -6.3 7.05 -6.6 M11.75 3.95 L11.5 3.3 11.7 2.8 12.35 3.3 11.75 3.95 M10.4 6.7 L10.15 6.5 Q9.85 6.15 9.85 5.65 L10.05 4.9 10.9 5.7 10.4 6.7 M8.8 9.65 L8.6 9.5 Q8.25 9.1 8.25 8.45 8.25 8.0 8.4 7.65 L9.55 8.45 8.8 9.65 M-22.6 9.15 L-22.85 8.9 -23.15 8.1 -23.15 7.95 -23.05 7.7 -22.9 7.35 -22.05 8.15 -22.6 9.15 M-24.4 10.35 L-24.6 9.7 -24.4 9.15 -23.75 9.7 -24.4 10.35" fill="#cccccc" fill-rule="evenodd" stroke="none"/>
    <path d="M7.35 -6.95 L7.35 -7.2 7.35 -7.35 Q7.75 -7.75 8.25 -7.75 L9.1 -7.45 8.3 -6.3 7.35 -6.95 M11.7 2.8 L11.75 2.7 Q12.0 2.4 12.3 2.4 12.7 2.4 12.95 2.7 L12.35 3.3 11.7 2.8 M10.05 4.9 L10.15 4.85 Q10.45 4.5 10.85 4.5 11.2 4.5 11.5 4.75 L10.9 5.7 10.05 4.9 M8.4 7.65 L8.6 7.45 Q9.0 7.0 9.5 7.0 10.0 7.0 10.4 7.35 L9.55 8.45 8.4 7.65 M-22.9 7.35 L-22.85 7.3 -22.4 7.0 -22.15 6.95 Q-21.75 6.95 -21.5 7.2 L-22.05 8.15 -22.9 7.35 M-24.4 9.15 L-24.4 9.1 -23.95 8.8 -23.8 8.8 Q-23.45 8.8 -23.15 9.1 L-23.75 9.7 -24.4 9.15" fill="#999999" fill-rule="evenodd" stroke="none"/>
    <path d="M9.1 -7.45 L9.2 -7.35 9.55 -6.3 9.5 -5.55 8.3 -6.3 9.1 -7.45 M12.95 2.7 L13.15 3.3 13.05 3.85 12.35 3.3 12.95 2.7 M11.5 4.75 L11.6 4.85 11.9 5.65 11.7 6.35 10.9 5.7 11.5 4.75 M10.4 7.35 L10.45 7.45 Q10.85 7.9 10.85 8.45 L10.7 9.2 9.55 8.45 10.4 7.35 M-21.5 7.2 L-21.45 7.3 Q-21.05 7.6 -21.05 8.1 L-21.05 8.3 -21.3 8.75 -22.05 8.15 -21.5 7.2 M-23.15 9.1 L-22.9 9.7 -22.9 9.75 -23.05 10.25 -23.75 9.7 -23.15 9.1" fill="#666666" fill-rule="evenodd" stroke="none"/>
    <path d="M9.5 -5.55 L9.2 -5.3 Q8.8 -4.85 8.25 -4.85 7.8 -4.85 7.55 -5.1 L8.3 -6.3 9.5 -5.55 M13.05 3.85 L12.95 4.0 12.3 4.25 11.75 4.0 11.75 3.95 12.35 3.3 13.05 3.85 M11.7 6.35 L11.6 6.5 Q11.3 6.85 10.85 6.85 L10.4 6.7 10.9 5.7 11.7 6.35 M10.7 9.2 L10.45 9.5 Q10.05 9.95 9.5 9.95 L8.8 9.65 9.55 8.45 10.7 9.2 M-21.3 8.75 L-21.45 8.9 Q-21.7 9.25 -22.15 9.25 L-22.25 9.25 -22.3 9.25 -22.6 9.15 -22.05 8.15 -21.3 8.75 M-23.05 10.25 L-23.15 10.4 -23.8 10.65 -24.4 10.4 -24.4 10.35 -23.75 9.7 -23.05 10.25" fill="#ffffff" fill-rule="evenodd" stroke="none"/>
  </g>
</svg>
