<?xml version="1.0" encoding="UTF-8" standalone="no"?>
<svg xmlns:ffdec="https://www.free-decompiler.com/flash" xmlns:xlink="http://www.w3.org/1999/xlink" ffdec:objectType="shape" height="30.75px" width="27.8px" xmlns="http://www.w3.org/2000/svg">
  <g transform="matrix(1.0, 0.0, 0.0, 1.0, 13.9, 15.35)">
    <path d="M7.6 -11.1 L7.45 -10.2 7.45 -8.45 5.4 14.45 7.45 14.45 11.55 14.45 12.95 14.45 7.6 -11.1 M-13.15 -15.3 L-13.1 -15.25 -6.75 8.45 -1.45 -0.95 -1.4 -1.0 -1.3 -1.0 -1.25 -0.95 4.2 10.8 7.45 -11.65 7.5 -11.75 7.55 -11.75 7.7 -11.65 13.9 15.4 -13.9 15.4 -13.3 -15.3 -13.25 -15.35 -13.15 -15.3 M3.4 14.45 L4.3 14.45 4.3 11.25 4.25 11.25 4.2 11.2 -0.3 1.55 -0.9 0.3 -1.3 -0.6 -1.35 -0.65 -6.8 12.65 -6.8 8.8 -6.85 8.75 -13.1 -14.45 -13.1 -14.1 -13.1 -9.15 -11.2 14.45 -9.25 14.45 -7.95 14.45 -6.8 14.45 -4.25 14.45 -0.55 14.45 3.4 14.45" fill="#003300" fill-rule="evenodd" stroke="none"/>
    <path d="M7.45 -8.45 L7.45 -10.2 7.6 -11.1 7.75 -10.0 8.05 -8.1 11.55 14.45 7.45 14.45 7.45 -8.45 M-0.55 14.45 L-4.25 14.45 -1.3 -0.6 -0.9 0.3 -0.55 14.45 M-7.95 14.45 L-9.25 14.45 -13.1 -9.15 -13.1 -14.1 -7.95 14.45" fill="#009933" fill-rule="evenodd" stroke="none"/>
    <path d="M11.55 14.45 L8.05 -8.1 7.75 -10.0 7.6 -11.1 12.95 14.45 11.55 14.45" fill="#00ff00" fill-rule="evenodd" stroke="none"/>
    <path d="M7.45 -8.45 L7.45 14.45 5.4 14.45 7.45 -8.45 M-0.3 1.55 L4.2 11.2 4.25 11.25 4.3 11.25 4.3 14.45 3.4 14.45 -0.3 1.55 M-4.25 14.45 L-6.8 14.45 -6.8 13.05 -13.1 -14.45 -6.85 8.75 -6.8 8.8 -6.8 12.65 -1.35 -0.65 -1.3 -0.6 -4.25 14.45 M-9.25 14.45 L-11.2 14.45 -13.1 -9.15 -9.25 14.45" fill="#006633" fill-rule="evenodd" stroke="none"/>
    <path d="M3.4 14.45 L-0.55 14.45 -0.9 0.3 -0.3 1.55 3.4 14.45 M-6.8 14.45 L-7.95 14.45 -13.1 -14.1 -13.1 -14.45 -6.8 13.05 -6.8 14.45" fill="#00cc33" fill-rule="evenodd" stroke="none"/>
  </g>
</svg>
