<?xml version="1.0" encoding="UTF-8" standalone="no"?>
<svg xmlns:ffdec="https://www.free-decompiler.com/flash" xmlns:xlink="http://www.w3.org/1999/xlink" ffdec:objectType="shape" height="48.7px" width="136.85px" xmlns="http://www.w3.org/2000/svg">
  <g transform="matrix(1.0, 0.0, 0.0, 1.0, 68.4, 24.35)">
    <path d="M-56.15 -17.95 L47.45 -17.95 51.85 -14.65 52.0 -14.5 52.4 -14.2 53.8 -12.85 -56.15 -12.85 -56.15 -17.95" fill="#00d88c" fill-rule="evenodd" stroke="none"/>
    <path d="M-56.15 -17.95 L-56.15 -21.85 46.7 -21.85 48.05 -21.75 Q55.9 -20.9 61.65 -15.1 68.45 -8.3 68.45 1.35 68.45 4.65 67.7 7.55 L66.95 9.75 Q65.3 14.15 61.65 17.75 59.55 19.9 57.2 21.3 L57.15 21.3 57.15 21.35 Q53.3 23.75 48.8 24.35 L-56.15 24.35 -56.15 20.3 47.5 20.3 53.05 15.85 54.05 14.9 Q57.95 10.95 59.7 7.0 60.95 4.1 61.0 1.15 61.1 -5.95 53.8 -12.85 L52.4 -14.2 52.0 -14.5 51.85 -14.65 47.45 -17.95 -56.15 -17.95" fill="#007f00" fill-rule="evenodd" stroke="none"/>
    <path d="M53.8 -12.85 Q61.1 -5.95 61.0 1.15 L-56.15 1.15 -56.15 -12.85 53.8 -12.85" fill="#00bf7f" fill-rule="evenodd" stroke="none"/>
    <path d="M54.05 14.9 L53.05 15.85 47.5 20.3 -56.15 20.3 -56.15 14.9 54.05 14.9" fill="#007f54" fill-rule="evenodd" stroke="none"/>
    <path d="M61.0 1.15 Q60.95 4.1 59.7 7.0 57.95 10.95 54.05 14.9 L-56.15 14.9 -56.15 1.15 61.0 1.15" fill="#009965" fill-rule="evenodd" stroke="none"/>
    <path d="M-55.9 0.9 Q-57.7 2.5 -60.3 0.9 -63.05 -0.8 -64.55 -4.6 -66.0 -8.4 -67.6 -10.75 -66.6 -10.35 -65.65 -9.0 -62.55 -4.95 -64.6 -9.4 -65.85 -12.2 -67.35 -14.45 -68.25 -15.75 -68.4 -17.15 -67.5 -15.6 -66.05 -14.85 -65.4 -14.5 -64.1 -12.95 -64.05 -15.35 -65.7 -17.4 -64.65 -16.75 -63.85 -15.85 L-64.7 -17.35 Q-60.7 -12.6 -60.85 -17.5 L-60.85 -17.6 Q-61.15 -22.95 -56.25 -24.35 -56.8 -21.1 -54.95 -18.25 -53.75 -16.4 -51.65 -14.3 L-49.05 -11.45 Q-49.5 -11.2 -49.85 -8.7 -49.85 -11.45 -52.15 -13.35 -54.4 -15.25 -55.4 -16.7 -57.35 -19.6 -57.15 -23.05 -59.9 -21.15 -59.8 -16.0 -59.7 -10.6 -63.7 -15.6 -63.0 -14.55 -62.85 -13.3 -62.15 -9.45 -61.05 -8.5 -62.5 -8.85 -62.85 -9.45 -64.05 -11.85 -65.2 -12.8 L-62.1 -6.95 Q-61.05 -4.7 -63.6 -5.4 -60.65 0.45 -55.9 0.55 L-55.9 0.9 M-49.05 -11.45 Q-50.45 -14.95 -49.05 -16.75 -49.9 -14.7 -48.2 -11.9 -46.25 -8.7 -46.4 -5.95 -46.5 -2.7 -48.4 0.45 -50.25 3.6 -51.1 3.35 -51.35 3.45 -51.55 3.15 L-51.55 1.8 -51.3 1.6 Q-47.65 -1.3 -47.45 -5.75 L-47.45 -5.85 -47.45 -5.95 -47.45 -6.15 Q-47.55 -7.9 -48.9 -11.05 L-49.05 -11.45" fill="#ff2700" fill-rule="evenodd" stroke="none"/>
    <path d="M-55.9 0.55 Q-60.65 0.45 -63.6 -5.4 -61.05 -4.7 -62.1 -6.95 L-65.2 -12.8 Q-64.05 -11.85 -62.85 -9.45 -62.5 -8.85 -61.05 -8.5 -62.15 -9.45 -62.85 -13.3 -63.0 -14.55 -63.7 -15.6 -59.7 -10.6 -59.8 -16.0 -59.9 -21.15 -57.15 -23.05 -57.35 -19.6 -55.4 -16.7 -54.4 -15.25 -52.15 -13.35 -49.85 -11.45 -49.85 -8.7 -49.5 -11.2 -49.05 -11.45 L-48.9 -11.05 Q-47.55 -7.9 -47.45 -6.15 L-47.45 -5.95 -47.45 -5.85 -47.45 -5.75 Q-47.65 -1.3 -51.3 1.6 L-51.55 1.8 -49.95 -2.5 Q-49.5 -4.05 -49.5 -5.5 -49.5 -6.95 -50.25 -8.55 L-51.2 -10.3 -51.3 -9.85 -51.6 -9.6 -52.0 -9.6 -52.15 -10.35 -52.45 -10.35 -52.75 -10.3 Q-53.2 -10.3 -53.65 -11.6 L-54.25 -13.35 -55.4 -14.95 -56.55 -16.25 -56.6 -16.5 -56.7 -16.5 -56.55 -16.25 -56.3 -15.85 -56.05 -15.15 -56.15 -13.95 -56.5 -15.3 -56.35 -13.45 -56.45 -13.1 -56.6 -13.6 -56.6 -13.4 -56.55 -13.05 Q-56.85 -12.6 -57.25 -12.4 -57.75 -13.25 -58.3 -15.8 L-58.35 -15.8 -59.15 -13.5 -59.45 -11.7 -59.3 -10.85 -58.95 -9.95 -59.0 -9.95 -59.25 -10.2 -60.05 -10.75 -60.7 -11.25 -60.5 -10.8 Q-60.15 -10.35 -60.15 -9.85 L-60.35 -8.95 -60.55 -8.05 -60.25 -7.1 -59.6 -6.05 Q-60.7 -6.6 -60.8 -7.1 L-60.65 -5.05 Q-60.55 -4.05 -59.8 -3.6 L-59.85 -3.6 -60.55 -3.95 -61.05 -4.25 Q-61.2 -3.1 -58.6 -1.1 -57.1 0.0 -56.7 0.1 L-55.9 0.4 -55.9 0.55" fill="#ff6600" fill-rule="evenodd" stroke="none"/>
    <path d="M-56.15 -13.95 L-56.05 -15.15 -56.3 -15.85 -56.55 -16.25 -56.7 -16.5 -56.6 -16.5 -56.55 -16.25 -55.4 -14.95 -54.25 -13.35 -53.65 -11.6 Q-53.2 -10.3 -52.75 -10.3 L-52.45 -10.35 -52.15 -10.35 -52.0 -9.6 -51.6 -9.6 -51.3 -9.85 -51.2 -10.3 -50.25 -8.55 Q-49.5 -6.95 -49.5 -5.5 -49.5 -4.05 -49.95 -2.5 L-51.55 1.8 -51.55 1.35 Q-51.05 0.25 -51.05 -0.65 -51.05 -1.5 -51.35 -1.8 L-51.65 -2.45 -51.3 -4.55 Q-50.9 -5.9 -51.55 -4.5 -51.2 -6.25 -51.45 -6.3 -51.75 -6.5 -50.95 -9.6 -51.3 -8.4 -52.5 -7.3 -52.5 -8.65 -54.15 -10.35 -55.4 -11.6 -56.15 -13.95 M-55.9 0.4 L-56.7 0.1 Q-57.1 0.0 -58.6 -1.1 -61.2 -3.1 -61.05 -4.25 L-60.55 -3.95 -59.85 -3.6 -59.8 -3.6 Q-60.55 -4.05 -60.65 -5.05 L-60.8 -7.1 Q-60.7 -6.6 -59.6 -6.05 L-60.25 -7.1 -60.55 -8.05 -60.35 -8.95 -60.15 -9.85 Q-60.15 -10.35 -60.5 -10.8 L-60.7 -11.25 -60.05 -10.75 -59.25 -10.2 -59.0 -9.95 -58.95 -9.95 -59.3 -10.85 -59.45 -11.7 -59.15 -13.5 -58.35 -15.8 -58.3 -15.8 Q-57.75 -13.25 -57.25 -12.4 -56.85 -12.6 -56.55 -13.05 L-56.2 -11.95 -56.1 -10.65 -56.2 -9.35 Q-56.45 -8.6 -57.45 -8.6 -57.95 -8.6 -58.6 -9.3 L-59.25 -10.2 -59.25 -9.6 Q-59.25 -8.9 -58.65 -7.75 L-57.55 -5.55 -58.25 -5.55 -59.25 -6.5 -60.35 -7.75 -60.35 -7.65 Q-58.35 -5.2 -57.3 -3.1 L-58.15 -3.4 -59.2 -4.0 -59.05 -3.85 Q-58.15 -2.7 -56.3 -1.5 L-54.85 -0.45 -54.9 -0.45 -55.7 -0.3 -55.85 -0.2 -55.9 -0.05 -55.9 0.4 M-56.45 -13.1 L-56.35 -13.45 -56.25 -13.1 Q-56.1 -12.0 -56.45 -13.1" fill="#ff9900" fill-rule="evenodd" stroke="none"/>
    <path d="M-56.55 -13.05 L-56.6 -13.4 -56.6 -13.6 -56.45 -13.1 Q-56.1 -12.0 -56.25 -13.1 L-56.35 -13.45 -56.5 -15.3 -56.15 -13.95 Q-55.4 -11.6 -54.15 -10.35 -52.5 -8.65 -52.5 -7.3 -51.3 -8.4 -50.95 -9.6 -51.75 -6.5 -51.45 -6.3 -51.2 -6.25 -51.55 -4.5 -50.9 -5.9 -51.3 -4.55 L-51.65 -2.45 -51.35 -1.8 Q-51.05 -1.5 -51.05 -0.65 -51.05 0.25 -51.55 1.35 L-51.55 0.05 -51.6 -0.05 -51.65 -0.05 -52.15 -0.25 -52.35 -0.4 -52.4 -0.45 -52.5 -0.5 Q-52.5 -1.6 -53.0 -2.45 L-53.55 -3.25 -53.4 -3.8 -53.35 -4.2 -53.85 -3.8 -54.1 -3.95 -54.25 -4.25 -53.85 -5.4 -53.55 -6.5 -53.85 -7.25 -54.35 -7.9 -54.85 -8.95 -55.15 -9.9 -55.2 -9.85 -55.2 -9.7 -54.75 -8.45 Q-54.45 -7.75 -54.45 -7.2 -54.45 -6.65 -54.6 -6.4 L-55.2 -6.25 Q-56.9 -6.25 -57.85 -7.9 L-57.85 -7.65 Q-57.85 -6.95 -56.7 -6.0 -55.65 -5.0 -55.65 -4.35 -55.65 -3.95 -55.9 -3.95 -56.1 -3.95 -56.5 -4.25 L-56.9 -4.8 -56.9 -4.6 Q-56.9 -4.05 -56.4 -3.4 L-55.05 -1.95 -55.05 -1.7 -55.6 -1.85 -56.25 -2.2 -56.25 -2.15 -54.35 -0.65 -54.75 -0.45 -54.85 -0.45 -56.3 -1.5 Q-58.15 -2.7 -59.05 -3.85 L-59.2 -4.0 -58.15 -3.4 -57.3 -3.1 Q-58.35 -5.2 -60.35 -7.65 L-60.35 -7.75 -59.25 -6.5 -58.25 -5.55 -57.55 -5.55 -58.65 -7.75 Q-59.25 -8.9 -59.25 -9.6 L-59.25 -10.2 -58.6 -9.3 Q-57.95 -8.6 -57.45 -8.6 -56.45 -8.6 -56.2 -9.35 L-56.1 -10.65 -56.2 -11.95 -56.55 -13.05" fill="#ffff00" fill-rule="evenodd" stroke="none"/>
    <path d="M-54.35 -0.65 L-56.25 -2.15 -56.25 -2.2 -55.6 -1.85 -55.05 -1.7 -55.05 -1.95 -56.4 -3.4 Q-56.9 -4.05 -56.9 -4.6 L-56.9 -4.8 -56.5 -4.25 Q-56.1 -3.95 -55.9 -3.95 -55.65 -3.95 -55.65 -4.35 -55.65 -5.0 -56.7 -6.0 -57.85 -6.95 -57.85 -7.65 L-57.85 -7.9 Q-56.9 -6.25 -55.2 -6.25 L-54.6 -6.4 Q-54.45 -6.65 -54.45 -7.2 -54.45 -7.75 -54.75 -8.45 L-55.2 -9.7 -55.2 -9.85 -55.15 -9.9 -54.85 -8.95 -54.35 -7.9 -53.85 -7.25 -53.55 -6.5 -53.85 -5.4 -54.25 -4.25 -54.1 -3.95 -53.85 -3.8 -53.35 -4.2 -53.4 -3.8 -53.55 -3.25 -53.0 -2.45 Q-52.5 -1.6 -52.5 -0.5 L-52.95 -1.4 -53.0 -1.55 -53.15 -1.6 -54.35 -1.6 -54.45 -1.55 -54.5 -1.4 -54.45 -1.3 -54.3 -0.75 -54.35 -0.65" fill="#ffff99" fill-rule="evenodd" stroke="none"/>
    <path d="M-55.9 0.9 L-55.9 0.55 -55.9 0.4 -55.9 -0.05 -55.85 -0.2 -55.7 -0.3 -54.9 -0.45 -54.85 -0.45 -54.75 -0.45 -54.35 -0.65 -54.3 -0.75 -54.45 -1.3 -54.5 -1.4 -54.45 -1.55 -54.35 -1.6 -53.15 -1.6 -53.0 -1.55 -52.95 -1.4 -52.5 -0.5 -52.4 -0.45 -52.35 -0.4 -52.15 -0.25 -51.65 -0.05 -51.6 -0.05 -51.55 0.05 -51.55 1.35 -51.55 1.8 -51.55 3.15 -51.55 24.1 -51.6 24.25 -51.75 24.3 -56.0 24.3 -56.1 24.25 -56.15 24.1 -55.9 0.9 M-53.35 -1.2 L-54.0 -1.2 -53.95 -0.55 -54.15 -0.45 -54.65 -0.1 -54.7 -0.1 -54.85 -0.05 -55.5 0.0 -55.85 23.95 -54.85 23.95 -54.15 23.95 -53.35 23.95 -52.3 23.95 -51.9 23.95 -51.9 0.2 -52.3 0.05 -52.35 0.0 -52.6 -0.05 -52.7 -0.15 Q-53.15 -0.55 -53.3 -1.2 L-53.35 -1.2" fill="#999900" fill-rule="evenodd" stroke="none"/>
    <path d="M-54.85 23.95 L-55.85 23.95 -55.5 0.0 -54.85 -0.05 -54.7 -0.1 -54.65 -0.1 -54.15 -0.45 -53.95 -0.55 -54.0 -1.2 -53.35 -1.2 -53.35 4.9 -53.5 4.75 -53.8 4.5 -53.85 4.45 -53.95 4.45 -54.0 4.7 -54.0 5.55 Q-54.0 5.95 -54.15 6.1 L-54.45 6.3 Q-54.8 6.3 -54.85 5.75 L-54.85 5.55 -54.85 5.05 -54.9 5.0 -55.0 5.7 -55.35 9.75 -55.2 10.95 -55.1 12.3 -55.2 13.85 -55.25 15.3 -54.85 17.15 -54.85 23.95 M-52.3 0.05 L-51.9 0.2 -51.9 23.95 -52.3 23.95 -52.3 0.05 M-53.35 23.95 L-54.15 23.95 -54.15 19.2 -53.35 21.5 -53.35 23.95 M-53.7 5.95 L-53.45 5.6 -53.35 5.4 -53.05 5.15 -52.9 5.2 -52.9 5.4 -53.0 5.7 -53.35 5.85 -53.4 5.85 -53.65 6.0 -53.7 6.1 -53.7 5.95 M-53.15 8.9 L-53.35 8.9 -54.35 9.95 -54.35 9.6 -54.45 9.7 Q-54.85 9.95 -54.05 8.0 L-54.1 8.0 -54.1 7.95 -53.85 7.75 Q-53.65 7.75 -53.5 8.1 L-53.35 8.4 -53.2 8.7 -53.15 8.9" fill="#99cc00" fill-rule="evenodd" stroke="none"/>
    <path d="M-53.35 -1.2 L-53.3 -1.2 Q-53.15 -0.55 -52.7 -0.15 L-52.6 -0.05 -52.35 0.0 -52.3 0.05 -52.3 23.95 -53.35 23.95 -53.35 21.5 -54.15 19.2 -54.15 23.95 -54.85 23.95 -54.85 17.15 -55.25 15.3 -55.2 13.85 -55.1 12.3 -55.2 10.95 -55.35 9.75 -55.0 5.7 -54.9 5.0 -54.85 5.05 -54.85 5.55 -54.85 5.75 Q-54.8 6.3 -54.45 6.3 L-54.15 6.1 Q-54.0 5.95 -54.0 5.55 L-54.0 4.7 -53.95 4.45 -53.85 4.45 -53.8 4.5 -53.5 4.75 -53.35 4.9 -53.35 -1.2 M-53.15 8.9 L-53.2 8.7 -53.35 8.4 -53.5 8.1 Q-53.65 7.75 -53.85 7.75 L-54.1 7.95 -54.1 8.0 -54.05 8.0 Q-54.85 9.95 -54.45 9.7 L-54.35 9.6 -54.35 9.95 -53.35 8.9 -53.15 8.9 M-53.7 5.95 L-53.7 6.1 -53.65 6.0 -53.4 5.85 -53.35 5.85 -53.0 5.7 -52.9 5.4 -52.9 5.2 -53.05 5.15 -53.35 5.4 -53.45 5.6 -53.7 5.95" fill="#e7ff18" fill-rule="evenodd" stroke="none"/>
    <path d="M-33.8 -3.0 Q-32.1 -1.3 -32.1 1.1 -32.1 3.5 -33.8 5.15 -35.45 6.85 -37.85 6.85 -40.25 6.85 -41.95 5.15 -43.6 3.5 -43.6 1.1 -43.6 -1.3 -41.95 -3.0 -40.25 -4.65 -37.85 -4.65 -35.45 -4.65 -33.8 -3.0" fill="#99cc00" fill-opacity="0.7019608" fill-rule="evenodd" stroke="none"/>
    <path d="M49.9 -13.05 Q48.65 -13.05 47.7 -13.95 46.8 -14.9 46.8 -16.2 46.8 -17.5 47.7 -18.4 48.65 -19.3 49.9 -19.3 51.2 -19.3 52.1 -18.4 53.0 -17.5 53.0 -16.2 53.0 -14.9 52.1 -13.95 51.2 -13.05 49.9 -13.05" fill="#e7ff18" fill-opacity="0.7019608" fill-rule="evenodd" stroke="none"/>
    <path d="M33.25 -13.25 Q32.05 -14.45 32.05 -16.2 32.05 -17.95 33.25 -19.15 34.45 -20.35 36.2 -20.35 37.95 -20.35 39.15 -19.15 40.35 -17.95 40.35 -16.2 40.35 -14.45 39.15 -13.25 37.95 -12.05 36.2 -12.05 34.45 -12.05 33.25 -13.25" fill="#99cc00" fill-opacity="0.7019608" fill-rule="evenodd" stroke="none"/>
    <path d="M41.1 17.15 Q41.1 14.9 42.75 13.25 44.35 11.6 46.7 11.6 48.95 11.6 50.6 13.25 52.3 14.9 52.3 17.15 52.3 19.5 50.6 21.15 48.95 22.75 46.7 22.75 44.35 22.75 42.75 21.15 41.1 19.5 41.1 17.15" fill="#e7ff18" fill-opacity="0.7019608" fill-rule="evenodd" stroke="none"/>
    <path d="M-30.5 -11.95 Q-30.5 -11.05 -31.2 -10.35 -31.8 -9.75 -32.75 -9.75 -33.65 -9.75 -34.35 -10.35 -34.95 -11.05 -34.95 -11.95 -34.95 -12.9 -34.35 -13.5 -33.65 -14.2 -32.75 -14.2 -31.8 -14.2 -31.2 -13.5 -30.5 -12.9 -30.5 -11.95" fill="#e7ff18" fill-opacity="0.7019608" fill-rule="evenodd" stroke="none"/>
    <path d="M-47.65 -15.5 Q-48.7 -16.55 -48.7 -18.0 -48.7 -19.5 -47.65 -20.55 -46.65 -21.6 -45.15 -21.6 -43.65 -21.6 -42.6 -20.55 -41.6 -19.5 -41.6 -18.0 -41.6 -16.55 -42.6 -15.5 -43.65 -14.45 -45.15 -14.45 -46.65 -14.45 -47.65 -15.5" fill="#99cc00" fill-opacity="0.7019608" fill-rule="evenodd" stroke="none"/>
  </g>
</svg>
