<?xml version="1.0" encoding="UTF-8" standalone="no"?>
<svg xmlns:ffdec="https://www.free-decompiler.com/flash" xmlns:xlink="http://www.w3.org/1999/xlink" ffdec:objectType="shape" height="54.1px" width="152.05px" xmlns="http://www.w3.org/2000/svg">
  <g transform="matrix(1.0, 0.0, 0.0, 1.0, 76.0, 27.05)">
    <path d="M-62.4 -19.95 L-62.4 -24.3 51.9 -24.3 53.4 -24.15 Q62.1 -23.2 68.5 -16.8 76.05 -9.2 76.05 1.5 76.05 5.15 75.2 8.4 L74.4 10.85 Q72.55 15.75 68.5 19.75 66.15 22.1 63.55 23.7 L63.5 23.7 63.5 23.75 Q59.25 26.4 54.25 27.05 L-62.4 27.05 -62.4 22.55 52.8 22.55 58.95 17.6 60.05 16.55 Q64.4 12.15 66.35 7.8 67.75 4.55 67.8 1.3 67.9 -6.6 59.8 -14.3 L58.25 -15.75 57.8 -16.1 57.6 -16.3 52.75 -19.95 -62.4 -19.95" fill="#007f00" fill-rule="evenodd" stroke="none"/>
    <path d="M-62.4 -14.3 L-62.4 -19.95 52.75 -19.95 57.6 -16.3 57.8 -16.1 58.25 -15.75 59.8 -14.3 -62.4 -14.3" fill="#00d88c" fill-rule="evenodd" stroke="none"/>
    <path d="M-62.4 22.55 L-62.4 16.55 60.05 16.55 58.95 17.6 52.8 22.55 -62.4 22.55" fill="#007f54" fill-rule="evenodd" stroke="none"/>
    <path d="M-62.4 16.55 L-62.4 1.3 67.8 1.3 Q67.75 4.55 66.35 7.8 64.4 12.15 60.05 16.55 L-62.4 16.55" fill="#009965" fill-rule="evenodd" stroke="none"/>
    <path d="M-62.4 1.3 L-62.4 -14.3 59.8 -14.3 Q67.9 -6.6 67.8 1.3 L-62.4 1.3" fill="#00bf7f" fill-rule="evenodd" stroke="none"/>
    <path d="M-62.1 1.05 Q-64.1 2.8 -67.0 1.05 -70.05 -0.85 -71.7 -5.1 -73.3 -9.3 -75.1 -11.9 -74.0 -11.45 -72.95 -10.0 -69.5 -5.5 -71.75 -10.4 -73.15 -13.55 -74.85 -16.05 -75.8 -17.45 -76.0 -19.05 -75.0 -17.3 -73.4 -16.5 -72.65 -16.1 -71.2 -14.35 -71.15 -17.05 -73.0 -19.3 -71.8 -18.6 -70.95 -17.6 L-71.9 -19.25 Q-67.45 -14.0 -67.6 -19.4 L-67.6 -19.55 Q-67.95 -25.45 -62.5 -27.05 -63.1 -23.4 -61.05 -20.25 -59.7 -18.2 -57.4 -15.85 L-54.5 -12.7 Q-55.0 -12.4 -55.4 -9.65 -55.4 -12.7 -57.95 -14.8 -60.45 -16.9 -61.55 -18.55 -63.7 -21.75 -63.5 -25.6 -66.55 -23.45 -66.45 -17.75 -66.35 -11.75 -70.75 -17.3 -70.0 -16.15 -69.8 -14.75 -69.05 -10.5 -67.8 -9.4 -69.45 -9.8 -69.8 -10.5 -71.15 -13.15 -72.45 -14.2 L-69.0 -7.7 Q-67.8 -5.2 -70.65 -6.0 -67.4 0.55 -62.1 0.65 L-62.1 1.05 M-54.5 -12.7 Q-56.05 -16.6 -54.5 -18.6 -55.45 -16.3 -53.55 -13.2 -51.4 -9.65 -51.55 -6.6 -51.65 -2.95 -53.75 0.55 -55.85 4.05 -56.75 3.75 -57.05 3.85 -57.25 3.55 L-57.25 2.05 -57.0 1.8 Q-52.95 -1.4 -52.7 -6.35 L-52.7 -6.45 -52.7 -6.6 -52.7 -6.8 Q-52.85 -8.75 -54.3 -12.25 L-54.5 -12.7" fill="#ff2700" fill-rule="evenodd" stroke="none"/>
    <path d="M-62.1 0.65 Q-67.4 0.55 -70.65 -6.0 -67.8 -5.2 -69.0 -7.7 L-72.45 -14.2 Q-71.15 -13.15 -69.8 -10.5 -69.45 -9.8 -67.8 -9.4 -69.05 -10.5 -69.8 -14.75 -70.0 -16.15 -70.75 -17.3 -66.35 -11.75 -66.45 -17.75 -66.55 -23.45 -63.5 -25.6 -63.7 -21.75 -61.55 -18.55 -60.45 -16.9 -57.95 -14.8 -55.4 -12.7 -55.4 -9.65 -55.0 -12.4 -54.5 -12.7 L-54.3 -12.25 Q-52.85 -8.75 -52.7 -6.8 L-52.7 -6.6 -52.7 -6.45 -52.7 -6.35 Q-52.95 -1.4 -57.0 1.8 L-57.25 2.05 -57.25 2.0 Q-56.0 -1.15 -55.5 -2.75 -55.0 -4.5 -55.0 -6.1 -55.0 -7.7 -55.8 -9.45 L-56.9 -11.4 -57.0 -10.9 -57.35 -10.65 -57.75 -10.65 -57.95 -11.5 -58.25 -11.45 -58.6 -11.4 Q-59.1 -11.4 -59.6 -12.85 L-60.25 -14.8 -61.55 -16.6 -62.85 -18.05 -62.9 -18.3 -63.0 -18.3 -62.85 -18.05 -62.55 -17.6 Q-62.25 -17.2 -62.25 -16.8 -62.25 -16.05 -62.4 -15.45 L-62.75 -16.95 -62.6 -14.9 -62.7 -14.55 -62.9 -15.1 -62.9 -14.85 -62.8 -14.45 Q-63.15 -13.95 -63.6 -13.75 -64.15 -14.7 -64.75 -17.55 L-64.8 -17.55 -65.7 -15.0 -66.05 -13.0 -65.9 -12.05 -65.5 -11.05 -65.55 -11.05 -65.8 -11.3 -65.85 -11.45 -65.85 -11.3 -66.7 -11.9 -67.45 -12.45 -67.8 -12.9 -67.85 -12.9 -67.45 -12.45 -67.2 -12.0 Q-66.8 -11.5 -66.8 -10.9 L-67.05 -9.9 -67.25 -8.9 -66.95 -7.85 -66.2 -6.7 Q-67.45 -7.3 -67.55 -7.85 L-67.4 -5.6 Q-67.25 -4.5 -66.45 -4.0 L-66.5 -4.0 -67.25 -4.35 -67.8 -4.7 -67.8 -4.8 -67.85 -4.8 -67.8 -4.7 Q-68.0 -3.4 -65.1 -1.2 L-63.0 0.15 -62.1 0.45 -62.1 0.65" fill="#ff6600" fill-rule="evenodd" stroke="none"/>
    <path d="M-62.1 0.45 L-63.0 0.15 -65.1 -1.2 Q-68.0 -3.4 -67.8 -4.7 L-67.85 -4.8 -67.8 -4.8 -67.8 -4.7 -67.25 -4.35 -66.5 -4.0 -66.45 -4.0 Q-67.25 -4.5 -67.4 -5.6 L-67.55 -7.85 Q-67.45 -7.3 -66.2 -6.7 L-66.95 -7.85 -67.25 -8.9 -67.05 -9.9 -66.8 -10.9 Q-66.8 -11.5 -67.2 -12.0 L-67.45 -12.45 -67.85 -12.9 -67.8 -12.9 -67.45 -12.45 -66.7 -11.9 -65.85 -11.3 -65.85 -10.65 Q-65.85 -9.85 -65.15 -8.6 L-63.95 -6.15 -64.7 -6.15 -65.85 -7.2 -67.05 -8.6 -67.05 -8.5 Q-64.85 -5.75 -63.65 -3.4 L-64.6 -3.75 -65.75 -4.4 -65.6 -4.25 Q-64.6 -2.95 -62.55 -1.65 L-60.95 -0.5 -61.0 -0.45 -61.9 -0.3 -62.05 -0.2 -62.1 -0.05 -62.1 0.45 M-65.8 -11.3 L-65.55 -11.05 -65.5 -11.05 -65.9 -12.05 -66.05 -13.0 -65.7 -15.0 -64.8 -17.55 -64.75 -17.55 Q-64.15 -14.7 -63.6 -13.75 -63.15 -13.95 -62.8 -14.45 L-62.45 -13.25 -62.35 -11.8 -62.45 -10.35 Q-62.7 -9.55 -63.8 -9.55 -64.4 -9.55 -65.1 -10.3 L-65.8 -11.3 M-62.7 -14.55 L-62.6 -14.9 -62.5 -14.55 Q-62.3 -13.3 -62.7 -14.55 M-62.4 -15.45 Q-62.25 -16.05 -62.25 -16.8 -62.25 -17.2 -62.55 -17.6 L-62.85 -18.05 -63.0 -18.3 -62.9 -18.3 -62.85 -18.05 -61.55 -16.6 -60.25 -14.8 -59.6 -12.85 Q-59.1 -11.4 -58.6 -11.4 L-58.25 -11.45 -57.95 -11.5 -57.75 -10.65 -57.35 -10.65 -57.0 -10.9 -56.9 -11.4 -55.8 -9.45 Q-55.0 -7.7 -55.0 -6.1 -55.0 -4.5 -55.5 -2.75 -56.0 -1.15 -57.25 2.0 L-57.25 1.5 Q-56.7 0.3 -56.7 -0.7 -56.7 -1.65 -57.05 -1.95 L-57.4 -2.7 -57.0 -5.05 Q-56.55 -6.55 -57.25 -4.95 -56.9 -6.9 -57.15 -7.0 -57.5 -7.2 -56.6 -10.65 -57.0 -9.3 -58.35 -8.1 -58.3 -9.6 -60.15 -11.45 -61.55 -12.85 -62.4 -15.45" fill="#ff9900" fill-rule="evenodd" stroke="none"/>
    <path d="M-65.85 -11.3 L-65.85 -11.45 -65.8 -11.3 -65.1 -10.3 Q-64.4 -9.55 -63.8 -9.55 -62.7 -9.55 -62.45 -10.35 L-62.35 -11.8 -62.45 -13.25 -62.8 -14.45 -62.9 -14.85 -62.9 -15.1 -62.7 -14.55 Q-62.3 -13.3 -62.5 -14.55 L-62.6 -14.9 -62.75 -16.95 -62.4 -15.45 Q-61.55 -12.85 -60.15 -11.45 -58.3 -9.6 -58.35 -8.1 -57.0 -9.3 -56.6 -10.65 -57.5 -7.2 -57.15 -7.0 -56.9 -6.9 -57.25 -4.95 -56.55 -6.55 -57.0 -5.05 L-57.4 -2.7 -57.05 -1.95 Q-56.7 -1.65 -56.7 -0.7 -56.7 0.3 -57.25 1.5 L-57.25 0.1 -57.3 -0.05 -57.4 -0.05 -57.95 -0.25 -58.15 -0.4 -58.2 -0.45 -58.35 -0.55 Q-58.35 -1.75 -58.9 -2.7 L-59.5 -3.6 -59.35 -4.2 -59.25 -4.65 -59.85 -4.2 -60.1 -4.35 -60.25 -4.7 -59.85 -5.95 Q-59.5 -6.9 -59.5 -7.2 -59.5 -7.6 -59.85 -8.05 L-60.4 -8.75 -60.95 -9.9 -61.25 -10.95 -61.3 -10.9 -61.3 -10.75 -60.8 -9.35 Q-60.5 -8.6 -60.5 -7.95 -60.5 -7.35 -60.65 -7.1 L-61.3 -6.9 Q-63.2 -6.9 -64.25 -8.75 L-64.25 -8.5 Q-64.25 -7.7 -63.0 -6.65 -61.8 -5.55 -61.8 -4.8 -61.8 -4.35 -62.1 -4.35 -62.35 -4.35 -62.75 -4.7 L-63.2 -5.3 -63.2 -5.1 Q-63.2 -4.45 -62.65 -3.75 L-61.15 -2.15 -61.15 -1.85 -61.75 -2.05 -62.5 -2.4 -62.5 -2.35 -60.4 -0.7 -60.8 -0.5 -60.95 -0.5 -62.55 -1.65 Q-64.6 -2.95 -65.6 -4.25 L-65.75 -4.4 -64.6 -3.75 -63.65 -3.4 Q-64.85 -5.75 -67.05 -8.5 L-67.05 -8.6 -65.85 -7.2 -64.7 -6.15 -63.95 -6.15 -65.15 -8.6 Q-65.85 -9.85 -65.85 -10.65 L-65.85 -11.3" fill="#ffff00" fill-rule="evenodd" stroke="none"/>
    <path d="M-60.4 -0.7 L-62.5 -2.35 -62.5 -2.4 -61.75 -2.05 -61.15 -1.85 -61.15 -2.15 -62.65 -3.75 Q-63.2 -4.45 -63.2 -5.1 L-63.2 -5.3 -62.75 -4.7 Q-62.35 -4.35 -62.1 -4.35 -61.8 -4.35 -61.8 -4.8 -61.8 -5.55 -63.0 -6.65 -64.25 -7.7 -64.25 -8.5 L-64.25 -8.75 Q-63.2 -6.9 -61.3 -6.9 L-60.65 -7.1 Q-60.5 -7.35 -60.5 -7.95 -60.5 -8.6 -60.8 -9.35 L-61.3 -10.75 -61.3 -10.9 -61.25 -10.95 -60.95 -9.9 -60.4 -8.75 -59.85 -8.05 Q-59.5 -7.6 -59.5 -7.2 -59.5 -6.9 -59.85 -5.95 L-60.25 -4.7 -60.1 -4.35 -59.85 -4.2 -59.25 -4.65 -59.35 -4.2 -59.5 -3.6 -58.9 -2.7 Q-58.35 -1.75 -58.35 -0.55 L-58.8 -1.55 -58.9 -1.7 -59.05 -1.75 -60.4 -1.75 -60.5 -1.7 -60.55 -1.55 -60.5 -1.4 Q-60.25 -1.1 -60.35 -0.8 L-60.4 -0.7" fill="#ffff99" fill-rule="evenodd" stroke="none"/>
    <path d="M-62.1 1.05 L-62.1 0.65 -62.1 0.45 -62.1 -0.05 -62.05 -0.2 -61.9 -0.3 -61.0 -0.45 -60.95 -0.5 -60.8 -0.5 -60.4 -0.7 -60.35 -0.8 Q-60.25 -1.1 -60.5 -1.4 L-60.55 -1.55 -60.5 -1.7 -60.4 -1.75 -59.05 -1.75 -58.9 -1.7 -58.8 -1.55 -58.35 -0.55 -58.2 -0.45 -58.15 -0.4 -57.95 -0.25 -57.4 -0.05 -57.3 -0.05 -57.25 0.1 -57.25 1.5 -57.25 2.0 -57.25 2.05 -57.25 3.55 -57.25 26.8 -57.35 26.95 -57.5 27.05 -62.2 27.05 -62.35 26.95 -62.4 26.8 -62.1 1.05 M-59.25 -1.3 L-60.0 -1.3 Q-59.85 -0.95 -59.95 -0.6 L-60.15 -0.45 -60.7 -0.1 -60.75 -0.1 -60.95 -0.05 -61.65 0.05 -62.05 26.65 -60.95 26.65 -60.15 26.65 -59.25 26.65 -58.1 26.65 -57.65 26.65 -57.65 0.25 -58.1 0.1 -58.15 0.05 -58.45 -0.05 -58.55 -0.15 Q-59.05 -0.6 -59.2 -1.3 L-59.25 -1.3" fill="#999900" fill-rule="evenodd" stroke="none"/>
    <path d="M-60.95 26.65 L-62.05 26.65 -61.65 0.05 -60.95 -0.05 -60.75 -0.1 -60.7 -0.1 -60.15 -0.45 -59.95 -0.6 Q-59.85 -0.95 -60.0 -1.3 L-59.25 -1.3 -59.25 5.45 -59.45 5.3 -59.75 5.0 -59.8 4.95 -59.95 4.95 -60.0 5.25 -60.0 6.2 Q-60.0 6.65 -60.15 6.8 L-60.5 7.0 Q-60.9 7.0 -60.95 6.4 L-60.95 6.2 -60.95 5.65 -61.0 5.6 -61.1 6.35 -61.5 10.85 -61.35 12.2 -61.2 13.7 -61.35 15.4 -61.4 17.05 Q-61.45 17.65 -60.95 19.1 L-60.95 26.65 M-58.1 0.1 L-57.65 0.25 -57.65 26.65 -58.1 26.65 -58.1 0.1 M-59.25 26.65 L-60.15 26.65 -60.15 21.35 -59.25 23.9 -59.25 26.65 M-59.65 6.65 L-59.4 6.25 -59.25 6.05 -58.95 5.75 -58.75 5.8 -58.75 6.0 Q-58.75 6.25 -58.9 6.35 L-59.25 6.5 -59.3 6.55 -59.6 6.7 -59.65 6.8 -59.65 6.65 M-59.05 9.9 L-59.25 9.9 -60.4 11.1 -60.4 10.7 -60.5 10.8 Q-60.95 11.1 -60.05 8.9 L-60.1 8.9 -60.1 8.85 -59.8 8.65 -59.45 9.05 -59.25 9.35 -59.1 9.7 -59.05 9.9" fill="#99cc00" fill-rule="evenodd" stroke="none"/>
    <path d="M-59.25 -1.3 L-59.2 -1.3 Q-59.05 -0.6 -58.55 -0.15 L-58.45 -0.05 -58.15 0.05 -58.1 0.1 -58.1 26.65 -59.25 26.65 -59.25 23.9 -60.15 21.35 -60.15 26.65 -60.95 26.65 -60.95 19.1 Q-61.45 17.65 -61.4 17.05 L-61.35 15.4 -61.2 13.7 -61.35 12.2 -61.5 10.85 -61.1 6.35 -61.0 5.6 -60.95 5.65 -60.95 6.2 -60.95 6.4 Q-60.9 7.0 -60.5 7.0 L-60.15 6.8 Q-60.0 6.65 -60.0 6.2 L-60.0 5.25 -59.95 4.95 -59.8 4.95 -59.75 5.0 -59.45 5.3 -59.25 5.45 -59.25 -1.3 M-59.65 6.65 L-59.65 6.8 -59.6 6.7 -59.3 6.55 -59.25 6.5 -58.9 6.35 Q-58.75 6.25 -58.75 6.0 L-58.75 5.8 -58.95 5.75 -59.25 6.05 -59.4 6.25 -59.65 6.65 M-59.05 9.9 L-59.1 9.7 -59.25 9.35 -59.45 9.05 -59.8 8.65 -60.1 8.85 -60.1 8.9 -60.05 8.9 Q-60.95 11.1 -60.5 10.8 L-60.4 10.7 -60.4 11.1 -59.25 9.9 -59.05 9.9" fill="#e7ff18" fill-rule="evenodd" stroke="none"/>
    <path d="M-37.55 -3.3 Q-35.65 -1.4 -35.65 1.25 -35.65 3.9 -37.55 5.75 -39.4 7.65 -42.05 7.65 -44.7 7.65 -46.6 5.75 -48.45 3.9 -48.45 1.25 -48.45 -1.4 -46.6 -3.3 -44.7 -5.15 -42.05 -5.15 -39.4 -5.15 -37.55 -3.3" fill="#99cc00" fill-opacity="0.7019608" fill-rule="evenodd" stroke="none"/>
    <path d="M55.45 -14.5 Q54.05 -14.5 53.0 -15.5 52.0 -16.55 52.0 -17.95 52.0 -19.4 53.0 -20.4 54.05 -21.4 55.45 -21.4 56.9 -21.4 57.9 -20.4 58.9 -19.4 58.9 -17.95 58.9 -16.55 57.9 -15.5 56.9 -14.5 55.45 -14.5" fill="#e7ff18" fill-opacity="0.7019608" fill-rule="evenodd" stroke="none"/>
    <path d="M36.95 -14.7 Q35.6 -16.05 35.6 -17.95 35.6 -19.9 36.95 -21.25 38.3 -22.6 40.25 -22.6 42.15 -22.6 43.5 -21.25 44.85 -19.9 44.85 -17.95 44.85 -16.05 43.5 -14.7 42.15 -13.35 40.25 -13.35 38.3 -13.35 36.95 -14.7" fill="#99cc00" fill-opacity="0.7019608" fill-rule="evenodd" stroke="none"/>
    <path d="M45.7 19.1 Q45.7 16.6 47.5 14.75 49.3 12.9 51.9 12.9 54.4 12.9 56.25 14.75 58.1 16.6 58.1 19.1 58.1 21.7 56.25 23.55 54.4 25.3 51.9 25.3 49.3 25.3 47.5 23.55 45.7 21.7 45.7 19.1" fill="#e7ff18" fill-opacity="0.7019608" fill-rule="evenodd" stroke="none"/>
    <path d="M-33.9 -13.25 Q-33.9 -12.25 -34.65 -11.5 -35.35 -10.8 -36.4 -10.8 -37.4 -10.8 -38.15 -11.5 -38.85 -12.25 -38.85 -13.25 -38.85 -14.3 -38.15 -15.0 -37.4 -15.75 -36.4 -15.75 -35.35 -15.75 -34.65 -15.0 -33.9 -14.3 -33.9 -13.25" fill="#e7ff18" fill-opacity="0.7019608" fill-rule="evenodd" stroke="none"/>
    <path d="M-52.95 -17.2 Q-54.1 -18.35 -54.1 -20.0 -54.1 -21.65 -52.95 -22.8 -51.8 -23.95 -50.15 -23.95 -48.5 -23.95 -47.35 -22.8 -46.2 -21.65 -46.2 -20.0 -46.2 -18.35 -47.35 -17.2 -48.5 -16.05 -50.15 -16.05 -51.8 -16.05 -52.95 -17.2" fill="#99cc00" fill-opacity="0.7019608" fill-rule="evenodd" stroke="none"/>
  </g>
</svg>
