<?xml version="1.0" encoding="UTF-8" standalone="no"?>
<svg xmlns:ffdec="https://www.free-decompiler.com/flash" xmlns:xlink="http://www.w3.org/1999/xlink" ffdec:objectType="shape" height="30.0px" width="41.4px" xmlns="http://www.w3.org/2000/svg">
  <g transform="matrix(1.0, 0.0, 0.0, 1.0, 31.05, 22.65)">
    <path d="M0.55 -3.9 L6.9 -2.5 7.1 -2.6 8.5 -3.3 9.5 -3.4 10.25 -2.7 Q10.45 -2.25 10.25 -1.75 L9.65 -1.0 8.25 -0.25 7.6 -0.15 7.5 -0.1 6.5 0.1 0.0 -1.45 -0.15 -1.45 -0.7 -1.25 -4.9 -0.8 0.0 1.0 Q0.35 1.1 0.5 1.4 L1.15 1.6 5.15 4.55 6.65 3.65 7.6 3.55 8.4 4.1 8.55 5.1 7.95 5.9 5.75 7.2 5.0 7.35 4.35 7.1 -0.35 3.7 -0.55 3.5 -0.9 3.4 -10.2 -0.05 Q-10.7 -0.25 -10.9 -0.7 L-11.05 -1.1 -11.1 -1.15 -17.55 -6.1 -17.8 -6.4 -18.15 -6.55 -22.15 -9.55 -22.8 -9.95 -23.05 -10.3 -23.75 -10.75 -24.15 -11.35 -24.35 -11.2 -24.95 -10.9 -26.2 -10.5 Q-27.95 -10.3 -29.35 -11.35 -30.75 -12.45 -31.0 -14.2 L-31.05 -14.65 Q-31.1 -16.15 -30.15 -17.35 -29.25 -18.55 -27.85 -18.85 L-27.35 -19.0 Q-25.6 -19.2 -24.2 -18.15 -22.8 -17.05 -22.55 -15.3 -22.4 -14.1 -22.85 -13.1 L-22.35 -12.95 -18.35 -16.25 -18.1 -16.6 -17.55 -16.9 -15.25 -18.85 -13.35 -22.0 Q-13.05 -22.45 -12.55 -22.6 L-11.6 -22.45 -11.0 -21.7 Q-10.9 -21.15 -11.15 -20.7 L-13.15 -17.35 -13.4 -17.05 -17.85 -13.3 -12.25 -15.0 -8.5 -17.4 -7.55 -17.6 -6.7 -17.05 Q-6.45 -16.6 -6.55 -16.05 -6.7 -15.55 -7.15 -15.25 L-11.05 -12.7 -11.35 -12.55 -18.85 -10.3 -16.6 -8.65 -16.3 -8.35 -15.95 -8.15 -9.55 -3.15 -9.3 -2.95 -0.95 -3.85 -0.4 -3.75 0.55 -3.9" fill="#ff0000" fill-rule="evenodd" stroke="none"/>
  </g>
</svg>
