<?xml version="1.0" encoding="UTF-8" standalone="no"?>
<svg xmlns:ffdec="https://www.free-decompiler.com/flash" xmlns:xlink="http://www.w3.org/1999/xlink" ffdec:objectType="shape" height="48.7px" width="125.5px" xmlns="http://www.w3.org/2000/svg">
  <g transform="matrix(1.0, 0.0, 0.0, 1.0, 62.8, 24.35)">
    <path d="M49.45 -12.85 L48.1 -14.15 47.75 -14.5 47.65 -14.65 43.6 -17.95 -50.55 -17.95 -50.55 -21.85 42.95 -21.85 44.15 -21.75 Q51.25 -20.9 56.5 -15.1 62.7 -8.3 62.7 1.35 62.7 4.65 62.05 7.55 L61.35 9.75 Q59.8 14.15 56.5 17.75 54.6 19.9 52.5 21.35 L52.45 21.35 Q49.0 23.75 44.85 24.35 L-50.55 24.35 -50.55 20.3 43.65 20.3 48.7 15.85 49.55 14.9 Q53.15 10.95 54.75 7.0 55.9 4.1 55.9 1.15 56.0 -5.95 49.45 -12.85" fill="#007f00" fill-rule="evenodd" stroke="none"/>
    <path d="M-50.55 -17.95 L43.6 -17.95 47.65 -14.65 47.75 -14.5 48.1 -14.15 49.45 -12.85 -50.55 -12.85 -50.55 -17.95" fill="#00d88c" fill-rule="evenodd" stroke="none"/>
    <path d="M49.55 14.9 L48.7 15.85 43.65 20.3 -50.55 20.3 -50.55 14.9 49.55 14.9" fill="#007f54" fill-rule="evenodd" stroke="none"/>
    <path d="M55.9 1.15 Q55.9 4.1 54.75 7.0 53.15 10.95 49.55 14.9 L-50.55 14.9 -50.55 1.15 55.9 1.15" fill="#009965" fill-rule="evenodd" stroke="none"/>
    <path d="M49.45 -12.85 Q56.0 -5.95 55.9 1.15 L-50.55 1.15 -50.55 -12.85 49.45 -12.85" fill="#00bf7f" fill-rule="evenodd" stroke="none"/>
    <path d="M-50.3 0.95 Q-52.1 2.5 -54.7 0.95 -57.45 -0.75 -58.95 -4.6 -60.35 -8.35 -62.0 -10.7 -61.0 -10.3 -60.05 -9.0 -56.95 -4.95 -58.95 -9.35 -60.25 -12.2 -61.75 -14.45 -62.6 -15.7 -62.8 -17.15 -61.9 -15.55 -60.45 -14.85 -59.8 -14.5 -58.5 -12.9 -58.45 -15.35 -60.1 -17.35 L-58.3 -15.95 -59.1 -17.3 Q-55.1 -12.6 -55.25 -17.45 L-55.25 -17.6 Q-55.55 -22.9 -50.65 -24.35 -51.2 -21.05 -49.35 -18.2 -48.15 -16.4 -46.05 -14.25 L-43.45 -11.45 Q-43.9 -11.15 -44.25 -8.7 -44.25 -11.45 -46.55 -13.3 -48.8 -15.2 -49.8 -16.7 -51.75 -19.55 -51.55 -23.05 -54.3 -21.1 -54.2 -15.95 -54.1 -10.55 -58.05 -15.55 -57.4 -14.55 -57.2 -13.25 -56.55 -9.45 -55.4 -8.45 -56.9 -8.8 -57.2 -9.45 -58.45 -11.85 -59.6 -12.8 L-56.5 -6.95 Q-55.4 -4.7 -58.0 -5.4 -55.05 0.5 -50.3 0.6 L-50.3 0.95 M-43.45 -11.45 Q-44.85 -14.95 -43.45 -16.75 -44.3 -14.65 -42.6 -11.9 -40.65 -8.7 -40.8 -5.95 -40.9 -2.65 -42.75 0.5 -44.65 3.65 -45.45 3.35 L-45.9 3.2 -45.9 1.85 -45.7 1.6 Q-42.05 -1.25 -41.85 -5.7 L-41.85 -5.8 -41.85 -5.95 -41.85 -6.1 Q-41.95 -7.85 -43.25 -11.0 L-43.45 -11.45" fill="#ff2700" fill-rule="evenodd" stroke="none"/>
    <path d="M-50.3 0.6 Q-55.05 0.5 -58.0 -5.4 -55.4 -4.7 -56.5 -6.95 L-59.6 -12.8 Q-58.45 -11.85 -57.2 -9.45 -56.9 -8.8 -55.4 -8.45 -56.55 -9.45 -57.2 -13.25 -57.4 -14.55 -58.05 -15.55 -54.1 -10.55 -54.2 -15.95 -54.3 -21.1 -51.55 -23.05 -51.75 -19.55 -49.8 -16.7 -48.8 -15.2 -46.55 -13.3 -44.25 -11.45 -44.25 -8.7 -43.9 -11.15 -43.45 -11.45 L-43.25 -11.0 Q-41.95 -7.85 -41.85 -6.1 L-41.85 -5.95 -41.85 -5.8 -41.85 -5.7 Q-42.05 -1.25 -45.7 1.6 L-45.9 1.85 -45.9 1.8 -44.35 -2.45 Q-43.9 -4.05 -43.9 -5.5 -43.9 -6.95 -44.6 -8.5 L-45.6 -10.25 -45.7 -9.8 -46.0 -9.6 -46.35 -9.6 -46.55 -10.35 -46.8 -10.3 -47.15 -10.25 Q-47.6 -10.25 -48.05 -11.55 L-48.6 -13.3 -49.8 -14.95 -50.95 -16.25 -51.0 -16.45 -51.1 -16.45 -50.95 -16.25 -50.7 -15.85 Q-50.4 -15.5 -50.4 -15.1 -50.4 -14.45 -50.55 -13.9 L-50.85 -15.25 -50.75 -13.4 -50.85 -13.1 -51.0 -13.6 -51.0 -13.35 -50.9 -13.0 -51.65 -12.35 Q-52.15 -13.25 -52.65 -15.8 L-52.7 -15.8 -53.55 -13.5 -53.85 -11.7 -53.7 -10.85 -53.35 -9.95 -53.4 -9.95 -53.6 -10.15 -53.65 -10.3 -53.65 -10.15 -54.45 -10.7 -55.1 -11.2 -55.4 -11.6 -55.45 -11.6 -55.1 -11.2 -54.9 -10.8 Q-54.5 -10.35 -54.5 -9.8 L-54.75 -8.9 -54.9 -8.0 -54.65 -7.05 -54.0 -6.05 Q-55.1 -6.55 -55.2 -7.05 L-55.05 -5.05 Q-54.9 -4.05 -54.2 -3.6 L-54.25 -3.6 -54.9 -3.9 -55.4 -4.25 -55.4 -4.3 -55.45 -4.3 -55.4 -4.25 Q-55.6 -3.05 -53.0 -1.1 L-51.1 0.15 -50.3 0.4 -50.3 0.6" fill="#ff6600" fill-rule="evenodd" stroke="none"/>
    <path d="M-50.55 -13.9 Q-50.4 -14.45 -50.4 -15.1 -50.4 -15.5 -50.7 -15.85 L-50.95 -16.25 -51.1 -16.45 -51.0 -16.45 -50.95 -16.25 -49.8 -14.95 -48.6 -13.3 -48.05 -11.55 Q-47.6 -10.25 -47.15 -10.25 L-46.8 -10.3 -46.55 -10.35 -46.35 -9.6 -46.0 -9.6 -45.7 -9.8 -45.6 -10.25 -44.6 -8.5 Q-43.9 -6.95 -43.9 -5.5 -43.9 -4.05 -44.35 -2.45 L-45.9 1.8 -45.9 1.35 Q-45.45 0.25 -45.45 -0.65 -45.45 -1.5 -45.75 -1.75 L-46.05 -2.45 -45.7 -4.55 Q-45.3 -5.9 -45.9 -4.45 -45.6 -6.2 -45.85 -6.3 -46.15 -6.5 -45.35 -9.6 -45.7 -8.35 -46.9 -7.3 -46.85 -8.65 -48.55 -10.3 -49.8 -11.55 -50.55 -13.9 M-53.6 -10.15 L-53.4 -9.95 -53.35 -9.95 -53.7 -10.85 -53.85 -11.7 -53.55 -13.5 -52.7 -15.8 -52.65 -15.8 Q-52.15 -13.25 -51.65 -12.35 L-50.9 -13.0 -50.6 -11.9 -50.5 -10.6 -50.6 -9.3 Q-50.85 -8.6 -51.8 -8.6 -52.35 -8.6 -53.0 -9.25 L-53.6 -10.15 M-50.85 -13.1 L-50.75 -13.4 -50.65 -13.1 Q-50.45 -11.95 -50.85 -13.1 M-50.3 0.4 L-51.1 0.15 -53.0 -1.1 Q-55.6 -3.05 -55.4 -4.25 L-55.45 -4.3 -55.4 -4.3 -55.4 -4.25 -54.9 -3.9 -54.25 -3.6 -54.2 -3.6 Q-54.9 -4.05 -55.05 -5.05 L-55.2 -7.05 Q-55.1 -6.55 -54.0 -6.05 L-54.65 -7.05 -54.9 -8.0 -54.75 -8.9 -54.5 -9.8 Q-54.5 -10.35 -54.9 -10.8 L-55.1 -11.2 -55.45 -11.6 -55.4 -11.6 -55.1 -11.2 -54.45 -10.7 -53.65 -10.15 -53.65 -9.6 Q-53.65 -8.85 -53.05 -7.75 L-51.95 -5.55 -52.65 -5.55 -53.65 -6.5 -54.75 -7.75 -54.75 -7.65 Q-52.75 -5.15 -51.7 -3.05 L-52.55 -3.35 -53.55 -3.95 -53.45 -3.8 Q-52.55 -2.65 -50.7 -1.5 L-49.25 -0.45 -49.3 -0.4 -50.1 -0.25 -50.25 -0.2 -50.3 -0.05 -50.3 0.4" fill="#ff9900" fill-rule="evenodd" stroke="none"/>
    <path d="M-50.9 -13.0 L-51.0 -13.35 -51.0 -13.6 -50.85 -13.1 Q-50.45 -11.95 -50.65 -13.1 L-50.75 -13.4 -50.85 -15.25 -50.55 -13.9 Q-49.8 -11.55 -48.55 -10.3 -46.85 -8.65 -46.9 -7.3 -45.7 -8.35 -45.35 -9.6 -46.15 -6.5 -45.85 -6.3 -45.6 -6.2 -45.9 -4.45 -45.3 -5.9 -45.7 -4.55 L-46.05 -2.45 -45.75 -1.75 Q-45.45 -1.5 -45.45 -0.65 -45.45 0.25 -45.9 1.35 L-45.9 0.1 -45.95 -0.05 -46.05 -0.05 -46.55 -0.2 -46.75 -0.35 -46.8 -0.4 -46.9 -0.5 Q-46.9 -1.55 -47.4 -2.45 L-47.95 -3.25 -47.8 -3.8 -47.7 -4.2 -48.25 -3.8 -48.5 -3.9 -48.6 -4.25 -48.25 -5.35 -47.95 -6.5 -48.25 -7.25 -48.75 -7.85 -49.25 -8.9 -49.5 -9.85 -49.55 -9.8 -49.55 -9.65 -49.1 -8.4 -48.85 -7.15 Q-48.85 -6.6 -49.0 -6.4 L-49.55 -6.2 Q-51.3 -6.2 -52.2 -7.85 L-52.2 -7.65 Q-52.2 -6.95 -51.1 -6.0 -50.0 -5.0 -50.0 -4.3 -50.0 -3.9 -50.3 -3.9 L-50.85 -4.25 -51.3 -4.75 -51.3 -4.6 Q-51.3 -4.0 -50.8 -3.35 L-49.45 -1.95 -49.45 -1.65 -49.95 -1.85 -50.65 -2.15 -50.65 -2.1 -48.75 -0.65 -49.1 -0.45 -49.25 -0.45 -50.7 -1.5 Q-52.55 -2.65 -53.45 -3.8 L-53.55 -3.95 -52.55 -3.35 -51.7 -3.05 Q-52.75 -5.15 -54.75 -7.65 L-54.75 -7.75 -53.65 -6.5 -52.65 -5.55 -51.95 -5.55 -53.05 -7.75 Q-53.65 -8.85 -53.65 -9.6 L-53.65 -10.15 -53.65 -10.3 -53.6 -10.15 -53.0 -9.25 Q-52.35 -8.6 -51.8 -8.6 -50.85 -8.6 -50.6 -9.3 L-50.5 -10.6 -50.6 -11.9 -50.9 -13.0" fill="#ffff00" fill-rule="evenodd" stroke="none"/>
    <path d="M-48.75 -0.65 L-50.65 -2.1 -50.65 -2.15 -49.95 -1.85 -49.45 -1.65 -49.45 -1.95 -50.8 -3.35 Q-51.3 -4.0 -51.3 -4.6 L-51.3 -4.75 -50.85 -4.25 -50.3 -3.9 Q-50.0 -3.9 -50.0 -4.3 -50.0 -5.0 -51.1 -6.0 -52.2 -6.95 -52.2 -7.65 L-52.2 -7.85 Q-51.3 -6.2 -49.55 -6.2 L-49.0 -6.4 Q-48.85 -6.6 -48.85 -7.15 L-49.1 -8.4 -49.55 -9.65 -49.55 -9.8 -49.5 -9.85 -49.25 -8.9 -48.75 -7.85 -48.25 -7.25 -47.95 -6.5 -48.25 -5.35 -48.6 -4.25 -48.5 -3.9 -48.25 -3.8 -47.7 -4.2 -47.8 -3.8 -47.95 -3.25 -47.4 -2.45 Q-46.9 -1.55 -46.9 -0.5 -47.25 -0.8 -47.3 -1.4 L-47.4 -1.55 -47.55 -1.55 -48.75 -1.55 -48.85 -1.55 -48.9 -1.4 -48.85 -1.25 Q-48.6 -1.0 -48.7 -0.7 L-48.75 -0.65" fill="#ffff99" fill-rule="evenodd" stroke="none"/>
    <path d="M-50.3 0.95 L-50.3 0.6 -50.3 0.4 -50.3 -0.05 -50.25 -0.2 -50.1 -0.25 -49.3 -0.4 -49.25 -0.45 -49.1 -0.45 -48.75 -0.65 -48.7 -0.7 Q-48.6 -1.0 -48.85 -1.25 L-48.9 -1.4 -48.85 -1.55 -48.75 -1.55 -47.55 -1.55 -47.4 -1.55 -47.3 -1.4 Q-47.25 -0.8 -46.9 -0.5 L-46.8 -0.4 -46.75 -0.35 -46.55 -0.2 -46.05 -0.05 -45.95 -0.05 -45.9 0.1 -45.9 1.35 -45.9 1.8 -45.9 1.85 -45.9 3.2 -45.9 24.1 -46.0 24.25 -46.15 24.35 -50.4 24.35 -50.5 24.25 -50.55 24.1 -50.3 0.95 M-47.7 -1.15 L-48.4 -1.15 -48.35 -0.55 -48.55 -0.4 Q-48.75 -0.2 -49.05 -0.1 L-49.25 -0.05 -49.9 0.05 -50.25 24.0 -49.25 24.0 -48.55 24.0 -47.7 24.0 -46.7 24.0 -46.3 24.0 -46.3 0.2 -46.7 0.1 -46.75 0.05 -47.0 -0.05 -47.1 -0.15 -47.7 -1.15" fill="#999900" fill-rule="evenodd" stroke="none"/>
    <path d="M-49.25 24.0 L-50.25 24.0 -49.9 0.05 -49.25 -0.05 -49.05 -0.1 Q-48.75 -0.2 -48.55 -0.4 L-48.35 -0.55 -48.4 -1.15 -47.7 -1.15 -47.7 4.9 -47.9 4.75 -48.15 4.5 -48.2 4.45 -48.35 4.45 -48.4 4.7 -48.4 5.6 Q-48.4 6.0 -48.55 6.1 L-48.85 6.3 Q-49.2 6.3 -49.25 5.75 L-49.25 5.6 -49.25 5.1 -49.3 5.05 -49.4 5.7 -49.75 9.75 -49.6 11.0 -49.5 12.35 -49.6 13.85 -49.65 15.35 -49.25 17.2 -49.25 24.0 M-46.7 0.1 L-46.3 0.2 -46.3 24.0 -46.7 24.0 -46.7 0.1 M-47.7 24.0 L-48.55 24.0 -48.55 19.2 -47.7 21.5 -47.7 24.0 M-47.25 5.2 L-47.25 5.4 -47.4 5.7 -47.7 5.85 -47.75 5.9 -48.05 6.05 -48.1 6.1 -48.1 6.0 -47.85 5.6 -47.7 5.45 -47.45 5.15 -47.25 5.2 M-48.5 7.95 L-48.2 7.8 Q-48.05 7.8 -47.9 8.15 L-47.7 8.4 -47.6 8.75 -47.55 8.9 -47.7 8.9 -48.75 10.0 -48.75 9.65 -48.85 9.7 Q-49.25 10.0 -48.45 8.0 L-48.5 8.0 -48.5 7.95" fill="#99cc00" fill-rule="evenodd" stroke="none"/>
    <path d="M-47.7 -1.15 L-47.1 -0.15 -47.0 -0.05 -46.75 0.05 -46.7 0.1 -46.7 24.0 -47.7 24.0 -47.7 21.5 -48.55 19.2 -48.55 24.0 -49.25 24.0 -49.25 17.2 -49.65 15.35 -49.6 13.85 -49.5 12.35 -49.6 11.0 -49.75 9.75 -49.4 5.7 -49.3 5.05 -49.25 5.1 -49.25 5.6 -49.25 5.75 Q-49.2 6.3 -48.85 6.3 L-48.55 6.1 Q-48.4 6.0 -48.4 5.6 L-48.4 4.7 -48.35 4.45 -48.2 4.45 -48.15 4.5 -47.9 4.75 -47.7 4.9 -47.7 -1.15 M-47.25 5.2 L-47.45 5.15 -47.7 5.45 -47.85 5.6 -48.1 6.0 -48.1 6.1 -48.05 6.05 -47.75 5.9 -47.7 5.85 -47.4 5.7 -47.25 5.4 -47.25 5.2 M-48.5 7.95 L-48.5 8.0 -48.45 8.0 Q-49.25 10.0 -48.85 9.7 L-48.75 9.65 -48.75 10.0 -47.7 8.9 -47.55 8.9 -47.6 8.75 -47.7 8.4 -47.9 8.15 Q-48.05 7.8 -48.2 7.8 L-48.5 7.95" fill="#e7ff18" fill-rule="evenodd" stroke="none"/>
    <path d="M-33.9 -4.65 Q-31.75 -4.65 -30.2 -2.95 -28.65 -1.25 -28.65 1.1 -28.65 3.5 -30.2 5.15 -31.75 6.9 -33.9 6.9 -36.05 6.9 -37.6 5.15 -39.15 3.5 -39.15 1.1 -39.15 -1.25 -37.6 -2.95 -36.05 -4.65 -33.9 -4.65" fill="#99cc00" fill-opacity="0.7019608" fill-rule="evenodd" stroke="none"/>
    <path d="M43.85 -18.35 Q44.7 -19.25 45.85 -19.25 47.05 -19.25 47.85 -18.35 48.7 -17.45 48.7 -16.15 48.7 -14.9 47.85 -13.95 47.05 -13.05 45.85 -13.05 44.7 -13.05 43.85 -13.95 43.05 -14.9 43.05 -16.15 43.05 -17.45 43.85 -18.35" fill="#e7ff18" fill-opacity="0.7019608" fill-rule="evenodd" stroke="none"/>
    <path d="M33.45 -20.35 Q35.0 -20.35 36.1 -19.1 37.2 -17.9 37.2 -16.15 37.2 -14.45 36.1 -13.25 35.0 -12.0 33.45 -12.0 31.85 -12.0 30.75 -13.25 29.6 -14.45 29.6 -16.15 29.6 -17.9 30.75 -19.1 31.85 -20.35 33.45 -20.35" fill="#99cc00" fill-opacity="0.7019608" fill-rule="evenodd" stroke="none"/>
    <path d="M46.5 13.25 Q48.05 14.95 48.05 17.2 48.05 19.55 46.5 21.2 45.0 22.75 42.95 22.75 40.85 22.75 39.35 21.2 37.9 19.55 37.9 17.2 37.9 14.95 39.35 13.25 40.85 11.6 42.95 11.6 45.0 11.6 46.5 13.25" fill="#e7ff18" fill-opacity="0.7019608" fill-rule="evenodd" stroke="none"/>
    <path d="M-30.7 -10.35 Q-31.3 -11.0 -31.3 -11.9 -31.3 -12.85 -30.7 -13.5 -30.1 -14.15 -29.3 -14.15 -28.4 -14.15 -27.85 -13.5 -27.25 -12.85 -27.25 -11.9 -27.25 -11.0 -27.85 -10.35 -28.4 -9.7 -29.3 -9.7 -30.1 -9.7 -30.7 -10.35" fill="#e7ff18" fill-opacity="0.7019608" fill-rule="evenodd" stroke="none"/>
    <path d="M-40.55 -21.55 Q-39.2 -21.55 -38.25 -20.5 -37.3 -19.5 -37.3 -18.0 -37.3 -16.5 -38.25 -15.5 -39.2 -14.45 -40.55 -14.45 -41.9 -14.45 -42.8 -15.5 -43.75 -16.5 -43.75 -18.0 -43.75 -19.5 -42.8 -20.5 -41.9 -21.55 -40.55 -21.55" fill="#99cc00" fill-opacity="0.7019608" fill-rule="evenodd" stroke="none"/>
  </g>
</svg>
