<?xml version="1.0" encoding="UTF-8" standalone="no"?>
<svg xmlns:ffdec="https://www.free-decompiler.com/flash" xmlns:xlink="http://www.w3.org/1999/xlink" ffdec:objectType="shape" height="54.1px" width="139.45px" xmlns="http://www.w3.org/2000/svg">
  <g transform="matrix(1.0, 0.0, 0.0, 1.0, 69.75, 27.05)">
    <path d="M-56.15 -19.95 L48.5 -19.95 52.95 -16.3 53.1 -16.1 53.5 -15.75 54.95 -14.3 -56.15 -14.3 -56.15 -19.95" fill="#00d88c" fill-rule="evenodd" stroke="none"/>
    <path d="M-56.15 -19.95 L-56.15 -24.3 47.75 -24.3 49.1 -24.15 Q57.0 -23.2 62.8 -16.8 69.7 -9.2 69.7 1.5 69.7 5.15 68.95 8.4 L68.2 10.85 Q66.5 15.75 62.8 19.75 60.7 22.1 58.35 23.7 L58.3 23.7 58.3 23.75 Q54.45 26.4 49.85 27.05 L-56.15 27.05 -56.15 22.55 48.55 22.55 54.15 17.6 55.1 16.55 Q59.1 12.15 60.85 7.8 62.15 4.55 62.15 1.3 62.25 -6.6 54.95 -14.3 L53.5 -15.75 53.1 -16.1 52.95 -16.3 48.5 -19.95 -56.15 -19.95" fill="#007f00" fill-rule="evenodd" stroke="none"/>
    <path d="M54.95 -14.3 Q62.25 -6.6 62.15 1.3 L-56.15 1.3 -56.15 -14.3 54.95 -14.3" fill="#00bf7f" fill-rule="evenodd" stroke="none"/>
    <path d="M62.15 1.3 Q62.15 4.55 60.85 7.8 59.1 12.15 55.1 16.55 L-56.15 16.55 -56.15 1.3 62.15 1.3" fill="#009965" fill-rule="evenodd" stroke="none"/>
    <path d="M55.1 16.55 L54.15 17.6 48.55 22.55 -56.15 22.55 -56.15 16.55 55.1 16.55" fill="#007f54" fill-rule="evenodd" stroke="none"/>
    <path d="M-55.85 1.05 Q-57.85 2.8 -60.75 1.05 -63.8 -0.85 -65.45 -5.1 -67.05 -9.3 -68.85 -11.9 -67.75 -11.45 -66.7 -10.0 -63.25 -5.5 -65.5 -10.4 -66.9 -13.55 -68.6 -16.05 -69.55 -17.45 -69.75 -19.05 -68.75 -17.3 -67.15 -16.5 -66.4 -16.1 -64.95 -14.35 -64.9 -17.05 -66.75 -19.3 L-64.7 -17.6 Q-65.35 -18.4 -65.65 -19.25 -61.2 -14.0 -61.35 -19.4 L-61.35 -19.55 Q-61.7 -25.45 -56.25 -27.05 -56.85 -23.4 -54.8 -20.25 -53.45 -18.2 -51.15 -15.85 L-48.25 -12.7 Q-48.75 -12.4 -49.15 -9.65 -49.15 -12.7 -51.7 -14.8 -54.2 -16.9 -55.3 -18.55 -57.45 -21.75 -57.25 -25.6 -60.3 -23.45 -60.2 -17.75 -60.1 -11.75 -64.5 -17.3 -63.75 -16.15 -63.55 -14.75 -62.8 -10.5 -61.55 -9.4 -63.2 -9.8 -63.55 -10.5 -64.9 -13.15 -66.2 -14.2 L-62.75 -7.7 Q-61.55 -5.2 -64.4 -6.0 -61.15 0.55 -55.85 0.65 L-55.85 1.05 M-48.25 -12.7 Q-49.8 -16.6 -48.25 -18.6 -49.2 -16.3 -47.3 -13.2 -45.15 -9.65 -45.3 -6.6 -45.4 -2.95 -47.5 0.55 -49.6 4.05 -50.5 3.75 -50.8 3.85 -51.0 3.55 L-51.0 2.05 -50.75 1.8 Q-46.7 -1.4 -46.45 -6.35 L-46.45 -6.45 -46.45 -6.6 -46.45 -6.8 Q-46.6 -8.75 -48.05 -12.25 L-48.25 -12.7" fill="#ff2700" fill-rule="evenodd" stroke="none"/>
    <path d="M-55.85 0.65 Q-61.15 0.55 -64.4 -6.0 -61.55 -5.2 -62.75 -7.7 L-66.2 -14.2 Q-64.9 -13.15 -63.55 -10.5 -63.2 -9.8 -61.55 -9.4 -62.8 -10.5 -63.55 -14.75 -63.75 -16.15 -64.5 -17.3 -60.1 -11.75 -60.2 -17.75 -60.3 -23.45 -57.25 -25.6 -57.45 -21.75 -55.3 -18.55 -54.2 -16.9 -51.7 -14.8 -49.15 -12.7 -49.15 -9.65 -48.75 -12.4 -48.25 -12.7 L-48.05 -12.25 Q-46.6 -8.75 -46.45 -6.8 L-46.45 -6.6 -46.45 -6.45 -46.45 -6.35 Q-46.7 -1.4 -50.75 1.8 L-51.0 2.05 -51.0 2.0 Q-49.75 -1.15 -49.25 -2.75 -48.75 -4.5 -48.75 -6.1 -48.75 -7.7 -49.55 -9.45 L-50.65 -11.4 -50.75 -10.9 -51.1 -10.65 -51.5 -10.65 -51.7 -11.5 -52.0 -11.45 -52.35 -11.4 Q-52.85 -11.4 -53.35 -12.85 L-54.0 -14.8 -55.3 -16.6 -56.6 -18.05 -56.65 -18.3 -56.75 -18.3 -56.6 -18.05 -56.3 -17.6 Q-56.0 -17.2 -56.0 -16.8 -56.0 -16.05 -56.15 -15.45 L-56.5 -16.95 -56.35 -14.9 -56.45 -14.55 -56.65 -15.1 -56.65 -14.85 -56.55 -14.45 Q-56.9 -13.95 -57.35 -13.75 -57.9 -14.7 -58.5 -17.55 L-58.55 -17.55 -59.45 -15.0 -59.8 -13.0 -59.65 -12.05 -59.25 -11.05 -59.3 -11.05 -59.55 -11.3 -59.6 -11.45 -59.6 -11.3 -60.45 -11.9 -61.2 -12.45 -61.55 -12.9 -61.6 -12.9 -61.2 -12.45 -60.95 -12.0 Q-60.55 -11.5 -60.55 -10.9 L-60.8 -9.9 -61.0 -8.9 -60.7 -7.85 -59.95 -6.7 Q-61.2 -7.3 -61.3 -7.85 L-61.15 -5.6 Q-61.0 -4.5 -60.2 -4.0 L-60.25 -4.0 Q-60.7 -4.15 -61.0 -4.35 L-61.55 -4.7 -61.55 -4.8 -61.6 -4.8 -61.55 -4.7 Q-61.75 -3.4 -58.85 -1.2 -57.2 0.05 -56.75 0.15 L-55.85 0.45 -55.85 0.65" fill="#ff6600" fill-rule="evenodd" stroke="none"/>
    <path d="M-55.85 0.45 L-56.75 0.15 Q-57.2 0.05 -58.85 -1.2 -61.75 -3.4 -61.55 -4.7 L-61.6 -4.8 -61.55 -4.8 -61.55 -4.7 -61.0 -4.35 Q-60.7 -4.15 -60.25 -4.0 L-60.2 -4.0 Q-61.0 -4.5 -61.15 -5.6 L-61.3 -7.85 Q-61.2 -7.3 -59.95 -6.7 L-60.7 -7.85 -61.0 -8.9 -60.8 -9.9 -60.55 -10.9 Q-60.55 -11.5 -60.95 -12.0 L-61.2 -12.45 -61.6 -12.9 -61.55 -12.9 -61.2 -12.45 -60.45 -11.9 -59.6 -11.3 -59.6 -10.65 Q-59.6 -9.85 -58.9 -8.6 L-57.7 -6.15 -58.45 -6.15 -59.6 -7.2 -60.8 -8.6 -60.8 -8.5 Q-58.6 -5.75 -57.4 -3.4 -57.9 -3.5 -58.35 -3.75 L-59.5 -4.4 -59.35 -4.25 Q-58.35 -2.95 -56.3 -1.65 L-54.7 -0.5 -54.75 -0.45 -55.65 -0.3 -55.8 -0.2 -55.85 -0.05 -55.85 0.45 M-59.55 -11.3 L-59.3 -11.05 -59.25 -11.05 -59.65 -12.05 -59.8 -13.0 -59.45 -15.0 -58.55 -17.55 -58.5 -17.55 Q-57.9 -14.7 -57.35 -13.75 -56.9 -13.95 -56.55 -14.45 L-56.2 -13.25 -56.1 -11.8 -56.2 -10.35 Q-56.45 -9.55 -57.55 -9.55 -58.15 -9.55 -58.85 -10.3 -59.45 -10.85 -59.55 -11.3 M-56.45 -14.55 L-56.35 -14.9 -56.25 -14.55 Q-56.05 -13.3 -56.45 -14.55 M-56.15 -15.45 Q-56.0 -16.05 -56.0 -16.8 -56.0 -17.2 -56.3 -17.6 L-56.6 -18.05 -56.75 -18.3 -56.65 -18.3 -56.6 -18.05 -55.3 -16.6 -54.0 -14.8 -53.35 -12.85 Q-52.85 -11.4 -52.35 -11.4 L-52.0 -11.45 -51.7 -11.5 -51.5 -10.65 -51.1 -10.65 -50.75 -10.9 -50.65 -11.4 -49.55 -9.45 Q-48.75 -7.7 -48.75 -6.1 -48.75 -4.5 -49.25 -2.75 -49.75 -1.15 -51.0 2.0 L-51.0 1.5 Q-50.45 0.3 -50.45 -0.7 -50.45 -1.65 -50.8 -1.95 -51.15 -2.3 -51.15 -2.7 L-50.75 -5.05 Q-50.3 -6.55 -51.0 -4.95 -50.65 -6.9 -50.9 -7.0 -51.25 -7.2 -50.35 -10.65 -50.75 -9.3 -52.1 -8.1 -52.05 -9.6 -53.9 -11.45 -55.3 -12.85 -56.15 -15.45" fill="#ff9900" fill-rule="evenodd" stroke="none"/>
    <path d="M-59.6 -11.3 L-59.6 -11.45 -59.55 -11.3 Q-59.45 -10.85 -58.85 -10.3 -58.15 -9.55 -57.55 -9.55 -56.45 -9.55 -56.2 -10.35 L-56.1 -11.8 -56.2 -13.25 -56.55 -14.45 -56.65 -14.85 -56.65 -15.1 -56.45 -14.55 Q-56.05 -13.3 -56.25 -14.55 L-56.35 -14.9 -56.5 -16.95 -56.15 -15.45 Q-55.3 -12.85 -53.9 -11.45 -52.05 -9.6 -52.1 -8.1 -50.75 -9.3 -50.35 -10.65 -51.25 -7.2 -50.9 -7.0 -50.65 -6.9 -51.0 -4.95 -50.3 -6.55 -50.75 -5.05 L-51.15 -2.7 Q-51.15 -2.3 -50.8 -1.95 -50.45 -1.65 -50.45 -0.7 -50.45 0.3 -51.0 1.5 L-51.0 0.1 -51.05 -0.05 -51.15 -0.05 -51.7 -0.25 -51.9 -0.4 -51.95 -0.45 -52.1 -0.55 Q-52.1 -1.75 -52.65 -2.7 L-53.25 -3.6 -53.1 -4.2 -53.0 -4.65 -53.6 -4.2 Q-53.75 -4.2 -53.85 -4.35 L-54.0 -4.7 -53.6 -5.95 Q-53.25 -6.9 -53.25 -7.2 -53.25 -7.6 -53.6 -8.05 L-54.15 -8.75 -54.7 -9.9 -55.0 -10.95 -55.05 -10.9 -55.05 -10.75 -54.55 -9.35 Q-54.25 -8.6 -54.25 -7.95 -54.25 -7.35 -54.4 -7.1 -54.55 -6.9 -55.05 -6.9 -56.95 -6.9 -58.0 -8.75 L-58.0 -8.5 Q-58.0 -7.7 -56.75 -6.65 -55.55 -5.55 -55.55 -4.8 -55.55 -4.35 -55.85 -4.35 -56.1 -4.35 -56.5 -4.7 L-56.95 -5.3 -56.95 -5.1 Q-56.95 -4.45 -56.4 -3.75 L-54.9 -2.15 -54.9 -1.85 -55.5 -2.05 -56.25 -2.4 -56.25 -2.35 -54.15 -0.7 -54.55 -0.5 -54.7 -0.5 -56.3 -1.65 Q-58.35 -2.95 -59.35 -4.25 L-59.5 -4.4 -58.35 -3.75 Q-57.9 -3.5 -57.4 -3.4 -58.6 -5.75 -60.8 -8.5 L-60.8 -8.6 -59.6 -7.2 -58.45 -6.15 -57.7 -6.15 -58.9 -8.6 Q-59.6 -9.85 -59.6 -10.65 L-59.6 -11.3" fill="#ffff00" fill-rule="evenodd" stroke="none"/>
    <path d="M-54.15 -0.7 L-56.25 -2.35 -56.25 -2.4 -55.5 -2.05 -54.9 -1.85 -54.9 -2.15 -56.4 -3.75 Q-56.95 -4.45 -56.95 -5.1 L-56.95 -5.3 -56.5 -4.7 Q-56.1 -4.35 -55.85 -4.35 -55.55 -4.35 -55.55 -4.8 -55.55 -5.55 -56.75 -6.65 -58.0 -7.7 -58.0 -8.5 L-58.0 -8.75 Q-56.95 -6.9 -55.05 -6.9 -54.55 -6.9 -54.4 -7.1 -54.25 -7.35 -54.25 -7.95 -54.25 -8.6 -54.55 -9.35 L-55.05 -10.75 -55.05 -10.9 -55.0 -10.95 -54.7 -9.9 -54.15 -8.75 -53.6 -8.05 Q-53.25 -7.6 -53.25 -7.2 -53.25 -6.9 -53.6 -5.95 L-54.0 -4.7 -53.85 -4.35 Q-53.75 -4.2 -53.6 -4.2 L-53.0 -4.65 -53.1 -4.2 -53.25 -3.6 -52.65 -2.7 Q-52.1 -1.75 -52.1 -0.55 L-52.55 -1.55 -52.65 -1.7 -52.8 -1.75 -54.15 -1.75 -54.25 -1.7 -54.3 -1.55 -54.25 -1.4 Q-54.0 -1.1 -54.1 -0.8 L-54.15 -0.7" fill="#ffff99" fill-rule="evenodd" stroke="none"/>
    <path d="M-55.85 1.05 L-55.85 0.65 -55.85 0.45 -55.85 -0.05 -55.8 -0.2 -55.65 -0.3 -54.75 -0.45 -54.7 -0.5 -54.55 -0.5 -54.15 -0.7 -54.1 -0.8 Q-54.0 -1.1 -54.25 -1.4 L-54.3 -1.55 -54.25 -1.7 -54.15 -1.75 -52.8 -1.75 -52.65 -1.7 -52.55 -1.55 -52.1 -0.55 -51.95 -0.45 -51.9 -0.4 -51.7 -0.25 -51.15 -0.05 -51.05 -0.05 -51.0 0.1 -51.0 1.5 -51.0 2.0 -51.0 2.05 -51.0 3.55 -51.0 26.8 -51.1 26.95 -51.25 27.05 -55.95 27.05 -56.1 26.95 -56.15 26.8 -55.85 1.05 M-53.0 -1.3 L-53.75 -1.3 Q-53.6 -0.95 -53.7 -0.6 L-53.9 -0.45 -54.45 -0.1 -54.5 -0.1 -54.7 -0.05 -55.4 0.05 -55.8 26.65 -54.7 26.65 -53.9 26.65 -53.0 26.65 -51.85 26.65 -51.4 26.65 -51.4 0.25 -51.85 0.1 -51.9 0.05 -52.2 -0.05 -52.3 -0.15 Q-52.8 -0.6 -52.95 -1.3 L-53.0 -1.3" fill="#999900" fill-rule="evenodd" stroke="none"/>
    <path d="M-54.7 26.65 L-55.8 26.65 -55.4 0.05 -54.7 -0.05 -54.5 -0.1 -54.45 -0.1 -53.9 -0.45 -53.7 -0.6 Q-53.6 -0.95 -53.75 -1.3 L-53.0 -1.3 -53.0 5.45 -53.2 5.3 -53.5 5.0 -53.55 4.95 -53.7 4.95 -53.75 5.25 -53.75 6.2 Q-53.75 6.65 -53.9 6.8 L-54.25 7.0 Q-54.65 7.0 -54.7 6.4 L-54.7 6.2 -54.7 5.65 -54.75 5.6 -54.85 6.35 -55.25 10.85 -55.1 12.2 -54.95 13.7 -55.1 15.4 -55.15 17.05 -54.7 19.1 -54.7 26.65 M-51.85 0.1 L-51.4 0.25 -51.4 26.65 -51.85 26.65 -51.85 0.1 M-53.0 26.65 L-53.9 26.65 -53.9 21.35 -53.0 23.9 -53.0 26.65 M-52.5 5.8 L-52.5 6.0 -52.65 6.35 -53.0 6.5 -53.05 6.55 -53.35 6.7 -53.4 6.8 -53.4 6.65 -53.15 6.25 -53.0 6.05 -52.7 5.75 -52.5 5.8 M-53.85 8.85 L-53.55 8.65 -53.2 9.05 -53.0 9.35 -52.85 9.7 -52.8 9.9 -53.0 9.9 -54.15 11.1 -54.15 10.7 -54.25 10.8 Q-54.7 11.1 -53.8 8.9 L-53.85 8.9 -53.85 8.85" fill="#99cc00" fill-rule="evenodd" stroke="none"/>
    <path d="M-53.0 -1.3 L-52.95 -1.3 Q-52.8 -0.6 -52.3 -0.15 L-52.2 -0.05 -51.9 0.05 -51.85 0.1 -51.85 26.65 -53.0 26.65 -53.0 23.9 -53.9 21.35 -53.9 26.65 -54.7 26.65 -54.7 19.1 -55.15 17.05 -55.1 15.4 -54.95 13.7 -55.1 12.2 -55.25 10.85 -54.85 6.35 -54.75 5.6 -54.7 5.65 -54.7 6.2 -54.7 6.4 Q-54.65 7.0 -54.25 7.0 L-53.9 6.8 Q-53.75 6.65 -53.75 6.2 L-53.75 5.25 -53.7 4.95 -53.55 4.95 -53.5 5.0 -53.2 5.3 -53.0 5.45 -53.0 -1.3 M-52.5 5.8 L-52.7 5.75 -53.0 6.05 -53.15 6.25 -53.4 6.65 -53.4 6.8 -53.35 6.7 -53.05 6.55 -53.0 6.5 -52.65 6.35 -52.5 6.0 -52.5 5.8 M-53.85 8.85 L-53.85 8.9 -53.8 8.9 Q-54.7 11.1 -54.25 10.8 L-54.15 10.7 -54.15 11.1 -53.0 9.9 -52.8 9.9 -52.85 9.7 -53.0 9.35 -53.2 9.05 -53.55 8.65 -53.85 8.85" fill="#e7ff18" fill-rule="evenodd" stroke="none"/>
    <path d="M-37.65 -5.15 Q-35.25 -5.15 -33.6 -3.3 -31.85 -1.4 -31.85 1.25 -31.85 3.9 -33.6 5.75 -35.25 7.65 -37.65 7.65 -40.1 7.65 -41.8 5.75 -43.5 3.9 -43.5 1.25 -43.5 -1.4 -41.8 -3.3 -40.1 -5.15 -37.65 -5.15" fill="#99cc00" fill-opacity="0.7019608" fill-rule="evenodd" stroke="none"/>
    <path d="M48.75 -20.4 Q49.7 -21.4 50.95 -21.4 52.25 -21.4 53.2 -20.4 54.1 -19.4 54.1 -17.95 54.1 -16.55 53.2 -15.5 52.25 -14.5 50.95 -14.5 49.7 -14.5 48.75 -15.5 47.8 -16.55 47.8 -17.95 47.8 -19.4 48.75 -20.4" fill="#e7ff18" fill-opacity="0.7019608" fill-rule="evenodd" stroke="none"/>
    <path d="M37.15 -22.6 Q38.85 -22.6 40.1 -21.25 41.3 -19.9 41.3 -17.95 41.3 -16.05 40.1 -14.7 38.85 -13.35 37.15 -13.35 35.35 -13.35 34.15 -14.7 32.9 -16.05 32.9 -17.95 32.9 -19.9 34.15 -21.25 35.35 -22.6 37.15 -22.6" fill="#99cc00" fill-opacity="0.7019608" fill-rule="evenodd" stroke="none"/>
    <path d="M51.7 14.75 Q53.35 16.6 53.35 19.1 53.35 21.7 51.7 23.55 50.0 25.3 47.75 25.3 45.35 25.3 43.75 23.55 42.1 21.7 42.1 19.1 42.1 16.6 43.75 14.75 45.35 12.9 47.75 12.9 50.0 12.9 51.7 14.75" fill="#e7ff18" fill-opacity="0.7019608" fill-rule="evenodd" stroke="none"/>
    <path d="M-34.15 -11.5 Q-34.75 -12.25 -34.75 -13.25 -34.75 -14.3 -34.15 -15.0 -33.45 -15.75 -32.55 -15.75 -31.6 -15.75 -30.95 -15.0 -30.25 -14.3 -30.25 -13.25 -30.25 -12.25 -30.95 -11.5 -31.6 -10.8 -32.55 -10.8 -33.45 -10.8 -34.15 -11.5" fill="#e7ff18" fill-opacity="0.7019608" fill-rule="evenodd" stroke="none"/>
    <path d="M-45.05 -23.95 Q-43.55 -23.95 -42.5 -22.8 -41.45 -21.65 -41.45 -20.0 -41.45 -18.35 -42.5 -17.2 -43.55 -16.05 -45.05 -16.05 -46.55 -16.05 -47.6 -17.2 -48.65 -18.35 -48.65 -20.0 -48.65 -21.65 -47.6 -22.8 -46.55 -23.95 -45.05 -23.95" fill="#99cc00" fill-opacity="0.7019608" fill-rule="evenodd" stroke="none"/>
  </g>
</svg>
