<?xml version="1.0" encoding="UTF-8" standalone="no"?>
<svg xmlns:ffdec="https://www.free-decompiler.com/flash" xmlns:xlink="http://www.w3.org/1999/xlink" ffdec:objectType="shape" height="10.0px" width="10.0px" xmlns="http://www.w3.org/2000/svg">
  <g transform="matrix(1.0, 0.0, 0.0, 1.0, 5.0, 5.0)">
    <path d="M2.8 -4.15 L2.85 -4.15 3.55 -3.55 Q5.0 -2.05 5.0 0.0 L5.0 0.2 4.85 1.25 4.75 1.75 4.7 1.85 4.15 2.8 3.55 3.55 2.8 4.15 2.3 4.45 2.15 4.55 0.25 5.0 0.0 5.0 -0.55 4.95 Q-2.25 4.8 -3.55 3.55 L-3.7 3.35 -4.35 2.45 -4.65 1.85 -5.0 0.0 -4.95 -0.8 -4.65 -1.75 -4.45 -2.35 -4.35 -2.45 -3.7 -3.35 -3.55 -3.55 -2.95 -4.05 -2.85 -4.15 -1.7 -4.7 -0.55 -4.95 0.0 -5.0 0.25 -5.0 Q1.25 -4.95 2.15 -4.5 L2.8 -4.15 M2.45 -4.15 L2.15 -4.3 Q1.3 -4.75 0.25 -4.8 L0.0 -4.8 -0.55 -4.75 -1.65 -4.55 -2.45 -4.15 -2.85 -3.85 -3.4 -3.4 -3.7 -3.05 -4.25 -2.25 -4.35 -2.05 -4.45 -1.75 -4.75 -0.8 -4.8 0.0 Q-4.8 1.0 -4.45 1.85 L-4.35 2.05 -3.7 3.05 -3.4 3.4 Q-2.2 4.6 -0.55 4.75 L0.0 4.8 0.25 4.8 Q1.25 4.75 2.15 4.3 L2.2 4.25 2.8 3.95 3.4 3.4 4.0 2.7 4.45 1.85 4.55 1.65 4.65 1.25 4.8 0.2 4.8 0.0 Q4.8 -2.0 3.4 -3.4 L2.8 -3.9 2.45 -4.15" fill="#003366" fill-rule="evenodd" stroke="none"/>
    <path d="M2.45 -4.15 L2.8 -3.9 3.4 -3.4 Q4.8 -2.0 4.8 0.0 L4.8 0.2 4.65 1.25 4.55 1.65 4.45 1.85 4.0 2.7 3.4 3.4 2.8 3.95 2.2 4.25 2.15 4.3 Q1.25 4.75 0.25 4.8 L0.0 4.8 -0.55 4.75 Q-2.2 4.6 -3.4 3.4 L-3.7 3.05 -4.35 2.05 -4.45 1.85 Q-4.8 1.0 -4.8 0.0 L-4.75 -0.8 -4.45 -1.75 -4.35 -2.05 -4.25 -2.25 -3.7 -3.05 -3.4 -3.4 -2.85 -3.85 -2.45 -4.15 -1.65 -4.55 -0.55 -4.75 0.0 -4.8 0.25 -4.8 Q1.3 -4.75 2.15 -4.3 L2.45 -4.15" fill="url(#gradient0)" fill-rule="evenodd" stroke="none"/>
    <path d="M4.45 1.85 L4.0 2.7 3.4 3.4 2.2 4.25 Q1.2 4.8 0.0 4.8 -2.0 4.8 -3.4 3.4 -4.1 2.7 -4.45 1.85 L4.45 1.85" fill="#ffffff" fill-opacity="0.3019608" fill-rule="evenodd" stroke="none"/>
    <path d="M2.5 -4.15 L-2.45 -4.15 -1.6 -4.55 -0.55 -4.75 0.05 -4.8 0.25 -4.8 Q1.35 -4.75 2.2 -4.3 L2.5 -4.15 M-4.45 -1.75 L-0.2 -1.75 2.0 -1.05 0.25 -0.8 -4.7 -0.8 -4.45 -1.75 M-3.65 0.8 L-1.95 0.2 4.85 0.2 4.7 1.25 -1.7 1.25 -3.65 0.8" fill="#ffffff" fill-opacity="0.3019608" fill-rule="evenodd" stroke="none"/>
  </g>
  <defs>
    <radialGradient cx="0" cy="0" gradientTransform="matrix(0.0113, 0.0, 0.0, 0.0113, 4.0, -4.85)" gradientUnits="userSpaceOnUse" id="gradient0" r="819.2" spreadMethod="pad">
      <stop offset="0.25098039215686274" stop-color="#ffffff"/>
      <stop offset="0.592156862745098" stop-color="#0096fb"/>
      <stop offset="1.0" stop-color="#003366"/>
    </radialGradient>
  </defs>
</svg>
