<?xml version="1.0" encoding="UTF-8" standalone="no"?>
<svg xmlns:ffdec="https://www.free-decompiler.com/flash" xmlns:xlink="http://www.w3.org/1999/xlink" ffdec:objectType="shape" height="36.0px" width="35.95px" xmlns="http://www.w3.org/2000/svg">
  <g transform="matrix(1.0, 0.0, 0.0, 1.0, 17.95, 18.0)">
    <path d="M12.0 -12.0 Q16.95 -7.05 16.95 0.0 16.95 7.0 12.0 11.95 7.05 16.95 0.05 16.95 -6.95 16.95 -11.95 11.95 -16.9 7.0 -16.9 0.0 -16.9 -7.05 -11.95 -12.0 -6.95 -16.95 0.05 -16.95 7.05 -16.95 12.0 -12.0 M9.9 -9.9 Q5.8 -14.0 0.0 -14.0 -5.75 -14.0 -9.85 -9.9 -13.95 -5.8 -13.95 0.0 -13.95 5.8 -9.85 9.85 -5.75 13.95 0.0 13.95 5.8 13.95 9.9 9.85 14.0 5.8 14.0 0.0 14.0 -5.8 9.9 -9.9" fill="#009965" fill-rule="evenodd" stroke="none"/>
    <path d="M7.85 -7.8 Q4.65 -11.0 0.05 -11.0 -4.45 -11.0 -7.7 -7.8 -10.95 -4.55 -10.95 0.0 -10.95 4.55 -7.7 7.8 -4.45 11.0 0.05 11.0 4.65 11.0 7.85 7.8 11.05 4.55 11.05 0.0 11.05 -4.55 7.85 -7.8 M9.9 -9.9 Q14.0 -5.8 14.0 0.0 14.0 5.8 9.9 9.85 5.8 13.95 0.0 13.95 -5.75 13.95 -9.85 9.85 -13.95 5.8 -13.95 0.0 -13.95 -5.8 -9.85 -9.9 -5.75 -14.0 0.0 -14.0 5.8 -14.0 9.9 -9.9" fill="#00bf7f" fill-rule="evenodd" stroke="none"/>
    <path d="M0.05 -18.0 Q7.5 -18.0 12.75 -12.75 18.0 -7.45 18.0 0.0 18.0 7.4 12.75 12.7 7.5 18.0 0.05 18.0 -7.4 18.0 -12.75 12.7 -17.95 7.4 -17.95 0.0 -17.95 -7.45 -12.75 -12.75 -7.4 -18.0 0.05 -18.0 M12.0 -12.0 Q7.05 -16.95 0.05 -16.95 -6.95 -16.95 -11.95 -12.0 -16.9 -7.05 -16.9 0.0 -16.9 7.0 -11.95 11.95 -6.95 16.95 0.05 16.95 7.05 16.95 12.0 11.95 16.95 7.0 16.95 0.0 16.95 -7.05 12.0 -12.0" fill="#007f00" fill-rule="evenodd" stroke="none"/>
    <path d="M7.85 -7.8 Q11.05 -4.55 11.05 0.0 11.05 4.55 7.85 7.8 4.65 11.0 0.05 11.0 -4.45 11.0 -7.7 7.8 -10.95 4.55 -10.95 0.0 -10.95 -4.55 -7.7 -7.8 -4.45 -11.0 0.05 -11.0 4.65 -11.0 7.85 -7.8" fill="#00d88c" fill-rule="evenodd" stroke="none"/>
    <path d="M1.9 -11.75 Q1.9 -10.2 0.8 -9.15 -0.25 -8.05 -1.75 -8.05 -3.35 -8.05 -4.4 -9.15 -5.5 -10.2 -5.5 -11.75 -5.5 -13.25 -4.4 -14.35 -3.35 -15.45 -1.75 -15.45 -0.25 -15.45 0.8 -14.35 1.9 -13.25 1.9 -11.75" fill="#99cc00" fill-opacity="0.7019608" fill-rule="evenodd" stroke="none"/>
    <path d="M-6.05 8.3 Q-6.05 9.95 -7.25 11.1 -8.35 12.2 -9.95 12.2 -11.55 12.2 -12.7 11.1 -13.8 9.95 -13.8 8.3 -13.8 6.8 -12.7 5.6 -11.55 4.45 -9.95 4.45 -8.35 4.45 -7.25 5.6 -6.05 6.8 -6.05 8.3" fill="#e7ff18" fill-opacity="0.7019608" fill-rule="evenodd" stroke="none"/>
    <path d="M13.0 5.55 Q12.3 5.55 11.75 5.1 11.3 4.55 11.3 3.8 11.3 3.1 11.75 2.55 12.3 2.0 13.0 2.0 13.75 2.0 14.25 2.55 14.8 3.1 14.8 3.8 14.8 4.55 14.25 5.1 13.75 5.55 13.0 5.55" fill="#e7ff18" fill-opacity="0.7019608" fill-rule="evenodd" stroke="none"/>
    <path d="M4.1 2.2 Q5.1 2.2 5.75 2.9 6.5 3.6 6.5 4.6 6.5 5.6 5.75 6.25 5.1 6.95 4.1 6.95 3.1 6.95 2.4 6.25 1.65 5.6 1.65 4.6 1.65 3.6 2.4 2.9 3.1 2.2 4.1 2.2" fill="#99cc00" fill-opacity="0.7019608" fill-rule="evenodd" stroke="none"/>
    <path d="M8.75 -9.8 Q8.75 -10.55 9.25 -11.0 9.8 -11.6 10.5 -11.6 11.25 -11.6 11.75 -11.0 12.3 -10.55 12.3 -9.8 12.3 -9.15 11.75 -8.6 11.25 -8.05 10.5 -8.05 9.8 -8.05 9.25 -8.6 8.75 -9.15 8.75 -9.8" fill="#99cc00" fill-opacity="0.7019608" fill-rule="evenodd" stroke="none"/>
    <path d="M7.75 -2.2 Q6.6 -5.35 4.5 -6.75 2.5 -8.2 -1.45 -7.35 -5.4 -6.6 -6.6 -3.8 -7.85 -1.05 -7.6 0.7 -7.4 2.5 -7.5 2.6 L-11.85 3.65 -11.9 3.45 Q-13.25 -1.45 -10.65 -5.9 -8.2 -10.35 -3.2 -11.7 1.75 -13.0 6.15 -10.4 10.6 -7.85 11.95 -2.95 13.3 2.05 10.7 6.5 L9.85 7.8 11.95 9.0 4.6 12.15 3.8 4.4 6.6 5.8 7.9 3.1 Q8.75 1.1 7.75 -2.2" fill="#ffcb00" fill-rule="evenodd" stroke="none"/>
    <path d="M7.75 -2.2 Q8.75 1.1 7.9 3.1 L6.6 5.8 3.8 4.4 4.6 12.15 11.95 9.0 9.85 7.8 10.7 6.5 Q13.3 2.05 11.95 -2.95 10.6 -7.85 6.15 -10.4 1.75 -13.0 -3.2 -11.7 -8.2 -10.35 -10.65 -5.9 -13.25 -1.45 -11.9 3.45 L-11.85 3.65 -7.5 2.6 Q-7.4 2.5 -7.6 0.7 -7.85 -1.05 -6.6 -3.8 -5.4 -6.6 -1.45 -7.35 2.5 -8.2 4.5 -6.75 6.6 -5.35 7.75 -2.2 Z" fill="none" stroke="#990000" stroke-linecap="round" stroke-linejoin="round" stroke-width="1.0"/>
  </g>
</svg>
