<?xml version="1.0" encoding="UTF-8" standalone="no"?>
<svg xmlns:ffdec="https://www.free-decompiler.com/flash" xmlns:xlink="http://www.w3.org/1999/xlink" ffdec:objectType="shape" height="143.05px" width="111.45px" xmlns="http://www.w3.org/2000/svg">
  <g transform="matrix(1.0, 0.0, 0.0, 1.0, -569.0, -342.95)">
    <path d="M635.0 374.35 Q632.8 373.2 630.9 371.3 626.05 366.45 626.05 359.55 626.05 352.65 630.9 347.8 L632.35 346.5 Q636.75 342.95 642.65 342.95 648.55 342.95 652.95 346.5 L654.4 347.8 Q659.25 352.65 659.25 359.55 659.25 366.45 654.4 371.3 649.55 376.15 642.65 376.15 L641.5 376.15 637.5 375.4 635.0 374.35" fill="#990000" fill-rule="evenodd" stroke="none"/>
    <path d="M641.5 376.15 L645.85 396.35 M607.75 379.35 L607.75 390.95 M637.5 375.4 L621.85 397.55 M635.0 374.35 L608.6 378.55 M621.85 398.8 L615.6 429.85 M597.4 454.25 L574.25 466.7 M573.0 467.5 L576.7 472.9 M642.5 456.35 L645.0 481.15 M617.3 429.45 L642.1 454.25 M616.45 430.25 L599.05 452.6 M647.9 395.9 L676.45 386.0 M645.85 482.0 L648.75 482.0" fill="none" stroke="#990000" stroke-linecap="round" stroke-linejoin="round" stroke-width="8.0"/>
  </g>
</svg>
