<?xml version="1.0" encoding="UTF-8" standalone="no"?>
<svg xmlns:ffdec="https://www.free-decompiler.com/flash" xmlns:xlink="http://www.w3.org/1999/xlink" ffdec:objectType="shape" height="56.1px" width="192.85px" xmlns="http://www.w3.org/2000/svg">
  <g transform="matrix(1.0, 0.0, 0.0, 1.0, 39.9, -68.6)">
    <path d="M117.6 68.6 L130.25 68.6 Q137.35 68.6 137.35 75.7 L137.35 88.35 Q137.35 95.45 130.25 95.45 L117.6 95.45 Q110.5 95.45 110.5 88.35 L110.5 75.7 Q110.5 68.6 117.6 68.6 M113.75 77.25 L113.75 86.8 Q113.75 92.2 119.15 92.2 L128.8 92.2 Q134.1 92.2 134.1 86.8 L134.1 77.25 Q134.1 71.85 128.8 71.85 L119.15 71.85 Q113.75 71.85 113.75 77.25 M121.9 104.9 L121.9 117.55 Q121.9 124.7 114.8 124.7 L102.1 124.7 Q95.0 124.7 95.0 117.55 L95.0 104.9 Q95.0 97.85 102.1 97.85 L114.8 97.85 Q121.9 97.85 121.9 104.9 M124.15 72.95 L127.4 80.0 125.85 80.0 125.85 89.8 122.75 89.8 122.75 80.0 120.9 80.0 124.15 72.95 M126.1 104.9 Q126.1 97.85 133.2 97.85 L145.85 97.85 Q152.95 97.85 152.95 104.9 L152.95 117.55 Q152.95 124.7 145.85 124.7 L133.2 124.7 Q126.1 124.7 126.1 117.55 L126.1 104.9 M129.35 116.15 Q129.35 121.4 134.75 121.4 L144.3 121.4 Q149.65 121.4 149.65 116.15 L149.65 106.45 Q149.65 101.15 144.3 101.15 L134.75 101.15 Q129.35 101.15 129.35 106.45 L129.35 116.15 M113.25 121.4 Q118.6 121.4 118.6 116.15 L118.6 106.45 Q118.6 101.15 113.25 101.15 L103.65 101.15 Q98.3 101.15 98.3 106.45 L98.3 116.15 Q98.3 121.4 103.65 121.4 L113.25 121.4 M131.75 113.15 L131.75 110.05 141.55 110.05 141.55 108.2 148.6 111.5 141.55 114.7 141.55 113.15 131.75 113.15 M116.2 113.15 L106.4 113.15 106.4 114.7 99.45 111.5 106.4 108.2 106.4 110.05 116.2 110.05 116.2 113.15" fill="#ff0000" fill-rule="evenodd" stroke="none"/>
    <path d="M17.0 122.0 Q15.3 124.7 10.95 124.7 L-1.7 124.7 Q-8.75 124.7 -8.75 117.55 L-8.75 104.9 Q-8.75 97.85 -1.7 97.85 L10.95 97.85 Q15.3 97.85 17.0 100.55 18.05 102.2 18.05 104.9 L18.05 117.55 Q18.05 120.3 17.0 122.0 M-17.25 68.6 L-4.65 68.6 Q-1.9 68.6 -0.2 69.65 2.45 71.35 2.45 75.7 L2.45 88.35 Q2.45 92.7 -0.2 94.4 -1.9 95.45 -4.65 95.45 L-17.25 95.45 Q-24.35 95.45 -24.35 88.35 L-24.35 75.7 Q-24.35 68.6 -17.25 68.6 M6.35 108.9 L5.2 108.8 3.5 108.8 3.5 114.6 5.15 114.6 6.0 114.6 6.75 114.2 7.45 113.55 7.8 112.55 7.8 111.6 7.6 110.2 7.15 109.4 Q6.75 109.05 6.35 108.9 M9.9 109.95 L10.05 111.75 9.9 113.55 9.2 115.1 8.2 116.15 6.95 116.55 5.6 116.7 1.35 116.7 1.35 106.75 5.6 106.75 6.4 106.75 7.45 107.0 8.45 107.6 9.35 108.55 9.9 109.95 M-0.2 101.15 Q-5.55 101.15 -5.55 106.45 L-5.55 116.15 Q-5.55 121.4 -0.2 121.4 L9.4 121.4 Q14.8 121.4 14.8 116.15 L14.8 106.45 Q14.8 101.15 9.4 101.15 L-0.2 101.15 M-21.05 77.25 L-21.05 86.8 Q-21.05 92.2 -15.7 92.2 L-6.05 92.2 Q-0.75 92.2 -0.75 86.8 L-0.75 77.25 Q-0.75 71.85 -6.05 71.85 L-15.7 71.85 Q-21.05 71.85 -21.05 77.25 M-5.05 77.6 L-7.35 87.7 -9.4 87.7 -10.9 81.9 -12.15 87.7 -14.2 87.7 -17.0 77.6 -14.8 77.6 -13.2 83.8 -11.8 77.6 -9.9 77.6 -8.4 83.8 -7.15 77.6 -5.05 77.6 M-13.0 117.55 Q-13.0 124.7 -20.1 124.7 L-32.7 124.7 Q-39.9 124.7 -39.9 117.55 L-39.9 104.9 Q-39.9 97.85 -32.7 97.85 L-20.1 97.85 Q-13.0 97.85 -13.0 104.9 L-13.0 117.55 M-21.6 121.4 Q-16.3 121.4 -16.3 116.15 L-16.3 106.45 Q-16.3 101.15 -21.6 101.15 L-31.15 101.15 Q-36.6 101.15 -36.6 106.45 L-36.6 116.15 Q-36.6 121.4 -31.15 121.4 L-21.6 121.4 M-28.3 114.35 L-29.0 116.45 -31.15 116.45 -27.75 106.3 -25.2 106.3 -21.9 116.45 -24.15 116.45 -24.85 114.35 -28.3 114.35 M-27.65 112.45 L-25.5 112.45 -26.45 109.05 -27.65 112.45" fill="#000000" fill-rule="evenodd" stroke="none"/>
  </g>
</svg>
