<?xml version="1.0" encoding="UTF-8" standalone="no"?>
<svg xmlns:ffdec="https://www.free-decompiler.com/flash" xmlns:xlink="http://www.w3.org/1999/xlink" ffdec:objectType="shape" height="48.0px" width="36.6px" xmlns="http://www.w3.org/2000/svg">
  <g transform="matrix(1.0, 0.0, 0.0, 1.0, 18.3, 24.0)">
    <path d="M10.9 -21.95 Q12.5 -20.15 12.5 -17.7 12.5 -15.1 10.65 -13.25 9.65 -12.2 8.35 -11.75 L8.4 -11.6 9.8 -4.65 16.05 -5.9 Q16.8 -6.05 17.45 -5.6 18.1 -5.15 18.25 -4.4 18.4 -3.6 17.95 -3.0 17.5 -2.35 16.75 -2.2 L8.75 -0.6 Q8.0 -0.45 7.35 -0.9 6.7 -1.35 6.55 -2.1 L6.4 -2.55 5.3 -7.8 3.0 -3.6 2.75 -3.25 -0.6 6.35 4.75 9.1 5.2 9.2 Q5.95 9.45 6.3 10.15 L10.75 18.65 12.0 18.65 Q12.75 18.65 13.35 19.25 13.9 19.8 13.9 20.55 13.9 21.35 13.35 21.9 12.75 22.45 12.0 22.45 L9.95 22.45 9.1 22.25 8.95 22.2 Q8.15 21.95 7.85 21.25 L3.35 12.65 3.15 12.55 -2.25 9.8 -4.6 14.6 -4.65 14.95 Q-4.85 15.7 -5.55 16.1 L-14.45 21.25 -14.4 21.4 Q-14.15 22.1 -14.4 22.85 -14.7 23.55 -15.45 23.9 -16.15 24.15 -16.9 23.9 -17.6 23.55 -17.9 22.85 -18.45 21.65 -18.25 20.15 L-17.95 19.35 -17.2 18.45 -8.15 13.25 -4.75 6.25 -4.45 5.8 -0.6 -5.15 -0.05 -5.95 1.55 -8.85 -3.05 -7.8 -3.45 -7.25 Q-3.9 -6.8 -4.5 -6.7 L-7.85 -2.65 Q-8.35 -2.05 -9.15 -2.0 -9.9 -1.9 -10.5 -2.4 -11.1 -2.9 -11.2 -3.7 -11.25 -4.45 -10.8 -5.05 L-7.3 -9.25 -7.0 -10.2 -5.8 -11.05 2.2 -12.85 1.75 -13.25 Q-0.05 -15.1 -0.05 -17.7 -0.05 -20.15 1.6 -21.95 L1.75 -22.15 Q3.6 -24.0 6.2 -24.0 8.85 -24.0 10.65 -22.15 L10.9 -21.95" fill="#6633cc" fill-rule="evenodd" stroke="none"/>
  </g>
</svg>
