<?xml version="1.0" encoding="UTF-8" standalone="no"?>
<svg xmlns:ffdec="https://www.free-decompiler.com/flash" xmlns:xlink="http://www.w3.org/1999/xlink" ffdec:objectType="shape" height="48.0px" width="31.35px" xmlns="http://www.w3.org/2000/svg">
  <g transform="matrix(1.0, 0.0, 0.0, 1.0, 15.7, 24.0)">
    <path d="M12.8 -22.35 Q14.45 -20.7 14.45 -18.4 14.45 -16.05 12.8 -14.4 11.3 -12.85 9.2 -12.75 L9.15 -12.55 9.2 -12.3 9.75 -8.35 10.3 -8.15 Q10.85 -7.75 11.0 -7.05 L11.0 -6.9 10.9 -5.9 13.95 -5.9 Q14.65 -5.9 15.15 -5.4 15.65 -4.9 15.65 -4.2 15.65 -3.5 15.15 -3.0 14.65 -2.5 13.95 -2.5 L8.6 -2.5 Q8.0 -2.5 7.5 -2.9 7.05 -3.35 6.95 -3.95 L6.45 -7.4 4.05 -2.95 1.5 4.7 Q1.75 5.2 1.65 5.8 L1.55 6.1 5.4 11.2 5.75 12.15 7.65 20.6 9.0 20.6 Q9.7 20.6 10.2 21.1 10.7 21.6 10.7 22.3 10.7 23.0 10.2 23.5 9.7 24.0 9.0 24.0 L6.75 24.0 6.0 23.85 5.35 23.6 Q4.8 23.2 4.65 22.55 L2.45 12.9 -1.1 8.25 -4.7 10.65 Q-5.25 11.05 -5.85 10.95 L-6.95 10.7 -11.6 7.7 -13.05 8.8 -13.5 9.05 -14.3 9.1 -15.4 8.45 Q-15.8 7.9 -15.7 7.2 -15.6 6.5 -15.05 6.1 L-13.55 4.95 -13.5 4.8 -13.35 4.55 Q-13.0 4.0 -12.3 3.85 L-11.05 4.05 -5.85 7.4 -2.8 5.35 -2.35 4.45 -1.9 4.1 0.85 -4.15 0.9 -4.2 1.45 -5.85 Q1.65 -6.5 2.3 -6.85 L3.8 -9.6 1.85 -9.05 -0.6 -5.35 Q-1.0 -4.8 -1.65 -4.65 -2.35 -4.5 -2.95 -4.9 -3.55 -5.25 -3.65 -5.95 -3.8 -6.65 -3.4 -7.25 L-1.3 -10.35 -1.1 -11.15 -0.1 -12.0 5.65 -13.7 4.85 -14.4 Q3.2 -16.05 3.2 -18.4 3.2 -20.7 4.85 -22.35 L6.05 -23.25 Q7.25 -24.0 8.8 -24.0 10.4 -24.0 11.65 -23.25 L12.8 -22.35" fill="#6633cc" fill-rule="evenodd" stroke="none"/>
  </g>
</svg>
