<?xml version="1.0" encoding="UTF-8" standalone="no"?>
<svg xmlns:ffdec="https://www.free-decompiler.com/flash" xmlns:xlink="http://www.w3.org/1999/xlink" ffdec:objectType="shape" height="48.0px" width="26.2px" xmlns="http://www.w3.org/2000/svg">
  <g transform="matrix(1.0, 0.0, 0.0, 1.0, 13.1, 24.0)">
    <path d="M4.45 -24.0 Q6.8 -24.0 8.45 -22.35 10.1 -20.7 10.1 -18.4 10.1 -16.05 8.45 -14.4 7.25 -13.2 5.6 -12.9 L5.65 -12.5 5.65 -6.85 10.95 -8.25 12.25 -8.1 13.05 -7.05 Q13.2 -6.35 12.85 -5.75 12.5 -5.15 11.85 -5.0 L5.4 -3.3 Q4.7 -3.15 4.1 -3.5 L4.0 -3.55 3.95 -3.55 Q3.25 -3.55 2.8 -4.0 2.3 -4.55 2.3 -5.2 L2.3 -8.35 1.45 -7.1 1.35 -6.3 -1.9 2.25 4.85 6.35 Q5.45 6.7 5.6 7.4 L5.65 8.0 Q5.75 8.55 5.4 9.1 L2.4 14.15 3.15 15.25 Q3.55 15.8 3.4 16.5 3.25 17.2 2.7 17.6 L1.4 17.85 Q0.7 17.7 0.35 17.1 L-1.0 15.1 -1.3 14.15 -1.05 13.25 1.85 8.5 -2.45 5.85 -2.45 12.95 Q-2.45 13.65 -2.95 14.15 L-3.3 14.8 -9.05 21.3 Q-8.85 21.55 -8.8 21.9 -8.6 22.55 -8.95 23.15 L-10.0 23.95 -11.3 23.75 -12.4 22.75 -12.55 22.65 Q-13.1 22.15 -13.1 21.45 -13.15 20.75 -12.7 20.25 L-5.85 12.55 -5.85 3.85 -5.85 3.65 -5.75 2.85 -2.35 -6.1 -2.45 -6.4 Q-2.6 -7.1 -2.2 -7.65 L-0.7 -9.9 -2.65 -9.2 -2.85 -8.85 -6.75 -4.25 Q-7.2 -3.75 -7.9 -3.65 -8.6 -3.6 -9.15 -4.05 -9.7 -4.5 -9.75 -5.2 -9.8 -5.9 -9.35 -6.45 L-6.0 -10.45 -5.85 -11.1 -4.9 -11.95 0.8 -14.1 0.5 -14.4 Q-1.15 -16.05 -1.15 -18.4 -1.15 -20.7 0.5 -22.35 2.15 -24.0 4.45 -24.0" fill="#ff0000" fill-rule="evenodd" stroke="none"/>
  </g>
</svg>
