<?xml version="1.0" encoding="UTF-8" standalone="no"?>
<svg xmlns:ffdec="https://www.free-decompiler.com/flash" xmlns:xlink="http://www.w3.org/1999/xlink" ffdec:objectType="shape" height="48.0px" width="26.15px" xmlns="http://www.w3.org/2000/svg">
  <g transform="matrix(1.0, 0.0, 0.0, 1.0, 13.05, 24.0)">
    <path d="M2.3 -22.65 Q3.6 -21.35 3.6 -19.45 3.6 -17.55 2.3 -16.3 1.4 -15.35 0.2 -15.05 L0.35 -14.75 0.45 -14.75 8.4 -14.75 Q8.95 -14.75 9.4 -14.35 L9.6 -14.15 9.8 -13.95 12.7 -11.25 13.1 -10.35 Q13.1 -9.75 12.75 -9.35 12.35 -8.95 11.85 -8.95 11.3 -8.9 10.8 -9.25 L7.95 -11.95 7.9 -12.05 0.45 -12.05 0.45 -6.95 0.4 -6.5 0.45 -6.15 0.4 0.6 0.55 0.7 4.4 2.75 Q4.9 3.05 5.05 3.6 L5.15 3.7 5.5 4.1 Q5.8 4.55 5.7 5.1 L4.35 11.4 4.35 11.5 5.2 13.5 5.15 14.55 4.35 15.3 3.35 15.25 Q2.8 15.0 2.6 14.5 L1.95 12.7 1.75 12.45 Q1.45 12.0 1.55 11.45 L2.9 5.05 -0.2 3.35 -1.2 11.65 -1.25 11.85 -3.35 19.1 -2.1 22.15 Q-1.9 22.65 -2.15 23.2 -2.35 23.7 -2.85 23.9 -3.4 24.1 -3.9 23.9 L-4.65 23.2 -6.0 19.7 -6.05 18.8 -3.9 11.25 -2.8 2.15 Q-2.75 1.55 -2.3 1.2 L-2.25 -1.8 -2.25 -2.1 -2.25 -6.15 -2.2 -6.55 -2.25 -6.95 -2.25 -11.9 -8.25 -7.35 -8.5 -7.2 -8.6 -6.7 -10.45 -2.75 Q-10.7 -2.2 -11.25 -2.0 L-12.3 -2.05 -12.95 -2.85 Q-13.2 -3.35 -12.9 -3.85 L-11.1 -7.85 -10.4 -8.55 -10.4 -8.65 -9.85 -9.5 Q-6.5 -12.0 -3.2 -14.55 L-2.2 -14.8 -2.05 -15.05 -2.3 -15.15 -3.0 -15.4 -4.1 -16.3 Q-5.45 -17.55 -5.45 -19.45 -5.45 -21.35 -4.1 -22.65 L-3.7 -23.0 Q-2.5 -24.0 -0.9 -24.0 0.7 -24.0 1.9 -23.0 L2.3 -22.65" fill="#000000" fill-rule="evenodd" stroke="none"/>
  </g>
</svg>
