<?xml version="1.0" encoding="UTF-8" standalone="no"?>
<svg xmlns:ffdec="https://www.free-decompiler.com/flash" xmlns:xlink="http://www.w3.org/1999/xlink" ffdec:objectType="shape" height="48.0px" width="12.0px" xmlns="http://www.w3.org/2000/svg">
  <g transform="matrix(1.0, 0.0, 0.0, 1.0, 6.0, 24.0)">
    <path d="M0.15 -24.0 L2.0 -23.65 3.05 -23.0 3.45 -22.65 Q4.85 -21.25 4.85 -19.3 4.85 -17.35 3.45 -16.0 L2.3 -15.15 1.6 -14.85 1.35 -14.75 1.45 -14.5 2.4 -14.3 Q2.9 -14.0 3.05 -13.4 L4.95 -5.05 4.95 -4.4 5.3 -3.75 6.0 -0.55 5.75 0.55 Q5.45 1.0 4.9 1.15 L3.8 0.95 Q3.35 0.65 3.2 0.05 L2.55 -3.15 2.55 -3.8 2.2 -4.4 1.55 -7.4 1.55 -6.3 1.45 -5.9 1.55 -5.45 1.6 3.3 2.05 3.6 Q2.5 3.95 2.55 4.55 L3.25 14.4 3.25 14.8 3.4 15.4 3.7 21.15 Q4.15 21.2 4.5 21.6 4.9 22.0 4.9 22.55 4.9 23.15 4.5 23.55 4.1 24.0 3.5 24.0 L2.7 24.0 2.1 23.85 1.4 23.5 Q1.0 23.1 0.95 22.55 L0.6 15.5 0.6 15.15 0.45 14.6 0.05 8.75 -0.95 14.65 -1.05 15.1 -1.05 15.35 -1.9 22.4 Q-1.95 22.9 -2.35 23.25 L-2.55 23.45 Q-2.95 23.85 -3.5 23.85 L-4.35 23.85 Q-4.9 23.85 -5.35 23.45 -5.75 23.05 -5.75 22.45 -5.75 21.85 -5.35 21.45 L-4.6 21.05 -3.9 15.05 -3.7 14.55 -3.7 14.2 -2.15 4.35 Q-2.05 3.75 -1.55 3.45 L-1.2 3.25 -1.3 -5.45 -1.2 -5.85 -1.3 -6.3 -1.3 -7.35 -2.05 -4.4 Q-2.15 -4.0 -2.4 -3.75 L-2.45 -3.2 -3.2 0.0 Q-3.35 0.55 -3.85 0.85 L-4.9 1.05 -5.75 0.4 Q-6.1 -0.1 -5.95 -0.65 L-5.2 -3.85 -4.8 -4.5 -4.8 -5.1 -2.6 -13.4 -1.95 -14.25 -1.2 -14.45 -1.05 -14.75 Q-2.25 -15.05 -3.15 -16.0 -4.55 -17.35 -4.55 -19.3 -4.55 -21.25 -3.15 -22.65 L-2.75 -23.0 -1.7 -23.65 0.15 -24.0" fill="#000000" fill-rule="evenodd" stroke="none"/>
  </g>
</svg>
