<?xml version="1.0" encoding="UTF-8" standalone="no"?>
<svg xmlns:ffdec="https://www.free-decompiler.com/flash" xmlns:xlink="http://www.w3.org/1999/xlink" ffdec:objectType="shape" height="48.8px" width="16.85px" xmlns="http://www.w3.org/2000/svg">
  <g transform="matrix(1.0, 0.0, 0.0, 1.0, 8.45, 24.9)">
    <path d="M2.7 -23.9 L3.1 -23.5 Q4.5 -22.1 4.5 -20.15 4.5 -18.85 3.9 -17.8 L3.1 -16.7 1.95 -15.85 1.25 -15.55 1.0 -15.5 1.1 -15.2 1.35 -15.2 1.35 -14.85 1.9 -14.75 2.75 -13.9 8.25 -1.15 Q8.55 -0.55 8.3 0.05 L7.45 0.9 Q6.85 1.15 6.25 0.9 5.7 0.65 5.4 0.05 L1.35 -9.4 1.35 -8.5 1.2 -9.05 1.2 -6.85 1.1 -6.45 1.2 -6.05 1.25 2.85 1.6 3.05 Q2.1 3.4 2.2 4.05 L3.75 14.0 3.8 14.35 4.0 14.95 4.0 15.1 4.6 21.05 Q5.0 21.1 5.35 21.45 5.75 21.9 5.75 22.5 5.75 23.1 5.35 23.5 4.95 23.9 4.35 23.9 L3.55 23.9 Q2.95 23.9 2.5 23.5 L2.4 23.4 2.4 23.35 Q1.95 23.0 1.85 22.4 L1.15 15.25 1.15 15.1 1.15 14.95 1.0 14.45 -0.15 7.35 -1.3 14.45 Q-1.3 14.7 -1.45 14.95 L-1.45 15.1 -1.45 15.25 -2.15 22.4 Q-2.25 23.0 -2.7 23.35 L-2.7 23.4 -2.8 23.5 Q-3.25 23.9 -3.8 23.9 L-4.65 23.9 Q-5.2 23.9 -5.65 23.5 -6.05 23.1 -6.05 22.5 -6.05 21.9 -5.65 21.45 -5.3 21.1 -4.9 21.05 L-4.35 15.1 -4.3 14.95 -4.1 14.35 -4.05 14.0 -2.5 4.05 Q-2.4 3.4 -1.9 3.05 L-1.6 2.9 -1.65 -6.0 -1.6 -6.45 -1.65 -6.9 -1.65 -8.4 -1.85 -7.65 -1.85 -8.85 -5.4 0.4 Q-5.65 1.0 -6.25 1.3 -6.8 1.55 -7.4 1.3 L-8.3 0.5 Q-8.55 -0.1 -8.3 -0.7 L-3.3 -13.75 -2.5 -14.6 -1.85 -14.75 -1.85 -15.15 -1.55 -15.15 -1.4 -15.5 Q-2.6 -15.75 -3.55 -16.7 L-4.35 -17.8 Q-4.9 -18.85 -4.9 -20.15 -4.9 -22.1 -3.55 -23.5 L-3.1 -23.9 Q-1.85 -24.9 -0.2 -24.9 1.45 -24.9 2.7 -23.9" fill="#000000" fill-rule="evenodd" stroke="none"/>
  </g>
</svg>
