<?xml version="1.0" encoding="UTF-8" standalone="no"?>
<svg xmlns:ffdec="https://www.free-decompiler.com/flash" xmlns:xlink="http://www.w3.org/1999/xlink" ffdec:objectType="shape" height="49.85px" width="23.35px" xmlns="http://www.w3.org/2000/svg">
  <g transform="matrix(1.0, 0.0, 0.0, 1.0, 11.75, 25.95)">
    <path d="M4.3 -21.15 Q4.3 -19.1 2.9 -17.65 L1.75 -16.75 1.05 -16.45 0.8 -16.35 0.95 -16.1 1.05 -16.1 1.05 -15.95 1.55 -15.7 1.65 -15.65 2.15 -15.6 3.15 -14.95 11.35 -2.5 Q11.7 -1.95 11.55 -1.3 L10.9 -0.35 Q10.35 0.0 9.7 -0.1 9.1 -0.25 8.75 -0.8 L1.05 -12.45 1.05 -11.0 1.0 -11.15 1.0 -7.6 0.95 -7.2 1.0 -6.7 1.05 2.4 1.25 2.5 1.4 2.6 Q1.9 2.9 2.0 3.5 L3.55 13.7 3.6 14.1 3.8 14.65 4.4 20.95 Q4.85 21.0 5.15 21.4 5.55 21.8 5.55 22.4 5.55 23.0 5.15 23.45 4.75 23.9 4.15 23.9 L3.35 23.9 Q2.75 23.9 2.35 23.45 L2.2 23.3 Q1.75 22.9 1.7 22.3 L0.95 15.05 0.95 14.65 0.8 14.15 -0.35 6.9 -1.5 14.15 -1.65 14.65 -1.65 15.05 -2.35 22.3 Q-2.4 22.9 -2.9 23.3 L-3.0 23.45 Q-3.45 23.9 -4.0 23.9 L-4.85 23.9 -5.85 23.45 Q-6.25 23.0 -6.25 22.4 -6.25 21.8 -5.85 21.4 -5.5 21.0 -5.1 20.95 L-4.45 14.65 -4.3 14.1 -4.25 13.7 -2.7 3.5 Q-2.6 2.9 -2.1 2.6 L-2.0 2.5 -1.75 2.4 -1.85 -6.7 -1.75 -7.15 -1.85 -7.6 -1.85 -11.05 -1.9 -10.95 -1.9 -12.1 -8.9 -0.8 Q-9.2 -0.3 -9.85 -0.15 L-11.05 -0.3 Q-11.55 -0.65 -11.7 -1.3 L-11.55 -2.45 -3.7 -15.15 Q-3.35 -15.7 -2.7 -15.85 L-1.9 -15.85 -1.9 -16.05 -1.75 -16.05 -1.6 -16.35 Q-2.8 -16.65 -3.7 -17.65 -5.1 -19.1 -5.1 -21.15 -5.1 -23.15 -3.7 -24.6 L-3.3 -24.95 Q-2.05 -25.95 -0.4 -25.95 1.25 -25.95 2.5 -24.95 L2.9 -24.6 Q4.3 -23.15 4.3 -21.15" fill="#000000" fill-rule="evenodd" stroke="none"/>
  </g>
</svg>
