<?xml version="1.0" encoding="UTF-8" standalone="no"?>
<svg xmlns:ffdec="https://www.free-decompiler.com/flash" xmlns:xlink="http://www.w3.org/1999/xlink" ffdec:objectType="shape" height="23.0px" width="50.05px" xmlns="http://www.w3.org/2000/svg">
  <g transform="matrix(1.0, 0.0, 0.0, 1.0, 25.05, 11.5)">
    <path d="M24.0 8.05 L22.35 11.5 Q23.8 1.95 16.7 0.75 17.7 -5.4 8.95 -4.0 L9.0 -4.8 Q19.15 -6.05 18.15 0.05 24.1 1.1 24.0 8.05 M6.55 -8.5 L6.8 -10.5 Q9.05 -6.7 8.05 -3.05 6.55 2.35 0.55 5.95 L-0.1 6.3 -0.65 5.95 Q-6.65 2.3 -8.2 -3.05 -9.25 -6.75 -6.85 -10.65 L-6.8 -9.45 Q-8.2 -6.3 -7.35 -3.3 -5.85 1.95 -0.1 5.55 5.35 2.05 6.8 -3.05 7.55 -5.75 6.55 -8.5 M-23.5 9.45 Q-24.25 1.25 -17.75 0.15 -18.75 -6.0 -9.1 -4.55 L-9.0 -4.0 Q-17.8 -5.4 -16.8 0.75 -23.9 1.95 -22.4 11.5 L-23.5 9.45" fill="#99cc00" fill-rule="evenodd" stroke="none"/>
    <path d="M9.0 -4.8 Q9.1 -8.15 6.7 -11.5 20.2 -9.8 23.9 -1.7 26.0 2.8 24.0 8.05 24.1 1.1 18.15 0.05 19.15 -6.05 9.0 -4.8 M-6.8 -9.45 Q-6.15 -3.15 -0.15 1.05 5.35 -2.35 6.55 -8.5 7.55 -5.75 6.8 -3.05 5.35 2.05 -0.1 5.55 -5.85 1.95 -7.35 -3.3 -8.2 -6.3 -6.8 -9.45 M-23.5 9.45 Q-26.35 3.4 -24.0 -1.7 -20.3 -9.8 -6.8 -11.5 -9.3 -8.0 -9.1 -4.55 -18.75 -6.0 -17.75 0.15 -24.25 1.25 -23.5 9.45" fill="url(#gradient0)" fill-rule="evenodd" stroke="none"/>
    <path d="M5.2 -6.65 Q4.7 -4.25 -0.1 -1.2 -3.9 -3.35 -5.7 -6.5 -3.9 -4.35 -0.1 -2.65 3.85 -4.15 5.2 -6.65" fill="#ffcc00" fill-rule="evenodd" stroke="none"/>
  </g>
  <defs>
    <linearGradient gradientTransform="matrix(0.0, -0.0119, 0.7694, 0.0, -108.8, -1.05)" gradientUnits="userSpaceOnUse" id="gradient0" spreadMethod="pad" x1="-819.2" x2="819.2">
      <stop offset="0.0" stop-color="#009933"/>
      <stop offset="1.0" stop-color="#ffcc00"/>
    </linearGradient>
  </defs>
</svg>
