<?xml version="1.0" encoding="UTF-8" standalone="no"?>
<svg xmlns:ffdec="https://www.free-decompiler.com/flash" xmlns:xlink="http://www.w3.org/1999/xlink" ffdec:objectType="shape" height="500.5px" width="700.0px" xmlns="http://www.w3.org/2000/svg">
  <g transform="matrix(1.0, 0.0, 0.0, 1.0, 350.0, 250.25)">
    <path d="M350.0 249.75 L-350.0 249.75 -350.0 -250.25 350.0 -250.25 350.0 249.75" fill="#ffcc00" fill-opacity="0.3019608" fill-rule="evenodd" stroke="none"/>
    <path d="M348.75 -250.25 L349.85 -250.25 349.85 2.95 -15.4 2.95 348.75 -250.25 M349.65 250.25 L-15.4 250.25 -15.4 2.95 -344.15 246.9 -350.0 246.9 -350.0 2.95 -15.4 2.95 -350.0 -250.2 -350.0 -250.25 -15.4 -250.25 -15.4 2.95 349.65 250.25" fill="url(#gradient0)" fill-rule="evenodd" stroke="none"/>
    <path d="M-15.4 2.95 L349.85 2.95 349.85 250.25 349.65 250.25 -15.4 2.95 -350.0 2.95 -350.0 -250.2 -15.4 2.95 -15.4 250.25 -348.65 250.25 -344.15 246.9 -15.4 2.95" fill="url(#gradient1)" fill-rule="evenodd" stroke="none"/>
    <path d="M348.75 -250.25 L-15.4 2.95 -15.4 -250.25 348.75 -250.25" fill="url(#gradient2)" fill-rule="evenodd" stroke="none"/>
    <path d="M143.5 -182.15 L144.1 -181.55 144.1 -181.5 Q152.0 -173.2 152.0 -161.65 L152.0 107.15 Q152.0 112.3 150.45 116.8 L150.45 116.85 Q148.3 122.8 143.5 127.65 L140.35 130.4 140.3 130.45 Q133.8 135.4 125.55 136.05 L123.0 136.15 -122.95 136.15 -125.55 136.05 -130.85 135.15 -130.9 135.15 Q-137.95 133.15 -143.45 127.65 -147.55 123.55 -149.65 118.6 L-149.7 118.6 Q-151.95 113.35 -151.95 107.15 L-151.95 -161.65 Q-151.95 -173.6 -143.45 -182.15 -134.9 -190.65 -122.95 -190.65 L123.0 -190.65 Q135.0 -190.65 143.5 -182.15 M141.45 -178.5 L141.25 -178.7 141.2 -178.75 140.65 -179.3 Q133.3 -186.65 123.0 -186.65 L109.4 -186.65 79.5 -186.65 37.55 -186.65 9.8 -186.65 -16.95 -186.65 -45.6 -186.65 -87.5 -186.65 -116.1 -186.65 -122.95 -186.65 Q-133.25 -186.65 -140.6 -179.35 L-140.65 -179.3 Q-147.95 -171.95 -147.95 -161.65 L-147.95 -143.85 -147.95 -105.4 -147.95 -49.1 -147.95 -10.6 -147.95 25.35 -147.95 63.85 -147.95 107.15 Q-147.95 111.9 -146.4 116.0 L-146.0 117.0 Q-144.15 121.25 -140.6 124.8 -135.85 129.55 -129.8 131.3 L-129.0 131.5 -125.25 132.05 -125.2 132.05 -122.95 132.15 -88.9 132.15 -60.05 132.15 -18.15 132.15 10.5 132.15 37.25 132.15 65.9 132.15 107.4 132.15 123.0 132.15 125.25 132.05 Q132.3 131.5 137.9 127.25 L137.85 127.3 140.65 124.8 Q144.8 120.6 146.7 115.5 L146.65 115.5 Q148.0 111.6 148.0 107.15 L148.0 77.4 148.0 21.85 148.0 -16.65 148.0 -52.65 148.0 -91.15 148.0 -147.5 148.0 -161.65 Q148.0 -171.45 141.45 -178.5" fill="#00cc00" fill-rule="evenodd" stroke="none"/>
    <path d="M109.4 -186.65 L123.0 -186.65 Q133.3 -186.65 140.65 -179.3 L141.2 -178.75 141.25 -178.7 141.45 -178.5 124.35 -155.4 121.65 -158.65 121.6 -158.65 Q114.45 -165.75 104.35 -165.75 L93.85 -165.75 109.4 -186.65 M148.0 -147.5 L148.0 -91.15 128.8 -65.35 128.8 -121.6 148.0 -147.5 M148.0 -52.65 L148.0 -16.65 128.8 9.1 128.8 -26.85 148.0 -52.65 M148.0 21.85 L148.0 77.4 107.4 132.15 65.9 132.15 81.45 111.25 104.35 111.25 Q114.45 111.25 121.6 104.05 L121.65 104.0 Q124.95 100.7 126.8 96.75 L126.8 96.7 Q128.8 92.2 128.8 86.8 L128.8 47.6 148.0 21.85 M37.25 132.15 L10.5 132.15 26.0 111.25 52.8 111.25 37.25 132.15 M-18.15 132.15 L-60.05 132.15 -44.5 111.25 -2.65 111.25 -18.15 132.15 M-88.9 132.15 L-122.95 132.15 -125.2 132.05 -125.25 132.05 -129.0 131.5 -111.9 110.1 -111.3 110.3 Q-108.1 111.25 -104.4 111.25 L-73.15 111.25 -88.9 132.15 M-146.4 116.0 Q-147.95 111.9 -147.95 107.15 L-147.95 63.85 -128.8 38.15 -128.8 86.8 Q-128.8 89.5 -128.25 92.0 L-128.0 93.2 -146.4 116.0 M-147.95 25.35 L-147.95 -10.6 -128.8 -36.35 -128.8 -0.35 -147.95 25.35 M-147.95 -49.1 L-147.95 -105.4 -128.8 -131.1 -128.8 -74.85 -147.95 -49.1 M-147.95 -143.85 L-147.95 -161.65 Q-147.95 -171.95 -140.65 -179.3 L-140.6 -179.35 Q-133.25 -186.65 -122.95 -186.65 L-116.1 -186.65 -147.95 -143.85 M-87.5 -186.65 L-45.6 -186.65 -61.15 -165.75 -103.0 -165.75 -87.5 -186.65 M-16.95 -186.65 L9.8 -186.65 -5.7 -165.75 -32.5 -165.75 -16.95 -186.65 M37.55 -186.65 L79.5 -186.65 64.0 -165.75 22.85 -165.75 37.55 -186.65" fill="#006633" fill-opacity="0.6" fill-rule="evenodd" stroke="none"/>
    <path d="M93.85 -165.75 L104.35 -165.75 Q114.45 -165.75 121.6 -158.65 L121.65 -158.65 124.35 -155.4 124.65 -155.0 Q128.8 -149.05 128.8 -141.35 L128.8 -121.6 128.8 -65.35 128.8 -26.85 128.8 9.1 128.8 47.6 128.8 86.8 Q128.8 92.2 126.8 96.7 L126.8 96.75 Q124.95 100.7 121.65 104.0 L121.6 104.05 Q114.45 111.25 104.35 111.25 L81.45 111.25 52.8 111.25 26.0 111.25 -2.65 111.25 -44.5 111.25 -73.15 111.25 -104.4 111.25 Q-108.1 111.25 -111.3 110.3 L-111.9 110.1 Q-117.3 108.35 -121.65 104.0 -125.0 100.65 -126.75 96.7 L-126.75 96.75 -128.0 93.2 -128.25 92.0 Q-128.8 89.5 -128.8 86.8 L-128.8 38.15 -128.8 -0.35 -128.8 -36.35 -128.8 -74.85 -128.8 -131.1 -128.8 -141.35 Q-128.8 -151.4 -121.65 -158.65 -114.45 -165.75 -104.4 -165.75 L-103.0 -165.75 -61.15 -165.75 -32.5 -165.75 -5.7 -165.75 22.85 -165.75 64.0 -165.75 93.85 -165.75 M122.2 -153.3 L119.5 -156.5 119.5 -156.55 Q113.2 -162.75 104.35 -162.75 L-104.4 -162.75 Q-113.2 -162.75 -119.5 -156.55 L-119.55 -156.5 Q-125.8 -150.15 -125.8 -141.35 L-125.8 86.8 Q-125.8 89.2 -125.3 91.4 -124.9 93.55 -124.0 95.5 -122.5 98.95 -119.55 101.9 -115.5 105.9 -110.45 107.4 -107.6 108.25 -104.4 108.25 L104.35 108.25 Q113.2 108.25 119.5 101.9 122.45 99.0 124.05 95.5 125.8 91.5 125.8 86.8 L125.8 -141.35 Q125.8 -148.05 122.2 -153.3" fill="#99ff00" fill-rule="evenodd" stroke="none"/>
    <path d="M141.45 -178.5 Q148.0 -171.45 148.0 -161.65 L148.0 -147.5 128.8 -121.6 128.8 -141.35 Q128.8 -149.05 124.65 -155.0 L124.35 -155.4 141.45 -178.5 M148.0 -91.15 L148.0 -52.65 128.8 -26.85 128.8 -65.35 148.0 -91.15 M148.0 -16.65 L148.0 21.85 128.8 47.6 128.8 9.1 148.0 -16.65 M148.0 77.4 L148.0 107.15 Q148.0 111.6 146.65 115.5 L146.7 115.5 Q144.8 120.6 140.65 124.8 L137.85 127.3 137.9 127.25 Q132.3 131.5 125.25 132.05 L123.0 132.15 107.4 132.15 148.0 77.4 M65.9 132.15 L37.25 132.15 52.8 111.25 81.45 111.25 65.9 132.15 M10.5 132.15 L-18.15 132.15 -2.65 111.25 26.0 111.25 10.5 132.15 M-60.05 132.15 L-88.9 132.15 -73.15 111.25 -44.5 111.25 -60.05 132.15 M-129.0 131.5 L-129.8 131.3 Q-135.85 129.55 -140.6 124.8 -144.15 121.25 -146.0 117.0 L-146.4 116.0 -128.0 93.2 -126.75 96.75 -126.75 96.7 Q-125.0 100.65 -121.65 104.0 -117.3 108.35 -111.9 110.1 L-129.0 131.5 M-147.95 63.85 L-147.95 25.35 -128.8 -0.35 -128.8 38.15 -147.95 63.85 M-147.95 -10.6 L-147.95 -49.1 -128.8 -74.85 -128.8 -36.35 -147.95 -10.6 M-147.95 -105.4 L-147.95 -143.85 -116.1 -186.65 -87.5 -186.65 -103.0 -165.75 -104.4 -165.75 Q-114.45 -165.75 -121.65 -158.65 -128.8 -151.4 -128.8 -141.35 L-128.8 -131.1 -147.95 -105.4 M-45.6 -186.65 L-16.95 -186.65 -32.5 -165.75 -61.15 -165.75 -45.6 -186.65 M9.8 -186.65 L37.55 -186.65 22.85 -165.75 -5.7 -165.75 9.8 -186.65 M79.5 -186.65 L109.4 -186.65 93.85 -165.75 64.0 -165.75 79.5 -186.65" fill="#ffffff" fill-rule="evenodd" stroke="none"/>
    <path d="M122.2 -153.3 Q125.8 -148.05 125.8 -141.35 L125.8 86.8 Q125.8 91.5 124.05 95.5 122.45 99.0 119.5 101.9 113.2 108.25 104.35 108.25 L-104.4 108.25 Q-107.6 108.25 -110.45 107.4 -115.5 105.9 -119.55 101.9 -122.5 98.95 -124.0 95.5 -124.9 93.55 -125.3 91.4 -125.8 89.2 -125.8 86.8 L-125.8 -141.35 Q-125.8 -150.15 -119.55 -156.5 L-119.5 -156.55 Q-113.2 -162.75 -104.4 -162.75 L104.35 -162.75 Q113.2 -162.75 119.5 -156.55 L119.5 -156.5 122.2 -153.3" fill="#99cc66" fill-rule="evenodd" stroke="none"/>
  </g>
  <defs>
    <linearGradient gradientTransform="matrix(-0.3836, 0.1899, -0.4422, -0.8933, 75.3, 343.5)" gradientUnits="userSpaceOnUse" id="gradient0" spreadMethod="pad" x1="-819.2" x2="819.2">
      <stop offset="0.0" stop-color="#ff6600"/>
      <stop offset="1.0" stop-color="#ffffff" stop-opacity="0.0"/>
    </linearGradient>
    <linearGradient gradientTransform="matrix(-0.4003, -0.0801, 0.196, -0.98, -162.4, -93.9)" gradientUnits="userSpaceOnUse" id="gradient1" spreadMethod="pad" x1="-819.2" x2="819.2">
      <stop offset="0.0" stop-color="#ff6600"/>
      <stop offset="1.0" stop-color="#ffffff" stop-opacity="0.0"/>
    </linearGradient>
    <linearGradient gradientTransform="matrix(-0.2045, 0.2259, -0.74, -0.6701, 89.3, -10.45)" gradientUnits="userSpaceOnUse" id="gradient2" spreadMethod="pad" x1="-819.2" x2="819.2">
      <stop offset="0.0" stop-color="#ff6600"/>
      <stop offset="1.0" stop-color="#ffffff" stop-opacity="0.0"/>
    </linearGradient>
  </defs>
</svg>
