<?xml version="1.0" encoding="UTF-8" standalone="no"?>
<svg xmlns:ffdec="https://www.free-decompiler.com/flash" xmlns:xlink="http://www.w3.org/1999/xlink" ffdec:objectType="shape" height="500.0px" width="700.0px" xmlns="http://www.w3.org/2000/svg">
  <g transform="matrix(1.0, 0.0, 0.0, 1.0, 350.0, 250.0)">
    <path d="M350.0 250.0 L-350.0 250.0 -350.0 -250.0 350.0 -250.0 350.0 250.0" fill="#ffcc66" fill-opacity="0.3019608" fill-rule="evenodd" stroke="none"/>
    <path d="M143.5 -181.9 L144.1 -181.3 144.1 -181.25 Q152.0 -172.95 152.0 -161.4 L152.0 107.4 Q152.0 112.55 150.45 117.05 L150.45 117.1 Q148.3 123.05 143.5 127.9 L140.35 130.65 140.3 130.7 Q133.8 135.65 125.55 136.3 L123.0 136.4 -122.95 136.4 -125.55 136.3 -130.85 135.4 -130.9 135.4 Q-137.95 133.4 -143.45 127.9 -147.55 123.8 -149.65 118.85 L-149.7 118.85 Q-151.95 113.6 -151.95 107.4 L-151.95 -161.4 Q-151.95 -173.35 -143.45 -181.9 -134.9 -190.4 -122.95 -190.4 L123.0 -190.4 Q135.0 -190.4 143.5 -181.9 M141.45 -178.25 L141.25 -178.45 141.2 -178.5 140.65 -179.05 Q133.3 -186.4 123.0 -186.4 L109.4 -186.4 79.5 -186.4 37.55 -186.4 9.8 -186.4 -16.95 -186.4 -45.6 -186.4 -87.5 -186.4 -116.1 -186.4 -122.95 -186.4 Q-133.25 -186.4 -140.6 -179.1 L-140.65 -179.05 Q-147.95 -171.7 -147.95 -161.4 L-147.95 -143.6 -147.95 -105.15 -147.95 -48.85 -147.95 -10.35 -147.95 25.6 -147.95 64.1 -147.95 107.4 Q-147.95 112.15 -146.4 116.25 L-146.0 117.25 Q-144.15 121.5 -140.6 125.05 -135.85 129.8 -129.8 131.55 L-129.0 131.75 -125.25 132.3 -125.2 132.3 -122.95 132.4 -88.9 132.4 -60.05 132.4 -18.15 132.4 10.5 132.4 37.25 132.4 65.9 132.4 107.4 132.4 123.0 132.4 125.25 132.3 Q132.3 131.75 137.9 127.5 L137.85 127.55 140.65 125.05 Q144.8 120.85 146.7 115.75 L146.65 115.75 Q148.0 111.85 148.0 107.4 L148.0 77.65 148.0 22.1 148.0 -16.4 148.0 -52.4 148.0 -90.9 148.0 -147.25 148.0 -161.4 Q148.0 -171.2 141.45 -178.25" fill="#ff0000" fill-rule="evenodd" stroke="none"/>
    <path d="M109.4 -186.4 L123.0 -186.4 Q133.3 -186.4 140.65 -179.05 L141.2 -178.5 141.25 -178.45 141.45 -178.25 124.35 -155.15 121.65 -158.4 121.6 -158.4 Q114.45 -165.5 104.35 -165.5 L93.85 -165.5 109.4 -186.4 M148.0 -147.25 L148.0 -90.9 128.8 -65.1 128.8 -121.35 148.0 -147.25 M148.0 -52.4 L148.0 -16.4 128.8 9.35 128.8 -26.6 148.0 -52.4 M148.0 22.1 L148.0 77.65 107.4 132.4 65.9 132.4 81.45 111.5 104.35 111.5 Q114.45 111.5 121.6 104.3 L121.65 104.25 Q124.95 100.95 126.8 97.0 L126.8 96.95 Q128.8 92.45 128.8 87.05 L128.8 47.85 148.0 22.1 M37.25 132.4 L10.5 132.4 26.0 111.5 52.8 111.5 37.25 132.4 M-18.15 132.4 L-60.05 132.4 -44.5 111.5 -2.65 111.5 -18.15 132.4 M-88.9 132.4 L-122.95 132.4 -125.2 132.3 -125.25 132.3 -129.0 131.75 -111.9 110.35 -111.3 110.55 Q-108.1 111.5 -104.4 111.5 L-73.15 111.5 -88.9 132.4 M-146.4 116.25 Q-147.95 112.15 -147.95 107.4 L-147.95 64.1 -128.8 38.4 -128.8 87.05 Q-128.8 89.75 -128.25 92.25 L-128.0 93.45 -146.4 116.25 M-147.95 25.6 L-147.95 -10.35 -128.8 -36.1 -128.8 -0.1 -147.95 25.6 M-147.95 -48.85 L-147.95 -105.15 -128.8 -130.85 -128.8 -74.6 -147.95 -48.85 M-147.95 -143.6 L-147.95 -161.4 Q-147.95 -171.7 -140.65 -179.05 L-140.6 -179.1 Q-133.25 -186.4 -122.95 -186.4 L-116.1 -186.4 -147.95 -143.6 M-87.5 -186.4 L-45.6 -186.4 -61.15 -165.5 -103.0 -165.5 -87.5 -186.4 M-16.95 -186.4 L9.8 -186.4 -5.7 -165.5 -32.5 -165.5 -16.95 -186.4 M37.55 -186.4 L79.5 -186.4 64.0 -165.5 22.85 -165.5 37.55 -186.4" fill="#ff6600" fill-opacity="0.6" fill-rule="evenodd" stroke="none"/>
    <path d="M93.85 -165.5 L104.35 -165.5 Q114.45 -165.5 121.6 -158.4 L121.65 -158.4 124.35 -155.15 124.65 -154.75 Q128.8 -148.8 128.8 -141.1 L128.8 -121.35 128.8 -65.1 128.8 -26.6 128.8 9.35 128.8 47.85 128.8 87.05 Q128.8 92.45 126.8 96.95 L126.8 97.0 Q124.95 100.95 121.65 104.25 L121.6 104.3 Q114.45 111.5 104.35 111.5 L81.45 111.5 52.8 111.5 26.0 111.5 -2.65 111.5 -44.5 111.5 -73.15 111.5 -104.4 111.5 Q-108.1 111.5 -111.3 110.55 L-111.9 110.35 Q-117.3 108.6 -121.65 104.25 -125.0 100.9 -126.75 96.95 L-126.75 97.0 -128.0 93.45 -128.25 92.25 Q-128.8 89.75 -128.8 87.05 L-128.8 38.4 -128.8 -0.1 -128.8 -36.1 -128.8 -74.6 -128.8 -130.85 -128.8 -141.1 Q-128.8 -151.15 -121.65 -158.4 -114.45 -165.5 -104.4 -165.5 L-103.0 -165.5 -61.15 -165.5 -32.5 -165.5 -5.7 -165.5 22.85 -165.5 64.0 -165.5 93.85 -165.5 M119.5 -156.3 Q113.2 -162.5 104.35 -162.5 L-104.4 -162.5 Q-113.2 -162.5 -119.5 -156.3 L-119.55 -156.25 Q-125.8 -149.9 -125.8 -141.1 L-125.8 87.05 Q-125.8 89.45 -125.3 91.65 -124.9 93.8 -124.0 95.75 -122.5 99.2 -119.55 102.15 -115.5 106.15 -110.45 107.65 -107.6 108.5 -104.4 108.5 L104.35 108.5 Q113.2 108.5 119.5 102.15 122.45 99.25 124.05 95.75 125.8 91.75 125.8 87.05 L125.8 -141.1 Q125.8 -147.8 122.2 -153.05 L119.5 -156.25 119.5 -156.3" fill="#ff6600" fill-rule="evenodd" stroke="none"/>
    <path d="M141.45 -178.25 Q148.0 -171.2 148.0 -161.4 L148.0 -147.25 128.8 -121.35 128.8 -141.1 Q128.8 -148.8 124.65 -154.75 L124.35 -155.15 141.45 -178.25 M148.0 -90.9 L148.0 -52.4 128.8 -26.6 128.8 -65.1 148.0 -90.9 M148.0 -16.4 L148.0 22.1 128.8 47.85 128.8 9.35 148.0 -16.4 M148.0 77.65 L148.0 107.4 Q148.0 111.85 146.65 115.75 L146.7 115.75 Q144.8 120.85 140.65 125.05 L137.85 127.55 137.9 127.5 Q132.3 131.75 125.25 132.3 L123.0 132.4 107.4 132.4 148.0 77.65 M65.9 132.4 L37.25 132.4 52.8 111.5 81.45 111.5 65.9 132.4 M10.5 132.4 L-18.15 132.4 -2.65 111.5 26.0 111.5 10.5 132.4 M-60.05 132.4 L-88.9 132.4 -73.15 111.5 -44.5 111.5 -60.05 132.4 M-129.0 131.75 L-129.8 131.55 Q-135.85 129.8 -140.6 125.05 -144.15 121.5 -146.0 117.25 L-146.4 116.25 -128.0 93.45 -126.75 97.0 -126.75 96.95 Q-125.0 100.9 -121.65 104.25 -117.3 108.6 -111.9 110.35 L-129.0 131.75 M-147.95 64.1 L-147.95 25.6 -128.8 -0.1 -128.8 38.4 -147.95 64.1 M-147.95 -10.35 L-147.95 -48.85 -128.8 -74.6 -128.8 -36.1 -147.95 -10.35 M-147.95 -105.15 L-147.95 -143.6 -116.1 -186.4 -87.5 -186.4 -103.0 -165.5 -104.4 -165.5 Q-114.45 -165.5 -121.65 -158.4 -128.8 -151.15 -128.8 -141.1 L-128.8 -130.85 -147.95 -105.15 M-45.6 -186.4 L-16.95 -186.4 -32.5 -165.5 -61.15 -165.5 -45.6 -186.4 M9.8 -186.4 L37.55 -186.4 22.85 -165.5 -5.7 -165.5 9.8 -186.4 M79.5 -186.4 L109.4 -186.4 93.85 -165.5 64.0 -165.5 79.5 -186.4" fill="#ffffff" fill-rule="evenodd" stroke="none"/>
    <path d="M119.5 -156.3 L119.5 -156.25 122.2 -153.05 Q125.8 -147.8 125.8 -141.1 L125.8 87.05 Q125.8 91.75 124.05 95.75 122.45 99.25 119.5 102.15 113.2 108.5 104.35 108.5 L-104.4 108.5 Q-107.6 108.5 -110.45 107.65 -115.5 106.15 -119.55 102.15 -122.5 99.2 -124.0 95.75 -124.9 93.8 -125.3 91.65 -125.8 89.45 -125.8 87.05 L-125.8 -141.1 Q-125.8 -149.9 -119.55 -156.25 L-119.5 -156.3 Q-113.2 -162.5 -104.4 -162.5 L104.35 -162.5 Q113.2 -162.5 119.5 -156.3" fill="#ffcc00" fill-rule="evenodd" stroke="none"/>
  </g>
</svg>
