<?xml version="1.0" encoding="UTF-8" standalone="no"?>
<svg xmlns:ffdec="https://www.free-decompiler.com/flash" xmlns:xlink="http://www.w3.org/1999/xlink" ffdec:objectType="shape" height="48.0px" width="16.3px" xmlns="http://www.w3.org/2000/svg">
  <g transform="matrix(1.0, 0.0, 0.0, 1.0, 8.15, 24.0)">
    <path d="M3.4 -15.95 Q2.45 -15.0 1.25 -14.7 L1.4 -14.4 2.15 -14.2 2.85 -13.4 5.2 -5.15 5.25 -4.9 5.45 -4.75 7.75 -2.45 Q8.15 -2.0 8.15 -1.45 8.15 -0.85 7.75 -0.45 7.3 -0.05 6.75 -0.05 6.15 -0.05 5.75 -0.45 L3.45 -2.75 Q3.05 -3.15 3.05 -3.6 2.6 -3.9 2.45 -4.35 L1.5 -7.75 1.5 -6.3 1.45 -5.85 1.5 -5.4 1.45 3.35 1.8 3.5 Q2.25 3.85 2.35 4.45 L3.95 14.25 3.95 14.6 4.15 15.2 4.75 21.2 5.5 21.6 Q5.9 22.05 5.9 22.6 5.9 23.2 5.5 23.6 5.1 24.0 4.5 24.0 L3.7 24.0 Q3.1 24.0 2.7 23.6 L2.55 23.5 2.55 23.45 Q2.1 23.1 2.05 22.5 L1.35 15.5 1.35 15.2 1.15 14.7 0.5 10.65 0.5 14.75 0.5 14.9 0.55 15.5 -0.05 21.2 Q0.5 21.2 0.9 21.6 1.3 22.05 1.3 22.6 1.3 23.2 0.9 23.6 0.5 24.0 -0.1 24.0 L-0.9 24.0 -1.7 23.8 Q-2.3 23.7 -2.65 23.25 -3.05 22.8 -2.95 22.25 L-2.25 15.2 -2.35 14.75 -2.35 4.65 Q-2.35 4.1 -1.9 3.7 L-1.4 3.3 -1.35 -5.45 -1.25 -5.85 -1.3 -6.25 -1.35 -8.4 -2.45 -4.45 Q-2.6 -3.95 -3.0 -3.7 -3.05 -3.2 -3.4 -2.85 L-5.75 -0.5 Q-6.15 -0.1 -6.75 -0.1 -7.3 -0.1 -7.7 -0.5 -8.15 -0.95 -8.15 -1.5 -8.15 -2.1 -7.7 -2.5 L-5.4 -4.8 -5.2 -5.0 -5.15 -5.2 -2.8 -13.45 -2.15 -14.3 -1.25 -14.45 -1.1 -14.75 -1.4 -14.8 -2.1 -15.1 -3.25 -15.95 Q-4.6 -17.35 -4.6 -19.3 -4.6 -21.25 -3.25 -22.6 L-2.85 -23.0 Q-1.6 -24.0 0.05 -24.0 1.75 -24.0 3.0 -23.0 L3.4 -22.6 Q4.75 -21.25 4.75 -19.3 4.75 -17.35 3.4 -15.95" fill="#000000" fill-rule="evenodd" stroke="none"/>
  </g>
</svg>
