<?xml version="1.0" encoding="UTF-8" standalone="no"?>
<svg xmlns:ffdec="https://www.free-decompiler.com/flash" xmlns:xlink="http://www.w3.org/1999/xlink" ffdec:objectType="shape" height="48.0px" width="22.0px" xmlns="http://www.w3.org/2000/svg">
  <g transform="matrix(1.0, 0.0, 0.0, 1.0, 11.0, 24.0)">
    <path d="M0.55 -15.95 Q-0.4 -15.0 -1.6 -14.7 L-1.45 -14.4 -1.35 -14.4 Q-0.8 -14.4 -0.35 -14.0 L4.75 -8.8 4.95 -8.55 9.95 -7.3 Q10.5 -7.2 10.8 -6.7 L10.95 -5.6 Q10.85 -5.05 10.35 -4.75 L9.3 -4.6 4.3 -5.8 Q3.7 -5.9 3.4 -6.4 L3.4 -6.45 Q3.0 -6.55 2.7 -6.85 L-1.35 -10.95 -1.35 -6.3 -1.4 -5.85 -1.35 -5.4 -1.4 3.35 -1.3 3.4 Q-0.8 3.6 -0.6 4.15 L2.7 12.75 2.8 13.25 2.9 13.35 Q3.25 13.85 3.2 14.4 L2.4 21.3 2.95 21.6 Q3.35 22.05 3.35 22.6 3.35 23.2 2.95 23.6 2.5 24.0 1.9 24.0 L1.1 24.0 Q0.5 24.0 0.1 23.6 L0.0 23.5 -0.25 23.25 Q-0.6 22.8 -0.55 22.2 L0.35 14.25 0.05 13.75 -2.35 7.4 -2.35 14.75 -2.35 14.9 Q-2.25 15.15 -2.3 15.5 L-2.9 21.2 Q-2.35 21.2 -1.95 21.6 -1.55 22.05 -1.55 22.6 -1.55 23.2 -1.95 23.6 -2.35 24.0 -2.95 24.0 L-3.75 24.0 -4.55 23.8 -5.5 23.25 Q-5.9 22.8 -5.8 22.25 L-5.1 15.2 -5.2 14.75 -5.2 4.65 Q-5.2 4.1 -4.75 3.7 L-4.25 3.3 -4.2 -5.45 -4.1 -5.85 -4.15 -6.25 -4.2 -8.4 -5.3 -4.45 Q-5.45 -3.95 -5.85 -3.7 -5.9 -3.2 -6.25 -2.85 L-8.55 -0.5 Q-9.0 -0.1 -9.55 -0.1 -10.15 -0.1 -10.55 -0.5 L-11.0 -1.5 -10.55 -2.5 -8.25 -4.8 -8.05 -5.0 -8.0 -5.2 -5.65 -13.45 -5.0 -14.3 -4.1 -14.45 -3.95 -14.75 -4.25 -14.8 -4.95 -15.1 Q-5.55 -15.45 -6.1 -15.95 -7.45 -17.35 -7.45 -19.3 -7.45 -21.25 -6.1 -22.6 L-5.7 -23.0 Q-4.45 -24.0 -2.8 -24.0 -1.1 -24.0 0.15 -23.0 L0.55 -22.6 Q1.9 -21.25 1.9 -19.3 1.9 -17.35 0.55 -15.95" fill="#000000" fill-rule="evenodd" stroke="none"/>
  </g>
</svg>
