<?xml version="1.0" encoding="UTF-8" standalone="no"?>
<svg xmlns:ffdec="https://www.free-decompiler.com/flash" xmlns:xlink="http://www.w3.org/1999/xlink" ffdec:objectType="shape" height="48.0px" width="21.65px" xmlns="http://www.w3.org/2000/svg">
  <g transform="matrix(1.0, 0.0, 0.0, 1.0, 10.85, 24.0)">
    <path d="M10.6 -19.35 L10.75 -18.25 Q10.6 -17.7 10.1 -17.4 L4.95 -14.25 3.9 -14.1 3.8 -14.15 Q3.6 -13.85 3.25 -13.75 L-3.65 -11.65 -4.05 -11.55 -4.05 -6.3 -4.1 -5.85 -4.05 -5.4 -4.1 3.35 -4.0 3.4 Q-3.5 3.6 -3.25 4.15 L0.0 12.75 0.1 13.25 0.2 13.35 Q0.55 13.85 0.5 14.4 L-0.3 21.3 0.25 21.6 Q0.65 22.05 0.65 22.6 0.65 23.2 0.25 23.6 -0.2 24.0 -0.75 24.0 L-1.6 24.0 Q-2.15 24.0 -2.6 23.6 L-2.7 23.5 -2.95 23.25 Q-3.3 22.8 -3.25 22.2 L-2.35 14.25 -2.6 13.75 -5.05 7.4 -5.05 14.75 -5.05 14.9 Q-4.95 15.15 -5.0 15.5 L-5.6 21.2 Q-5.05 21.2 -4.65 21.6 -4.25 22.05 -4.25 22.6 -4.25 23.2 -4.65 23.6 -5.05 24.0 -5.65 24.0 L-6.45 24.0 -7.25 23.8 Q-7.85 23.7 -8.2 23.25 -8.6 22.8 -8.5 22.25 L-7.8 15.2 -7.9 14.75 -7.9 4.65 Q-7.9 4.1 -7.45 3.7 L-6.95 3.3 -6.9 -5.45 -6.8 -5.85 -6.85 -6.25 -6.9 -8.4 -8.0 -4.45 -8.05 -4.35 -8.05 -4.25 -8.05 0.8 Q-8.05 1.35 -8.45 1.8 -8.85 2.2 -9.45 2.2 -10.05 2.2 -10.45 1.8 -10.85 1.35 -10.85 0.8 L-10.85 -4.25 -10.8 -4.75 -10.7 -5.2 -8.35 -13.45 -7.7 -14.3 -6.8 -14.45 -6.65 -14.75 -6.95 -14.8 -7.65 -15.1 -8.8 -15.95 Q-10.15 -17.35 -10.15 -19.3 -10.15 -21.25 -8.8 -22.6 L-8.4 -23.0 Q-7.15 -24.0 -5.5 -24.0 -3.8 -24.0 -2.55 -23.0 L-2.15 -22.6 Q-0.8 -21.25 -0.8 -19.3 -0.8 -17.35 -2.15 -15.95 -3.1 -15.0 -4.3 -14.7 L-4.15 -14.45 2.4 -16.45 3.25 -16.45 3.5 -16.7 8.65 -19.8 9.7 -20.0 10.6 -19.35" fill="#000000" fill-rule="evenodd" stroke="none"/>
  </g>
</svg>
