<?xml version="1.0" encoding="UTF-8" standalone="no"?>
<svg xmlns:ffdec="https://www.free-decompiler.com/flash" xmlns:xlink="http://www.w3.org/1999/xlink" ffdec:objectType="shape" height="17.0px" width="48.0px" xmlns="http://www.w3.org/2000/svg">
  <g transform="matrix(1.0, 0.0, 0.0, 1.0, 55.0, -8.5)">
    <path d="M-15.6 9.7 Q-15.3 9.2 -14.8 9.1 L-13.8 9.2 Q-13.35 9.45 -13.2 10.0 L-12.55 12.25 Q-12.4 12.75 -12.7 13.25 -12.95 13.7 -13.5 13.85 L-14.05 13.9 -24.75 20.05 -17.1 20.1 -16.8 20.15 -16.3 20.0 -9.9 19.7 -9.55 18.35 Q-9.4 17.8 -8.9 17.55 L-7.95 17.4 Q-7.45 17.55 -7.15 18.05 -6.9 18.5 -7.05 19.0 L-7.65 21.3 -8.1 22.0 -8.85 22.25 -16.2 22.6 -16.55 22.55 -17.1 22.7 -28.15 22.65 Q-28.65 22.65 -29.0 22.3 L-29.7 22.45 -37.9 22.4 -38.3 22.35 -38.7 22.4 -45.8 22.5 -46.5 22.3 -46.55 22.5 -46.8 23.15 -47.6 24.25 Q-48.85 25.5 -50.65 25.5 -52.45 25.5 -53.7 24.25 L-54.05 23.85 Q-55.0 22.75 -55.0 21.2 -55.0 19.65 -54.05 18.5 L-53.7 18.15 Q-52.45 16.9 -50.7 16.9 -48.9 16.85 -47.6 18.1 -46.75 19.0 -46.45 20.1 L-45.8 19.9 -45.05 19.9 -43.7 19.6 -37.3 14.3 -34.15 9.15 Q-33.85 8.65 -33.35 8.55 L-32.35 8.7 Q-31.9 9.0 -31.75 9.5 -31.65 10.05 -31.9 10.5 L-35.2 15.85 -35.5 16.15 -38.35 18.5 -35.9 18.05 -31.6 16.65 -30.65 16.7 Q-30.15 16.95 -30.0 17.45 -29.8 17.95 -30.05 18.45 -30.3 18.95 -30.8 19.1 L-33.1 19.85 -29.65 19.85 -29.5 19.85 -29.25 19.65 -15.45 11.7 -15.7 10.65 Q-15.85 10.15 -15.6 9.7" fill="#000000" fill-rule="evenodd" stroke="none"/>
  </g>
</svg>
