<?xml version="1.0" encoding="UTF-8" standalone="no"?>
<svg xmlns:ffdec="https://www.free-decompiler.com/flash" xmlns:xlink="http://www.w3.org/1999/xlink" ffdec:objectType="shape" height="48.0px" width="36.65px" xmlns="http://www.w3.org/2000/svg">
  <g transform="matrix(1.0, 0.0, 0.0, 1.0, 18.3, 24.0)">
    <path d="M12.05 -22.35 Q13.7 -20.75 13.7 -18.4 13.7 -16.1 12.05 -14.45 10.95 -13.35 9.5 -13.0 L9.85 -11.95 9.6 -11.0 10.55 -8.1 16.05 -10.3 17.35 -10.25 Q18.0 -10.0 18.25 -9.35 18.5 -8.7 18.25 -8.05 17.95 -7.4 17.3 -7.15 L11.05 -4.65 9.95 -4.6 8.7 -4.7 Q8.05 -5.0 7.85 -5.65 L6.7 -9.0 3.95 -5.75 3.45 -4.95 3.45 -4.8 1.9 4.2 6.3 10.05 6.5 10.35 6.6 10.4 Q7.05 10.9 7.05 11.6 L7.05 20.65 7.45 20.65 Q8.15 20.65 8.65 21.15 9.15 21.65 9.15 22.3 9.15 23.0 8.65 23.5 8.15 24.0 7.45 24.0 L5.4 24.0 Q4.7 24.0 4.2 23.5 3.7 23.0 3.7 22.3 L3.7 22.1 3.7 21.9 3.7 12.15 3.6 12.05 -0.35 6.8 -6.15 12.25 Q-6.65 12.75 -7.35 12.75 L-7.75 12.65 -8.9 12.85 -13.9 11.85 -15.8 12.95 -17.1 13.1 Q-17.8 12.9 -18.1 12.25 -18.45 11.65 -18.25 11.0 -18.05 10.35 -17.45 10.0 L-15.0 8.6 -13.85 8.45 -8.25 9.55 -8.15 9.55 -1.7 3.5 -1.3 2.95 0.0 -4.8 0.0 -4.9 Q-0.15 -5.55 0.2 -6.15 L1.2 -7.7 1.3 -7.85 2.95 -9.8 0.35 -9.5 -1.4 -6.8 Q-1.8 -6.25 -2.5 -6.1 -3.15 -5.95 -3.75 -6.35 -4.35 -6.7 -4.5 -7.4 L-4.25 -8.65 -2.0 -12.0 -1.45 -12.55 -0.8 -12.75 5.45 -13.45 4.15 -14.45 Q2.5 -16.1 2.5 -18.4 2.5 -20.75 4.15 -22.35 L4.7 -22.85 Q6.15 -24.0 8.1 -24.0 10.05 -24.0 11.55 -22.85 L12.05 -22.35" fill="#000000" fill-rule="evenodd" stroke="none"/>
  </g>
</svg>
