<?xml version="1.0" encoding="UTF-8" standalone="no"?>
<svg xmlns:ffdec="https://www.free-decompiler.com/flash" xmlns:xlink="http://www.w3.org/1999/xlink" ffdec:objectType="shape" height="48.0px" width="24.4px" xmlns="http://www.w3.org/2000/svg">
  <g transform="matrix(1.0, 0.0, 0.0, 1.0, 12.2, 24.0)">
    <path d="M10.55 -14.35 Q9.45 -13.25 8.0 -12.9 L8.05 -12.2 7.15 -5.15 9.65 0.4 Q9.9 1.0 9.65 1.7 9.4 2.35 8.75 2.6 L7.45 2.65 Q6.8 2.4 6.5 1.75 L4.0 -3.85 3.95 -3.95 2.35 4.5 3.85 10.75 3.95 11.15 3.95 11.25 Q4.1 11.95 3.75 12.55 L3.6 12.7 1.4 20.7 Q1.8 20.8 2.1 21.1 2.6 21.6 2.6 22.3 2.6 23.0 2.1 23.5 1.6 24.0 0.9 24.0 L-0.65 24.0 Q-1.35 24.0 -1.85 23.5 -2.35 23.0 -2.35 22.3 L-2.35 22.05 -2.3 21.3 0.5 11.3 -0.05 9.1 -2.4 13.65 Q-2.7 14.3 -3.35 14.5 L-4.65 14.4 -5.2 14.0 -6.1 13.5 -8.8 10.7 -9.35 11.2 Q-9.9 11.65 -10.6 11.65 -11.3 11.6 -11.75 11.05 -12.25 10.55 -12.2 9.85 -12.15 9.15 -11.65 8.7 L-10.4 7.55 -10.0 7.05 Q-9.5 6.5 -8.8 6.55 -8.1 6.55 -7.6 7.05 L-4.45 10.3 -1.2 3.8 -0.9 3.45 -0.15 -0.6 -0.8 -1.4 -3.2 -7.25 Q-3.5 -7.9 -3.2 -8.55 L-3.15 -8.7 Q-3.0 -9.4 -2.4 -9.75 L3.6 -13.5 2.55 -14.35 Q0.9 -16.0 0.9 -18.35 0.9 -20.7 2.55 -22.35 L2.6 -22.4 Q4.25 -24.0 6.55 -24.0 8.85 -24.0 10.45 -22.4 L10.55 -22.35 Q12.2 -20.7 12.2 -18.35 12.2 -16.0 10.55 -14.35 M0.35 -7.5 L0.95 -6.05 2.1 -8.6 0.35 -7.5" fill="#000000" fill-rule="evenodd" stroke="none"/>
  </g>
</svg>
