<?xml version="1.0" encoding="UTF-8" standalone="no"?>
<svg xmlns:ffdec="https://www.free-decompiler.com/flash" xmlns:xlink="http://www.w3.org/1999/xlink" ffdec:objectType="shape" height="48.0px" width="19.9px" xmlns="http://www.w3.org/2000/svg">
  <g transform="matrix(1.0, 0.0, 0.0, 1.0, 9.95, 24.0)">
    <path d="M8.25 -22.35 Q9.95 -20.7 9.95 -18.35 9.95 -15.95 8.25 -14.3 6.7 -12.7 4.45 -12.65 L4.4 -11.9 2.1 -3.75 2.85 -0.1 Q3.0 0.55 2.65 1.15 L1.55 1.9 Q0.85 2.05 0.3 1.65 L0.05 1.5 0.0 1.5 -0.4 3.35 -0.3 3.65 2.1 10.4 Q2.3 10.95 2.15 11.45 L1.5 12.35 0.5 12.7 0.45 12.7 -0.7 13.45 -3.45 20.7 -2.8 21.1 Q-2.3 21.6 -2.3 22.3 -2.3 23.0 -2.8 23.5 -3.35 24.0 -4.05 24.0 L-5.6 24.0 Q-6.3 24.0 -6.8 23.5 L-7.25 22.6 -7.25 22.55 Q-7.55 21.9 -7.3 21.25 L-7.0 20.45 -7.5 20.4 Q-8.2 20.15 -8.5 19.55 L-9.2 18.15 -9.35 17.85 -9.65 17.45 Q-10.05 16.85 -9.95 16.15 -9.8 15.45 -9.2 15.1 L-4.05 11.6 -4.05 4.45 -4.0 4.3 -4.0 3.7 -2.8 -1.45 -3.7 -5.5 Q-3.85 -6.15 -3.5 -6.75 L-3.3 -7.0 -3.25 -7.1 0.55 -13.9 0.6 -13.95 0.25 -14.3 Q-1.4 -15.95 -1.4 -18.35 -1.4 -20.7 0.25 -22.35 1.9 -24.0 4.25 -24.0 6.6 -24.0 8.25 -22.35 M-5.8 17.3 L-5.6 16.8 -5.95 17.0 -5.8 17.3" fill="#000000" fill-rule="evenodd" stroke="none"/>
  </g>
</svg>
